<?xml version="1.0" encoding="UTF-8"?>
<svg id="_Слой_2" data-name="Слой_2" xmlns="http://www.w3.org/2000/svg" viewBox="0 0 285.62 328.11">
  <defs>
    <style>
      .cls-1 {
        fill: #2b335a;
      }

      .cls-2 {
        opacity: .7;
      }
    </style>
  </defs>
  <g id="_Слой_1-2" data-name="Слой_1">
    <g class="cls-2">
      <path class="cls-1" d="M285.62,177.19c-.2,1.88-.32,3.77-.6,5.63-1.1,7.29-1.93,14.64-3.45,21.85-1.97,9.36-4.84,18.48-8.44,27.37-4.29,10.61-9.3,20.85-15.69,30.37-5.18,7.71-10.62,15.24-17.26,21.8-4.42,4.37-8.8,8.79-13.47,12.87-7.26,6.35-15.34,11.58-23.89,16.03-8.95,4.66-18.31,8.33-28.09,10.86-7.07,1.83-14.22,3.09-21.52,3.67-7.85.62-15.69.62-23.51-.11-7.13-.66-14.13-2.11-21.04-4.02-10.37-2.87-20.24-6.98-29.58-12.29-9.33-5.3-17.81-11.77-25.72-19.02-6.67-6.11-12.64-12.85-18.13-20.01-5.92-7.71-11.07-15.94-15.47-24.61-3.96-7.78-7.38-15.8-10.2-24.07-3.5-10.24-6.02-20.72-7.58-31.43-1.51-10.36-2.25-20.77-1.85-31.24.22-5.75.59-11.5,1.08-17.23.81-9.39,2.8-18.56,5.16-27.68,2.59-10,6.13-19.66,10.46-29.01,4.47-9.66,9.75-18.89,16.19-27.41,3.33-4.4,6.61-8.87,10.34-12.91,4.46-4.83,9.32-9.3,14.12-13.81,5.94-5.59,12.6-10.25,19.54-14.52,7.89-4.86,16.24-8.8,25.03-11.7,4.66-1.54,9.39-2.98,14.19-3.93,5.66-1.12,11.42-2.04,17.18-2.38,6.75-.39,13.57-.41,20.32.03,10.7.69,21.16,2.96,31.21,6.69,5.56,2.06,10.95,4.59,16.31,7.14,9.03,4.28,17.1,10.06,24.84,16.32,6.83,5.52,13.27,11.48,18.79,18.28,4.76,5.86,9.24,12,13.35,18.34,3.67,5.67,6.76,11.73,9.92,17.71,1.83,3.46,3.51,7.03,4.89,10.68,2.94,7.76,5.65,15.61,7.42,23.74,1.13,5.19,2.33,10.37,3.12,15.62.82,5.49,1.18,11.06,1.75,16.59.04.4.18.79.28,1.19v24.57ZM283.68,163.57s.04,0,.06,0c0-1.53.02-3.07,0-4.6-.03-2.32.01-4.66-.17-6.97-.25-3.18-.65-6.35-1.02-9.51-.41-3.4-.74-6.81-1.33-10.18-.61-3.5-1.42-6.97-2.29-10.41-1.34-5.32-2.71-10.63-4.26-15.89-.9-3.05-2.1-6.02-3.29-8.98-1.6-3.98-3.2-7.98-5.04-11.86-1.56-3.27-3.46-6.39-5.24-9.56-1.49-2.66-2.89-5.37-4.56-7.91-2.63-4-5.33-7.97-8.21-11.79-2.59-3.43-5.31-6.78-8.26-9.9-3.6-3.8-7.5-7.32-11.3-10.94-.8-.76-1.7-1.42-2.58-2.1-2.92-2.27-5.76-4.65-8.78-6.77-3.4-2.38-6.92-4.61-10.47-6.75-3.19-1.93-6.39-3.92-9.79-5.4-5.36-2.33-10.86-4.37-16.38-6.32-3.43-1.21-6.96-2.18-10.5-2.98-3.42-.78-6.91-1.3-10.39-1.78-3.44-.47-6.9-.91-10.36-1.07-3.94-.19-7.9-.11-11.86-.04-3.06.06-6.12.2-9.17.5-2.61.25-5.2.74-7.79,1.18-2.23.38-4.48.7-6.65,1.29-3.51.94-6.98,2.03-10.44,3.16-2.76.9-5.6,1.7-8.19,2.96-6.06,2.95-12.13,5.9-17.94,9.31-6.01,3.52-11.69,7.59-16.88,12.31-2.21,2.02-4.77,3.67-6.85,5.81-3.97,4.07-7.76,8.32-11.53,12.58-4.58,5.17-8.62,10.75-12.33,16.59-4.83,7.61-9.23,15.45-12.8,23.71-2.58,5.97-4.69,12.14-6.85,18.28-1.16,3.31-2.08,6.73-2.9,10.14-.88,3.65-1.56,7.34-2.22,11.03-.68,3.83-1.37,7.66-1.81,11.52-.47,4.09-.78,8.21-.93,12.32-.22,6.22-.38,12.44-.28,18.66.06,3.78.58,7.57.99,11.34.42,3.82.68,7.7,1.5,11.44,1.63,7.42,3.42,14.82,5.47,22.14,2.27,8.07,5.32,15.88,9.07,23.4,2.05,4.1,4.03,8.24,6.3,12.22,2.23,3.9,4.78,7.61,7.21,11.4,3.67,5.71,8.01,10.91,12.55,15.92,3.36,3.71,6.92,7.25,10.58,10.68,2.94,2.75,6.03,5.37,9.26,7.77,3.6,2.68,7.36,5.16,11.18,7.51,3.59,2.21,7.29,4.25,11.04,6.16,5.79,2.95,11.8,5.43,18.07,7.16,5,1.38,9.99,2.83,15.07,3.84,3.98.79,8.09.95,12.15,1.41,6.72.76,13.45.62,20.16-.04,5.06-.5,10.1-1.28,15.11-2.12,3.14-.53,6.31-1.15,9.32-2.15,6.19-2.06,12.48-3.88,18.29-6.97,3.6-1.91,7.35-3.56,10.86-5.61,3.96-2.31,7.85-4.77,11.54-7.47,4.44-3.25,8.85-6.61,12.9-10.33,6.44-5.91,12.39-12.31,17.54-19.41,3.24-4.46,6.64-8.83,9.5-13.53,3.3-5.42,6.28-11.05,9.02-16.78,2.52-5.25,4.54-10.74,6.75-16.14.63-1.53,1.21-3.09,1.69-4.67.58-1.9,1.04-3.84,1.55-5.76.97-3.67,2.17-7.29,2.87-11.01,1.15-6.1,2.07-12.25,2.9-18.4.55-4.08.87-8.2,1.1-12.31.17-3.11.03-6.23.03-9.34Z"/>
      <path class="cls-1" d="M241.68,155.56c0,3.76.17,7.53-.04,11.28-.32,5.74-.7,11.48-1.42,17.18-.63,4.96-1.6,9.89-2.73,14.77-.8,3.46-2,6.85-3.2,10.21-1.51,4.23-3.05,8.46-4.84,12.57-1.52,3.48-3.32,6.84-5.19,10.15-1.85,3.27-3.81,6.49-5.95,9.57-5.16,7.41-10.92,14.32-17.83,20.17-6.07,5.13-12.45,9.81-19.6,13.4-4.87,2.45-9.87,4.47-15.07,6.02-6.09,1.82-12.34,2.99-18.68,3.32-5.65.3-11.33.27-16.92-.94-3.48-.75-6.93-1.65-10.41-2.41-5.15-1.13-9.89-3.3-14.59-5.62-9.14-4.5-17.08-10.57-24.34-17.65-4.28-4.17-8.14-8.68-11.63-13.49-3.7-5.1-7.13-10.39-9.85-16.11-1.63-3.42-3.56-6.72-4.98-10.23-1.68-4.16-3.04-8.47-4.37-12.76-1.01-3.27-1.88-6.61-2.57-9.96-.77-3.76-1.34-7.56-1.87-11.37-.47-3.4-.91-6.81-1.1-10.23-.19-3.43-.09-6.88-.07-10.32.02-2.93-.06-5.87.21-8.78.44-4.69.95-9.38,1.76-14.02.95-5.43,1.91-10.9,3.51-16.16,1.89-6.24,4.26-12.35,6.8-18.36,1.89-4.47,4.23-8.77,6.64-12.99,1.73-3.04,3.82-5.9,5.91-8.72,2.31-3.11,4.65-6.23,7.27-9.08,3.27-3.56,6.68-7.01,10.32-10.18,3.11-2.71,6.61-4.98,9.96-7.41,5.2-3.77,11-6.44,16.95-8.69,4.46-1.68,9.17-2.77,13.83-3.85,2.5-.58,5.13-.65,7.71-.87,3.31-.29,6.64-.76,9.95-.67,4.01.11,8.08.38,11.98,1.22,5.13,1.1,10.26,2.47,15.14,4.37,5,1.94,9.86,4.39,14.48,7.12,3.95,2.34,7.67,5.16,11.13,8.18,4.43,3.87,8.66,8.02,12.68,12.32,2.54,2.71,4.58,5.89,6.79,8.91,1.52,2.08,3.07,4.17,4.38,6.39,2.2,3.74,4.46,7.46,6.24,11.4,2.59,5.75,5,11.61,7.06,17.58,1.47,4.27,2.47,8.74,3.29,13.19,1.13,6.13,1.92,12.32,2.8,18.48.14,1,.02,2.04.02,3.07h.47ZM239.53,163.04c.08,0,.17,0,.25-.01-.25-4.3-.34-8.62-.78-12.9-.46-4.45-1.2-8.87-1.92-13.29-.48-2.91-.94-5.85-1.77-8.67-1.55-5.26-3.18-10.5-5.11-15.62-1.62-4.3-3.51-8.53-5.67-12.59-2.24-4.22-4.84-8.26-7.47-12.25-1.92-2.92-4.05-5.72-6.27-8.43-1.81-2.22-3.81-4.32-5.86-6.33-3.13-3.07-6.21-6.23-9.62-8.96-3.18-2.55-6.74-4.64-10.18-6.87-4.47-2.89-9.28-5.13-14.26-6.93-3.49-1.25-7.1-2.26-10.73-3.07-3.56-.79-7.18-1.46-10.81-1.7-6.34-.42-12.7-.42-18.99.75-3.48.64-6.98,1.29-10.35,2.34-4.03,1.27-7.97,2.88-11.86,4.53-2.62,1.11-5.15,2.45-7.61,3.89-2.05,1.19-3.97,2.61-5.88,4.02-2.63,1.94-5.33,3.8-7.75,5.99-3.1,2.8-6.09,5.76-8.86,8.88-2.88,3.23-5.51,6.68-8.13,10.14-1.63,2.15-3.15,4.42-4.49,6.76-1.99,3.47-3.91,7-5.6,10.62-1.96,4.2-3.85,8.45-5.41,12.81-2.31,6.46-4.24,13.05-5.39,19.83-.65,3.81-1.53,7.61-1.9,11.45-.52,5.49-.87,11.01-.92,16.52-.05,5.36-.11,10.75.8,16.08.54,3.14.69,6.36,1.34,9.47,1.01,4.83,2.3,9.6,3.47,14.4,1.63,6.7,4.32,13.01,7.3,19.2,1.31,2.73,2.63,5.46,4.09,8.11,1.02,1.85,2.39,3.5,3.41,5.35,2.97,5.36,6.61,10.28,10.73,14.73,4.8,5.17,9.7,10.28,15.61,14.34,5.65,3.88,11.36,7.54,17.74,10.07,3.55,1.41,7.14,2.78,10.8,3.87,3.12.93,6.34,1.77,9.57,2.07,5.08.46,10.2.41,15.31.61,3.73.15,7.36-.53,10.98-1.27,2.61-.53,5.2-1.23,7.74-2.02,3.46-1.08,6.99-2.06,10.26-3.58,4.29-2,8.48-4.29,12.47-6.82,3.88-2.46,7.7-5.12,11.12-8.18,4.03-3.61,7.72-7.62,11.33-11.67,2.5-2.81,4.81-5.85,6.85-9.02,2.62-4.05,5.03-8.25,7.26-12.53,2.38-4.57,4.8-9.18,6.55-14.01,2.14-5.87,3.75-11.96,5.3-18.02,1.07-4.18,1.79-8.47,2.42-12.75.5-3.38.71-6.82.87-10.23.14-3.02.03-6.05.03-9.07Z"/>
      <path class="cls-1" d="M117.36,292.75c-1.77,1.77-3.37,3.36-4.94,4.97-4.09,4.18-8.2,8.35-12.24,12.58-.75.78-1.35,1.05-2.41.63-3.45-1.38-3.51-1.34-3.45-5.04.12-6.77.31-13.55.47-20.32,0-.17-.04-.35-.11-.93-.62.42-1.15.64-1.47,1.02-2.11,2.57-4.15,5.2-6.25,7.78-2.13,2.62-4.3,5.2-6.54,7.91-1.12-.88-2.3-1.53-3.06-2.51-.48-.62-.55-1.75-.44-2.6.63-4.78,1.38-9.55,2.07-14.32.08-.53.01-1.07-.3-1.82-1.04,1.13-2.14,2.21-3.1,3.4-1.89,2.35-3.71,4.75-5.53,7.14-.75.99-1.51,1.29-2.5.31-.62-.62-1.29-1.18-2.08-1.9.87-1.06,1.72-2.08,2.55-3.1,3.65-4.5,7.31-9,10.96-13.5.12-.14.25-.27.37-.42,1.64-2.2,1.55-2.08,3.67-.43,1.54,1.2,1.67,2.43,1.34,4.22-.8,4.47-1.34,8.99-1.96,13.49-.07.48.07.99.13,1.79.69-.52,1.23-.79,1.58-1.22,2.25-2.77,4.46-5.57,6.69-8.36.29-.36.58-.72.9-1.06.56-.58,1.13-.74,1.8-.11.88.83,2.05,1.28,2.37,2.75.12.56,1.36,1.02,2.17,1.25,1.32.38,1.85,1.13,1.7,2.45-.02.18,0,.37-.01.56q-.19,3.91,3.4,5.33c1.33.53,2.66,1.1,3.98,1.67,1.01.43,1.85.38,2.59-.57.66-.84,1.38-1.65,2.2-2.32.43-.35,1.23-.62,1.72-.47,1.17.37,2.25,1.02,3.74,1.74ZM99.5,295.61c-.93,3.04-.45,5.83-.39,8.67,2.59-1.5,4.36-3.69,6.27-6.18-2.02-.86-3.86-1.64-5.87-2.49Z"/>
      <path class="cls-1" d="M168.49,317.12c-1.6.23-2.83.45-4.07.55-.35.03-.83-.2-1.07-.47-2.46-2.77-4.86-5.58-7.32-8.34-1.36-1.52-2.81-2.97-4.21-4.45-.18.07-.36.14-.55.21.77,4.85,1.54,9.69,2.32,14.63-.75.17-1.41.35-2.08.48-2.2.4-2.31.3-2.68-1.91-1.12-6.62-2.25-13.24-3.38-19.86-.3-1.76-.04-2.1,1.77-2.32.74-.09,1.49-.33,2.2-.22.6.09,1.29.45,1.7.9,3.22,3.65,6.37,7.36,9.57,11.03.34.39.81.66,1.57,1.27-.08-1.36-.06-2.27-.21-3.15-.58-3.46-1.21-6.92-1.84-10.38-.15-.84-.08-1.48.95-1.59.23-.02.46-.09.68-.14,3.42-.8,2.92-.64,3.35,2.48.63,4.59,1.42,9.15,2.13,13.73.39,2.5.77,5,1.16,7.56Z"/>
      <path class="cls-1" d="M261.17,232.33c-.39,1.21-.76,2.35-1.13,3.49-.28.9-.88.61-1.46.4-3.74-1.36-7.48-2.73-11.23-4.09-3.01-1.09-6.02-2.18-9.04-3.24-1.8-.63-1.75-.75-1.28-2.58.58-2.25,1.95-3.16,4.15-3.5,4.12-.64,8.22-1.47,12.32-2.25.72-.14,1.41-.41,2.45-.71-.61-.42-.93-.75-1.31-.89-3.88-1.39-7.77-2.76-11.65-4.13-.91-.32-1.39-.73-.93-1.86,1.17-2.9,1.11-2.89,4.01-1.84,6.28,2.26,12.56,4.52,18.86,6.71,1.18.41,1.31.76.99,2.06-.62,2.51-2.09,3.36-4.46,3.71-4.5.67-8.95,1.59-13.42,2.45-.44.08-.83.44-1.24.67.37.3.7.72,1.12.87,4.4,1.59,8.81,3.14,13.26,4.71Z"/>
      <path class="cls-1" d="M39.13,103.91c-1.79-.72-3.57-1.46-5.37-2.16-2.46-.95-4.94-1.87-7.4-2.81-.82-.31-1.1-.78-.79-1.73.91-2.82.9-2.91,3.58-1.91,4.65,1.73,9.25,3.57,13.88,5.35,1.81.7,3.63,1.39,5.46,2.02.8.28,1.02.68.68,1.46-.39.89-.62,1.86-1.1,2.69-.28.49-.87,1-1.4,1.1-4.68.89-9.39,1.68-14.08,2.54-.8.15-1.58.46-2.36.7-.03.15-.07.3-.1.45,4.61,1.86,9.22,3.72,14.03,5.66-.48,1.1-.94,2.34-1.57,3.49-.12.22-.93.28-1.31.13-6.18-2.4-12.34-4.86-18.5-7.29-.6-.24-1.22-.47-1.85-.61-1.3-.29-1.36-1.05-.87-2.07.24-.5.52-.99.68-1.51.34-1.06,1.07-1.6,2.11-1.77,4.48-.76,8.96-1.5,13.44-2.29.96-.17,1.89-.53,2.84-.8,0-.22,0-.44,0-.67Z"/>
      <path class="cls-1" d="M177.06,15.68c1.21.29,2.34.49,3.42.84.91.29.71,1.07.52,1.76-.83,2.93-1.71,5.85-2.5,8.8-1.08,4.06-2.11,8.13-3.11,12.21-.2.84-.56,1.1-1.35.89-.62-.16-1.24-.43-1.88-.46-2.3-.12-2.46-1.89-2.9-3.53-1.21-4.5-2.46-8.98-3.73-13.46-.1-.36-.51-.64-.78-.96-.15.02-.3.03-.45.05-1.27,4.83-2.55,9.66-3.86,14.63-1.09-.25-2.16-.47-3.22-.74-.76-.19-1.08-.67-.85-1.46.65-2.21,1.34-4.41,1.95-6.62.61-2.23,1.16-4.47,1.73-6.71.69-2.68,1.35-5.37,2.13-8.03.12-.39.86-.9,1.26-.86.95.09,1.92.37,2.78.8.54.27,1.11.89,1.28,1.46,1.12,3.81,2.11,7.66,3.2,11.48.45,1.58,1.08,3.1,1.73,4.96,1.5-1.54,1.26-3.42,1.88-4.95.64-1.56.84-3.3,1.28-4.95.44-1.68.94-3.35,1.45-5.15Z"/>
      <path class="cls-1" d="M250.52,98.16c-1.28.41-2.59.74-3.82,1.25-2.97,1.23-5.9,2.58-8.88,3.78-.37.15-1.22-.14-1.44-.48-.57-.92-.92-1.98-1.32-2.92,7.64-3.23,15.15-6.41,22.61-9.57.46,1.12.74,2.05,1.21,2.88.61,1.07.26,1.86-.4,2.74-2.83,3.76-5.64,7.54-8.39,11.36-.49.67-.68,1.56-.81,2.68,2.96-1.23,5.92-2.44,8.87-3.68,1.35-.57,2.68-1.21,4.02-1.8.16-.07.37-.13.54-.1,1.64.26,1.27,1.96,1.99,2.9.16.2-.22,1.02-.56,1.34-.45.43-1.09.7-1.68.94-3.64,1.46-7.29,2.88-10.93,4.36-2.43.99-4.83,2.07-7.25,3.1-1.46.62-1.75.21-2.55-1.09-1.32-2.15-.52-3.55.84-5.3,2.72-3.48,5.17-7.18,7.7-10.8.24-.35.32-.82.47-1.23-.08-.12-.16-.23-.24-.35Z"/>
      <path class="cls-1" d="M255.55,245.47c-1.84,3.08-3.43,6.02-5.29,8.78-3.38,5.03-5.66,5.8-11.44,4.58-4.26-.9-7.71-3.38-10.09-7.11-2.27-3.56-1.27-7.06.49-10.41,1.27-2.42,2.81-4.69,4.17-7.06.58-1.01,1.23-1.08,2.16-.52,2.36,1.44,4.73,2.87,7.13,4.25,2.04,1.17,4.15,2.23,6.18,3.41,2.22,1.29,4.4,2.67,6.69,4.07ZM231.91,247.16c-.12.94.5,2.19,1.66,3.29,2.14,2.03,4.76,3.22,7.51,3.97,1.13.31,2.64.03,3.72-.51,2.27-1.14,3.02-3.62,4.16-5.69.15-.28-.27-1.17-.65-1.4-3.92-2.36-7.86-4.68-11.86-6.89-.48-.27-1.74-.11-1.92.22-1.05,2.02-2.47,3.93-2.63,7.01Z"/>
      <path class="cls-1" d="M139.84,296.36c-1.31,8.09-2.58,15.89-3.86,23.79-1.5-.17-2.88-.27-4.23-.5-2.47-.42-4.92-.95-7.39-1.37-3.45-.59-6.72-4.26-7.04-8.3-.24-3.12,0-6.12,1.22-8.96,1.72-4.02,5.57-7.62,10.73-6.33,1.69.42,3.47.52,5.2.79,1.68.26,3.37.55,5.37.88ZM122.03,308.3c.09.02.17.04.26.06,0,.37,0,.74,0,1.12.06,2.7,1.09,4.1,3.72,4.86,1.15.33,2.38.41,3.52.75,1.98.59,2.36.34,2.6-1.78.2-1.84.47-3.67.77-5.49.37-2.24.81-4.46,1.19-6.7.25-1.5-.04-1.85-1.49-2.03-.92-.11-1.84-.24-2.76-.37-3-.42-5.65.65-6.33,2.85-.68,2.19-1,4.49-1.49,6.75Z"/>
      <path class="cls-1" d="M128.22,22.79c-.34-4.07,1.14-7.35,4.12-10.08,1.74-1.6,3.8-2.24,6.03-2.48,2.58-.29,5.17.03,7.38,1.36,2.58,1.56,4.7,3.61,5.43,6.83.67,2.98.73,5.9-.02,8.84-.94,3.67-3.28,6.04-6.8,7.41-3.38,1.32-6.74.91-9.84-.39-2.49-1.04-4.52-3.12-5.46-5.79-.63-1.8-.79-3.76-1.17-5.64.11-.02.22-.03.33-.05ZM146.68,22.98c-.05-.97-.01-1.96-.16-2.92-.42-2.76-1.62-4.98-4.65-5.48-1.24-.2-2.54-.08-3.8,0-2.32.15-3.73,1.56-4.4,3.64-.89,2.75-.69,5.54-.09,8.34,1.11,5.23,7.63,5.92,10.76,3.24,2.15-1.83,2.36-4.28,2.34-6.83Z"/>
      <path class="cls-1" d="M187.34,300.58c-2.05.83-3.9,1.56-5.74,2.31-1.29.52-2.63.94-3.84,1.6-1.1.6-1.55.18-2.06-.74-1.05-1.94-.92-2.32,1.1-3.13,2.84-1.13,5.64-2.33,8.47-3.49.81-.33.85-.92.56-1.59-.6-1.4-1.26-2.77-1.86-4.18-.38-.88-1.03-.67-1.63-.43-2.32.93-4.64,1.88-6.94,2.86-1.19.5-2.35,1.07-3.53,1.62-.71.33-1.27.19-1.6-.56-.26-.6-.45-1.22-.71-1.81-.4-.91.04-1.39.83-1.72,4.87-2.03,9.75-4.05,14.62-6.09,1.39-.58,1.65-.45,2.26.98,1.67,3.93,3.38,7.83,5.05,11.75,1.2,2.81,2.34,5.64,3.53,8.45.32.76.02,1.13-.64,1.4-4.9,1.98-9.8,3.93-14.68,5.95-1.17.48-1.68.09-2.1-.97-.97-2.48-.97-2.37,1.5-3.3,2.99-1.11,5.92-2.41,8.88-3.6.78-.31.95-.78.65-1.52-.42-1.03-.78-2.09-1.27-3.08-.16-.33-.63-.51-.88-.7Z"/>
      <path class="cls-1" d="M273.09,145.57c.16,1.6.33,2.98.42,4.35.26,3.92.45,7.85.73,11.77.17,2.43.12,2.54-2.29,2.59-.55.01-1.1,0-1.79,0-.15-2.62-.33-5.15-.44-7.69-.06-1.39,0-2.79-.04-4.18-.02-.99-.45-1.57-1.56-1.46-1.01.1-2.03.14-3.05.19-.89.05-1.27.32-1.19,1.38.26,3.18.37,6.38.53,9.58.02.5,0,1,0,1.48-.25.1-.37.19-.49.2-3.55.36-3.54.36-3.68-3.18-.1-2.6-.28-5.19-.35-7.79-.03-.98-.47-1.36-1.37-1.3-1.43.09-2.86.25-4.29.33-1.18.07-1.47.72-1.38,1.77.29,3.18.53,6.36.82,9.54.24,2.63-.77,3.5-3.31,2.68-.41-.13-.86-.87-.9-1.35-.35-5.05-.61-10.1-.9-15.15-.1-1.8.11-2.07,1.95-2.26,1.15-.11,2.32-.06,3.48-.13,4.39-.26,8.78-.52,13.17-.82,1.92-.13,3.84-.35,5.9-.54Z"/>
      <path class="cls-1" d="M224.78,281.27c2.38-2.77,4.47-5.19,6.56-7.61.33-.39.69-.75,1.02-1.14.77-.91.86-1.68-.15-2.59-3.2-2.89-2.73-2.68-5.28.23-1.56,1.78-3,3.65-4.47,5.5-.99,1.26-1.23,1.31-2.41.28q-2.05-1.8-.24-3.82c1.77-1.96,3.57-3.9,5.36-5.85.75-.81.92-1.56-.07-2.34-1.02-.8-2.04-1.62-2.99-2.5-1-.91-1.74-.54-2.46.33-2.29,2.79-4.58,5.58-6.87,8.37-.53.65-.99.8-1.72.15-2.39-2.12-2.3-2.1-.12-4.48,3.12-3.42,6.08-7,9.05-10.56.7-.84,1.14-1.08,2.09-.26,4.38,3.8,8.81,7.53,13.24,11.27,1.1.93,2.25,1.79,3.36,2.7,1.21.98,1.16,1.22.12,2.41-3.16,3.64-6.3,7.29-9.4,10.97-1.24,1.47-1.5,1.52-2.96.22-.48-.43-1.03-.79-1.67-1.28Z"/>
      <path class="cls-1" d="M52.31,230.7c.26.28.57.54.76.86,2.73,4.79,5.43,9.6,8.17,14.38.49.86.02,1.14-.6,1.49-3.39,1.92-6.76,3.86-10.14,5.79-3.01,1.73-6.04,3.43-9.03,5.21-.8.48-1.28.36-1.71-.39-2.64-4.63-5.29-9.25-7.89-13.9-.17-.31-.04-1.08.23-1.3.66-.56,1.45-1.05,2.27-1.32.29-.1.99.41,1.21.8,1.38,2.41,2.67,4.88,4.01,7.32,2.22,4.03,1.69,3.31,5.01,1.46,1.74-.97,1.75-1.17.72-2.9-1.47-2.46-2.93-4.93-4.37-7.4-.85-1.45-.56-1.9,1.57-3.06,1.33-.73,1.68.19,2.17,1.08,1.45,2.69,2.92,5.37,4.43,8.03.49.87,1.17,1.06,2.09.43,1.02-.71,2.11-1.36,3.22-1.93.92-.47,1.09-1.02.6-1.9-1.53-2.7-3.04-5.41-4.56-8.12-.23-.4-.43-.82-.65-1.23-.9-1.69-.88-1.76.85-2.61.5-.24.99-.5,1.64-.83Z"/>
      <path class="cls-1" d="M19.86,186.39c.2.95.29,1.69.51,2.39.47,1.52.27,2.73-1.34,3.45-.25.11-.46.45-.57.74-.85,2.26-.52,4.4.95,6.26.37.47,1.34.85,1.88.71.62-.16,1.41-.89,1.54-1.49.44-2.03.58-4.11.9-6.17.34-2.17.46-4.35,2.24-6.1,3.81-3.75,9.83-2.56,11.96,2.36,1.33,3.08,1.41,6.24,1.08,9.43-.11,1.06-.75,2.28-1.54,3.02-1.12,1.05-2.59,1.73-3.94,2.52-.24.14-.84.14-.88.04-.45-1.15-.95-2.32-1.17-3.53-.07-.39.51-1.12.97-1.34,3.36-1.67,3.1-6.08,1.38-8.52-.74-1.06-1.84-1.37-3.06-1.25-1.15.11-1.69.92-1.91,1.94-.21.99-.31,2-.47,3-.35,2.23-.48,4.53-1.11,6.68-.69,2.35-2.52,3.73-5,4.06-3.04.4-5.26-.98-6.76-3.46-1.83-3.03-1.81-6.44-1.15-9.74.55-2.77,2.88-4.01,5.49-4.98Z"/>
      <path class="cls-1" d="M21.27,122.31c-.31,1.51-.6,2.91-.9,4.3-.48,2.31-.93,4.63-1.47,6.93-.36,1.51-.24,1.94,1.28,2.29,1.08.25,2.21.35,3.31.32.35,0,.92-.59,1-.98.64-3.13,1.21-6.29,1.76-9.44.17-.96.6-1.44,1.6-1.23.9.19,1.79.42,2.78.65-.53,2.3-1.1,4.59-1.59,6.89-.31,1.45-.55,2.92-.73,4.39-.04.3.25.86.48.92,1.61.41,3.25.74,4.88,1.07.94.19,1.35-.3,1.51-1.17.67-3.55,1.41-7.08,2.01-10.64.22-1.31.79-1.59,1.98-1.32,2.29.52,2.34.49,1.91,2.78-.94,4.92-1.91,9.83-2.88,14.74-.2,1-.95,1.24-1.8,1.07-4-.81-7.98-1.68-11.98-2.5-3.13-.64-6.27-1.26-9.41-1.86-.83-.16-1.23-.41-1.02-1.38.62-2.9,1.13-5.81,1.7-8.72.42-2.14.85-4.27,1.3-6.4.23-1.12.8-1.6,2-1.14.63.24,1.34.26,2.27.42Z"/>
      <path class="cls-1" d="M183.11,35.78c1.15.39,2.05.74,2.96,1,.81.23,1.18.63.97,1.51-1.16,4.78,3.32,7.24,7.29,6.52,1.61-.29,2.31-2.97,1.07-4.34-1.12-1.24-2.4-2.34-3.54-3.56-1.1-1.18-2.29-2.34-3.14-3.7-1.16-1.84-1.19-4.02-.18-5.85,1.06-1.92,2.7-3.29,5.22-3.34,3.82-.08,6.89,1.47,9.5,4.02,1.79,1.75,2.4,4.03,2.06,6.52-.21,1.5-.66,1.69-2.02,1.02-.54-.27-1.14-.4-1.65-.71-.82-.5-1.41-1.13-1.22-2.26.48-2.85-4.18-5.37-6.83-4.33-.81.32-1.11,2.07-.4,3.11.7,1.03,1.59,1.92,2.43,2.85,1.36,1.52,2.83,2.94,4.09,4.53,2.45,3.1,1.23,6.49-1.4,8.81-2.47,2.17-5.19,2.13-8.05,1.13-2.77-.97-5.09-2.62-6.97-4.89-1.27-1.54-1.74-5.57-.78-7.3.17-.31.45-.56.61-.74Z"/>
      <path class="cls-1" d="M244.9,86.27c-.98.67-1.96,1.34-3.02,2.07-1.26-1.98-2.52-3.96-3.78-5.94-.69-1.09-1.34-2.21-2.06-3.29-.51-.76-1.22-.98-2.05-.48-1.27.76-2.56,1.48-3.78,2.31-1.07.73-.53,1.66-.02,2.42,2.11,3.19,4.26,6.35,6.51,9.69-.92.72-1.73,1.46-2.66,2-.23.13-1.02-.32-1.27-.7-1.07-1.56-2.03-3.19-3.03-4.79-1.81-2.89-3.56-5.81-5.46-8.64-.51-.77-.36-1.2.22-1.62,1.42-1.02,2.86-2.01,4.33-2.96,4.62-2.96,9.28-5.87,13.89-8.86,1.03-.67,1.57-.69,2.29.47,2.48,4,5.07,7.92,7.66,11.85,1.05,1.6.17,3.73-1.7,3.74-.51,0-1.15-.72-1.51-1.25-1.72-2.61-3.35-5.28-5.04-7.91-.88-1.37-1.54-1.41-3-.56-3.32,1.95-3.3,1.93-1.08,5.17,1.53,2.24,2.97,4.54,4.45,6.82.07.11.07.26.12.44Z"/>
      <path class="cls-1" d="M67.66,57.02c-2.43,2.61-4.68,5.07-6.98,7.48-1.2,1.26-1.24,1.93.02,3.13.74.7,1.47,1.42,2.24,2.1,1.12,1,1.98.97,2.97-.16,2.53-2.88,5.03-5.79,7.55-8.68.09-.1.22-.15.39-.26.25.2.51.38.74.59,1.87,1.74,1.8,1.68.14,3.61-2.28,2.66-4.44,5.43-6.66,8.15-.91,1.11-1.82,2.22-2.71,3.34-.5.62-.98.76-1.62.17-3.41-3.08-6.82-6.15-10.25-9.19-2.12-1.87-4.27-3.7-6.43-5.52-.81-.68-.9-1.21-.08-2.02,2.2-2.2,4.31-4.48,6.44-6.74,1.29-1.38,2.58-2.77,3.81-4.2.73-.85,1.31-1.25,2.18-.15.38.49.99.79,1.64,1.28-1.71,1.91-3.32,3.74-4.97,5.54-.91.99-1.89,1.92-2.82,2.89-.88.91-.87,1.75.04,2.66.33.33.69.62,1.04.93,1.99,1.84,2.67,1.77,4.33-.31,1.64-2.06,3.38-4.03,4.99-6.11.72-.93,1.41-.89,2.19-.26.61.49,1.14,1.07,1.83,1.74Z"/>
      <path class="cls-1" d="M201.28,273.9c1.18-.92,2.26-1.87,3.47-2.61.27-.16,1.16.33,1.5.74,2.14,2.62,4.17,5.32,6.29,7.96,2.23,2.78,4.53,5.52,6.77,8.29,1.72,2.13,1.21,2.08-.24,3.14-2.76,2.02-5.32,4.33-8.17,6.21-2.91,1.92-5.69,1.91-8.32-.24-3.28-2.67-4.42-6.21-2.56-9.17,1.26-2.01,3.25-3.66,5.17-5.13,1.83-1.39,2.07-1.88.57-3.67-1.5-1.8-2.95-3.64-4.47-5.52ZM207.65,294.17s.18-.03.32-.05c2.43-.4,3.96-2.28,5.79-3.64.23-.17.19-1.11-.06-1.47-.98-1.4-2.05-2.74-3.19-4.01-.25-.28-1.11-.41-1.35-.21-1.48,1.24-3.15,2.4-4.22,3.95-1.86,2.7.55,5.48,2.72,5.43Z"/>
      <path class="cls-1" d="M18.67,158.4c.39,1.48.79,2.72,1.01,3.99.07.39-.26,1.06-.61,1.26-2.83,1.65-3.64,3.45-2.94,6.77.43,2.03,2.9,3.9,5.5,3.99,1.99.07,4,.06,5.99-.07,2.73-.17,5.07-2.37,5.19-5.13.11-2.51-.63-4.87-3.83-5.69-1.09-.28-1.37-.78-1-1.92,1.08-3.31,1.08-3.43,4.23-2.02,2.13.96,3.64,2.57,4.19,5.02.5,2.2.87,4.34.39,6.6-.82,3.87-4.35,7.32-8.31,7.82-1.88.24-3.79.45-5.67.37-5.17-.22-9.76-3.04-10.75-8.34-.96-5.15-.31-8.18,3.85-11.32.76-.57,1.73-.86,2.76-1.35Z"/>
      <path class="cls-1" d="M59.1,278.4c-4.94-.14-9.32-4.08-10.42-9.04-.38-1.71-.08-3.22.26-4.78.41-1.92,1.35-2.22,2.95-1.14.23.16.46.32.7.46,1.25.73,1.65,1.45.76,2.94-1.22,2.03.72,5.76,3.19,6.71,2.13.82,4.11.58,5.9-.83,1.49-1.17,3-2.32,4.41-3.59,1.95-1.76,2.55-5.22,1.37-7.15-1.58-2.57-3.92-3.35-6.99-2.25-.9.32-1.42.04-1.82-.72-.07-.12-.14-.25-.17-.38-.29-1.09-.57-2.18-.85-3.27,1.66-.37,3.34-1.12,4.97-1.03,5.18.27,9.89,5.39,9.96,10.62.04,3.47-1.35,6.33-3.9,8.74-2.24,2.11-4.68,3.77-7.69,4.46-.85.2-1.75.19-2.62.27Z"/>
      <path class="cls-1" d="M46.56,71.65c-.4,1.39-.72,2.83-1.29,4.16-.13.29-1.17.26-1.79.26-3.68,0-6.5,3.68-5.23,7.15.48,1.32,1.46,2.63,2.57,3.5,1.55,1.21,3.37,2.14,5.18,2.95,2.69,1.19,5.47.34,7.18-1.98,1.44-1.94,1.22-4.38-.6-6.79-.03-.04-.07-.07-.09-.1-.57-.83.19-1.95,2.28-3.45.76-.55,1.17-.1,1.61.43,3.7,4.39,2.54,9.27-.45,13.1-3.26,4.16-8.75,5-13.3,2.76-3.1-1.53-5.74-3.46-7.48-6.4-1.81-3.04-1.98-6.29-.36-9.51.51-1.02,1.07-2.06,1.79-2.94,2.57-3.15,5.75-4.63,9.99-3.14Z"/>
      <path class="cls-1" d="M266.17,139.02c-.82-1.72-1.49-3.02-2.04-4.36-.09-.23.28-.76.56-1.01,3.08-2.69,2.09-6.15.23-8.44-.61-.75-1.95-1.24-2.97-1.26-2.01-.05-4.07.14-6.03.57-1.4.31-2.76,1.05-3.99,1.82-1.87,1.17-2.18,3.16-2,5.14.16,1.73.74,3.38,2.72,3.96,1.13.33,2.25.68,3.58,1.08,0,1.04.1,2.38-.06,3.68-.04.35-.86.83-1.34.85-2.05.09-3.68-.89-5.27-2.12-2.59-2-3.68-4.83-3.99-7.82-.19-1.78.22-3.96,1.17-5.44,2.1-3.3,5.09-5.73,9.2-6.27,1.42-.19,2.86-.18,4.27-.42,4.2-.71,9.51,4.19,10.23,8.03.5,2.68,1.25,5.31-.45,7.75-.99,1.42-2.31,2.61-3.82,4.28Z"/>
      <path class="cls-1" d="M204,54.02c-.22-4.2,2.26-7.07,5.15-9.63,1.33-1.18,2.83-2.43,4.47-2.94,3.41-1.06,6.94-.97,9.92,1.3,2.14,1.63,4.24,3.57,4.68,6.36.29,1.84-.14,3.82-.41,5.72-.14.97-.77,1.13-1.61.47-.72-.56-1.54-1-2.35-1.42-.66-.35-.86-.66-.45-1.41,1.8-3.3-1.31-6.61-3.68-7.06-2.91-.55-5.39.32-7.39,2.53-1.32,1.46-2.96,2.62-3.59,4.68-.68,2.23-.23,5.34,1.26,6.72,1.5,1.37,4.37,1.54,6.66.33.89-.47,1.34.07,1.71.65.49.78.93,1.61,1.23,2.48.1.28-.23.92-.53,1.09-7.79,4.39-15.85-3.58-15.09-9.86Z"/>
      <path class="cls-1" d="M121.87,29.32c.85,5.55-2.73,9.5-7.93,10.9-3.19.86-6.03.26-8.51-1.59-2.13-1.6-3.97-3.65-4.71-6.32-.54-1.94-1.02-3.94-1.18-5.94-.29-3.48,1.4-6.18,4.01-8.3,2.15-1.75,4.57-2.76,7.46-2.8,3.31-.05,5.44,1.67,7.45,4.14-1.16.84-2.27,1.63-3.49,2.51-.4-.31-.84-.56-1.17-.91-1.91-2.06-5.05-1.92-7.62-.27-1.48.95-2.46,4.11-1.81,6.15.65,2.05,1.29,4.12,2.09,6.12.95,2.38,3.6,3.81,5.94,3.36,3.16-.6,4.72-2.27,4.73-5.35,0-1.26.51-1.68,1.63-1.69,1.02,0,2.03,0,3.13,0Z"/>
      <path class="cls-1" d="M246.29,200.48c1.38.38,2.35.68,3.34.9,5.65,1.28,11.3,2.54,16.95,3.81,2.7.61,2.7.62,2.24,3.71-.23,1.55-.76,1.9-2.28,1.51-2.7-.68-5.38-1.4-8.09-2.02-4.19-.96-8.39-1.86-12.6-2.75-1.19-.25-1.93-.63-1.33-2.03.23-.54.13-1.25.42-1.74.34-.58.95-1,1.35-1.39Z"/>
      <path class="cls-1" d="M37.45,149.04c-.16,1.59-.32,3.13-.49,4.77-8.13-.86-16.2-1.7-24.47-2.57.16-1.58.32-3.08.49-4.81,8.19.87,16.3,1.74,24.47,2.61Z"/>
      <path class="cls-1" d="M217.54,72.01c1.71-1.3,3.29-2.48,4.85-3.67.99-.75,1.99-1.49,2.96-2.26,3.39-2.71,6.77-5.41,10.14-8.15.91-.74,1.55-.87,2.4.18,2.1,2.6,2.1,2.54-.65,4.41-1.79,1.22-3.42,2.66-5.14,3.99-3.32,2.57-6.62,5.15-9.97,7.68-1.7,1.29-1.76,1.25-3.22-.31-.5-.54-.88-1.19-1.37-1.87Z"/>
      <path class="cls-1" d="M254.55,189.24c.29-3.15.57-6.12.86-9.3,1.55.15,3,.28,4.69.44-.08,1.2-.15,2.37-.23,3.55-.09,1.29-.17,2.58-.26,3.87-.11,1.56-.33,1.73-1.89,1.61-1-.08-2-.11-3.17-.17Z"/>
      <path class="cls-1" d="M34.31,213.55c.26-.35.5-.72.79-1.04.11-.12.34-.12.52-.19,3.06-1.11,3.16-1.03,3.95,2.12.37,1.48.84,2.93,1.34,4.37.32.91.08,1.48-.8,1.71-3.08.83-3.5,1.84-4.26-1.96-.33-1.66-.99-3.26-1.54-5.01Z"/>
      <path class="cls-1" d="M90.54,43.79c-.45.39-.81.75-1.21,1.03-1.58,1.11-3.22,2.14-4.75,3.31-.77.59-1.32.59-1.9-.11-.41-.5-.89-1-1.12-1.58-.16-.4-.13-1.17.13-1.38,1.82-1.49,3.7-2.91,5.64-4.26.28-.2,1.14-.03,1.39.27.68.79,1.19,1.74,1.82,2.71Z"/>
      <path class="cls-1" d="M224.89,211.28c-3.25,3.09-6.26,6.48-9.8,9.17-3.91,2.98-8.42,4.94-13.58,4.75-2.73-.1-5.5.31-8.14-.7-3.14-1.2-6.36-2.25-8.97-4.54-2.46-2.16-5.06-4.16-7.48-6.36-.79-.72-1.18-1.87-1.76-2.83.1-.13.2-.25.29-.38,1.42,0,2.84-.01,4.27,0,.77.01,1.11-.2,1.21-1.09.21-1.9.63-3.78.97-5.67-.14-.11-.28-.21-.42-.32-.97.55-1.95,1.1-2.92,1.64-2.56,1.44-5.07,2.97-7.69,4.29-1.92.97-3.95,1.72-5.96,2.5-1.11.43-2.25.84-3.42,1.03-3.68.6-7.39,1.07-11.08,1.65-1.44.23-2.86.61-4.29.9-.2.04-.43-.05-.64-.09-.71-.13-1.42-.31-2.14-.39-4.39-.52-8.79-1.01-13.18-1.54-6.24-.75-11.95-3.09-17.43-5.99-2.71-1.43-5.24-3.22-7.86-4.84-.54-.34-1.09-.66-1.9-1.14,0,1.09-.07,1.95.02,2.79.11,1.05.45,2.09.51,3.14.05.86.37,1.13,1.18,1.12,1.76-.03,3.52,0,5.55,0-1.17,1.42-2.14,2.74-3.25,3.92-2.7,2.88-5.47,5.74-8.99,7.61-2.21,1.17-4.63,2.01-7.05,2.68-4.18,1.16-8.39.77-12.43-.66-5.79-2.06-10.87-5.3-14.96-9.96-.95-1.08-1.75-2.28-2.62-3.43l.31-.57c.98,0,1.96,0,2.95,0,.61,0,.98-.11,1.12-.88.57-3.32,1.24-6.63,1.88-9.94.84-4.35,1.63-8.7,2.53-13.04.8-3.88,1.75-7.73,2.55-11.61.76-3.7,1.4-7.43,2.12-11.14.62-3.21,1.3-6.42,1.94-9.63.82-4.12,1.59-8.24,2.43-12.35.6-2.97,1.31-5.93,1.91-8.9.36-1.81.58-3.64.92-5.46.23-1.26.6-2.5.83-3.77.59-3.17,1.09-6.37,1.74-9.53.24-1.17-.37-1.74-1.14-2.29-1.05-.74-2.1-1.46-3.19-2.13-1.44-.88-1.57-2.22-1.31-3.65.88-4.77,5.3-7.39,9.98-6.47,2.77.54,5.37,1.47,7.86,2.89,2.27,1.29,4.79.61,7.2.05,4.1-.95,7.84-2.85,11.71-4.42,4.31-1.75,8.63-3.57,13.09-4.81,2.27-.63,4.89-.22,7.32,0,1.23.11,1.57-.02,1.75-1.3.43-3.18,3.12-7.76,7.07-8.36,2.04-.31,5.93,1.37,7.29,3.47,1.09,1.69,1.89,3.51,1.74,5.58-.09,1.21.37,1.57,1.59,1.59,3.52.06,7.05.14,10.56.46,3.32.31,6.46,1.39,9.41,2.98,4.32,2.33,8.6,4.74,12.99,6.95,2.62,1.32,5.24,1.25,8.07-.06,3.16-1.46,6.63-2.4,10.19-2.31,3.45.09,6.13,2.86,4.5,7.07-.72,1.86-1.39,3.59-2.98,4.84-.22.17-.39.45-.64.53-1.89.62-2.31,1.91-1.98,3.76.56,3.13.96,6.29,1.44,9.44.45,3.01.91,6.03,1.37,9.04.61,3.97,1.25,7.94,1.83,11.92.37,2.57.62,5.15,1,7.71.47,3.2,1.03,6.38,1.53,9.57.16,1.05.24,2.11.4,3.16.41,2.73.86,5.45,1.26,8.18.59,4.02,1.17,8.05,1.74,12.07.37,2.56.72,5.12,1.09,7.67.5,3.37,1.02,6.74,1.51,10.12.19,1.33.46,2.67.41,3.99-.05,1.48.57,1.85,1.89,1.77,1.28-.07,2.56-.02,3.84-.02.11.18.22.36.33.53ZM164.59,153.08c-.74.35-1.65.54-2.17,1.09-1.48,1.6-3.16,2.87-5.18,3.66-2.12.83-4.19,1.93-6.58,1.79-.18-.01-.36.06-.54.11-1.01.25-2,.58-3.02.72-.82.12-1.82-.27-2.46.09-.67.38-1.1.47-1.31-.17-.08-.24.57-1,.98-1.09,2.29-.49,4.62-.79,6.92-1.26,4.3-.89,8.18-2.64,11.05-6.08,1.02-1.22,2.23-2.51,1.74-4.51h-2.68c.47-.87.66-1.62,1.14-2.02,2.01-1.67,2.95-3.44,1.71-6.11-.69-1.5-1.16-1.9-2.45-.84-1.22.99-2.37,2.08-3.63,3.03-.38.28-1.07.45-1.48.29-.28-.11-.49-.87-.44-1.31.12-1.05.4-2.08.65-3.11.52-2.15,1.11-4.28,1.57-6.43.11-.51-.17-1.1-.27-1.65-.54.14-1.28.11-1.57.46-.83.97-1.47,2.1-2.19,3.17-1.21,1.79-2.35,3.63-3.64,5.36-.73.97-1.36.8-1.82-.32-.14-.34-.27-.71-.3-1.07-.31-3.82-.59-7.65-.9-11.47-.08-1.06-.19-2.11-.34-3.16-.15-1.03-1.01-1.21-1.79-1.11-.33.04-.75.68-.83,1.11-.23,1.13-.33,2.28-.43,3.43-.09,1.06-.04,2.14-.17,3.2-.32,2.84-.67,5.67-1.09,8.5-.08.56-.53,1.07-.8,1.6-.45-.33-1.05-.56-1.32-1-1.52-2.48-2.93-5.02-4.44-7.5-.53-.87-1.26-1.61-1.9-2.42-.12.09-.25.17-.37.26,0,.32-.04.65,0,.96.47,3.58.92,7.16,1.45,10.73.1.67.38,1.41-.4,1.63-.49.14-1.25-.12-1.69-.46-1.78-1.4-3.49-2.89-5.22-4.35-3.84-3.26-7.66-6.54-11.51-9.78-.42-.35-1.02-.5-1.53-.75-.13.16-.26.32-.39.49.88,1.15,1.74,2.32,2.64,3.46,2.55,3.21,5.12,6.41,7.67,9.62,1.55,1.95,3.1,3.9,4.61,5.88.21.28.33.84.18,1.12-.12.23-.72.39-1.04.31-3.13-.75-6.22-1.65-9.37-2.28-1.22-.24-2.56-1.11-4.17.05,4.06,2.91,7.95,5.7,12.2,8.74-4.05,2.33-8.08.69-12.02,1.35.62.07,1.06.12,1.7.2-5.49.51-10.76,1-16.02,1.49-.03.21-.06.42-.09.62.55.23,1.08.59,1.65.66,1.84.23,3.69.34,5.53.52,2.11.21,4.23.44,6.34.68,2.61.3,5.21.62,7.82.92,1.15.13,2.31.14,3.43.37.41.08.98.61,1.02.98.04.36-.43.9-.82,1.15-1.95,1.3-4,2.46-5.92,3.81-1.42,1.01-3.28,1.58-4.05,3.67.6,0,1.1.08,1.56-.01,3.66-.7,7.32-1.45,10.99-2.14.37-.07.79.13,1.19.21-.13.41-.15.91-.41,1.22-1.59,1.91-3.24,3.78-4.85,5.67-3.14,3.69-6.29,7.38-9.4,11.1-.49.59-.8,1.33-1.19,2,.13.14.27.27.4.41.52-.28,1.09-.48,1.55-.84,2.1-1.66,4.17-3.37,6.26-5.04,3.35-2.67,6.71-5.34,10.09-7.98.54-.42,1.13-.81,1.75-1.07.83-.35,1.53.23,1.32,1.09-.58,2.47-1.29,4.91-1.8,7.39-.37,1.78-.5,3.6-.78,5.76.5-.36.69-.42.77-.56,2.28-3.33,4.54-6.67,6.83-9.99.31-.45.8-.78,1.21-1.16.33.45.86.86.96,1.36.25,1.21.33,2.47.45,3.71.29,2.99.54,5.99.87,8.98.33,2.98.74,5.95,1.15,8.91.09.61.36,1.19.55,1.79.18-.02.36-.04.54-.06.49-4.53,1.01-9.06,1.47-13.6.32-3.17.53-6.36.86-9.53.04-.42.47-.94.85-1.13.23-.11.8.26,1.1.54.43.41.76.92,1.11,1.4,1.95,2.7,3.88,5.41,5.86,8.08.29.4.83.61,1.38,1.01.06-.41.15-.59.11-.75-.67-2.78-1.36-5.55-2.03-8.32-.3-1.26-.66-2.51-.81-3.79-.05-.42.4-1.01.78-1.3.16-.13.82.21,1.13.48,1.71,1.48,3.35,3.05,5.08,4.52,3.1,2.63,6.24,5.2,9.37,7.79,1.55,1.28,3.11,2.55,4.73,3.87.82-.75.41-1.41-.06-1.97-1.57-1.89-3.19-3.73-4.76-5.61-1.33-1.59-2.62-3.21-3.93-4.82-2.11-2.61-4.23-5.23-6.33-7.86-.26-.33-.4-.76-.59-1.15.47-.22.98-.68,1.41-.62,1.92.26,3.82.64,5.71,1.03,2.02.42,4.03.92,6.05,1.33.54.11,1.12.02,2.05.02-.49-.67-.66-1.09-.97-1.29-2.14-1.36-4.32-2.66-6.47-4-1.44-.89-2.89-1.78-4.3-2.73-.3-.2-.67-.76-.58-.99.15-.37.6-.72,1-.85.46-.16,1.01-.08,1.52-.12,1.94-.14,3.89-.24,5.82-.43,5.02-.49,10.04-1.01,15.06-1.55.89-.1,1.76-.34,2.64-.51l-.05-.49c-.7-.1-1.4-.2-2.1-.29-3.9-.45-7.81-.9-11.71-1.34-3.63-.42-7.26-.81-10.88-1.26-.8-.1-1.59-.41-1.26-1.55,1.39-.77,2.83-1.48,4.17-2.34,2.13-1.36,4.23-2.77,6.28-4.25.44-.32.64-.99.95-1.49-.57-.2-1.35-.73-1.68-.53-1.29.78-2.66.96-4.09,1.13-.95.11-1.89.4-2.79.75-.43.17-.88.6-1.07,1.03-.52,1.18-.94,2.4-1.33,3.64-.21.68-.28,1.4-.41,2.1ZM97.79,169.61c.28,1.7.53,3,.71,4.31.43,3.05.81,6.11,1.24,9.16.51,3.66.97,7.33,1.59,10.97.23,1.36-.07,2.95,1.23,3.99,1.87,1.49,3.69,3.06,5.65,4.42,2.12,1.47,4.24,3.05,6.6,4.04,4.06,1.7,8.3,3,12.48,4.41,5.11,1.72,10.46,1.75,15.75,2.26,1.43.14,1.79-.47,1.61-1.77-.33-2.43-.6-4.86-.86-7.3-.33-3.03-.6-6.08-.93-9.11-.43-3.96-.89-7.91-1.34-11.86-.09-.76-.21-1.51-.35-2.53-.61.44-1.08.62-1.31.96-1.53,2.26-3.01,4.55-4.49,6.84-1.37,2.13-2.69,4.3-4.1,6.42-.23.35-.79.48-1.2.71-.22-.43-.47-.85-.64-1.3-.07-.2-.02-.47.03-.69,1-4.36,2.03-8.72,3.01-13.09.25-1.1.33-2.23.49-3.35-.13-.1-.26-.19-.38-.29-1.15.87-2.32,1.73-3.45,2.63-2.49,1.99-4.93,4.04-7.44,6-2.33,1.82-4.74,3.53-7.07,5.37-2.97,2.35-5.87,4.79-8.85,7.11-.33.26-1.05.02-1.58.01.1-.43.08-.98.34-1.28,1.25-1.49,2.62-2.87,3.85-4.37,3-3.62,5.91-7.32,8.94-10.93,2.46-2.93,5.05-5.76,7.53-8.68.54-.63.85-1.45,1.26-2.19-.11-.18-.22-.36-.33-.54-5.51,1.25-11.01,2.51-16.53,3.77-.46-1.66.73-2.27,1.63-2.88,3.65-2.49,7.37-4.88,11.04-7.34.41-.28.65-.81,1.13-1.43-1.2-.3-2.12-.64-3.07-.73-3.62-.35-7.25-.56-10.87-.93-3.81-.39-7.61-.9-11.41-1.37-.79-.1-1.24.13-1.18,1.04.09,1.56.02,3.13.21,4.68.28,2.21.74,4.4,1.12,6.59-.08.02-.17.05-.25.07.05-.48.1-.95.19-1.81ZM168.82,152.62c.04.16.07.32.11.47.75.16,1.5.38,2.26.46,6.5.67,13,1.31,19.5,1.98.75.08,1.09-.1,1.23-.88.65-3.51,1.35-7,2.05-10.5,1.55-7.72,3.11-15.43,4.67-23.15.36-1.77.7-3.54,1.03-5.31.17-.92-.18-1.4-1.19-1.38-5.72.11-11.16-1.35-16.56-3.04-4.93-1.55-9.9-2.98-14.85-4.48-2.46-.75-4.87-1.66-7.36-2.27-2.5-.61-3.4-.25-4,1.87-.44,1.57-1.37,2.67-3.2,2.79-1.5.11-2.99.4-4.6.63.13,2.15.24,4.32.41,6.48.09,1.14.25,2.28.47,3.41.08.4.34.87.67,1.11,1.94,1.38,3.91,2.71,5.88,4.04,1.32.89,2.23.68,3.1-.73.44-.7.75-1.5,1.27-2.13.6-.73,1.37-1.31,2.07-1.96.2.13.39.25.59.38-.24,1.24-.5,2.47-.71,3.72-.43,2.54-1.96,5.13.3,7.58.53.58,1.07,1.17,1.46,1.84.55.95,1.16.77,1.82.26,1.31-1.02,2.58-2.09,3.89-3.1,2.87-2.23,5.76-4.44,8.63-6.68,2.62-2.03,5.2-4.11,7.85-6.1.47-.35,1.18-.38,1.77-.56-.12.63-.03,1.42-.38,1.85-2.64,3.29-5.33,6.54-8.08,9.73-3.78,4.4-7.64,8.73-11.42,13.13-.46.54-.61,1.35-.9,2.04.11.13.21.26.32.39,5.52-.74,10.78-3.02,16.58-3.03-.3.86-.65,1.67-1.27,2.1-2.93,2.03-5.94,3.95-8.91,5.93-1.53,1.02-3.03,2.08-4.54,3.12ZM86.89,111.35c-.12,0-.24,0-.37,0-.1.28-.23.54-.28.83-.24,1.28-.42,2.56-.69,3.83-.74,3.47-1.55,6.92-2.26,10.4-.58,2.84-1.02,5.7-1.58,8.55-.39,1.99-.87,3.96-1.29,5.95-.59,2.8-1.17,5.6-1.73,8.4-.74,3.69-1.46,7.39-2.19,11.08-.51,2.57-1,5.15-1.51,7.72-.43,2.17-.86,4.34-1.29,6.5-.5,2.49-.97,4.98-1.49,7.47-.83,3.95-1.72,7.88-2.54,11.84-.38,1.85-.58,3.73-.96,5.58-.49,2.44-1.07,4.87-1.63,7.3-.24,1.05.06,1.61,1.24,1.54.74-.05,1.49,0,2.23,0,4.09.02,8.18.04,12.27.04.82,0,1.55-.07,1.58-1.24.06-2.08.31-4.15.38-6.23.27-8.66.52-17.33.75-26,.07-2.51.01-5.02.05-7.53.04-2.74.04-5.49.18-8.22.18-3.58.54-7.14.72-10.72.08-1.6-.14-3.21-.11-4.81.1-4.47.28-8.93.39-13.4.14-5.8.25-11.61.35-17.41,0-.49-.14-.98-.22-1.47ZM144.31,109.63c-.76-.05-1.22-.09-1.68-.11-3.26-.15-6.24-.89-8.25-3.78-.05-.07-.13-.14-.21-.18-.74-.31-1.46-.83-2.22-.87-.99-.05-2.02.2-2.99.47-2.66.73-5.29,1.58-7.96,2.3-4.3,1.16-8.59,2.35-12.93,3.36-3.59.84-7.2,1.7-10.95,1.56-2.14-.08-4.28-.05-6.41-.16-.8-.04-1.18.17-1.07.97.13,1,.34,1.99.47,2.99.3,2.32.56,4.66.87,6.98.37,2.69.82,5.36,1.15,8.05.13,1.07-.13,2.19.03,3.25.52,3.47,1.16,6.92,1.75,10.38.13.74.22,1.48.33,2.22.19.02.38.04.57.06.72-2.05,1.32-4.17,2.21-6.15.78-1.73,2.09-3.18,2.7-5.07.31-.95,1.3-1.75,2.11-2.46,2.69-2.38,5.41-4.73,8.19-7.01,1.15-.94,1.33-1.64.39-2.75-1.39-1.64-2.74-3.32-4.12-4.96-.51-.6-.63-1.24.05-1.65.28-.17,1,.09,1.33.37,1.88,1.56,3.66,3.24,5.58,4.75.51.4,1.46.61,2.06.43,1.67-.51,3.31-1.16,4.86-1.96,3.57-1.86,7.33-3.08,11.33-3.17,3.56-.08,7.12.26,10.68.48.78.05,1.38-.13,1.47-.88.27-2.42.44-4.86.66-7.43ZM150.85,180.4l-.49.17c-.15.8-.36,1.59-.45,2.39-.09.78-.02,1.58-.1,2.37-.5,4.74-1.03,9.47-1.53,14.2-.41,3.96-.82,7.92-1.17,11.88-.13,1.43.32,1.76,1.81,1.6,1.01-.11,2.02-.21,3.03-.33,1.47-.17,2.99-.19,4.4-.57,3.7-.98,7.43-1.93,11.03-3.24,5.61-2.04,10.76-4.94,14.99-9.27,1.28-1.31,1.13-2.51-.26-3.64-3.63-2.94-7.24-5.92-10.83-8.91-3.41-2.84-6.78-5.73-10.2-8.56-.53-.44-1.24-.65-2.16-1.1.09.82.09,1.27.2,1.7,1.21,4.93,2.45,9.85,3.64,14.78.09.37-.03.98-.29,1.17-.24.18-.81.01-1.19-.12-.23-.08-.41-.37-.57-.6-2.27-3.26-4.51-6.54-6.8-9.8-.99-1.41-2.05-2.77-3.07-4.15ZM217.27,210.72c-.34-2.58-.63-4.94-.98-7.29-.6-4.01-1.28-8.02-1.87-12.03-.37-2.52-.58-5.06-.95-7.57-.46-3.09-1.04-6.15-1.51-9.24-.47-3.06-.83-6.13-1.29-9.18-.59-3.91-1.24-7.82-1.83-11.73-.35-2.33-.59-4.68-.91-7.01-.5-3.65-.95-7.31-1.56-10.94-.43-2.55-1.08-5.07-1.63-7.6-.08,0-.15.02-.23.03-.21,3.41-.41,6.83-.62,10.24-.03,0-.06,0-.1,0v-2.6c-.22.77-.22,1.53-.21,2.3.01,3.99.03,7.98.03,11.98,0,1.95-.23,3.93.03,5.85.18,1.31,1.13,2.52-.31,3.67-.12.1-.03.45-.05.68-.11,2.31-.25,4.62-.32,6.93-.17,5.75-.32,11.5-.45,17.25-.06,2.65-.02,5.3-.09,7.94-.01.55-.45,1.09-.43,1.63.07,1.57.42,3.14.38,4.7-.11,3.61-.39,7.21-.61,10.81-.05.81.26,1.21,1.11,1.19.93-.03,1.86,0,2.79,0,3.76,0,7.52,0,11.6,0ZM185.86,194.83c.11.06.22.12.32.17.36-.32.77-.6,1.08-.96,1.73-2,3.13-4.21,3.95-6.75.34-1.06.99-1.51,2.27-1.01-.12.58-.11,1.22-.38,1.69-1.47,2.49-3,4.94-4.52,7.4-.6.96-1.48,1.76-1.29,3.12.04.31-.81,1.09-1.22,1.07-1.1-.05-1.59.51-1.77,1.37-.59,2.74-1.09,5.51-1.64,8.26-.15.77,0,1.25.94,1.25,5.16-.02,10.32-.01,15.47,0,.73,0,.97-.31.99-1,.11-3.56.28-7.12.38-10.68.14-4.92.24-9.83.35-14.75.17-7.83.3-15.67.51-23.5.03-1.13-.41-1.37-1.39-1.27-2.12.21-4.25.33-6.36.61-.36.05-.82.63-.92,1.04-.29,1.21-.38,2.46-.64,3.68-.7,3.24-1.49,6.45-2.18,9.69-1.05,4.95-2.05,9.91-3.03,14.88-.37,1.88-.61,3.79-.91,5.69ZM108.81,142.45c0-.23,0-.47,0-.7.73-.13,1.52-.5,2.19-.35,3.73.81,7.44,1.74,11.15,2.62.86.2,1.72.39,2.59.49.42.05.86-.14,1.3-.22-.13-.46-.14-1.01-.42-1.36-.62-.81-1.42-1.48-2.05-2.27-1.69-2.13-3.32-4.3-4.99-6.45-1.61-2.08-3.27-4.11-4.83-6.22-.74-.99-1.53-1.14-2.5-.5-1.34.9-2.72,1.75-3.93,2.8-.89.78-2.09,1.45-2.11,2.92,0,.14-.39.24-.55.41-.67.73-1.38,1.44-1.94,2.25-.49.71-.61,1.8-1.24,2.28-1.37,1.05-2.36,2.26-2.95,3.87-.51,1.39-.9,2.9-1.73,4.09-1.67,2.38-1.91,4.92-1.47,7.63.18,1.1.62,1.93,2,1.65.9-.18,1.82-.35,2.74-.42,7.21-.57,14.42-1.12,21.62-1.7.41-.03.8-.3,1.2-.46-.23-.41-.36-.95-.7-1.2-2.32-1.64-4.7-3.2-7.04-4.83-1.32-.92-2.58-1.93-3.91-2.85-.77-.54-1.62-.99-2.43-1.48ZM184.01,193.36c.4-1.68.83-3.24,1.15-4.82.91-4.63,1.74-9.27,2.66-13.89.81-4.08,1.72-8.14,2.54-12.22.43-2.15.29-2.27-1.96-2.18-.6.02-1.21.06-1.81.12-3.5.35-7,.72-10.5,1.07-2.31.23-4.63.44-6.95.65-.14.26-.28.51-.42.77.48.26.99.5,1.45.79,2.22,1.41,4.42,2.84,6.63,4.27.85.55,1.67,1.13,2.53,1.66,1.41.87,2.87,1.67,4.24,2.6.4.27.57.89.85,1.35-.1.13-.19.26-.29.39-6.22-.46-12.1-3.02-18.41-3.45.43,1.9,16.63,22.2,18.29,22.88ZM87.36,159.85s-.02.02-.04.03c0,2.92.06,5.83-.02,8.75-.07,2.86-.33,5.71-.41,8.57-.16,5.1-.23,10.19-.37,15.29-.13,4.72-.27,9.44-.43,14.15-.04,1.22.4,1.74,1.68,1.73,4.04-.03,8.08.02,12.13.04,1.66,0,1.86-.23,1.6-1.88-.27-1.73-.45-3.48-.78-5.2-.26-1.33-.34-2.94-1.13-3.88-3.19-3.76-6.08-7.67-7.77-12.34-.76-2.11-1.62-4.29-1.8-6.49-.36-4.43-.35-8.9-.35-13.35,0-1.69.31-3.39.62-5.06.41-2.19-.11-2.71-2.65-2.19v6.35c-.09,0-.19,0-.28,0v-4.55ZM141.33,134.51c.22-.57.39-.85.43-1.15.44-4.09.84-8.18,1.3-12.27.11-.96-.43-1.21-1.15-1.37-4.88-1.08-9.81-1.1-14.61.15-3.28.85-6.38,2.42-9.54,3.7-1.33.54-1.44,1.01-.36,1.92,2.21,1.87,4.5,3.66,6.72,5.52,2.66,2.22,5.29,4.49,7.96,6.71.3.25.78.3,1.5.55-.95-6.08-1.84-11.84-2.76-17.73,1.8-.03,2.29,1.1,2.87,2.05,2.13,3.51,4.22,7.05,6.35,10.56.29.47.77.82,1.31,1.37ZM193.79,155.98c2.08.2,4.04.44,6.01.55,1.77.1,1.79.04,1.8-1.78.03-3.9-.04-7.81.09-11.71.14-4.11.55-8.22.69-12.33.18-5.1.22-10.21.3-15.31,0-.23-.17-.47-.37-.97-3.44,11.02-4.23,22.35-7.56,33.11-.8,2.59-.66,5.47-.98,8.45ZM98.73,193.45l.36-.21c.02-.23.07-.47.04-.69-.25-2.15-.57-4.3-.76-6.46-.2-2.29-.24-4.6-.46-6.89-.09-.88-.6-1.72-.75-2.61-.39-2.22-.69-4.46-1.03-6.7-.47-3.15-1.02-6.28-1.38-9.44-.21-1.9-.6-2.26-2.56-1.67-.37,2.46-1.06,4.94-1.03,7.4.04,3.6-.51,7.22.43,10.84.46,1.77.62,3.6,1.18,5.43.85,2.78,2.03,5.32,3.48,7.76.69,1.16,1.64,2.16,2.48,3.23ZM87.42,154.98c-.05,1.25.82,1.23,1.71,1.14.89-.09,1.91.3,2.09-1.3.23-1.98.48-4.05,2.02-5.61.16-.16.22-.53.17-.77-.29-1.53-.65-3.04-.95-4.57-.43-2.18-.86-4.36-1.24-6.54-.41-2.36-.77-4.73-1.17-7.09-.07-.39-.32-.76-.35-1.14-.13-1.62-.2-3.24-.33-4.85-.02-.26-.2-.51-.44-1.09-.33,3.33-.72,6.27-.87,9.22-.18,3.58-.16,7.16-.21,10.74-.04,2.25,0,4.51-.12,6.76-.1,1.76-.39,3.51-.59,5.27-.01.11.05.23.11.51.08-.33.13-.5.17-.66ZM176.97,127.6l-.31-.42c-.8.61-1.59,1.22-2.39,1.82-2.82,2.13-5.62,4.28-8.46,6.38-.88.66-.86,1.47-.58,2.35.25.77.57,1.52.86,2.29,1.41-.06,10.55-10.47,10.89-12.43ZM150.39,135.04c.68-.45,1.17-.61,1.4-.94,1.27-1.86,2.54-3.73,3.65-5.68.24-.42.07-1.44-.29-1.77-1.06-.99-2.3-1.81-3.51-2.64-.61-.41-1.3-.69-1.96-1.04-.13.09-.26.18-.39.27.35,3.83.71,7.65,1.09,11.8ZM101.58,213.26c-.02-.18-.04-.36-.06-.54-2.59-.47-5.19-.91-7.85-.83-.08,0-.19.05-.25.12-1.45,1.6-2.9,3.2-4.35,4.81-.02.03.06.15.18.44,4.1-1.33,8.21-2.66,12.32-3.99ZM216.07,215.53c-.04-.21-.07-.41-.11-.62-2.33-.28-4.65-.64-6.99-.78-.62-.04-1.39.47-1.89.94-1.04.98-1.95,2.1-2.89,3.18-.22.25-.34.58-.51.88.07.11.15.21.22.32,4.06-1.31,8.12-2.61,12.18-3.92ZM160.18,132.6c-1.18,1.57-1.18,3.37-1.13,5.21,1.56-.17,3-1.2,3.18-2.19.19-1.01-.77-2.47-2.05-3.02ZM146.29,113.97c-.13.04-.26.08-.39.12-.37,1.16-.82,2.3-1.07,3.49-.09.42.22,1.06.56,1.37.31.28.9.25,1.37.35.07-.47.17-.95.2-1.42.03-.55.08-1.12-.02-1.66-.15-.76-.42-1.5-.65-2.24Z"/>
    </g>
  </g>
</svg>