<?xml version="1.0" encoding="UTF-8"?><svg id="_Слой_2" xmlns="http://www.w3.org/2000/svg" width="69.02" height="43.02" viewBox="0 0 69.02 43.02"><g id="_Слой_1-2"><path d="m26.72,6.09s-.92-1.52,1.46-2.34c2.38-.83,3.84-1.24,3.84-1.24l.61-1.03,3.46,1.24,3.61.34s-.46.41-1,.9-.69,3.03-.69,3.03l1.15,1.17s2.77,1.65,4.61,2.48c1.84.83,3.77-4.34,3.77-4.34,0,0,.77-5.65,1.38-5.79.61-.14,2.27,5.57,2.44,5.67.17.1,1.75,0,2,.38s.71,2,.71,2l1.08,2.12s-.19,1.47.65,2.05c.85.59,4.25,3.22,5.4,4.98,1.15,1.76,1.65.43,1.75.5s.46.93.46,1.02.85,1.26,1.04,1.34c.19.09,7.81,4.18,1.67,13.38-6.15,9.19-3.48,7.26-6.97,7.54-3.48.28-4.2,1.29-5.12.74-.92-.55-4,.28-4,.28,0,0-3.59-1.47-4.2-1.93-.61-.46-2.87-3.59-2.87-3.59,0,0-2.25-1.75-2.25-2.02s.41-1.38.41-1.38c0,0-.82.18-1.84,1.01-1.02.83-1.54,1.65-2.05,1.84-.51.18-2.77-2.94-2.77-2.94,0,0-12.3-1.1-15.89.64-3.59,1.75-4.1.64-6.46.55-2.36-.09-2.66,2.11-3.89,2.11s-6.15-1.01-5.53-2.02c.61-1.01-.72-7.45-1.13-8.37-.41-.92-.61-3.03-.61-3.77s-.41-5.79-.41-5.79c0,0,3.18-1.2,6.46-2.3s6.56-2.3,6.56-2.94.31-2.02.31-2.02c0,0,1.64-.92,2.05-.09.41.83.51,1.29,1.23,1.38.72.09.82-.64.31-1.1s-1.02-.83-.51-.83h1.54s.28-1.63.9-1.43c.61.21,2.95-2.05,3-2.14.05-.09,1.49,1.1,1.56,1.26.08.16-.18.07.41.8.59.74,1.97-.07,2.02-.14.05-.07.36-1.22.36-1.22Z" style="fill:#2ab445; stroke:#138729; stroke-miterlimit:10;"/><path d="m26.72,6.09s-.92-1.52,1.46-2.34c2.38-.83,3.84-1.24,3.84-1.24l.61-1.03,3.46,1.24,3.61.34s-.46.41-1,.9-.69,3.03-.69,3.03l1.15,1.17s2.77,1.65,4.61,2.48c1.84.83,3.77-4.34,3.77-4.34,0,0,.77-5.65,1.38-5.79.61-.14,2.27,5.57,2.44,5.67.17.1,1.75,0,2,.38s.71,2,.71,2l1.08,2.12s-.19,1.47.65,2.05c.85.59,4.25,3.22,5.4,4.98,1.15,1.76,1.65.43,1.75.5s.46.93.46,1.02.85,1.26,1.04,1.34c.19.09,7.81,4.18,1.67,13.38-6.15,9.19-3.48,7.26-6.97,7.54-3.48.28-4.2,1.29-5.12.74-.92-.55-4,.28-4,.28,0,0-3.59-1.47-4.2-1.93-.61-.46-2.87-3.59-2.87-3.59,0,0-2.25-1.75-2.25-2.02s.41-1.38.41-1.38c0,0-.82.18-1.84,1.01-1.02.83-1.54,1.65-2.05,1.84-.51.18-2.77-2.94-2.77-2.94,0,0-12.3-1.1-15.89.64-3.59,1.75-4.1.64-6.46.55-2.36-.09-2.66,2.11-3.89,2.11s-6.15-1.01-5.53-2.02c.61-1.01-.72-7.45-1.13-8.37-.41-.92-.61-3.03-.61-3.77s-.41-5.79-.41-5.79c0,0,3.18-1.2,6.46-2.3s6.56-2.3,6.56-2.94.31-2.02.31-2.02c0,0,1.64-.92,2.05-.09.41.83.51,1.29,1.23,1.38.72.09.82-.64.31-1.1s-1.02-.83-.51-.83h1.54s.28-1.63.9-1.43c.61.21,2.95-2.05,3-2.14.05-.09,1.49,1.1,1.56,1.26.08.16-.18.07.41.8.59.74,1.97-.07,2.02-.14.05-.07.36-1.22.36-1.22Z" style="fill:#2ab445; stroke:#138729; stroke-miterlimit:10;"/></g></svg>