<?xml version="1.0" encoding="UTF-8"?><svg id="_Слой_2" xmlns="http://www.w3.org/2000/svg" width="57.68" height="87.07" viewBox="0 0 57.68 87.07"><g id="_Слой_1-2"><polyline points="4.51 25.12 4.51 25.11 4.51 25.1 4.51 25.09 4.51 25.08 4.71 7.33" style="fill:none; stroke:#000; stroke-miterlimit:10; stroke-width:3px;"/><polyline points="51.62 22.12 51.46 7.71 51.46 7.7 51.46 7.33" style="fill:none; stroke:#000; stroke-miterlimit:10; stroke-width:3px;"/><path d="m37.21,10.99c0,.78-.09,1.54-.25,2.27-.06.3-.14.59-.24.88-2.28-.35-4.81-.51-7.61-.48-.05,0-.11-.01-.16-.01-3.09-.17-5.93-.06-8.52.36-.08-.24-.14-.49-.2-.75-.16-.73-.25-1.49-.25-2.27,0-5.24,3.86-9.49,8.62-9.49s8.61,4.25,8.61,9.49Z" style="fill:none; stroke:#000; stroke-miterlimit:10; stroke-width:3px;"/><path d="m36.96,13.26c-.92-3.33-4.32-5.8-8.36-5.8s-7.45,2.47-8.37,5.8c-.07.26-.13.53-.17.81.12-.02.24-.04.37-.06,2.59-.42,5.43-.53,8.52-.36.05,0,.11.01.16.01,2.8-.03,5.33.13,7.61.48.15.02.3.04.44.07-.05-.32-.11-.64-.2-.95Zm-2.55,7.44h-11.62" style="fill:none; stroke:#000; stroke-miterlimit:10; stroke-width:3px;"/><line x1="34.41" y1="20.7" x2="22.79" y2="20.7" style="fill:none; stroke:#000; stroke-miterlimit:10; stroke-width:3px;"/><path d="m18.64,14.35L13.9,3.36c-.53-1.22-1.94-1.78-3.16-1.25l-4.77,2.05c-1.22.53-1.78,1.95-1.26,3.17l4.88,11.29" style="fill:#fff; stroke:#000; stroke-miterlimit:10; stroke-width:3px;"/><path d="m37.72,14.3l4.72-10.94c.53-1.22,1.95-1.78,3.17-1.25l4.77,2.05c1.22.53,1.78,1.95,1.25,3.17l-.17.38-4.36,10.12" style="fill:#fff; stroke:#000; stroke-miterlimit:10; stroke-width:3px;"/><path d="m37.16,14.21c.19.02.38.06.56.09,3.8.68,6.89,1.87,9.38,3.53,1.81,1.2,3.31,2.64,4.52,4.29,2.72,3.67,4.08,8.38,4.55,13.85.01.08.01.17.01.26v46.49c0,1.58-1.27,2.85-2.85,2.85H4.35c-1.57,0-2.85-1.27-2.85-2.85v-46.1c0-.1.01-.2.02-.3.45-4.38,1.45-8.11,2.99-11.2h0v-.02h0c1.31-2.63,3-4.77,5.08-6.48,2.48-2.06,5.5-3.47,9.05-4.27.46-.1.94-.2,1.42-.28,0,0,10.46-.96,17.1.14Z" style="fill:#fff; stroke:#000; stroke-miterlimit:10; stroke-width:3px;"/><rect x="19.73" y="20.7" width="17.11" height="6.87" style="fill:none; stroke:#000; stroke-miterlimit:10; stroke-width:3px;"/><path d="m10.93,48.75h34.72c2.33,0,4.22,1.89,4.22,4.22v4.49H6.71v-4.49c0-2.33,1.89-4.22,4.22-4.22Z" style="fill:none; stroke:#000; stroke-miterlimit:10; stroke-width:3px;"/><path d="m6.71,57.45h43.15v18.7c0,2.33-1.89,4.22-4.22,4.22H10.93c-2.33,0-4.22-1.89-4.22-4.22v-18.7h0Z" style="fill:none; stroke:#000; stroke-miterlimit:10; stroke-width:3px;"/></g></svg>