<?xml version="1.0" encoding="UTF-8"?>
<svg id="_Слой_2" data-name="Слой_2" xmlns="http://www.w3.org/2000/svg" viewBox="0 0 390.44 390.44">
  <defs>
    <style>
      .cls-1 {
        fill: #2b335a;
      }

      .cls-2 {
        opacity: .7;
      }
    </style>
  </defs>
  <g id="_Слой_1-2" data-name="Слой_1">
    <g class="cls-2">
      <polygon class="cls-1" points="154.74 258.76 154.74 194.31 188.58 246.67 201.06 246.67 235.3 194.31 235.3 258.76 259.47 258.76 259.47 145.98 236.91 145.98 196.23 213.24 154.74 145.98 130.98 145.98 130.98 258.76 154.74 258.76"/>
      <path class="cls-1" d="M195.22,0C87.4,0,0,87.4,0,195.22s87.4,195.22,195.22,195.22,195.22-87.4,195.22-195.22S303.04,0,195.22,0ZM312.35,312.35c-23.33,23.33-52.4,38.84-84.01,45.22l-32.36,30.25-33.51-30.17c-31.76-6.34-60.96-21.88-84.37-45.3-24.08-24.08-39.82-54.26-45.8-87.05l-27.76-30.83,27.85-29.79c6.05-32.61,21.75-62.62,45.71-86.58,24.33-24.33,54.9-40.16,88.1-45.99l29.78-26.82,28.79,26.92c33,5.91,63.38,21.69,87.58,45.9,23.96,23.96,39.66,53.97,45.71,86.58l27.85,29.79-27.76,30.83c-5.98,32.8-21.72,62.98-45.8,87.05Z"/>
    </g>
  </g>
</svg>