<?xml version="1.0" encoding="UTF-8"?><svg id="_Слой_2" xmlns="http://www.w3.org/2000/svg" width="103.4" height="65.93" viewBox="0 0 103.4 65.93"><g id="_Слой_1-2"><polygon points="103.4 0 99.97 65.93 45.67 65.89 44.41 0 103.4 0" style="fill:#b88b56; stroke-width:0px;"/><polygon points="44.41 0 0 0 3.81 63.15 45.67 65.89 44.41 0" style="fill:#a27342; stroke-width:0px;"/><path d="m18.68,52.1l8.55.27-.67,8.75-8.45-.44.57-8.57Zm7.12,8.28l.58-7.18-6.93-.27-.48,7.04,6.84.42Z" style="fill:#2e120a; stroke-width:0px;"/><polygon points="22.33 53.74 24.61 56.86 20.05 56.59 22.33 53.74" style="fill:#2e120a; stroke-width:0px;"/><polygon points="23 56.44 22.86 59.53 21.1 59.38 21.39 56.29 23 56.44" style="fill:#2e120a; stroke-width:0px;"/><polygon points="13.41 53.65 14.89 56.07 11.92 55.86 13.41 53.65" style="fill:#2e120a; stroke-width:0px;"/><polygon points="13.85 55.74 13.75 58.14 12.61 58.03 12.79 55.63 13.85 55.74" style="fill:#2e120a; stroke-width:0px;"/><polygon points="9.94 58.14 8.45 55.72 11.42 55.93 9.94 58.14" style="fill:#2e120a; stroke-width:0px;"/><polygon points="9.5 56.04 9.59 53.65 10.74 53.76 10.55 56.16 9.5 56.04" style="fill:#2e120a; stroke-width:0px;"/><path d="m16.14,51.77l-.33,8.44-8.51-.34.25-8.33,8.59.23Zm-1.17,7.63l.33-6.9-6.95-.16-.33,6.75,6.95.31Z" style="fill:#2e120a; stroke-width:0px;"/><polygon points="77.51 65.93 78.24 55.52 66.62 55.52 66.62 65.93 77.51 65.93" style="fill:#a46b3a; opacity:.5; stroke-width:0px;"/></g></svg>