<?xml version="1.0" encoding="UTF-8"?><svg id="_Слой_2" xmlns="http://www.w3.org/2000/svg" width="135.27" height="65.74" viewBox="0 0 135.27 65.74"><g id="_Слой_1-2"><polygon points="120.74 0 111.06 65.74 59.16 65.74 61.92 0 120.74 0" style="fill:#b88b56; stroke-width:0px;"/><polygon points="61.92 0 17.64 0 17.64 62.97 59.16 65.74 61.92 0" style="fill:#a27342; stroke-width:0px;"/><polygon points="61.92 0 80.61 21.45 135.27 21.45 120.74 0 61.92 0" style="fill:#bf9c6f; stroke-width:0px;"/><polygon points="61.92 0 49.47 18.68 0 15.92 17.64 0 61.92 0" style="fill:#bf9c6f; stroke-width:0px;"/><path d="m31.21,51.95l8.52.27-.67,8.72-8.42-.44.57-8.55Zm7.1,8.26l.58-7.16-6.91-.27-.48,7.02,6.82.42Z" style="fill:#2e120a; stroke-width:0px;"/><polygon points="34.85 53.58 37.13 56.7 32.58 56.43 34.85 53.58" style="fill:#2e120a; stroke-width:0px;"/><polygon points="35.53 56.28 35.38 59.36 33.62 59.21 33.91 56.13 35.53 56.28" style="fill:#2e120a; stroke-width:0px;"/><polygon points="25.96 53.5 27.44 55.91 24.47 55.7 25.96 53.5" style="fill:#2e120a; stroke-width:0px;"/><polygon points="26.39 55.59 26.3 57.97 25.16 57.86 25.34 55.47 26.39 55.59" style="fill:#2e120a; stroke-width:0px;"/><polygon points="22.5 57.97 21.01 55.56 23.98 55.77 22.5 57.97" style="fill:#2e120a; stroke-width:0px;"/><polygon points="22.06 55.88 22.15 53.5 23.3 53.61 23.11 56 22.06 55.88" style="fill:#2e120a; stroke-width:0px;"/><path d="m28.68,51.62l-.33,8.42-8.49-.34.25-8.31,8.57.23Zm-1.17,7.6l.33-6.88-6.94-.16-.33,6.73,6.93.31Z" style="fill:#2e120a; stroke-width:0px;"/><polygon points="94.92 65.74 95.66 55.36 84.07 55.36 84.07 65.74 94.92 65.74" style="fill:#a46b3a; opacity:.5; stroke-width:0px;"/></g></svg>