<?xml version="1.0" encoding="UTF-8"?><svg id="_Слой_2" xmlns="http://www.w3.org/2000/svg" width="69.73" height="99.02" viewBox="0 0 69.73 99.02"><g id="_Слой_1-2"><path d="m68.33,10.45l-12.39-7.68c-1.39-.86-3.21-.43-4.07.95L15.56,62.3c-.86,1.39-.43,3.21.95,4.07l5.75,3.57s-.02.04-.06.12c-1.91,1.3-3.28,3.19-4.27,5.15-1.74,1.55-4.1,3.27-7.26,4.87-9.09,4.62-11.9,13.3-9.57,16.84l.89.55,2.43,1.5c4.5.7,12.46-4.79,13.97-14.1,1.36-8.41,5.41-12.72,6.19-13.48l4.32,2.68c1.39.86,3.21.43,4.07-.95L69.29,14.51c.86-1.39.43-3.21-.95-4.07ZM3.76,96.65c-.31-3.18.51-9.27,9.44-14.66,0,0,1.27-.68,2.95-1.88-.49,1.93-.62,3.32-.62,3.32-2.37,9.47-8.37,12.35-11.77,13.22Z" style="fill:#06090b; opacity:.7; stroke-width:0px;"/><path d="m21.94,67.61s-2.5,5.52-11.59,10.14C1.26,82.37-1.56,91.05.78,94.58l3.12,1.93s-3.82-9.14,8.96-16.86c0,0,9.46-5.09,10.9-11.84l-1.83-.21Z" style="fill:#202122; stroke-width:0px;"/><rect x="4.68" y="25.84" width="74.83" height="20.48" rx="2.95" ry="2.95" transform="translate(-10.76 52.85) rotate(-58.2)" style="fill:#d3d4d4; stroke-width:0px;"/><path d="m55.85,8.12c-.3.48-.92.62-1.4.33-.48-.3-.62-.92-.33-1.4.29-.48.92-.62,1.4-.33.48.3.62.92.33,1.4Z" style="fill:#202122; stroke-width:0px;"/><path d="m58.15,9.55c-.29.48-.92.62-1.4.33-.48-.3-.62-.92-.33-1.4.3-.48.92-.62,1.4-.33.48.3.62.92.33,1.4Z" style="fill:#202122; stroke-width:0px;"/><path d="m60.44,10.97c-.3.48-.92.62-1.4.33-.48-.3-.62-.92-.33-1.4.3-.48.92-.62,1.4-.33.48.29.62.92.33,1.4Z" style="fill:#202122; stroke-width:0px;"/><path d="m62.74,12.4c-.3.48-.92.62-1.4.33-.48-.29-.62-.92-.33-1.4.3-.48.92-.62,1.4-.33.48.3.62.92.33,1.4Z" style="fill:#202122; stroke-width:0px;"/><path d="m54.5,10.29c-.3.48-.92.62-1.4.33-.48-.29-.62-.92-.33-1.4.3-.48.92-.62,1.4-.33.48.3.62.92.33,1.4Z" style="fill:#202122; stroke-width:0px;"/><path d="m56.8,11.72c-.3.48-.92.62-1.4.33-.48-.3-.62-.92-.33-1.4.29-.48.92-.62,1.4-.33.48.3.62.92.33,1.4Z" style="fill:#202122; stroke-width:0px;"/><path d="m59.1,13.14c-.3.48-.92.62-1.4.33-.48-.3-.62-.92-.33-1.4.29-.48.92-.62,1.4-.33.48.3.62.92.33,1.4Z" style="fill:#202122; stroke-width:0px;"/><path d="m61.4,14.57c-.3.48-.92.62-1.4.33-.48-.3-.62-.92-.33-1.4.29-.48.92-.62,1.4-.33.48.3.62.92.33,1.4Z" style="fill:#202122; stroke-width:0px;"/><path d="m53.15,12.47c-.29.48-.92.62-1.4.33-.48-.3-.62-.92-.33-1.4.3-.48.92-.62,1.4-.33.48.3.62.92.33,1.4Z" style="fill:#202122; stroke-width:0px;"/><path d="m55.45,13.89c-.29.48-.92.62-1.4.33-.48-.29-.62-.92-.33-1.4.3-.48.92-.62,1.4-.33.48.29.62.92.33,1.4Z" style="fill:#202122; stroke-width:0px;"/><path d="m57.75,15.32c-.29.48-.92.62-1.4.33-.48-.3-.62-.92-.33-1.4.3-.48.92-.62,1.4-.33.48.3.62.92.33,1.4Z" style="fill:#202122; stroke-width:0px;"/><path d="m60.05,16.74c-.29.48-.92.62-1.4.33-.48-.3-.62-.92-.33-1.4.3-.48.92-.62,1.4-.33.48.29.62.92.33,1.4Z" style="fill:#202122; stroke-width:0px;"/><path d="m51.81,14.64c-.3.48-.92.62-1.4.33-.48-.3-.62-.92-.33-1.4.3-.48.92-.62,1.4-.33.48.29.62.92.33,1.4Z" style="fill:#202122; stroke-width:0px;"/><path d="m54.11,16.06c-.3.48-.92.62-1.4.33-.48-.3-.62-.92-.33-1.4.3-.48.92-.62,1.4-.33.48.3.62.92.33,1.4Z" style="fill:#202122; stroke-width:0px;"/><path d="m56.4,17.49c-.3.48-.92.62-1.4.33-.48-.29-.62-.92-.33-1.4.3-.48.92-.62,1.4-.33.48.3.62.92.33,1.4Z" style="fill:#202122; stroke-width:0px;"/><path d="m58.7,18.91c-.3.48-.92.62-1.4.33-.48-.3-.62-.92-.33-1.4.3-.48.92-.62,1.4-.33.48.3.62.92.33,1.4Z" style="fill:#202122; stroke-width:0px;"/><rect x="27.79" y="49.13" width="10.3" height="2.3" transform="translate(-27.15 51.8) rotate(-58.21)" style="fill:#202122; stroke-width:0px;"/><rect x="31.79" y="45.13" width="2.3" height="10.3" transform="translate(-27.15 51.79) rotate(-58.2)" style="fill:#202122; stroke-width:0px;"/><rect x="27.79" y="49.13" width="10.3" height="2.3" transform="translate(-27.15 51.8) rotate(-58.21)" style="fill:#202122; stroke-width:0px;"/><path d="m51.06,30.83c-1.53,2.46-4.76,3.22-7.22,1.69-2.46-1.53-3.22-4.76-1.69-7.22,1.53-2.46,4.76-3.22,7.22-1.69,2.46,1.53,3.22,4.76,1.69,7.22Z" style="fill:#e51f1f; stroke-width:0px;"/><path d="m43.04,38.72c-.75,1.21-2.35,1.59-3.56.83-1.21-.75-1.59-2.35-.83-3.56.75-1.21,2.35-1.59,3.56-.83,1.21.75,1.59,2.35.84,3.56Z" style="fill:#e8505b; stroke-width:0px;"/><rect x="23.33" y="55.91" width="3.45" height="14.18" transform="translate(-41.69 51.1) rotate(-58.2)" style="fill:#fff; stroke-width:0px;"/><path d="m24.39,68.93s-4.81,4.29-6.32,13.61c-1.51,9.32-9.48,14.81-13.97,14.1l-3.12-1.93s10.82-.07,14.21-13.61c0,0,.95-10.19,7.42-13.83l1.78,1.65Z" style="fill:#717374; stroke-width:0px;"/></g></svg>