<?xml version="1.0" encoding="UTF-8"?><svg id="_Слой_2" xmlns="http://www.w3.org/2000/svg" width="158.29" height="44.64" viewBox="0 0 158.29 44.64"><g id="_Слой_1-2"><path d="m74.6,11.56s.98.59,1.86.15c.87-.44,1.96.69,3.17.88,1.2.2,4.2-.34,3.6.29-.6.64-.33,1.03.44,1.62.76.59.93,1.17.82,1.62-.11.44.11,1.17-.65,1.91-.76.73-.71,1.37-.71,1.66s-1.96.34-1.69.88c.27.54,2.89.88,3,.24.11-.64-.16-.98.27-1.37s1.53.39,1.96.39,1.86-.05,1.69.39c-.16.44-1.04.64-.93,1.08.11.44,1.53.73.76,1.22-.76.49-1.64.2-2.02-.1-.38-.29-3.77-.59-3.93-.54-.16.05-.87.87-.34,1.02.53.15-.93-.11-1.27.31s-.34.95-.04,1.17c.3.22,1.02.6,1.88.45.86-.15,2.69-.27,1.68-.72-1.01-.45-.94-.05-1.05-.49-.11-.44.61-.89.61-.89,0,0,1.23.66,1.98.64.75-.02,1.51-.26,1.43.31-.08.56-.82,1.37-1.39,1.77-.57.4-.94,1.13-.86,1.44.08.32.7.62.71.8s-.23.8-.72.99-.52.23-.75.46c-.23.23-1.36.42-1.99.12-.63-.29.25-1.46-.41-1.47s-1.05.12-1.68.45c-.63.33-.91.73-.91.73,0,0,.46.28.8.53.34.24-.15,1.21-.4,1.25-.25.04-1.61.04-1.02.48s.9-.01,1.15.48c.25.49-.01.87-.12.93-.11.06-.3.05-.35.27s-1.24,1.99-.9,2.12c.34.12-.35-.13,1.24-.82,1.6-.69,1.66-1.43,1.65-.72-.01.71-.41,1.1-.6,1.11s-2.13,1.21-1.79,1.76c.34.55.87,1.21.96,1.38.08.17.4.26.12.64-.27.38-.93.51-.22.69.71.17,1.21.49,1.3.51.08.02.52,1.35.82,1.81.3.47.03.59.37.69s.95.48,1.71-.01c.75-.49,2.21-.32,2.41-.7.2-.38.68-.78.8-.18.12.6-.37.95-.48,1.09-.11.13-.1.72.35.92.45.2.19.88.98.86s.75.38,1-.35c.25-.73-.01-1.04.78-1.76.79-.72,1.24-.98,1.24-.98,0,0,1.06-.62,1.15-.76.08-.13,1.62-.6,1.08-.94-.55-.34-1.09-.45-.27-.88.82-.43,1.45.02,1.76-.27.31-.29.29-.28.59-.73.3-.45.4-.72.8-.88.41-.16.98-.43,1.64-.37.65.06.98-.18.55-.61-.44-.43-1.17-.54-1.11-.75.07-.21.61-.42.95-.56.34-.15.57-.35.61-.59.04-.23-.11-.34.15-.53.26-.18,1.12.1,1.3-.13s.2-.31.2-.31c0,0,.96-.64,1.38-.66.42-.02.22.32.71.29.49-.03.65.17,1.08-.02.44-.19.82-.45.82-.62s.15-.59.15-.59c0,0,.99-.59,1.15-.47.15.11.14.2-.12.5-.25.3-1.18.73-.55.94.64.21.54.64.99.17.45-.46,1.56-.78,1.62-.8.06-.02,1.1-.68,1.16-.64.05.03-.09-.28-.12-.35-.03-.07,2.78.1,3.69-.52s1.56-1.4,2.18-1.6c.62-.2,1.8-.28,1.69-.82-.11-.54-.71-1.37-.27-1.27.44.1,1.24,1.03,2.02,1.06.78.03,1-.1.85-.15-.15-.05,4.98-.55,6.44-.7,1.46-.15,2.42-.64,3.24-1.09.82-.46,2.09-.96,3.31-1.32,1.22-.36,2.42-.41,2.49-.49.07-.08.93-.26-.25-.28-1.18-.02-2.55.03-2.86-.07-.31-.1-2.6-.07-3.69.11-1.09.18-3.67.55-3.18.15.49-.41.93-.42.27-.75-.65-.33-.53-.44-.53-.44l2.58-.7s.75.1,1.24,0c.49-.1.84-.82.84-.82,0,0-2.27-.21-2.38-.62-.11-.41-.25-.65-.18-.7.07-.05,1.33.42,2.91.77,1.58.34,2.96.8,3.06.88.09.08-.15.57.47.75s2.11.69,2.31.64c.2-.05,1.4-1.05.52-1.59s-1.45-1.26-2.21-1.47c-.76-.21-1.11-.48-1.79-.59-.68-.11-.35.15-1.39-.54-1.04-.69-1.19-.77-1.42-.95-.23-.18.61-.84,1.21-.64.6.21,1.61.8,1.99.51.38-.28.78-.72.72-.82-.05-.1-1.01-.48-.76-.53s1.95.88,2.25.71c.3-.17.46.97,1.19.71.72-.26,2.13-1.33,2.02-1.65-.11-.32.71-.66,1.15-.71s.68-.49.65-.98c-.03-.49-.11-.42-.22-1.13-.11-.71-.05-.73.14-1.13.19-.39.6-.61.71-.66.11-.05.65-.27.98-.22l.33.05s5.49-.19,4.62-.78c-.87-.59-3.53-.39-3.38-.82.15-.42,2.84.03,2.55-.26-.29-.29-3.93.39-3.93-.1s1.89-1.04,1.89-1.14-.95-.42.69-.91c1.64-.49,3.13-1.11,4.22-1.7,1.09-.59,2.8-.72,3.17-.75.36-.03,1.42-.16,1.71-.26.29-.1,7.57-1.29,4.67-1.34-2.89-.05-6.93-1.42-8.84-.64s-2.84.73-3.87,1.03c-1.04.29-4.64,1.66-3.93.93s2.89-1.22,2.89-1.57-1.75-.54-2.4-.29c-.65.24-2.56.73-2.56.73,0,0-3.22.29-2.78,0,.44-.29,3.44-.98,3.44-.98,0,0-9.64.52-9.93.42-.29-.1,2.15-1.04,3.17-.88,1.02.16,8.15-.26,8.62-.33s1.78-.69.4-.69-12.01.13-13.46.16c-1.46.03-11.86,0-12.73.07-.87.07-1.64.65-.84.72.8.07,2.62.52,2.62.52,0,0-4.33.13-4.66.2-.33.07-4.4-.29-4.4-.29,0,0-3.78-.95-3.86-.52-.07.42,1.2.98,1.2.98l-.87.2s-3.06-.69-3.17-.69-2.29,1.01-2.29,1.01l1.02-1.11s-7.53-.11-7.34.2c.19.32,3.03.95,1.56.95s-4.2-2.03-5.13-1.2.33,1.52-2.07,1.76c-2.4.24-4.86.34-5.1.34s-4.72.59-4.56.88c.16.29,3.93.51,4.28.46.35-.05.03.46-.93.56-.96.1-4.23,1.22-4.61,1.22s-5.58.37-6.09.4c-.51.03-3.13.28-3.13.28l-.75.69s2.18.38,2.93.42c.75.05,2.71.21,2.71.21,0,0,2.64-.02,1.13.55-1.51.57-3.6.59-4.4.64-.8.05-2.66-.36-1.87.31s5.28.28,4.4.65c-.87.38-3.57.57-3.18.7.38.13,5.97.31,6.89-.23Z" style="fill:#2ab445; stroke:#138729; stroke-miterlimit:10;"/><path d="m6.87,16.63c.06,0,.72.07,1.41-.16.68-.23.08-.54,2.39-.77,2.31-.23,4.7-.91,3.95-1.19s-2.19-.79-2.92-.6c-.72.19-.63-.21-2.33-.16-1.7.05-4.25.49-4.28.54-.04.05-1.86,1.61-3.01,1.93s-1.96.58-1.39.74,1.72.11,1.04.7c-.68.6.08.79.94.42.86-.37,2.66.05,3.21-.58.55-.63.67-.88,1-.88Z" style="fill:#2ab445; stroke:#138729; stroke-miterlimit:10;"/><path d="m8.65,17.34c-.06,0-2.02-.09-.82-.33s1.92-.79,3.09-.88c1.17-.09,4.52-1.07,4.32-.72-.2.35-1,1.04-.06.86.94-.18,2.62-.65,2.72-.44s-.86.49-.82.61c.04.12.39-.21,1.21-.12.82.09.82.19,1.12.04s.35-.44.29-.49c-.06-.05.27,0,.27,0,0,0,.62.61.33.93-.29.32-.09,1.13.35.99.44-.14.56-.77,1.04-1.16.48-.39,1.89-1.43,2.49-1.23.6.2.83.4.43.7s.1.85-.27,1.15-.42.35-.89.62c-.47.27-.91.41-.51.69s1.27.63,1.46.68c.2.05,1.1.61.83.82-.26.21-1.13.25-1.59.12-.46-.13-.64-.16-.89-.08-.25.08-.4.08-.59.07-.18-.01-1.9.22-.7.46,1.2.23,3.1.6,1.45.71-1.66.12-3.12.01-3.26-.18-.14-.19-1.77-.59-1.81-.59s-.31.06-.37.08c-.05.02-2.09.62-3.09.8-1,.18-6.14.59-6.07.25s.51-.47.65-.63c.14-.16-.34-.09-.81-.09s-1.66-.13-1.84-.61c-.18-.48.9-1.23,1.4-1.15.5.08,4.2.37,5.32.18,1.12-.2.74-.35.01-.36s-3.97-.09-4.19-.08c-.22.01-2.1-.28-1.93-.43.17-.15,2.66-.34,2.83-.36.17-.02,1.72-.13,1.03-.4s-1.07-.28-1.34-.23c-.27.05-.82-.18-.82-.18Z" style="fill:#2ab445; stroke:#138729; stroke-miterlimit:10;"/><path d="m35.66,28.72c-.07.03-1.08.54-1.58.33-.5-.21.99-.64,1.2-.73.21-.08.78-.66,1.12-1.02s1.79-1.5,2.09-1.6c.3-.11,1.19.25.83.42-.35.18-.73.09-.64.29.09.2,1.13.28,1.49.51s1.53.71,1.5.82c-.03.11-.69.4-.72.48s1,.47,1.21.48c.21.01.44.48-.47.51-.91.04-1.75-.2-1.62-.44.13-.25-.05-.92-.9-.66-.85.27-1.04.92-1.51.85-.47-.07-1.64.88-2.01.71-.37-.16.2-.37.23-.44.04-.07.31-.74-.23-.53Z" style="fill:#2ab445; stroke:#138729; stroke-miterlimit:10;"/><path d="m48.05,28c-.25.02-1,.6-1.96.26-.96-.33-1.34-.42-.6-.65.74-.23,2.17-.88,2.32-.87.15,0,.68.18.77.41s.46.41.71.25.42-.47.7-.47,1.84-.31,2.24-.27-.07-.61-.42-.82c-.35-.21.39-.35.43-.35s1.95-.76,2.09-1c.14-.24.48-.11.95-.46.47-.35.17-1.46.17-1.46,0,0-2.41-1.98-2.93-2.19-.52-.21-1.32-.9-1.38-1.05-.07-.15-.52-.21-.63-.02-.1.19.08.15.18.22.1.07,1.04.56.34.64-.7.08-2.09-.63-3.53-.32-1.45.32-.91.39-.86.37s-4.3-.46-4.92-.59-1.17.02-1.6-.04c-.43-.06-1.38-.19-.91-.5.47-.32,1.19-.75,1.67-.55.48.2,1.41.23,1.34.09-.07-.14-2.93-.88-2.52-1.03.42-.15.67-.4,1.12-.66.46-.26.99-.66,1.3-.74s3.04-1.17,3.64-1.19c.6-.02,2.45-.27,2.53-.3s.77,0,.4.23c-.37.23-1.89.46-2.22.69s-1.58.82-1.8,1.21c-.22.39-.78.61-.37.89.42.28.93.61.48.66s-.85.57-.34.5c.51-.07,1.32-.39,1.34-.55.03-.16-.09-.33-.27-.5-.18-.18-.52-.66-.09-.78.43-.13,1.15.14,1.27.22.12.08.97-.21.8-.28-.17-.07-1.4-.08-1.34-.33.05-.25.4-.53.68-.61.27-.08,1.38-.28,2.05-.57.67-.29,1.04-.48,1.81-.46.77.02,1.63-.06,1.64.05.01.11-.85.06-.27.43.57.37.07.76,0,.78-.07.02-.46.13-.89.29-.43.16-1.19.8-1.19.89s.52.37.76.23c.23-.14,1.47-.74,1.73-.73.26.01.82.15.61.21-.21.06-.59.2-.43.28.16.08.48.15.81.15s.87-.27.85-.42c-.03-.15.16-.53.22-.55.07-.02,2.18-.19,2.8.07.62.26.75.57.1.57s-1.59-.23-1.59.08.91.79,1.15.84c.24.05.79.25.99.26.2.02,1.12.04,1.43-.06.3-.1.55-.28.86-.32s.59-.11.63,0c.04.11.02.34-.22.41-.24.07-.45.18-.98.34s-1.13.23-.68.4.93.22.93.22c0,0,.84-.76,1.29-.85s.06.4-.07.48c-.13.08-.5.32-.66.37-.16.05-.61.26-.67.35-.07.09-.33.23-.21.25.13.02.87.16.95.21s.83,1.24.48,1.38c-.35.14-.38.17-.17.39s.23.39.72.54c.49.15.95.28.99.37s1.15.39,1.43.35,2.33.69,2.09.78c-.25.09-.63.55-.21.63s.99.15,1.25.14c.26-.01.73.11.17.29-.56.19-1.81.42-2.13.7s-.83.61-.9.64c-.07.04-.08.74-.44.9-.37.16-.81-.39-.82-.69s-.52-.43.01-.67c.53-.23,1.72-.62,1.55-.69-.17-.07-1.12.05-1.21.13-.09.08-1.15.63-1.32.4-.17-.23-.53-.47-.63-.71-.09-.25-.01-.75-.39-.56-.38.19-.46.48-.56.56-.1.08-1.27.8-1.38.68-.12-.12-.97-.14-.72.11.25.25,1.32.82,1.38.91s1.04,1.52.93,2.01c-.12.49.01.66-.23.71-.25.06-.69.54-.77.59-.08.05.04.41-.48.21-.52-.2-1.55-.4-1.73-.62-.18-.22-.08-.77-.46-.68s-.52.25-.85.15c-.33-.09-.69.14-.7.19s2.32,1.45,2.31,1.72c-.01.27-.25.66-.56.51-.31-.14-2.78-.49-2.91-.78s-.23-.37-.48-.41c-.25-.04-1.27-.3-1.49-.34-.22-.04-.35.04-.3-.25.05-.28.2-.2.34-.4.14-.2.33-.43.27-.47s-1.67-.63-1.67-.63c0,0,.55-.54.02-.49-.53.05-1.92.03-2.14.05-.22.02-.45-.05-.49-.05s-.32.09-.32.09h-.03Z" style="fill:#2ab445; stroke:#138729; stroke-miterlimit:10;"/><path d="m74.6,11.56s.98.59,1.86.15c.87-.44,1.96.69,3.17.88,1.2.2,4.2-.34,3.6.29-.6.64-.33,1.03.44,1.62.76.59.93,1.17.82,1.62-.11.44.11,1.17-.65,1.91-.76.73-.71,1.37-.71,1.66s-1.96.34-1.69.88c.27.54,2.89.88,3,.24.11-.64-.16-.98.27-1.37s1.53.39,1.96.39,1.86-.05,1.69.39c-.16.44-1.04.64-.93,1.08.11.44,1.53.73.76,1.22-.76.49-1.64.2-2.02-.1-.38-.29-3.77-.59-3.93-.54-.16.05-.87.87-.34,1.02.53.15-.93-.11-1.27.31s-.34.95-.04,1.17c.3.22,1.02.6,1.88.45.86-.15,2.69-.27,1.68-.72-1.01-.45-.94-.05-1.05-.49-.11-.44.61-.89.61-.89,0,0,1.23.66,1.98.64.75-.02,1.51-.26,1.43.31-.08.56-.82,1.37-1.39,1.77-.57.4-.94,1.13-.86,1.44.08.32.7.62.71.8s-.23.8-.72.99-.52.23-.75.46c-.23.23-1.36.42-1.99.12-.63-.29.25-1.46-.41-1.47s-1.05.12-1.68.45c-.63.33-.91.73-.91.73,0,0,.46.28.8.53.34.24-.15,1.21-.4,1.25-.25.04-1.61.04-1.02.48s.9-.01,1.15.48c.25.49-.01.87-.12.93-.11.06-.3.05-.35.27s-1.24,1.99-.9,2.12c.34.12-.35-.13,1.24-.82,1.6-.69,1.66-1.43,1.65-.72-.01.71-.41,1.1-.6,1.11s-2.13,1.21-1.79,1.76c.34.55.87,1.21.96,1.38.08.17.4.26.12.64-.27.38-.93.51-.22.69.71.17,1.21.49,1.3.51.08.02.52,1.35.82,1.81.3.47.03.59.37.69s.95.48,1.71-.01c.75-.49,2.21-.32,2.41-.7.2-.38.68-.78.8-.18.12.6-.37.95-.48,1.09-.11.13-.1.72.35.92.45.2.19.88.98.86s.75.38,1-.35c.25-.73-.01-1.04.78-1.76.79-.72,1.24-.98,1.24-.98,0,0,1.06-.62,1.15-.76.08-.13,1.62-.6,1.08-.94-.55-.34-1.09-.45-.27-.88.82-.43,1.45.02,1.76-.27.31-.29.29-.28.59-.73.3-.45.4-.72.8-.88.41-.16.98-.43,1.64-.37.65.06.98-.18.55-.61-.44-.43-1.17-.54-1.11-.75.07-.21.61-.42.95-.56.34-.15.57-.35.61-.59.04-.23-.11-.34.15-.53.26-.18,1.12.1,1.3-.13s.2-.31.2-.31c0,0,.96-.64,1.38-.66.42-.02.22.32.71.29.49-.03.65.17,1.08-.02.44-.19.82-.45.82-.62s.15-.59.15-.59c0,0,.99-.59,1.15-.47.15.11.14.2-.12.5-.25.3-1.18.73-.55.94.64.21.54.64.99.17.45-.46,1.56-.78,1.62-.8.06-.02,1.1-.68,1.16-.64.05.03-.09-.28-.12-.35-.03-.07,2.78.1,3.69-.52s1.56-1.4,2.18-1.6c.62-.2,1.8-.28,1.69-.82-.11-.54-.71-1.37-.27-1.27.44.1,1.24,1.03,2.02,1.06.78.03,1-.1.85-.15-.15-.05,4.98-.55,6.44-.7,1.46-.15,2.42-.64,3.24-1.09.82-.46,2.09-.96,3.31-1.32,1.22-.36,2.42-.41,2.49-.49.07-.08.93-.26-.25-.28-1.18-.02-2.55.03-2.86-.07-.31-.1-2.6-.07-3.69.11-1.09.18-3.67.55-3.18.15.49-.41.93-.42.27-.75-.65-.33-.53-.44-.53-.44l2.58-.7s.75.1,1.24,0c.49-.1.84-.82.84-.82,0,0-2.27-.21-2.38-.62-.11-.41-.25-.65-.18-.7.07-.05,1.33.42,2.91.77,1.58.34,2.96.8,3.06.88.09.08-.15.57.47.75s2.11.69,2.31.64c.2-.05,1.4-1.05.52-1.59s-1.45-1.26-2.21-1.47c-.76-.21-1.11-.48-1.79-.59-.68-.11-.35.15-1.39-.54-1.04-.69-1.19-.77-1.42-.95-.23-.18.61-.84,1.21-.64.6.21,1.61.8,1.99.51.38-.28.78-.72.72-.82-.05-.1-1.01-.48-.76-.53s1.95.88,2.25.71c.3-.17.46.97,1.19.71.72-.26,2.13-1.33,2.02-1.65-.11-.32.71-.66,1.15-.71s.68-.49.65-.98c-.03-.49-.11-.42-.22-1.13-.11-.71-.05-.73.14-1.13.19-.39.6-.61.71-.66.11-.05.65-.27.98-.22l.33.05s5.49-.19,4.62-.78c-.87-.59-3.53-.39-3.38-.82.15-.42,2.84.03,2.55-.26-.29-.29-3.93.39-3.93-.1s1.89-1.04,1.89-1.14-.95-.42.69-.91c1.64-.49,3.13-1.11,4.22-1.7,1.09-.59,2.8-.72,3.17-.75.36-.03,1.42-.16,1.71-.26.29-.1,7.57-1.29,4.67-1.34-2.89-.05-6.93-1.42-8.84-.64s-2.84.73-3.87,1.03c-1.04.29-4.64,1.66-3.93.93s2.89-1.22,2.89-1.57-1.75-.54-2.4-.29c-.65.24-2.56.73-2.56.73,0,0-3.22.29-2.78,0,.44-.29,3.44-.98,3.44-.98,0,0-9.64.52-9.93.42-.29-.1,2.15-1.04,3.17-.88,1.02.16,8.15-.26,8.62-.33s1.78-.69.4-.69-12.01.13-13.46.16c-1.46.03-11.86,0-12.73.07-.87.07-1.64.65-.84.72.8.07,2.62.52,2.62.52,0,0-4.33.13-4.66.2-.33.07-4.4-.29-4.4-.29,0,0-3.78-.95-3.86-.52-.07.42,1.2.98,1.2.98l-.87.2s-3.06-.69-3.17-.69-2.29,1.01-2.29,1.01l1.02-1.11s-7.53-.11-7.34.2c.19.32,3.03.95,1.56.95s-4.2-2.03-5.13-1.2.33,1.52-2.07,1.76c-2.4.24-4.86.34-5.1.34s-4.72.59-4.56.88c.16.29,3.93.51,4.28.46.35-.05.03.46-.93.56-.96.1-4.23,1.22-4.61,1.22s-5.58.37-6.09.4c-.51.03-3.13.28-3.13.28l-.75.69s2.18.38,2.93.42c.75.05,2.71.21,2.71.21,0,0,2.64-.02,1.13.55-1.51.57-3.6.59-4.4.64-.8.05-2.66-.36-1.87.31s5.28.28,4.4.65c-.87.38-3.57.57-3.18.7.38.13,5.97.31,6.89-.23Z" style="fill:#2ab445; stroke:#138729; stroke-miterlimit:10;"/><path d="m6.87,16.63c.06,0,.72.07,1.41-.16.68-.23.08-.54,2.39-.77,2.31-.23,4.7-.91,3.95-1.19s-2.19-.79-2.92-.6c-.72.19-.63-.21-2.33-.16-1.7.05-4.25.49-4.28.54-.04.05-1.86,1.61-3.01,1.93s-1.96.58-1.39.74,1.72.11,1.04.7c-.68.6.08.79.94.42.86-.37,2.66.05,3.21-.58.55-.63.67-.88,1-.88Z" style="fill:#2ab445; stroke:#138729; stroke-miterlimit:10;"/><path d="m8.65,17.34c-.06,0-2.02-.09-.82-.33s1.92-.79,3.09-.88c1.17-.09,4.52-1.07,4.32-.72-.2.35-1,1.04-.06.86.94-.18,2.62-.65,2.72-.44s-.86.49-.82.61c.04.12.39-.21,1.21-.12.82.09.82.19,1.12.04s.35-.44.29-.49c-.06-.05.27,0,.27,0,0,0,.62.61.33.93-.29.32-.09,1.13.35.99.44-.14.56-.77,1.04-1.16.48-.39,1.89-1.43,2.49-1.23.6.2.83.4.43.7s.1.85-.27,1.15-.42.35-.89.62c-.47.27-.91.41-.51.69s1.27.63,1.46.68c.2.05,1.1.61.83.82-.26.21-1.13.25-1.59.12-.46-.13-.64-.16-.89-.08-.25.08-.4.08-.59.07-.18-.01-1.9.22-.7.46,1.2.23,3.1.6,1.45.71-1.66.12-3.12.01-3.26-.18-.14-.19-1.77-.59-1.81-.59s-.31.06-.37.08c-.05.02-2.09.62-3.09.8-1,.18-6.14.59-6.07.25s.51-.47.65-.63c.14-.16-.34-.09-.81-.09s-1.66-.13-1.84-.61c-.18-.48.9-1.23,1.4-1.15.5.08,4.2.37,5.32.18,1.12-.2.74-.35.01-.36s-3.97-.09-4.19-.08c-.22.01-2.1-.28-1.93-.43.17-.15,2.66-.34,2.83-.36.17-.02,1.72-.13,1.03-.4s-1.07-.28-1.34-.23c-.27.05-.82-.18-.82-.18Z" style="fill:#2ab445; stroke:#138729; stroke-miterlimit:10;"/><path d="m35.66,28.72c-.07.03-1.08.54-1.58.33-.5-.21.99-.64,1.2-.73.21-.08.78-.66,1.12-1.02s1.79-1.5,2.09-1.6c.3-.11,1.19.25.83.42-.35.18-.73.09-.64.29.09.2,1.13.28,1.49.51s1.53.71,1.5.82c-.03.11-.69.4-.72.48s1,.47,1.21.48c.21.01.44.48-.47.51-.91.04-1.75-.2-1.62-.44.13-.25-.05-.92-.9-.66-.85.27-1.04.92-1.51.85-.47-.07-1.64.88-2.01.71-.37-.16.2-.37.23-.44.04-.07.31-.74-.23-.53Z" style="fill:#2ab445; stroke:#138729; stroke-miterlimit:10;"/><path d="m48.05,28c-.25.02-1,.6-1.96.26-.96-.33-1.34-.42-.6-.65.74-.23,2.17-.88,2.32-.87.15,0,.68.18.77.41s.46.41.71.25.42-.47.7-.47,1.84-.31,2.24-.27-.07-.61-.42-.82c-.35-.21.39-.35.43-.35s1.95-.76,2.09-1c.14-.24.48-.11.95-.46.47-.35.17-1.46.17-1.46,0,0-2.41-1.98-2.93-2.19-.52-.21-1.32-.9-1.38-1.05-.07-.15-.52-.21-.63-.02-.1.19.08.15.18.22.1.07,1.04.56.34.64-.7.08-2.09-.63-3.53-.32-1.45.32-.91.39-.86.37s-4.3-.46-4.92-.59-1.17.02-1.6-.04c-.43-.06-1.38-.19-.91-.5.47-.32,1.19-.75,1.67-.55.48.2,1.41.23,1.34.09-.07-.14-2.93-.88-2.52-1.03.42-.15.67-.4,1.12-.66.46-.26.99-.66,1.3-.74s3.04-1.17,3.64-1.19c.6-.02,2.45-.27,2.53-.3s.77,0,.4.23c-.37.23-1.89.46-2.22.69s-1.58.82-1.8,1.21c-.22.39-.78.61-.37.89.42.28.93.61.48.66s-.85.57-.34.5c.51-.07,1.32-.39,1.34-.55.03-.16-.09-.33-.27-.5-.18-.18-.52-.66-.09-.78.43-.13,1.15.14,1.27.22.12.08.97-.21.8-.28-.17-.07-1.4-.08-1.34-.33.05-.25.4-.53.68-.61.27-.08,1.38-.28,2.05-.57.67-.29,1.04-.48,1.81-.46.77.02,1.63-.06,1.64.05.01.11-.85.06-.27.43.57.37.07.76,0,.78-.07.02-.46.13-.89.29-.43.16-1.19.8-1.19.89s.52.37.76.23c.23-.14,1.47-.74,1.73-.73.26.01.82.15.61.21-.21.06-.59.2-.43.28.16.08.48.15.81.15s.87-.27.85-.42c-.03-.15.16-.53.22-.55.07-.02,2.18-.19,2.8.07.62.26.75.57.1.57s-1.59-.23-1.59.08.91.79,1.15.84c.24.05.79.25.99.26.2.02,1.12.04,1.43-.06.3-.1.55-.28.86-.32s.59-.11.63,0c.04.11.02.34-.22.41-.24.07-.45.18-.98.34s-1.13.23-.68.4.93.22.93.22c0,0,.84-.76,1.29-.85s.06.4-.07.48c-.13.08-.5.32-.66.37-.16.05-.61.26-.67.35-.07.09-.33.23-.21.25.13.02.87.16.95.21s.83,1.24.48,1.38c-.35.14-.38.17-.17.39s.23.39.72.54c.49.15.95.28.99.37s1.15.39,1.43.35,2.33.69,2.09.78c-.25.09-.63.55-.21.63s.99.15,1.25.14c.26-.01.73.11.17.29-.56.19-1.81.42-2.13.7s-.83.61-.9.64c-.07.04-.08.74-.44.9-.37.16-.81-.39-.82-.69s-.52-.43.01-.67c.53-.23,1.72-.62,1.55-.69-.17-.07-1.12.05-1.21.13-.09.08-1.15.63-1.32.4-.17-.23-.53-.47-.63-.71-.09-.25-.01-.75-.39-.56-.38.19-.46.48-.56.56-.1.08-1.27.8-1.38.68-.12-.12-.97-.14-.72.11.25.25,1.32.82,1.38.91s1.04,1.52.93,2.01c-.12.49.01.66-.23.71-.25.06-.69.54-.77.59-.08.05.04.41-.48.21-.52-.2-1.55-.4-1.73-.62-.18-.22-.08-.77-.46-.68s-.52.25-.85.15c-.33-.09-.69.14-.7.19s2.32,1.45,2.31,1.72c-.01.27-.25.66-.56.51-.31-.14-2.78-.49-2.91-.78s-.23-.37-.48-.41c-.25-.04-1.27-.3-1.49-.34-.22-.04-.35.04-.3-.25.05-.28.2-.2.34-.4.14-.2.33-.43.27-.47s-1.67-.63-1.67-.63c0,0,.55-.54.02-.49-.53.05-1.92.03-2.14.05-.22.02-.45-.05-.49-.05s-.32.09-.32.09h-.03Z" style="fill:#2ab445; stroke:#138729; stroke-miterlimit:10;"/></g></svg>