<?xml version="1.0" encoding="UTF-8"?><svg xmlns="http://www.w3.org/2000/svg" width="745.73" height="413.73" viewBox="0 0 745.73 413.73"><g style="isolation:isolate;"><g id="_Слой_2"><g id="_Слой_1-2"><rect x="14.32" width="702.79" height="387.37" style="fill:#111; stroke-width:0px;"/><rect x="39.68" y="14.2" width="651.29" height="358.99" style="fill:#333; stroke-width:0px;"/><polygon points="268.92 35.19 106.1 355.31 109.35 359.02 151.25 359.02 314.1 38.84 310.9 35.19 268.92 35.19" style="fill:#d1d1d1; opacity:.2; stroke-width:0px;"/><polygon points="686.89 262.78 637.94 359.02 651.68 359.02 686.89 289.79 686.89 262.78" style="fill:#d1d1d1; opacity:.2; stroke-width:0px;"/><polygon points="686.89 107.83 559.12 359.02 582.74 359.02 686.89 154.26 686.89 107.83" style="fill:#d1d1d1; opacity:.2; stroke-width:0px;"/><path d="m686.9,9.74H28.57v367.9h667.45V9.74h-9.13Zm0,349.28H46.82V35.19h640.08v323.83Z" style="fill:#2f637d; mix-blend-mode:multiply; opacity:.7; stroke-width:0px;"/><rect y="387.37" width="731.42" height="20.64" style="fill:#2f2d30; stroke-width:0px;"/><polygon points="593.08 387.37 593.08 401.96 0 401.96 0 408.01 593.08 408.01 731.42 408.01 731.42 401.96 731.42 387.37 593.08 387.37" style="fill:#2f2d30; stroke-width:0px;"/><polygon points="731.42 393.1 731.42 5.72 28.63 5.72 28.63 393.1 14.32 393.1 14.32 407.68 14.32 413.73 607.39 413.73 745.73 413.73 745.73 407.68 745.73 393.1 731.42 393.1" style="fill:#2f2d30; opacity:.5; stroke-width:0px;"/></g></g></g></svg>