<?xml version="1.0" encoding="UTF-8"?><svg id="_Слой_2" xmlns="http://www.w3.org/2000/svg" width="574.74" height="221.55" viewBox="0 0 574.74 221.55"><g id="_Слой_1-2"><path d="m18.03,35.28s7.23-3.16,6.41-3.75c-.82-.59-.15-1.33,1.08-1.78,1.23-.44,1.28.44,1.43.84.15.4,4.1-.59,4.82-.64.72-.05,1.84.15,2.46-1.09s2.25-.74,1.64-.2c-.61.54,1.13.44,2.92.44s8.4.15,9.58.74c1.18.59,7.58,6.37,8.81,6.37s3.28,3.11,4.25,2.67.82-3.06,1.54-2.52c.72.54-.15,1.38.2,1.83.36.44.2,1.33.31,2.07.1.74,1.54,1.04,2.66,1.68,1.13.64,1.95.1,2.1.59.15.49-.87,1.93-.92,2.52-.05.59,7.74,3.85,7.74,7.31s-1.33,4.05-.87,5.68c.46,1.63.72,2.81.61,3.9s.2,2.12.56,2.91c.36.79,2.61,2.72,2.82,3.21s1.13,1.53,1.43,1.93c.31.4.31,1.23.82,1.78.51.54.31.49,1.28.59.97.1,4.06,1.41,4.89,3.1.83,1.69,4.26,5.64,4.7,6.01s-.15.98-.61.94c-.46-.04-.13,1.35.23,1.44s3.5,1.07,3.84,1.81c.35.74.79,1.83,1.04,2.31s1.5.8,1.92,1.46c.42.67,1.15,1.89,1.86,1.31.71-.57-1.25-2.26-2-3.37-.75-1.11-2.5-4.52-3.02-5.13s-2.11-2.5-2.9-3.18c-.79-.69-.9-3.18-.48-3.24.42-.06,1.61-.2,3.19,3.2,1.58,3.41,5.48,5.93,5.63,6.39.15.46.75,1.41.94,1.69.19.28,4.33,2.75,5.69,5.36,1.36,2.62,0,4.52,4.1,6.37,4.1,1.85,9.51,3.68,10.89,3.63,1.38-.05,4.18-.52,4.69-.27.51.25,3,2.22,3,2.22,0,0,5.38.96,7.48,3.04,2.1,2.07,2.92,2.52,3.13,3.65s1.9,1.58,2.72,1.78c.82.2,1.13,2.67,2.77,2.62s2.2.2,2.05.54,1.23.64,1.38.59,1.13.49,1.43-.49c.31-.99.41-2.57,1.49-2.12,1.08.44,1.18,1.93,1.74,2.47.56.54,1.69,5.83.46,7.16-1.23,1.33-1.79,1.93-1.9,2.47-.1.54-.97,1.38-1.23,1.88-.26.49-1.9,2.91-2.05,3.31-.15.4-.72,1.14-.15,1.38s1.64.1,1.49.59c-.15.49-.15.84-.51.99-.36.15-1.69,1.43-1.69,1.43,0,0-.04,1.35.54,1.83.58.48-.04.63,1.42,2.33,1.46,1.7,5.88,7.63,6.15,9.11.27,1.48,1.11,2.59,1.92,3.74s6.26,4.3,6.73,4.48c.46.19,1.65,1.74,2.04,2.3.38.56.31,8.93-.04,10.18-.35,1.26-.65,3.41-.96,4.15-.31.74-1.15,3.15-1.15,3.15,0,0,.23,4.59-.12,5.96-.35,1.37-.81,3.81-1.81,4.78-1,.96-1.73,1.85-1.69,2.37s.83,1.87.86,2.54c.04.67-.35,2.11-.5,2.48s-.85,1.7-.85,1.7c0,0-.52,3.43-.12,3.41s1.04-1.2,1-1.48.5-1.74.83-.78c.33.96-.23,3.83-.44,4.15-.21.31-1.42-.17-1.36-.3.06-.13.12.61-.63,1.37-.75.76-2.23,1.93-1.98,2.19.25.26.96.31,1.17.35.21.04.31.69.31.69,0,0-.23,1.19-.31,1.2-.08.02-.92.69-.94.74-.02.06.23,3.95,1.13,4.05.9.1,2.2,3.06,2.28,3.46s.2,2.35.77,2.44,5.94,2.64,7.3,2.74c1.36.1,4.13-.44,4.33-.91s.18-.96-.44-1.31c-.61-.35-1.97-1.65-2.31-2.39-.33-.74-1.49-2.57-1.49-3.28s-1-1.11.36-2.07c1.36-.96,1.61-.4,2.28-1.38.67-.99.67-1.04.67-1.04,0,0,2.38-.99,2.05-1.78s-3.59-.32-3.33-1.7c.26-1.38,2.18-1.85,2.79-2.15s1.33-1.19,1.49-1.98c.15-.79,1.61-1.43,1.95-1.8.33-.37.77-.94.26-.94s-1.64-.3-1.64-.3c0,0-1.15-.99-.46-1.56.69-.57,2.49-.37,3.36-.37s1.87.02,1.61-.69.08-2.32.44-2.3,6.64-1.27,7.16-1.51c.53-.23.78-.64,1.04-1.02.26-.38.91-1.19.91-1.19,0,0-.51-.48-1.08-1.19-.56-.7-.67-2.12-1.02-2.14-.36-.01,5.34.3,6.23-.15.88-.44,2.58-2.04,2.73-2.48.15-.44.03-.83.28-1.39.26-.57,1.02-.84,1.18-1.09.15-.25.2-.37.33-.59.13-.22,2.08-1.88,2.36-2.1.28-.22,1.69-2.15,1.84-2.39.15-.25.95.1,1.02-.57.08-.67.69-3.65,1.02-4.62.33-.96,1.84-1.23,3.33-2.02,1.49-.79,2.31-.57,2.77-1.38.46-.81,4.38-.94,4.46-1.38s1.08-1.38,1.13-1.51c.05-.12,2.49-3.63,2.49-5.75s1.13-4.35,1.18-5.97.97-4.84,1.95-5.63c.97-.79,4.46-3.01,4.61-3.8s-.05-4.3-.05-4.54-1.08-1.63-1.08-1.63c0,0-2.17-.65-2.9-1.01-.73-.35-4.21-2.19-6.07-2.7-1.86-.52-3.8-.43-3.88-.43s-1.92.48-2.09.65c-.17.17-.63-.96-.54-1.22.1-.26-.23-.85-.23-.85,0,0-4.39-1.65-4.78-1.66-.38-.01-.5.81-.72,1.07-.22.26-.09.96-1.55,1.14-1.46.17-2.09.48-1.43-.2.65-.68,1.63-1.27,1.64-1.48s.69-.62.01-.94c-.68-.32-1.68-.01-1.84.41-.17.42-2.05.74-2.23.69-.18-.05-.58-.83-.45-1.06s1.05-1.28,1.18-1.56c.13-.27.9-1.23.94-1.27.04-.04-.37-1.1-.89-1.75-.52-.65-.71-2.65-.94-2.94s-1.15-.2-1.46-.46c-.31-.26-4-2.43-6.55-2.48-2.56-.06-3.09-.67-2.94-.72.15-.06-3.38-2.92-4.1-3.27-.72-.35-1.26-2.05-1.51-2.1-.26-.05-.23-.94-.1-1.16.13-.22-.49-.86-.92-.79-.44.07-4.54-.22-4.64-.2-.1.02.33.86-.31,1.01-.64.15-2.72.05-2.72.05l-2.95-.72-1.87-2.17s-1.49.15-1.76.25c-.27.09-1.36.69-1.65.87s-.4,1.41-.4,1.41c0,0-.64,2.1-.88,1.95-.24-.15-.73-1.69-.65-1.81.08-.12.47-1.32.65-1.64.18-.31.56-.54.61-.89.06-.35-.73-1.1-.98-.62s-3.83,2.58-4.34,2.68c-.51.1-1.43-.37-1.69.47-.26.84-1.84,2.12-2.31,2.44-.46.32-.77,1.14-.97.62s-1.38-2-1.82-1.95c-.44.05-3.3,1.01-3.64,1.08-.35.07-1.88-.54-2.31-.8s-1.04-.76-1.77-1.26c-.73-.5-1.33-.83-1.25-1.61.08-.78-.27-4.07-.1-4.17s.96-1.09.61-1.57c-.35-.48-.67-1.15-1.08-1.26-.4-.11-1.46-.85-1.88-.74s-4.02.25-4.53.2c-.51-.05-1.61.1-1.67-.52-.05-.62.31-3.43.31-3.43,0,0,.46-.86,1.18-1.48.72-.62.97-1.28,1.08-1.7.1-.42,1.1-1.73.59-1.8-.51-.07-4.15-.37-5.05.22-.9.59-1.43,2.39-1.74,3.01-.31.62-.61,1.43-3.33,1.53-2.72.1-3.46.74-3.84.1-.38-.64-4.41-2.77-4.46-6.59-.05-3.83-.08-5.48-.15-5.78-.08-.3.79-.54.33-1.56-.46-1.01-.56-2.94.92-3.26,1.49-.32,1.61.02,2.28-.77.67-.79,1.38-1.33,2.15-1.28.77.05,3.38-.15,4.54.3s1.79,1.04,2.2.52c.41-.52.13-1.21.1-1.28-.03-.07,7.1-.94,8.02-.54.92.4,1,.84,1.77.84s1.1-.1,1.51-.07,2.08,2.05,2.2,3.14c.13,1.09,1.38,2.07,1.61,2.64.23.57.49,2.2,1.49,2.1,1-.1,1.02-1.36.87-2.12-.15-.77-1.77-4.52-1.95-5.85-.18-1.33-1-1.26-.13-2.57.87-1.31,2.2-2.17,2.51-2.39.31-.22,5.48-3.23,5.36-3.56s-.72-.74-.23-1.11,1.97-.49,1.38-.99-1.26-1.06-1.28-1.7c-.03-.64.2-.62-.36-1.06s-.72-.84-.33-.94c.38-.1.64.62,1,.62s.44-.54.44-.69.2-1.14,1-1.36c.79-.22,1.08.69,1.43.67s.87.07.95-.32.44-1.26.51-1.58.31-.59.77-.77c.46-.17.49-.15.97-.37.49-.22,3.61-.72,3.69-1.28s.02-.85.27-1.54c.25-.69.96-1.61,1.56-2.09.6-.48,1.4-.54,2-.76.6-.22.48-.06,1.1-.48.61-.43,1.48-.44,1.19-.98-.29-.54-.33-.56-.33-.74s.08-.61.08-.61c0,0,.9.98,1.04,1.09.13.11-.19.13.35.2s.79.11,1.36.07c.58-.04.61-.04.79-.15.17-.11.83-.72.31-2-.51-1.28-.36-1.41-.15-1.38.2.02.95-.05.95-.05,0,0,.72-.54.36-.72-.36-.17-.08-1.23-.08-1.23,0,0,.28-.64-.08-.64s-2.36.25-2.36.25c0,0-1.97.44-2.69.54-.72.1-2.77,1.23-3.13,1.38-.36.15-1.31.25-1.28.15.03-.1.9-.91,1.31-1.09.41-.17.44-.17.92-.49.49-.32,1.15-.77,1.15-.77,0,0,1.1-.89,2.79-1.38,1.69-.49,3.77-.54,4.2-.49.44.05.87.15,1.77.17.9.02.97.07,2.64.07s3.61.07,4.02-.42c.41-.49,3.97-2.02,3.97-1.75s-1.38,3.28-1.64,3.6c-.26.32-1.05,1.14-1.08,1.73-.03.59.54.79,1.38.91.85.12,2.72.15,2.72.15l2.1-.35,1.43-.49s-.13-.99-.15-1.11c-.03-.12.28-.77-.38-.62-.67.15-3.79-.59-3.79-1.01s.54-1.11.74-1.36.61-.47.54-1.28-1.49-2.17-1.27-2.32c.22-.15.79-.88,0-1.26-.79-.38-2.01-.72-2.08-.88-.06-.16-1.83,1.17-3.8,1.32-1.97.15.2-1.01.2-1.01,0,0,.67-.62,1.1-.77.44-.15,1.38-.25.59-.74-.79-.49-1,.12-2.05.02-1.05-.1-.51-.89-1.43-1.19-.92-.3-1.46-.69-1.82-.94-.36-.25-1.18-.79-1.13-.89.05-.1.44-.3.85-.42s.26-.67-.31-.96c-.56-.3-1.61-1.04-1.61-1.04,0,0-1.67-1.43-1.67-1.58s-.05-1.09-.38-1.11-.97-.2-1.08.32c-.1.52.33,1.53-.64,1.75-.97.22-1.15-.4-1.26-.42-.1-.02-1.26.37-1.43.42-.18.05-1.08.77-1.08.77h-1.05s.24-.79-.24-1.01c-.49-.22-2.41.16-2.59.16s-1.19-.16-.88-.38c.31-.22.53-.28.69-.4.17-.11.31-.54.31-.54l-.42-.72s-.31-.41-.73-.4c-.42.01-.67-.16-.67-.16,0,0,.72-.23,1.01-.3.29-.06.95-.28.95-.28l-.56-.33-.68-.25-2.43-.45s-2.11-1.54-2.54-1.63c-.42-.09-2.48-.17-3.15-.17s-1.25.37-1.67-.02c-.42-.39-2.46-.52-2.56-.52s-.46.33-.44.39c.02.06,1.15,1.11,1.15,1.11,0,0,.15,1.09.17,1.31.02.22-.19.72-.19.72,0,0,.48.8.4.93-.08.13-.65.94-.81,1.02-.15.07-.69.72-.69.8s1.29.89,1.54,1.09c.25.2,1.19,2.13.96,2.81-.23.69-.83.89-.85,1.06-.02.17-.56.43-.71.54-.15.11-1.63.94-1.63.94,0,0-1.65.13-1.65.41s1.62,3.32,1.52,3.81c-.1.49-.2,1.85-1.41,1.63-1.2-.22-3.18-.86-4.46-2.49s-.23-3.68-.82-3.95c-.59-.27-3.84.02-5.36-.12s-4.61-2.05-5.25-2.32c-.64-.27-2.33-.57-2.33-.57l-4.32-.58s-.85-1.78-2.15-2.19c-1.31-.41-3.23.04-2.42-1.93.81-1.96,2.65-3.81,3.69-4.26,1.04-.44,2.27-.63,2.73-.96.46-.33,1.23-1.7.04-1.63-1.19.07-4.77.63-4.3.19s3.15-.63,3.15-.63c0,0,2.23.48,2.77.56s1,.07,1.19-.19c.19-.26,1.81-.7,1.81-.7,0,0,2.65-1.02,2.33-1.04s-2.02-.04-2.08-.04-1.33,0-2.08-.46-1.75-.43-1.4-.85c.35-.43,2.21-.39,2.42-.31.21.07,1.86.44,2.29.52.42.07,1.4.24,1.56.19.15-.06.58-.2.69-.39.12-.19-.08-.74-.08-.74l-.33-.46,1.63-.52s1.21-.02,1.31.02c.1.04,6.3-.17,6.34-.8s-.65-1.33-.92-1.48c-.27-.15-5.65-1.52-5.65-1.52l.35.89-1.77.93-1.46,1.67s-3.07-1.59-2.84-1.78.73-.96.42-1.11c-.31-.15-2.34-.59-2.34-.59,0,0,1.96,1.81-.31,1.19-2.27-.63-3.38-1.41-3.38-1.41l-.92-.78s-.92-.59-.92-.85-3.07-2.1-3.96-1.89c-.88.21-1.45.46-1.46.68s.61.67.61.67l-.83.49s.24.35.69.53,1.27.41,1.81.4c.54-.01,1.73.14,1.73.14,0,0,1.59.83.64,1.42-.95.59-2.24,1.6-2.64,1.56-.4-.05-1.24-.12-1.24-.12,0,0-20.22-.23-20.22-.01s.81,1.04.85,1.19c.04.15-.27.67-.65.96s-1.5-.67-2.15-1.04c-.65-.37-2.54-.89-2.54-.89l-17.56-3s-4.34.11-6.38-.07c-2.04-.19-1.96.59-2.77.7-.81.11-2.61-2-3.61-1.93-1,.07-3.38.74-4.38.63-1-.11-1.54,1.26-1.54,1.26l-1.92-.48s-2.27,1.04-3.96,1.04-3.8-.04-3.8-.04l-3.73-.22-30.18-3.6s-3.59.89-5.94,1.09c-2.36.2-4.51.94-5.12,1.68s-6.15,2.22-6.15,2.22c0,0,11.38,2.86,10.86,3.11-.51.25-5.38.74-6.15.44-.77-.3-2.82-.64-4.05-.05-1.23.59-.2,1.43.51,1.93.72.49,5.94,1.04,7.02.79,1.08-.25,2.87.49,2.66.64s-2.82,1.38-2.82,1.38c0,0-3.33.69-3.89.69s-2.05,1.38-2.05,1.38c0,0-.41.74-.2.84s2.56,1.28,2.56,1.28l1.59.05s-.85.35-1.35.51c-.5.17.15.65.63.65s1.54-.11,1.54-.11v-.17l1.11.33.35,1.28,2.19.13s2.65-.52,4.09-.48c1.44.04,1.88,1.07,1.84,1.3s-7.55,4.73-6.39,5.06c1.15.32,5.97-1.68,5.97-1.68Z" style="fill:#2ab445; stroke-width:0px;"/><path d="m254.82,71.03s-.61-1.78.88-1.7c1.5.07,4.96,1.3,5.84,1.33.88.04,1.04.07,1.04.19s.23-.44,1.27-.63,4.38-1.85,5.03-1.85,8.38-.89,9.53-.59c1.15.3,1.19,1.26,1.69.93.5-.33.96-1.19,1.54-1.19s1.58-.19,1.61.3,1.88-.48,1.92-.07c.04.41-1.04,1.07-1.04,1.26s.54,1.44.54,1.44l-.19,1.19-.27.33s-.04.89.12,1.15.38.41.38.41c0,0,.38.15.54.33.15.19.27.3.27.3l2.38.44s-.23-.04.54-.07c.77-.04,1.46-.07,1.46-.07,0,0-.04-.19.85.52.88.7,1.31,1.07,1.31,1.07l1.15,1,.85.26s1.31-.22,1.96.15c.65.37.85.56.85.56,0,0,.31.3.58.37.27.07.35.19,1.04.3s.96-.04.96-.04l.31-1,1.46-2.33,1.15-1.22s.5-.3,1.23-.04c.73.26,1.35.3,1.61.59s4.8,2.19,7.39,2.65c2.59.47,4.3.47,4.3.47,0,0,1.77-.27,2.28-.37.51-.1,1.79-.3,1.79-.3,0,0,3.46.27,3.61.35.15.07.99,4.73.7,4.79-.29.06-.69-.04-.69-.04,0,0,.06.78-.17.81-.23.04-.9-.8-1.19-1.09-.29-.3-1.23-1.33-1.23-1.33,0,0-1.21-.69-.98-.19.23.5,2.15,1.56,2.21,2.35.06.8.56,2.11.65,2.37.1.26.61,1.39.75,1.65s1.58,2.46,1.58,2.46c0,0-.02.44-.17.93-.15.48.25,1.02.5.98.25-.04,1.83.48,1.88.57.06.09.33,1.04.33,1.04,0,0,.23.69.35.94.12.26.21.98.19,1.06-.02.07.12,2.44,1.12,3.41,1,.96,1.64,1.93,1.74,2.25.1.32.54,1.36.74,1.65.2.3.61.64.9.99s4.64,4.02,4.64,4.02l-.67.72.54.37s1.46.1,1.54.12.03.89,0,1.01c-.03.12.05.64.15.77.1.12,1.77,2.1,8.03.36,6.26-1.74,5.61-.48,5.46.37-.15.85-3.73,9.44-9.38,13.52-5.65,4.07-7.23,7.44-7.8,7.55s-3.04,4.04-3.42,4.26c-.38.22.19,3.81.35,4.44.15.63.35,3.44.35,3.44,0,0,2.04,3.22,1.65,6.67-.38,3.44-.27,5.18-1.35,5.33-1.08.15-8.26,4.67-8.26,5.22s1,4.59.92,5.33c-.08.74-.42,2.41-.73,2.41s-3.73,1.78-3.73,2.41-.19,3.22-.65,3.67c-.46.44-2.08,1.78-2.23,2.11-.15.33-5.47,6.93-10.54,7.52-5.07.59-5.74.59-6.97.69-1.23.1-3.38.59-3.95-.69-.56-1.28.31.05-.87-3.01-1.18-3.06-4.46-7.6-4.46-7.6,0,0-1.18-5.83-1.43-7.36-.26-1.53-5.79-8.54-5.07-9.28.72-.74,1.32-5.41,2.66-7.7,1.35-2.3.15-4.89-.04-5.44-.19-.56-.15-.44-.04-1.59.12-1.15-.96-3.07-1.35-4.3-.38-1.22-6-7.44-5.77-8.3.23-.85,2.27-2.63,1.81-2.81-.46-.19-.85-.89-.46-1.48.38-.59.42-1.15.04-2-.38-.85-.42-2.19-.73-2.22-.31-.04-1.15,1.59-1.61,1.33-.46-.26.46-1.81.46-1.81l-3.07.33-2.61-.56s-.12-1.07-.31-1.48c-.19-.41-.85-.41-1.31-.52-.46-.11-2.54-1.48-3.5-1.15-.96.33-1.19.33-2.11.74-.92.41-2.11.78-2.54,1.07-.42.3-1.9,1.22-4.48.85-2.59-.37-4.43-.2-5.69.4-1.26.59-2.28,1.04-3.48.47-1.2-.57-3.61-2.72-3.97-2.77-.36-.05-3.69-2.42-3.87-3.8-.18-1.38-3.38-3.98-4.36-5.23-.97-1.26-1.46-1.58-1.38-1.95s.79-.42,1.41-.49c.61-.07,1.54.2,1.77-.15.23-.35-2.33-.64-2.33-.64,0,0-1.2-.12-1.67-.77-.46-.64-.85-1.16-.85-1.16,0,0,1.23-1.85,1.38-2.47.15-.62.38-.81.26-1.51-.13-.69-.23-1.31-.23-1.31l-.15-4.12s-1-.86-.92-1.19c.08-.32.28-.59.31-.91s.1-.81.1-.81c0,0,5.15-8.27,6.56-8.69,1.41-.42,1.54-.69,1.67-.96s.61-.54.61-.54l2.77-2.05s-.26-.91.28-3.11c.54-2.2,1.51-2.49,2.41-3.01s2.28-1.09,2.54-1.28c.26-.2.72-1.26.72-1.26Z" style="fill:#2ab445; stroke-width:0px;"/><path d="m270.59,58.57s.5,1.37-1.08,1.91c-1.58.54-3.84,3.2-3.77,3.57.08.37.44.67.52.74.08.07.17.31-.19.33-.37.02-.73.11-.81.28-.08.17-1.52,1.76-1.92,1.87s-2.79,1.02-2.86,1.02-2.02-.09-2.11-.09-1.35,1.06-1.53,1.22-1.43,1.25-1.91.16c-.47-1.09.17-1.42-.35-1.72-.51-.3-3.01-.02-3.73-.16-.72-.14-.46-.4-.79-1.36s-.49-1.77-.73-1.81.05-.27.31-.44c.26-.17.92-.93.92-.93,0,0-.29-1.3-.03-2.22.27-.93.35-1.56.37-1.59.03-.04.45-.12.45-.12l-.28-1.04s-1.06-.64-.74-.95c.32-.31,5.33-.26,5.33-.26,0,0,4.24-.11,4.66-.11s1.96.36,2.28.4c.32.04.83-.67.83-.67v-1.07l.83-1.03-.21-1.24-1.1-1.07-1.11-1.16-1.18-.88s-1.02.02-1.47-.53-.61-.98-.54-1.01c.08-.04,1.5-.4,2.31-.35.81.05,2.23.07,2.38-.16s.29-.63.29-.63c0,0-.14-.32.32-.37s1.43.19,1.83.07c.4-.11,2.59-.63,2.59-.96s.17-.85.18-.9.1-.57.41-.58c.31-.01.42.1.81.14.38.04.88.12.94.02.05-.1.14-.32.24-.43.1-.11.19-.15.33-.23.14-.09.67-.25.74-.22.08.02,1.28.38,1.28.38,0,0,.14.05.22-.06.08-.11.22-.37.23-.49s.05-.44.05-.44c0,0,1.49-1.31,1.82-1.42s.83-.99,1.24-1.11-.23-.09,1.09-.2c1.32-.11,1.02-.04,1.46-.15.44-.11,1.23.02,1.26-.37.03-.4.08-.33.09-.59s.12-.7.12-.7c0,0,.29-.48.74-.32s1.29.53,1.49.68,1.27.44,1.27.44l1.19.09s4.8-.11,4.8.04-.03.44.77.15c.79-.3,4.02-.91,4.02-.91l3.38-.22,1.38-.22s1.82-.4,2-.67c.18-.27.28-1.51.28-1.68s.72-1.78,1-1.9c.28-.12.36-.96.54-1.01.18-.05,1.15.59,1.72.96.56.37,2.82-.41,2.69-.88-.13-.47-.15-.52-.46-.73-.31-.21-1.32-.16-1.23-.6.09-.44,1.01-1.04,2.77-1.12,1.76-.09,2.33-.17,2.97-.19.64-.01,0,.77.88.54.88-.22,2.86-1.43,3-1.43s-1-.85-.87-1.21c.13-.36-.5-.69-1.05-.27-.55.42-2.02.8-4.48.67-2.46-.14-7.15.02-6.79-.06.36-.09-.38-.11.08-1.22.46-1.11-.54-1.3-.19-1.67s3.73-3,4.96-3.78c1.23-.78,1.73-.78,1.73-1.67s-4.61-.7-4.92-.56c-.31.15-2.08.63-1.96,1.22.12.59.73,1.26-.15,1.56-.88.3-2,1.78-3.42,1.78s-4.15,2.19-3.84,3.18c.31,1,2.33,1.33,2.19,1.69-.13.35.4.48-.42.93-.83.44-.44,1.15-1.19,1.26-.75.11-1.52-.19-1.75.11-.23.3-.5,1.96-.5,1.96,0,0,.88.39.46,1.04-.42.65-1.52,1.17-1.67,1.2s-.96-.17-1.29.17c-.33.33-1.27,1-1.83.89-.56-.11-.81-.48-.81-.83s-2.86-4.28-2.67-4.78c.19-.5.23-.17.86-1.09.63-.93,1.52-1.63,1.17-1.94-.35-.31-.4-.44-.6-.43-.19.02-.73-.37-.58-.02.15.35.48.72.33.91-.15.19-.46.81-.79.81s-.61.96-.83,1.24-.63.35-.98.02c-.35-.33,1.21-.81.42-1.07-.79-.26-1.92,1.24-1.92,1.24,0,0-2.9,2.42-5.02,1.68-2.13-.74-1.64-1.58-1.28-1.75.36-.17,1.13-.84,1-1.36s-.72-.84.13-1.41c.85-.57,1.2-.89,1.05-1.09-.15-.2-.54-.59-.41-.72s3.64-1.78,5.12-2.22c1.49-.44,3.48-2.64,3.69-2.72s.74-.27.74-.27c0,0,.06-1.29.39-1.35.33-.06.37.19.77-.02.4-.2,1.03-.08,1.07.07.04.15-.86,2.22-1.01,2.3-.15.07.44.32.33.52-.1.2-1.05.49-1.05.49,0,0,0,.37.53.42s1.08.42,1.24-.84c.17-1.26.29-1.86.74-2.26s.69-.04,1.58-.91c.88-.88,1.51-1.6,1.26-1.6s-.67.46-.86.22c-.19-.23.44-.9.46-.94.03-.04.6-.47.68-.3.08.17-.14.42.28.28s2.99-.93,3.19-.93,1.97-.11,2.46-.21c.49-.1,1.31-.38,1.55-.56.24-.17,1.28-.05,1.38.01.1.06-.81-.79-.57-.81.24-.03.38-.15.24-.31-.14-.16-.83-.51-.59-.75.24-.24,3.34-.19,4.51-.67,1.17-.48,1.52-.88,1.72-.83s.03.74.37.81c.35.07,1.18-.49,1.6-.52s1.49-.04,2.01-.04.94-.42.97-.42,1.1.53.9.73c-.2.2.46.54.64.57.18.02,1.06.01.95.23-.12.22.2.17-.44.8-.64.63-.91,1.1-.45,1.59.46.49.96.23.85.17-.12-.06-.27-.43-.01-.64.26-.21.67-.43.97-.56.31-.12,3.98-1.41,5.19-1.06,1.2.35,7.35.69,8.43,1.41,1.08.72,1.36.64,2.28.84.92.2,2.66.25,2.66.99s-.49.91-1.02,1.43c-.54.52-.74.64-3.59.44-2.84-.2-4.74-.67-6-.79-1.26-.12-2.69-.81-3.2-.69-.51.12-.51.91-.03.91s2.51.69,2.79,1.01c.28.32.92.42.69,1.14-.23.72,1.18,1.8,1.36,1.8s1.56.54,1.56.54l1.9.25s1.2-.15,1.41-.44c.2-.3,1.74-.96,1.74-.96,0,0,2.51.25,2.59.25s-.9-1.7-.9-1.7c0,0,2.97-.91,3.38-.91s2.66-.07,3.15-.1c.49-.02,1.77-.74,1.9-.91.13-.17,1.33-.49,2.1-.47s2.31-.05,2.31-.05c0,0,4.61-2.37,7.69-2.22,3.07.15,1.82.47,4.84.15,3.02-.32,4.15-.52,4.15-.52,0,0,2.46.02,3.1.37s3.89.49,3.48-.12c-.41-.62-1.9-1.33-1.2-1.73.69-.4,2.64-.02,2.9,0s5.97.49,7.2,1.2,2.96,1.07,3.15,1.07,1.46-.07,1.31-.41c-.15-.33-.61-.96-.61-.96,0,0-1-.89-1.11-.96-.12-.07-1.58-1.3-1.58-1.3,0,0,.65-1.52.73-1.63s1.96-.81,1.96-.81c0,0,1.42-1.44,1.69-1.63.27-.19,2.04-1.41,2.42-1.3.38.11,3.23,1.75,3.16,2.06-.06.31.08.06-.4.63-.47.57-1.01.54-.64,1.02s.87.8.87.8c0,0,.2.63.08,1.01-.13.38-.47,1.69-.47,1.69,0,0-.01,1.02.04,1.09.05.06,1.4-.07,1.4.22s-3.61,2.77-3.8,3.14c-.19.37.12.7.38.7s2.23.11,2.42-.11c.19-.22,3.04-1.56,3.07-1.89.04-.33.31-2.22.31-2.22h1.88c.19,0,1.54-.07,1.69.37.15.44.79,1.75,1.35,1.83.55.07,1.55.04,1.6.02.05-.01.17-.63-.55-.89-.72-.26-.9-.36-.9-.36,0,0,.05-.49.09-.49s.67.06.67.06l-.72-.74s-.92-.69-1.04-.72c-.12-.02-1.27.06-2.82-.19-1.55-.25-2.49-.83-2.5-1.07-.01-.25.38-.28.55-.48.17-.2,1.17.11.09-.53-1.08-.64-.86-.32-1.19-.79s-.55-.72-.56-.85.88.01,1.33.01,1.41-.06,1.41-.06c0,0,4.34,1.36,5.52,1.36s.73-.54.13-.8c-.6-.26-2.77-1.2-2.77-1.2,0,0,.15-.33.37-.35s1.75.17,2.15.2,1.5-.2,1.77-.37c.27-.17.88-.22,1.92.3,1.04.52,2.38.56,2.86.69.48.13,1.48.35,1.48.35,0,0-.38.76-.61.76s-.65,1.69-.65,1.69c0,0,1.23.41,2,.52.77.11,1.52-.63,1.11-1.63-.4-1-1.15-2.28-2.61-2.68-1.46-.41-1.88.13-2.13-.63-.25-.76-.02-1.06-.08-1.22-.06-.17.6-.28,1.02-.33.42-.06,10.06-.09,9.79-.33-.27-.24-1.34-.3-1.1-.76.24-.46-.5-1.05-.5-1.05,0,0,21.76-2.18,24.99-2.25,3.23-.07,5.61-2.37,6.61-2.15,1,.22.46.67,3.23,1.26,2.77.59,9.66,1.38,9.71,1.9.05.52,2,.05,1.43.57-.56.52-10.33,2.35-11.15,3.58-.82,1.23,9.76-.37,11.02-.15,1.26.22,1.95.44,2.43-.2.49-.64,2.95-.57,3.87-.3.92.27,1.74.35,3.1.79s3.51.32,3.51.32c0,0,4.89.02,5.37-.57.48-.59,3.77-.31,5.27-.2,1.5.11,3.92,1.04,3.63,1.2s-.33.2-.52.33c-.19.13-.92.43-.92.43l.77.85s2.61,1.85,4.36,1.72c1.75-.13,1.27-.56,1.94-.89.67-.33.83-.81,2.06-.74s11.66.39,11.66.39c0,0-.38-.32.59-1.04.97-.72,3.18-.89,4.25-.79,1.08.1,1.69,1.19,2.66,1.28.97.1,2.18.47,2.38.44s1.49-.79,1.49-.79c0,0,1.84-.12,2.15-.02.31.1,0,.69,1.31.69s18.44,1.31,18.69,1.69c.25.37-.1,1,.54,1.3.63.3,1.35.54,2.81.5,1.46-.04,9.86-.21,11.08.4,1.22.6,2.2,1.2,3.33.98,1.13-.22,2.14-.26,2.15-.44s-.53-.35-.53-.35l-.97-.74.94-.3s-.59-.33.26-.25c.85.09,14.17,1.07,14.63,1.89.46.81.42,1.11.12,1.63-.31.52-.42,1.41-.23,2.26.19.85.61,2.22.31,2.52-.31.3-1.58,1.11-2,1.04-.42-.07-2.27-.59-2.84-.48-.58.11-3.19.3-2.34.44.85.15,1.38.07,2.08.19.69.11,1.73.11,2,.22.27.11.77.67.92,1.19.15.52,1.42,1.33,1.42,1.33,0,0-.19.56-1.46.56s-4.27-.26-4.5-.11c-.23.15-8.12,2.06-8.84,2.68-.72.62-.67.64-1.64.54-.97-.1-4.89-.2-6.53-.2s-3.54.52-4.1.79c-.56.27-.97.69-.85.91.13.22.33,1.11.79.99.46-.12.26,0-.15.15-.41.15-1.15-.07-1.15-.07l-.2-.25-1.33.84s.18.95.6,1.02,1.35.59,1.35.59l-.15,1.04s.61.37.58.56-.69.41-1.11.52c-.42.11-1.77.93-1.58,1.41.19.48,2,.89.42,1.37-1.58.48-2.54,0-3.04.33s-.61,1.19-.54,1.44c.08.26-.77.52-1.19.59-.42.07-1.84,1.04-1.84,1.04l-2.38,1.44-1.69-3s-.81-5.67-.46-5.89c.35-.22,2.58-.15,2.58-.56s.12-1.11.12-1.11c0,0,1,0,1.38-.15.38-.15,8.84-4.78,9.57-5,.73-.22,1.31-1.7,1.31-1.7l1.35-.63s-1.38-.67-1.73-.67-1.84,1.15-2.08,1.48c-.23.33-2.38,1.59-3.46,1.67-1.08.07-2.19.11-2.08.07.12-.04.19.15.61-.33.42-.48,1.19-1.07-.08-1.15s-4.88.04-6.11.74-3.23,2.19-3.23,2.19c0,0,.77.85,1.08,1.04.31.19.96.37-.65.37s-6.15.26-5.92.15c.23-.11.46-1.19-1.04-1.19s-3.69.67-3.19.7c.5.04-11-.12-11-.12,0,0-3.89,1.23-4.61,1.88-.72.64-4,3.8-4,3.8l-2.97,1.09s-.47.95.68,1.28c1.15.33,1.38.74,1.35.85-.04.11,1.02.74,1.65.8.63.06,2.11-.96,2.42-.96s2.77,1.57,2.77,1.57l.86,2.09s-.58.35-.77.89c-.19.54-.29,1.96-.29,1.96,0,0,.86,2.82-5.75,7.76-6.61,4.94-8.66,3.75-8.66,3.75l-2.15.69s-1.28.74-1.38.99c-.1.25-.26.79-.31.99-.05.2-1.33,2.42-1.95,2.47-.61.05-3.28,1.04-3.28,1.04,0,0,1.79,1.33,1.95,1.43.15.1,1.88,2.07,1.97,2.31.1.24.08,1.63.06,2.09-.02.46.25,1.5-.71,1.48-.96-.02-3.34.2-3.73.2s-.92-.54-.56-1.19c.37-.65.73-1.85.94-2.63.21-.78,0-1.26,0-1.26l-1.75-.46s-.63.52-.88-.26c-.25-.78-.44-.57-.25-.78s.33-.22.33-.22l.08-.19s.73-.44-.02-.67c-.75-.22-.88-.28-.88-.28l-.73-.13-1.29.2-1.17.35s-2.69.7-2.77.5c-.08-.2.69-1.28.69-1.59s.38-1.37.23-1.39-.92-.43-2.67.57-1.44,1.33-2.48,1.69c-1.04.35-1.33.41-1.33.41l-.6.83s-.15,1.3.44,1.26c.6-.04,1.84,1.48,1.84,1.65s1.46-.07,2-.3,2.73-.02,2.9.2c.17.22.02.67-.27.67s-2.48.31-2.98.85c-.5.54-1.75,2.13-1.75,2.13,0,0,3.23,2.07,3.19,2.57-.04.5,1.06,1.31.73,1.44-.33.13-2.52.52-1.96.76.56.24,2.71.7,2.5,1.35s-.98.72-1.06.8c-.08.07-1,.5-.4.8.6.3.86.44.9.69.04.24.35.7,0,1.13-.35.43-2.06,2.24-2.15,2.78-.1.54.12.24-.79,1.15s-1.13,1.65-1.13,1.65c0,0-2.18,2.62-3,2.87s-3.28,2.02-4.71,1.98c-1.43-.05-.51-.69-1.69-.15-1.18.54-6.25,1.83-6.25,1.83l-4.36-.05s-1.28.49-1.13.59c.15.1,1.64.74,1.28.79-.36.05-2.41,1.83-2.41,1.83,0,0-.94,1.54-.12,2.19.83.65,2.98,3.94,2.98,3.94l1.81,1.8s.08-.07.46,1.11c.38,1.19.35,2.72,0,3.5-.35.78-1.08,2.02-1.65,2.19-.58.17-.92-.09-2.17.72-1.25.81-1.56,1.8-1.84,2.06-.29.26-.75.54-.96.41s-.5-1.67-.5-1.67c0,0,.63-.78.4-.93-.23-.15-1.11-.15-1.11-.15,0,0,.08.3-.77-.19-.85-.48-1-.2-1.5-1.35-.5-1.15-.33-1.22-.85-1.67-.52-.44-.6-.22-1.29-.46-.69-.24-1.56-.02-1.73-.39-.17-.37-.56-.69-.56-.69l-.58.19s.29.63-.04,1.02-.63.98-.86.87c-.23-.11-.48.56-.48.56l-.37,2.68.4,1.91s.71.87,1.48,2.01c.77,1.14,4.66,3.65,4.66,3.65,0,0,.97.74.82,2.37-.15,1.63,1.18,3.95,1.18,3.95,0,0,.77.79-.2.84s-3.74-1.38-4.92-2.91-1.59-4.79-2.31-5.88c-.72-1.09-2.56-3.65-2.56-3.65l1.08-7.26s-.92-1.23-.97-1.58c-.05-.35-1.43-4-1.43-4,0,0-1.74.3-2.15-.1s-2.87.69-3.28-.4c-.41-1.09,1.69-1.83-.72-3.75-2.41-1.93-3.13-3.8-3.13-3.8l-1.95-1.68s-2.97.99-3.48.89c-.51-.1-.31-1.58-.31-1.58,0,0-.72,1.21-1.08,1.33s-1.72.89-1.77,1.01c-.05.12-.69,2.39-1.67,2.74-.97.35-1.38.49-1.74.89-.36.4-1.95,1.73-1.95,1.73,0,0-1.9.99-2.31,1.58-.41.59-1.23,1.68-1.9,1.98-.67.3-2.46.89-2.46.89,0,0,.15,1.09,0,1.73-.15.64-.31,6.12-.92,6.27-.61.15-.15,1.04-.97,1.58-.82.54-1.38.84-1.69,1.38-.31.54-.56,1.14-.61,1.33-.05.2-.15,1.04-.72.2-.56-.84-2.2-3.16-2.36-3.65-.15-.49-2.97-9.14-2.97-9.14,0,0-1.74-2.32-2.2-3.65-.46-1.33-.56-5.78-.56-5.78,0,0,.26-1.23-.51-1.28-.77-.05-.79,1.8-.79,1.8l-1.23,1.06s-2.15-1.46-2.59-1.7c-.44-.25-.69-.89-.69-.89l1.26-.59s.79-.2.77-.62c-.03-.42-1.49-.25-1.49-.25l-2.02-.79-.36-.42-.69-.3-.59-.59s-2.61-1.58-7.84-1.69c-5.23-.11-7.8-.7-7.8-.7l-2.31-1.04s.04-1.07-.15-1.33c-.19-.26-.73.26-2.69.41-1.96.15-3.38-.48-3.38-.48l-1.31-1.11s-1.52.22-2.68-1.09c-1.15-1.31-1.26-2.22-3-2.32-1.74-.1-1.82,0-1.87.2-.05.2.1.94.1.94,0,0,.13.64,1.26,2.25,1.13,1.6,1.18,1.6,2.02,2.77.85,1.16,1.61,2.42,1.61,2.42l.95,1.31s-.44.77,1.43.27c1.87-.49,3.02-.49,3.02-.49l1-.1.97-.49s1.15-.91,1.59-.84c.44.07.95.77.95.96s-.08.69.9,1.01c.97.32,1.31.35,1.77.57s1.38.64,1.59.79.13.15.33.44.28,1.48.28,1.48l-.97,1.09s-.49.22-.72.42c-.23.2-1,1.04-1,1.04l-.51.62-.28.59-.69.81-.95.99s-.31.3-.69.49c-.38.2-.77.37-.77.37l-.33.17-.44.52-.15.17s-2.59.67-3.15.67-2.38,1.14-2.38,1.14l-1.61,1.68s-1.41.77-3.48,1.53c-2.08.77-9.94,2.89-10.07,2.69-.13-.2.15-1.04.15-1.04l-.56-4.79s-1.13-2.89-2.25-3.43c-1.13-.54-1.2-1.68-1.64-2.17-.44-.49-2.66-1.88-2.79-2.22-.13-.35-.41-4.02-.41-4.02l-2.36-1.75-4.25-6.78-1-4.18s.58-.15.81-.04c.23.11.77.52.77.52l.19-1.44s.58-.63.58-.89-.81-1.78-.88-1.89c-.08-.11,1.61-2.07,1.61-2.07l-.27-1.96,1.73-1.33s-3.38-.07-4.42.04c-1.04.11-2,1.33-3.23.85-1.23-.48-1.27-1.22-2.96-1.04-1.69.19-4.34-.15-4.34-.15,0,0-2.5-2.04-2.58-2.52-.08-.48-.96-2.19-.96-2.19,0,0,2-1.04.15-1.56-1.84-.52-3.77-.04-3.77-.04,0,0-.04.44-.46.52-.42.07-1.81,1.11-1.81,1.11,0,0-.15.41-.65,1.15-.5.74-.65,1.22-.65,1.22l.69,1.3s-.85,1.3-.96.85-.08-2.33-.35-2.67c-.27-.33-.85-1.7-1.42-1.74-.58-.04-.81-.07-1.23-.44s-.73-1.22-.73-1.22l-.15-1.19-.35-.96s-5.98-3.17-5.98-3.52-.92-1.04-.92-1.04l-.81-.74s-.94-.24-1.67-.52c-.73-.28-.98-1.02-1.31-1.02s-1.33,1.3-1.33,1.3c0,0,1.19,2.81,2.09,3.37.9.56,4.54,3.52,4.54,3.52l2.88.83s.98.35.79.67c-.19.31-.23.35-.61.22-.38-.13-2.27-.41-2.27-.41,0,0,.73,1.81.83,1.91.1.09-.17.09-.92.69-.75.59-1.61,1.22-1.61,1.22,0,0,.35-1.35.44-1.96s-1.25-1.61-1.25-1.61c0,0-2.65-2-3.52-2s-3.89-2.61-4.3-3.1-.08-1.11-.92-1.53c-.85-.42-3.72.69-5.59,1.38-1.87.69-3.54-.35-3.54-.35l-2.1.81-1.31.97Z" style="fill:#2ab445; stroke-width:0px;"/><path d="m430.67,126.81s1.38.28,3.48,2.34c2.1,2.07,3.48,2.53,3.89,2.8.41.28,3.43,2.3,3.64,2.76.2.46.46-.76,1.33,0,.87.76-.18.37,1.49,2.44,1.67,2.07,2.28,1.29,2.23,2.57-.05,1.29.1,4.55-1.13,4.16-1.23-.39-9.2-8.78-9.79-10.11-.59-1.33-1.43-1.88-1.84-2.14s-5.62-4.7-4.66-5.18c.96-.48,1.36.36,1.36.36Z" style="fill:#2ab445; stroke-width:0px;"/><path d="m453.41,132.62l1.35.1,1.35-.24s1.69-1.86,2.15-2.21,1.65-.9,1.65-.9c0,0,1.58-.48,2-.66.42-.17,1.27-2.14,2.19-2.48.92-.34,2.5-1.14,2.5-1.14,0,0,.92,1.07,1.38,1.24.46.17,2.5.21,1.96.72-.54.52-2.19.93-2.42,1.14-.23.21-1.23,2.65-.23,3.9,1,1.24,2,1.17,1.19,1.52-.81.34-2.27,2.1-2.27,2.1,0,0-1.11,1.79-1.42,2.1-.31.31-.58,2.17-.58,2.17,0,0-1.27,1.52-2.23,1.69-.96.17-.46-1.79-1.04-1.9s-1.15-.55-1.58-.55-4.84.03-4.84.03c0,0,.04-1.07-.58-2.83-.61-1.76-1.31-3.31-.54-3.83Z" style="fill:#2ab445; stroke-width:0px;"/><path d="m447.22,144.97c.07-.02.79-.55,4.44.19,3.65.74,4.21.22,4.36.22s1.75.45,1.98.62c.23.17,1.92,1.07,2.61,1.21.69.14,1.94.05,1.31.47-.63.41-5.34.48-7.82-.24-2.48-.72-6.13-1.76-6.48-1.91-.35-.16-.61-.5-.4-.55Z" style="fill:#2ab445; stroke-width:0px;"/><path d="m496.8,140.21s-1.04-1.17-1.38-1.07c-.35.1.27,1.65,1.15,2,.88.34,3.34,1.41,4.19,1.76.85.34,3.04,1.31,3.04,1.83s1.35,2.86,2.19,3.28c.85.41,1.65.59,1.65.59,0,0-.35-.79-.19-.62s2.11.93,2.65.9c.54-.03,1.46.07.58-.66-.88-.72-1.42-.86-1.23-1,.19-.14,1.46-.17,2.08-.14.61.03,3.23-.72,3.23-.72,0,0,7.53,5.07,7.23,4.1-.31-.97-3.34-3.28-3.77-3.93-.42-.66-.19-1.28.04-1.38.23-.1.96-.21-.92-1.03-1.88-.83-2.88-2-2.88-2,0,0-9.3-3.79-11.34-4.07-2.04-.28-2.5-.66-3.42.38-.92,1.03-.88,1.79-2.11,1.79s-.77,0-.77,0Z" style="fill:#2ab445; stroke-width:0px;"/><path d="m18.03,35.28s7.23-3.16,6.41-3.75c-.82-.59-.15-1.33,1.08-1.78,1.23-.44,1.28.44,1.43.84.15.4,4.1-.59,4.82-.64.72-.05,1.84.15,2.46-1.09s2.25-.74,1.64-.2c-.61.54,1.13.44,2.92.44s8.4.15,9.58.74c1.18.59,7.58,6.37,8.81,6.37s3.28,3.11,4.25,2.67.82-3.06,1.54-2.52c.72.54-.15,1.38.2,1.83.36.44.2,1.33.31,2.07.1.74,1.54,1.04,2.66,1.68,1.13.64,1.95.1,2.1.59.15.49-.87,1.93-.92,2.52-.05.59,7.74,3.85,7.74,7.31s-1.33,4.05-.87,5.68c.46,1.63.72,2.81.61,3.9s.2,2.12.56,2.91c.36.79,2.61,2.72,2.82,3.21s1.13,1.53,1.43,1.93c.31.4.31,1.23.82,1.78.51.54.31.49,1.28.59.97.1,4.06,1.41,4.89,3.1.83,1.69,4.26,5.64,4.7,6.01s-.15.98-.61.94c-.46-.04-.13,1.35.23,1.44s3.5,1.07,3.84,1.81c.35.74.79,1.83,1.04,2.31s1.5.8,1.92,1.46c.42.67,1.15,1.89,1.86,1.31.71-.57-1.25-2.26-2-3.37-.75-1.11-2.5-4.52-3.02-5.13s-2.11-2.5-2.9-3.18c-.79-.69-.9-3.18-.48-3.24.42-.06,1.61-.2,3.19,3.2,1.58,3.41,5.48,5.93,5.63,6.39.15.46.75,1.41.94,1.69.19.28,4.33,2.75,5.69,5.36,1.36,2.62,0,4.52,4.1,6.37,4.1,1.85,9.51,3.68,10.89,3.63,1.38-.05,4.18-.52,4.69-.27.51.25,3,2.22,3,2.22,0,0,5.38.96,7.48,3.04,2.1,2.07,2.92,2.52,3.13,3.65s1.9,1.58,2.72,1.78c.82.2,1.13,2.67,2.77,2.62s2.2.2,2.05.54,1.23.64,1.38.59,1.13.49,1.43-.49c.31-.99.41-2.57,1.49-2.12,1.08.44,1.18,1.93,1.74,2.47.56.54,1.69,5.83.46,7.16-1.23,1.33-1.79,1.93-1.9,2.47-.1.54-.97,1.38-1.23,1.88-.26.49-1.9,2.91-2.05,3.31-.15.4-.72,1.14-.15,1.38s1.64.1,1.49.59c-.15.49-.15.84-.51.99-.36.15-1.69,1.43-1.69,1.43,0,0-.04,1.35.54,1.83.58.48-.04.63,1.42,2.33,1.46,1.7,5.88,7.63,6.15,9.11.27,1.48,1.11,2.59,1.92,3.74s6.26,4.3,6.73,4.48c.46.19,1.65,1.74,2.04,2.3.38.56.31,8.93-.04,10.18-.35,1.26-.65,3.41-.96,4.15-.31.74-1.15,3.15-1.15,3.15,0,0,.23,4.59-.12,5.96-.35,1.37-.81,3.81-1.81,4.78-1,.96-1.73,1.85-1.69,2.37s.83,1.87.86,2.54c.04.67-.35,2.11-.5,2.48s-.85,1.7-.85,1.7c0,0-.52,3.43-.12,3.41s1.04-1.2,1-1.48.5-1.74.83-.78c.33.96-.23,3.83-.44,4.15-.21.31-1.42-.17-1.36-.3.06-.13.12.61-.63,1.37-.75.76-2.23,1.93-1.98,2.19.25.26.96.31,1.17.35.21.04.31.69.31.69,0,0-.23,1.19-.31,1.2-.08.02-.92.69-.94.74-.02.06.23,3.95,1.13,4.05.9.1,2.2,3.06,2.28,3.46s.2,2.35.77,2.44,5.94,2.64,7.3,2.74c1.36.1,4.13-.44,4.33-.91s.18-.96-.44-1.31c-.61-.35-1.97-1.65-2.31-2.39-.33-.74-1.49-2.57-1.49-3.28s-1-1.11.36-2.07c1.36-.96,1.61-.4,2.28-1.38.67-.99.67-1.04.67-1.04,0,0,2.38-.99,2.05-1.78s-3.59-.32-3.33-1.7c.26-1.38,2.18-1.85,2.79-2.15s1.33-1.19,1.49-1.98c.15-.79,1.61-1.43,1.95-1.8.33-.37.77-.94.26-.94s-1.64-.3-1.64-.3c0,0-1.15-.99-.46-1.56.69-.57,2.49-.37,3.36-.37s1.87.02,1.61-.69.08-2.32.44-2.3,6.64-1.27,7.16-1.51c.53-.23.78-.64,1.04-1.02.26-.38.91-1.19.91-1.19,0,0-.51-.48-1.08-1.19-.56-.7-.67-2.12-1.02-2.14-.36-.01,5.34.3,6.23-.15.88-.44,2.58-2.04,2.73-2.48.15-.44.03-.83.28-1.39.26-.57,1.02-.84,1.18-1.09.15-.25.2-.37.33-.59.13-.22,2.08-1.88,2.36-2.1.28-.22,1.69-2.15,1.84-2.39.15-.25.95.1,1.02-.57.08-.67.69-3.65,1.02-4.62.33-.96,1.84-1.23,3.33-2.02,1.49-.79,2.31-.57,2.77-1.38.46-.81,4.38-.94,4.46-1.38s1.08-1.38,1.13-1.51c.05-.12,2.49-3.63,2.49-5.75s1.13-4.35,1.18-5.97.97-4.84,1.95-5.63c.97-.79,4.46-3.01,4.61-3.8s-.05-4.3-.05-4.54-1.08-1.63-1.08-1.63c0,0-2.17-.65-2.9-1.01-.73-.35-4.21-2.19-6.07-2.7-1.86-.52-3.8-.43-3.88-.43s-1.92.48-2.09.65c-.17.17-.63-.96-.54-1.22.1-.26-.23-.85-.23-.85,0,0-4.39-1.65-4.78-1.66-.38-.01-.5.81-.72,1.07-.22.26-.09.96-1.55,1.14-1.46.17-2.09.48-1.43-.2.65-.68,1.63-1.27,1.64-1.48s.69-.62.01-.94c-.68-.32-1.68-.01-1.84.41-.17.42-2.05.74-2.23.69-.18-.05-.58-.83-.45-1.06s1.05-1.28,1.18-1.56c.13-.27.9-1.23.94-1.27.04-.04-.37-1.1-.89-1.75-.52-.65-.71-2.65-.94-2.94s-1.15-.2-1.46-.46c-.31-.26-4-2.43-6.55-2.48-2.56-.06-3.09-.67-2.94-.72.15-.06-3.38-2.92-4.1-3.27-.72-.35-1.26-2.05-1.51-2.1-.26-.05-.23-.94-.1-1.16.13-.22-.49-.86-.92-.79-.44.07-4.54-.22-4.64-.2-.1.02.33.86-.31,1.01-.64.15-2.72.05-2.72.05l-2.95-.72-1.87-2.17s-1.49.15-1.76.25c-.27.09-1.36.69-1.65.87s-.4,1.41-.4,1.41c0,0-.64,2.1-.88,1.95-.24-.15-.73-1.69-.65-1.81.08-.12.47-1.32.65-1.64.18-.31.56-.54.61-.89.06-.35-.73-1.1-.98-.62s-3.83,2.58-4.34,2.68c-.51.1-1.43-.37-1.69.47-.26.84-1.84,2.12-2.31,2.44-.46.32-.77,1.14-.97.62s-1.38-2-1.82-1.95c-.44.05-3.3,1.01-3.64,1.08-.35.07-1.88-.54-2.31-.8s-1.04-.76-1.77-1.26c-.73-.5-1.33-.83-1.25-1.61.08-.78-.27-4.07-.1-4.17s.96-1.09.61-1.57c-.35-.48-.67-1.15-1.08-1.26-.4-.11-1.46-.85-1.88-.74s-4.02.25-4.53.2c-.51-.05-1.61.1-1.67-.52-.05-.62.31-3.43.31-3.43,0,0,.46-.86,1.18-1.48.72-.62.97-1.28,1.08-1.7.1-.42,1.1-1.73.59-1.8-.51-.07-4.15-.37-5.05.22-.9.59-1.43,2.39-1.74,3.01-.31.62-.61,1.43-3.33,1.53-2.72.1-3.46.74-3.84.1-.38-.64-4.41-2.77-4.46-6.59-.05-3.83-.08-5.48-.15-5.78-.08-.3.79-.54.33-1.56-.46-1.01-.56-2.94.92-3.26,1.49-.32,1.61.02,2.28-.77.67-.79,1.38-1.33,2.15-1.28.77.05,3.38-.15,4.54.3s1.79,1.04,2.2.52c.41-.52.13-1.21.1-1.28-.03-.07,7.1-.94,8.02-.54.92.4,1,.84,1.77.84s1.1-.1,1.51-.07,2.08,2.05,2.2,3.14c.13,1.09,1.38,2.07,1.61,2.64.23.57.49,2.2,1.49,2.1,1-.1,1.02-1.36.87-2.12-.15-.77-1.77-4.52-1.95-5.85-.18-1.33-1-1.26-.13-2.57.87-1.31,2.2-2.17,2.51-2.39.31-.22,5.48-3.23,5.36-3.56s-.72-.74-.23-1.11,1.97-.49,1.38-.99-1.26-1.06-1.28-1.7c-.03-.64.2-.62-.36-1.06s-.72-.84-.33-.94c.38-.1.64.62,1,.62s.44-.54.44-.69.2-1.14,1-1.36c.79-.22,1.08.69,1.43.67s.87.07.95-.32.44-1.26.51-1.58.31-.59.77-.77c.46-.17.49-.15.97-.37.49-.22,3.61-.72,3.69-1.28s.02-.85.27-1.54c.25-.69.96-1.61,1.56-2.09.6-.48,1.4-.54,2-.76.6-.22.48-.06,1.1-.48.61-.43,1.48-.44,1.19-.98-.29-.54-.33-.56-.33-.74s.08-.61.08-.61c0,0,.9.98,1.04,1.09.13.11-.19.13.35.2s.79.11,1.36.07c.58-.04.61-.04.79-.15.17-.11.83-.72.31-2-.51-1.28-.36-1.41-.15-1.38.2.02.95-.05.95-.05,0,0,.72-.54.36-.72-.36-.17-.08-1.23-.08-1.23,0,0,.28-.64-.08-.64s-2.36.25-2.36.25c0,0-1.97.44-2.69.54-.72.1-2.77,1.23-3.13,1.38-.36.15-1.31.25-1.28.15.03-.1.9-.91,1.31-1.09.41-.17.44-.17.92-.49.49-.32,1.15-.77,1.15-.77,0,0,1.1-.89,2.79-1.38,1.69-.49,3.77-.54,4.2-.49.44.05.87.15,1.77.17.9.02.97.07,2.64.07s3.61.07,4.02-.42c.41-.49,3.97-2.02,3.97-1.75s-1.38,3.28-1.64,3.6c-.26.32-1.05,1.14-1.08,1.73-.03.59.54.79,1.38.91.85.12,2.72.15,2.72.15l2.1-.35,1.43-.49s-.13-.99-.15-1.11c-.03-.12.28-.77-.38-.62-.67.15-3.79-.59-3.79-1.01s.54-1.11.74-1.36.61-.47.54-1.28-1.49-2.17-1.27-2.32c.22-.15.79-.88,0-1.26-.79-.38-2.01-.72-2.08-.88-.06-.16-1.83,1.17-3.8,1.32-1.97.15.2-1.01.2-1.01,0,0,.67-.62,1.1-.77.44-.15,1.38-.25.59-.74-.79-.49-1,.12-2.05.02-1.05-.1-.51-.89-1.43-1.19-.92-.3-1.46-.69-1.82-.94-.36-.25-1.18-.79-1.13-.89.05-.1.44-.3.85-.42s.26-.67-.31-.96c-.56-.3-1.61-1.04-1.61-1.04,0,0-1.67-1.43-1.67-1.58s-.05-1.09-.38-1.11-.97-.2-1.08.32c-.1.52.33,1.53-.64,1.75-.97.22-1.15-.4-1.26-.42-.1-.02-1.26.37-1.43.42-.18.05-1.08.77-1.08.77h-1.05s.24-.79-.24-1.01c-.49-.22-2.41.16-2.59.16s-1.19-.16-.88-.38c.31-.22.53-.28.69-.4.17-.11.31-.54.31-.54l-.42-.72s-.31-.41-.73-.4c-.42.01-.67-.16-.67-.16,0,0,.72-.23,1.01-.3.29-.06.95-.28.95-.28l-.56-.33-.68-.25-2.43-.45s-2.11-1.54-2.54-1.63c-.42-.09-2.48-.17-3.15-.17s-1.25.37-1.67-.02c-.42-.39-2.46-.52-2.56-.52s-.46.33-.44.39c.02.06,1.15,1.11,1.15,1.11,0,0,.15,1.09.17,1.31.02.22-.19.72-.19.72,0,0,.48.8.4.93-.08.13-.65.94-.81,1.02-.15.07-.69.72-.69.8s1.29.89,1.54,1.09c.25.2,1.19,2.13.96,2.81-.23.69-.83.89-.85,1.06-.02.17-.56.43-.71.54-.15.11-1.63.94-1.63.94,0,0-1.65.13-1.65.41s1.62,3.32,1.52,3.81c-.1.49-.2,1.85-1.41,1.63-1.2-.22-3.18-.86-4.46-2.49s-.23-3.68-.82-3.95c-.59-.27-3.84.02-5.36-.12s-4.61-2.05-5.25-2.32c-.64-.27-2.33-.57-2.33-.57l-4.32-.58s-.85-1.78-2.15-2.19c-1.31-.41-3.23.04-2.42-1.93.81-1.96,2.65-3.81,3.69-4.26,1.04-.44,2.27-.63,2.73-.96.46-.33,1.23-1.7.04-1.63-1.19.07-4.77.63-4.3.19s3.15-.63,3.15-.63c0,0,2.23.48,2.77.56s1,.07,1.19-.19c.19-.26,1.81-.7,1.81-.7,0,0,2.65-1.02,2.33-1.04s-2.02-.04-2.08-.04-1.33,0-2.08-.46-1.75-.43-1.4-.85c.35-.43,2.21-.39,2.42-.31.21.07,1.86.44,2.29.52.42.07,1.4.24,1.56.19.15-.06.58-.2.69-.39.12-.19-.08-.74-.08-.74l-.33-.46,1.63-.52s1.21-.02,1.31.02c.1.04,6.3-.17,6.34-.8s-.65-1.33-.92-1.48c-.27-.15-5.65-1.52-5.65-1.52l.35.89-1.77.93-1.46,1.67s-3.07-1.59-2.84-1.78.73-.96.42-1.11c-.31-.15-2.34-.59-2.34-.59,0,0,1.96,1.81-.31,1.19-2.27-.63-3.38-1.41-3.38-1.41l-.92-.78s-.92-.59-.92-.85-3.07-2.1-3.96-1.89c-.88.21-1.45.46-1.46.68s.61.67.61.67l-.83.49s.24.35.69.53,1.27.41,1.81.4c.54-.01,1.73.14,1.73.14,0,0,1.59.83.64,1.42-.95.59-2.24,1.6-2.64,1.56-.4-.05-1.24-.12-1.24-.12,0,0-20.22-.23-20.22-.01s.81,1.04.85,1.19c.04.15-.27.67-.65.96s-1.5-.67-2.15-1.04c-.65-.37-2.54-.89-2.54-.89l-17.56-3s-4.34.11-6.38-.07c-2.04-.19-1.96.59-2.77.7-.81.11-2.61-2-3.61-1.93-1,.07-3.38.74-4.38.63-1-.11-1.54,1.26-1.54,1.26l-1.92-.48s-2.27,1.04-3.96,1.04-3.8-.04-3.8-.04l-3.73-.22-30.18-3.6s-3.59.89-5.94,1.09c-2.36.2-4.51.94-5.12,1.68s-6.15,2.22-6.15,2.22c0,0,11.38,2.86,10.86,3.11-.51.25-5.38.74-6.15.44-.77-.3-2.82-.64-4.05-.05-1.23.59-.2,1.43.51,1.93.72.49,5.94,1.04,7.02.79,1.08-.25,2.87.49,2.66.64s-2.82,1.38-2.82,1.38c0,0-3.33.69-3.89.69s-2.05,1.38-2.05,1.38c0,0-.41.74-.2.84s2.56,1.28,2.56,1.28l1.59.05s-.85.35-1.35.51c-.5.17.15.65.63.65s1.54-.11,1.54-.11v-.17l1.11.33.35,1.28,2.19.13s2.65-.52,4.09-.48c1.44.04,1.88,1.07,1.84,1.3s-7.55,4.73-6.39,5.06c1.15.32,5.97-1.68,5.97-1.68Z" style="fill:none; stroke:#138729; stroke-miterlimit:10;"/><path d="m254.82,71.03s-.61-1.78.88-1.7c1.5.07,4.96,1.3,5.84,1.33.88.04,1.04.07,1.04.19s.23-.44,1.27-.63,4.38-1.85,5.03-1.85,8.38-.89,9.53-.59c1.15.3,1.19,1.26,1.69.93.5-.33.96-1.19,1.54-1.19s1.58-.19,1.61.3,1.88-.48,1.92-.07c.04.41-1.04,1.07-1.04,1.26s.54,1.44.54,1.44l-.19,1.19-.27.33s-.04.89.12,1.15.38.41.38.41c0,0,.38.15.54.33.15.19.27.3.27.3l2.38.44s-.23-.04.54-.07c.77-.04,1.46-.07,1.46-.07,0,0-.04-.19.85.52.88.7,1.31,1.07,1.31,1.07l1.15,1,.85.26s1.31-.22,1.96.15c.65.37.85.56.85.56,0,0,.31.3.58.37.27.07.35.19,1.04.3s.96-.04.96-.04l.31-1,1.46-2.33,1.15-1.22s.5-.3,1.23-.04c.73.26,1.35.3,1.61.59s4.8,2.19,7.39,2.65c2.59.47,4.3.47,4.3.47,0,0,1.77-.27,2.28-.37.51-.1,1.79-.3,1.79-.3,0,0,3.46.27,3.61.35.15.07.99,4.73.7,4.79-.29.06-.69-.04-.69-.04,0,0,.06.78-.17.81-.23.04-.9-.8-1.19-1.09-.29-.3-1.23-1.33-1.23-1.33,0,0-1.21-.69-.98-.19.23.5,2.15,1.56,2.21,2.35.06.8.56,2.11.65,2.37.1.26.61,1.39.75,1.65s1.58,2.46,1.58,2.46c0,0-.02.44-.17.93-.15.48.25,1.02.5.98.25-.04,1.83.48,1.88.57.06.09.33,1.04.33,1.04,0,0,.23.69.35.94.12.26.21.98.19,1.06-.02.07.12,2.44,1.12,3.41,1,.96,1.64,1.93,1.74,2.25.1.32.54,1.36.74,1.65.2.3.61.64.9.99s4.64,4.02,4.64,4.02l-.67.72.54.37s1.46.1,1.54.12.03.89,0,1.01c-.03.12.05.64.15.77.1.12,1.77,2.1,8.03.36,6.26-1.74,5.61-.48,5.46.37-.15.85-3.73,9.44-9.38,13.52-5.65,4.07-7.23,7.44-7.8,7.55s-3.04,4.04-3.42,4.26c-.38.22.19,3.81.35,4.44.15.63.35,3.44.35,3.44,0,0,2.04,3.22,1.65,6.67-.38,3.44-.27,5.18-1.35,5.33-1.08.15-8.26,4.67-8.26,5.22s1,4.59.92,5.33c-.08.74-.42,2.41-.73,2.41s-3.73,1.78-3.73,2.41-.19,3.22-.65,3.67c-.46.44-2.08,1.78-2.23,2.11-.15.33-5.47,6.93-10.54,7.52-5.07.59-5.74.59-6.97.69-1.23.1-3.38.59-3.95-.69-.56-1.28.31.05-.87-3.01-1.18-3.06-4.46-7.6-4.46-7.6,0,0-1.18-5.83-1.43-7.36-.26-1.53-5.79-8.54-5.07-9.28.72-.74,1.32-5.41,2.66-7.7,1.35-2.3.15-4.89-.04-5.44-.19-.56-.15-.44-.04-1.59.12-1.15-.96-3.07-1.35-4.3-.38-1.22-6-7.44-5.77-8.3.23-.85,2.27-2.63,1.81-2.81-.46-.19-.85-.89-.46-1.48.38-.59.42-1.15.04-2-.38-.85-.42-2.19-.73-2.22-.31-.04-1.15,1.59-1.61,1.33-.46-.26.46-1.81.46-1.81l-3.07.33-2.61-.56s-.12-1.07-.31-1.48c-.19-.41-.85-.41-1.31-.52-.46-.11-2.54-1.48-3.5-1.15-.96.33-1.19.33-2.11.74-.92.41-2.11.78-2.54,1.07-.42.3-1.9,1.22-4.48.85-2.59-.37-4.43-.2-5.69.4-1.26.59-2.28,1.04-3.48.47-1.2-.57-3.61-2.72-3.97-2.77-.36-.05-3.69-2.42-3.87-3.8-.18-1.38-3.38-3.98-4.36-5.23-.97-1.26-1.46-1.58-1.38-1.95s.79-.42,1.41-.49c.61-.07,1.54.2,1.77-.15.23-.35-2.33-.64-2.33-.64,0,0-1.2-.12-1.67-.77-.46-.64-.85-1.16-.85-1.16,0,0,1.23-1.85,1.38-2.47.15-.62.38-.81.26-1.51-.13-.69-.23-1.31-.23-1.31l-.15-4.12s-1-.86-.92-1.19c.08-.32.28-.59.31-.91s.1-.81.1-.81c0,0,5.15-8.27,6.56-8.69,1.41-.42,1.54-.69,1.67-.96s.61-.54.61-.54l2.77-2.05s-.26-.91.28-3.11c.54-2.2,1.51-2.49,2.41-3.01s2.28-1.09,2.54-1.28c.26-.2.72-1.26.72-1.26Z" style="fill:none; stroke:#138729; stroke-miterlimit:10;"/><path d="m270.59,58.57s.5,1.37-1.08,1.91c-1.58.54-3.84,3.2-3.77,3.57.08.37.44.67.52.74.08.07.17.31-.19.33-.37.02-.73.11-.81.28-.08.17-1.52,1.76-1.92,1.87s-2.79,1.02-2.86,1.02-2.02-.09-2.11-.09-1.35,1.06-1.53,1.22-1.43,1.25-1.91.16c-.47-1.09.17-1.42-.35-1.72-.51-.3-3.01-.02-3.73-.16-.72-.14-.46-.4-.79-1.36s-.49-1.77-.73-1.81.05-.27.31-.44c.26-.17.92-.93.92-.93,0,0-.29-1.3-.03-2.22.27-.93.35-1.56.37-1.59.03-.04.45-.12.45-.12l-.28-1.04s-1.06-.64-.74-.95c.32-.31,5.33-.26,5.33-.26,0,0,4.24-.11,4.66-.11s1.96.36,2.28.4c.32.04.83-.67.83-.67v-1.07l.83-1.03-.21-1.24-1.1-1.07-1.11-1.16-1.18-.88s-1.02.02-1.47-.53-.61-.98-.54-1.01c.08-.04,1.5-.4,2.31-.35.81.05,2.23.07,2.38-.16s.29-.63.29-.63c0,0-.14-.32.32-.37s1.43.19,1.83.07c.4-.11,2.59-.63,2.59-.96s.17-.85.18-.9.1-.57.41-.58c.31-.01.42.1.81.14.38.04.88.12.94.02.05-.1.14-.32.24-.43.1-.11.19-.15.33-.23.14-.09.67-.25.74-.22.08.02,1.28.38,1.28.38,0,0,.14.05.22-.06.08-.11.22-.37.23-.49s.05-.44.05-.44c0,0,1.49-1.31,1.82-1.42s.83-.99,1.24-1.11-.23-.09,1.09-.2c1.32-.11,1.02-.04,1.46-.15.44-.11,1.23.02,1.26-.37.03-.4.08-.33.09-.59s.12-.7.12-.7c0,0,.29-.48.74-.32s1.29.53,1.49.68,1.27.44,1.27.44l1.19.09s4.8-.11,4.8.04-.03.44.77.15c.79-.3,4.02-.91,4.02-.91l3.38-.22,1.38-.22s1.82-.4,2-.67c.18-.27.28-1.51.28-1.68s.72-1.78,1-1.9c.28-.12.36-.96.54-1.01.18-.05,1.15.59,1.72.96.56.37,2.82-.41,2.69-.88-.13-.47-.15-.52-.46-.73-.31-.21-1.32-.16-1.23-.6.09-.44,1.01-1.04,2.77-1.12,1.76-.09,2.33-.17,2.97-.19.64-.01,0,.77.88.54.88-.22,2.86-1.43,3-1.43s-1-.85-.87-1.21c.13-.36-.5-.69-1.05-.27-.55.42-2.02.8-4.48.67-2.46-.14-7.15.02-6.79-.06.36-.09-.38-.11.08-1.22.46-1.11-.54-1.3-.19-1.67s3.73-3,4.96-3.78c1.23-.78,1.73-.78,1.73-1.67s-4.61-.7-4.92-.56c-.31.15-2.08.63-1.96,1.22.12.59.73,1.26-.15,1.56-.88.3-2,1.78-3.42,1.78s-4.15,2.19-3.84,3.18c.31,1,2.33,1.33,2.19,1.69-.13.35.4.48-.42.93-.83.44-.44,1.15-1.19,1.26-.75.11-1.52-.19-1.75.11-.23.3-.5,1.96-.5,1.96,0,0,.88.39.46,1.04-.42.65-1.52,1.17-1.67,1.2s-.96-.17-1.29.17c-.33.33-1.27,1-1.83.89-.56-.11-.81-.48-.81-.83s-2.86-4.28-2.67-4.78c.19-.5.23-.17.86-1.09.63-.93,1.52-1.63,1.17-1.94-.35-.31-.4-.44-.6-.43-.19.02-.73-.37-.58-.02.15.35.48.72.33.91-.15.19-.46.81-.79.81s-.61.96-.83,1.24-.63.35-.98.02c-.35-.33,1.21-.81.42-1.07-.79-.26-1.92,1.24-1.92,1.24,0,0-2.9,2.42-5.02,1.68-2.13-.74-1.64-1.58-1.28-1.75.36-.17,1.13-.84,1-1.36s-.72-.84.13-1.41c.85-.57,1.2-.89,1.05-1.09-.15-.2-.54-.59-.41-.72s3.64-1.78,5.12-2.22c1.49-.44,3.48-2.64,3.69-2.72s.74-.27.74-.27c0,0,.06-1.29.39-1.35.33-.06.37.19.77-.02.4-.2,1.03-.08,1.07.07.04.15-.86,2.22-1.01,2.3-.15.07.44.32.33.52-.1.2-1.05.49-1.05.49,0,0,0,.37.53.42s1.08.42,1.24-.84c.17-1.26.29-1.86.74-2.26s.69-.04,1.58-.91c.88-.88,1.51-1.6,1.26-1.6s-.67.46-.86.22c-.19-.23.44-.9.46-.94.03-.04.6-.47.68-.3.08.17-.14.42.28.28s2.99-.93,3.19-.93,1.97-.11,2.46-.21c.49-.1,1.31-.38,1.55-.56.24-.17,1.28-.05,1.38.01.1.06-.81-.79-.57-.81.24-.03.38-.15.24-.31-.14-.16-.83-.51-.59-.75.24-.24,3.34-.19,4.51-.67,1.17-.48,1.52-.88,1.72-.83s.03.74.37.81c.35.07,1.18-.49,1.6-.52s1.49-.04,2.01-.04.94-.42.97-.42,1.1.53.9.73c-.2.2.46.54.64.57.18.02,1.06.01.95.23-.12.22.2.17-.44.8-.64.63-.91,1.1-.45,1.59.46.49.96.23.85.17-.12-.06-.27-.43-.01-.64.26-.21.67-.43.97-.56.31-.12,3.98-1.41,5.19-1.06,1.2.35,7.35.69,8.43,1.41,1.08.72,1.36.64,2.28.84.92.2,2.66.25,2.66.99s-.49.91-1.02,1.43c-.54.52-.74.64-3.59.44-2.84-.2-4.74-.67-6-.79-1.26-.12-2.69-.81-3.2-.69-.51.12-.51.91-.03.91s2.51.69,2.79,1.01c.28.32.92.42.69,1.14-.23.72,1.18,1.8,1.36,1.8s1.56.54,1.56.54l1.9.25s1.2-.15,1.41-.44c.2-.3,1.74-.96,1.74-.96,0,0,2.51.25,2.59.25s-.9-1.7-.9-1.7c0,0,2.97-.91,3.38-.91s2.66-.07,3.15-.1c.49-.02,1.77-.74,1.9-.91.13-.17,1.33-.49,2.1-.47s2.31-.05,2.31-.05c0,0,4.61-2.37,7.69-2.22,3.07.15,1.82.47,4.84.15,3.02-.32,4.15-.52,4.15-.52,0,0,2.46.02,3.1.37s3.89.49,3.48-.12c-.41-.62-1.9-1.33-1.2-1.73.69-.4,2.64-.02,2.9,0s5.97.49,7.2,1.2,2.96,1.07,3.15,1.07,1.46-.07,1.31-.41c-.15-.33-.61-.96-.61-.96,0,0-1-.89-1.11-.96-.12-.07-1.58-1.3-1.58-1.3,0,0,.65-1.52.73-1.63s1.96-.81,1.96-.81c0,0,1.42-1.44,1.69-1.63.27-.19,2.04-1.41,2.42-1.3.38.11,3.23,1.75,3.16,2.06-.06.31.08.06-.4.63-.47.57-1.01.54-.64,1.02s.87.8.87.8c0,0,.2.63.08,1.01-.13.38-.47,1.69-.47,1.69,0,0-.01,1.02.04,1.09.05.06,1.4-.07,1.4.22s-3.61,2.77-3.8,3.14c-.19.37.12.7.38.7s2.23.11,2.42-.11c.19-.22,3.04-1.56,3.07-1.89.04-.33.31-2.22.31-2.22h1.88c.19,0,1.54-.07,1.69.37.15.44.79,1.75,1.35,1.83.55.07,1.55.04,1.6.02.05-.01.17-.63-.55-.89-.72-.26-.9-.36-.9-.36,0,0,.05-.49.09-.49s.67.06.67.06l-.72-.74s-.92-.69-1.04-.72c-.12-.02-1.27.06-2.82-.19-1.55-.25-2.49-.83-2.5-1.07-.01-.25.38-.28.55-.48.17-.2,1.17.11.09-.53-1.08-.64-.86-.32-1.19-.79s-.55-.72-.56-.85.88.01,1.33.01,1.41-.06,1.41-.06c0,0,4.34,1.36,5.52,1.36s.73-.54.13-.8c-.6-.26-2.77-1.2-2.77-1.2,0,0,.15-.33.37-.35s1.75.17,2.15.2,1.5-.2,1.77-.37c.27-.17.88-.22,1.92.3,1.04.52,2.38.56,2.86.69.48.13,1.48.35,1.48.35,0,0-.38.76-.61.76s-.65,1.69-.65,1.69c0,0,1.23.41,2,.52.77.11,1.52-.63,1.11-1.63-.4-1-1.15-2.28-2.61-2.68-1.46-.41-1.88.13-2.13-.63-.25-.76-.02-1.06-.08-1.22-.06-.17.6-.28,1.02-.33.42-.06,10.06-.09,9.79-.33-.27-.24-1.34-.3-1.1-.76.24-.46-.5-1.05-.5-1.05,0,0,21.76-2.18,24.99-2.25,3.23-.07,5.61-2.37,6.61-2.15,1,.22.46.67,3.23,1.26,2.77.59,9.66,1.38,9.71,1.9.05.52,2,.05,1.43.57-.56.52-10.33,2.35-11.15,3.58-.82,1.23,9.76-.37,11.02-.15,1.26.22,1.95.44,2.43-.2.49-.64,2.95-.57,3.87-.3.92.27,1.74.35,3.1.79s3.51.32,3.51.32c0,0,4.89.02,5.37-.57.48-.59,3.77-.31,5.27-.2,1.5.11,3.92,1.04,3.63,1.2s-.33.2-.52.33c-.19.13-.92.43-.92.43l.77.85s2.61,1.85,4.36,1.72c1.75-.13,1.27-.56,1.94-.89.67-.33.83-.81,2.06-.74s11.66.39,11.66.39c0,0-.38-.32.59-1.04.97-.72,3.18-.89,4.25-.79,1.08.1,1.69,1.19,2.66,1.28.97.1,2.18.47,2.38.44s1.49-.79,1.49-.79c0,0,1.84-.12,2.15-.02.31.1,0,.69,1.31.69s18.44,1.31,18.69,1.69c.25.37-.1,1,.54,1.3.63.3,1.35.54,2.81.5,1.46-.04,9.86-.21,11.08.4,1.22.6,2.2,1.2,3.33.98,1.13-.22,2.14-.26,2.15-.44s-.53-.35-.53-.35l-.97-.74.94-.3s-.59-.33.26-.25c.85.09,14.17,1.07,14.63,1.89.46.81.42,1.11.12,1.63-.31.52-.42,1.41-.23,2.26.19.85.61,2.22.31,2.52-.31.3-1.58,1.11-2,1.04-.42-.07-2.27-.59-2.84-.48-.58.11-3.19.3-2.34.44.85.15,1.38.07,2.08.19.69.11,1.73.11,2,.22.27.11.77.67.92,1.19.15.52,1.42,1.33,1.42,1.33,0,0-.19.56-1.46.56s-4.27-.26-4.5-.11c-.23.15-8.12,2.06-8.84,2.68-.72.62-.67.64-1.64.54-.97-.1-4.89-.2-6.53-.2s-3.54.52-4.1.79c-.56.27-.97.69-.85.91.13.22.33,1.11.79.99.46-.12.26,0-.15.15-.41.15-1.15-.07-1.15-.07l-.2-.25-1.33.84s.18.95.6,1.02,1.35.59,1.35.59l-.15,1.04s.61.37.58.56-.69.41-1.11.52c-.42.11-1.77.93-1.58,1.41.19.48,2,.89.42,1.37-1.58.48-2.54,0-3.04.33s-.61,1.19-.54,1.44c.08.26-.77.52-1.19.59-.42.07-1.84,1.04-1.84,1.04l-2.38,1.44-1.69-3s-.81-5.67-.46-5.89c.35-.22,2.58-.15,2.58-.56s.12-1.11.12-1.11c0,0,1,0,1.38-.15.38-.15,8.84-4.78,9.57-5,.73-.22,1.31-1.7,1.31-1.7l1.35-.63s-1.38-.67-1.73-.67-1.84,1.15-2.08,1.48c-.23.33-2.38,1.59-3.46,1.67-1.08.07-2.19.11-2.08.07.12-.04.19.15.61-.33.42-.48,1.19-1.07-.08-1.15s-4.88.04-6.11.74-3.23,2.19-3.23,2.19c0,0,.77.85,1.08,1.04.31.19.96.37-.65.37s-6.15.26-5.92.15c.23-.11.46-1.19-1.04-1.19s-3.69.67-3.19.7c.5.04-11-.12-11-.12,0,0-3.89,1.23-4.61,1.88-.72.64-4,3.8-4,3.8l-2.97,1.09s-.47.95.68,1.28c1.15.33,1.38.74,1.35.85-.04.11,1.02.74,1.65.8.63.06,2.11-.96,2.42-.96s2.77,1.57,2.77,1.57l.86,2.09s-.58.35-.77.89c-.19.54-.29,1.96-.29,1.96,0,0,.86,2.82-5.75,7.76-6.61,4.94-8.66,3.75-8.66,3.75l-2.15.69s-1.28.74-1.38.99c-.1.25-.26.79-.31.99-.05.2-1.33,2.42-1.95,2.47-.61.05-3.28,1.04-3.28,1.04,0,0,1.79,1.33,1.95,1.43.15.1,1.88,2.07,1.97,2.31.1.24.08,1.63.06,2.09-.02.46.25,1.5-.71,1.48-.96-.02-3.34.2-3.73.2s-.92-.54-.56-1.19c.37-.65.73-1.85.94-2.63.21-.78,0-1.26,0-1.26l-1.75-.46s-.63.52-.88-.26c-.25-.78-.44-.57-.25-.78s.33-.22.33-.22l.08-.19s.73-.44-.02-.67c-.75-.22-.88-.28-.88-.28l-.73-.13-1.29.2-1.17.35s-2.69.7-2.77.5c-.08-.2.69-1.28.69-1.59s.38-1.37.23-1.39-.92-.43-2.67.57-1.44,1.33-2.48,1.69c-1.04.35-1.33.41-1.33.41l-.6.83s-.15,1.3.44,1.26c.6-.04,1.84,1.48,1.84,1.65s1.46-.07,2-.3,2.73-.02,2.9.2c.17.22.02.67-.27.67s-2.48.31-2.98.85c-.5.54-1.75,2.13-1.75,2.13,0,0,3.23,2.07,3.19,2.57-.04.5,1.06,1.31.73,1.44-.33.13-2.52.52-1.96.76.56.24,2.71.7,2.5,1.35s-.98.72-1.06.8c-.08.07-1,.5-.4.8.6.3.86.44.9.69.04.24.35.7,0,1.13-.35.43-2.06,2.24-2.15,2.78-.1.54.12.24-.79,1.15s-1.13,1.65-1.13,1.65c0,0-2.18,2.62-3,2.87s-3.28,2.02-4.71,1.98c-1.43-.05-.51-.69-1.69-.15-1.18.54-6.25,1.83-6.25,1.83l-4.36-.05s-1.28.49-1.13.59c.15.1,1.64.74,1.28.79-.36.05-2.41,1.83-2.41,1.83,0,0-.94,1.54-.12,2.19.83.65,2.98,3.94,2.98,3.94l1.81,1.8s.08-.07.46,1.11c.38,1.19.35,2.72,0,3.5-.35.78-1.08,2.02-1.65,2.19-.58.17-.92-.09-2.17.72-1.25.81-1.56,1.8-1.84,2.06-.29.26-.75.54-.96.41s-.5-1.67-.5-1.67c0,0,.63-.78.4-.93-.23-.15-1.11-.15-1.11-.15,0,0,.08.3-.77-.19-.85-.48-1-.2-1.5-1.35-.5-1.15-.33-1.22-.85-1.67-.52-.44-.6-.22-1.29-.46-.69-.24-1.56-.02-1.73-.39-.17-.37-.56-.69-.56-.69l-.58.19s.29.63-.04,1.02-.63.98-.86.87c-.23-.11-.48.56-.48.56l-.37,2.68.4,1.91s.71.87,1.48,2.01c.77,1.14,4.66,3.65,4.66,3.65,0,0,.97.74.82,2.37-.15,1.63,1.18,3.95,1.18,3.95,0,0,.77.79-.2.84s-3.74-1.38-4.92-2.91-1.59-4.79-2.31-5.88c-.72-1.09-2.56-3.65-2.56-3.65l1.08-7.26s-.92-1.23-.97-1.58c-.05-.35-1.43-4-1.43-4,0,0-1.74.3-2.15-.1s-2.87.69-3.28-.4c-.41-1.09,1.69-1.83-.72-3.75-2.41-1.93-3.13-3.8-3.13-3.8l-1.95-1.68s-2.97.99-3.48.89c-.51-.1-.31-1.58-.31-1.58,0,0-.72,1.21-1.08,1.33s-1.72.89-1.77,1.01c-.05.12-.69,2.39-1.67,2.74-.97.35-1.38.49-1.74.89-.36.4-1.95,1.73-1.95,1.73,0,0-1.9.99-2.31,1.58-.41.59-1.23,1.68-1.9,1.98-.67.3-2.46.89-2.46.89,0,0,.15,1.09,0,1.73-.15.64-.31,6.12-.92,6.27-.61.15-.15,1.04-.97,1.58-.82.54-1.38.84-1.69,1.38-.31.54-.56,1.14-.61,1.33-.05.2-.15,1.04-.72.2-.56-.84-2.2-3.16-2.36-3.65-.15-.49-2.97-9.14-2.97-9.14,0,0-1.74-2.32-2.2-3.65-.46-1.33-.56-5.78-.56-5.78,0,0,.26-1.23-.51-1.28-.77-.05-.79,1.8-.79,1.8l-1.23,1.06s-2.15-1.46-2.59-1.7c-.44-.25-.69-.89-.69-.89l1.26-.59s.79-.2.77-.62c-.03-.42-1.49-.25-1.49-.25l-2.02-.79-.36-.42-.69-.3-.59-.59s-2.61-1.58-7.84-1.69c-5.23-.11-7.8-.7-7.8-.7l-2.31-1.04s.04-1.07-.15-1.33c-.19-.26-.73.26-2.69.41-1.96.15-3.38-.48-3.38-.48l-1.31-1.11s-1.52.22-2.68-1.09c-1.15-1.31-1.26-2.22-3-2.32-1.74-.1-1.82,0-1.87.2-.05.2.1.94.1.94,0,0,.13.64,1.26,2.25,1.13,1.6,1.18,1.6,2.02,2.77.85,1.16,1.61,2.42,1.61,2.42l.95,1.31s-.44.77,1.43.27c1.87-.49,3.02-.49,3.02-.49l1-.1.97-.49s1.15-.91,1.59-.84c.44.07.95.77.95.96s-.08.69.9,1.01c.97.32,1.31.35,1.77.57s1.38.64,1.59.79.13.15.33.44.28,1.48.28,1.48l-.97,1.09s-.49.22-.72.42c-.23.2-1,1.04-1,1.04l-.51.62-.28.59-.69.81-.95.99s-.31.3-.69.49c-.38.2-.77.37-.77.37l-.33.17-.44.52-.15.17s-2.59.67-3.15.67-2.38,1.14-2.38,1.14l-1.61,1.68s-1.41.77-3.48,1.53c-2.08.77-9.94,2.89-10.07,2.69-.13-.2.15-1.04.15-1.04l-.56-4.79s-1.13-2.89-2.25-3.43c-1.13-.54-1.2-1.68-1.64-2.17-.44-.49-2.66-1.88-2.79-2.22-.13-.35-.41-4.02-.41-4.02l-2.36-1.75-4.25-6.78-1-4.18s.58-.15.81-.04c.23.11.77.52.77.52l.19-1.44s.58-.63.58-.89-.81-1.78-.88-1.89c-.08-.11,1.61-2.07,1.61-2.07l-.27-1.96,1.73-1.33s-3.38-.07-4.42.04c-1.04.11-2,1.33-3.23.85-1.23-.48-1.27-1.22-2.96-1.04-1.69.19-4.34-.15-4.34-.15,0,0-2.5-2.04-2.58-2.52-.08-.48-.96-2.19-.96-2.19,0,0,2-1.04.15-1.56-1.84-.52-3.77-.04-3.77-.04,0,0-.04.44-.46.52-.42.07-1.81,1.11-1.81,1.11,0,0-.15.41-.65,1.15-.5.74-.65,1.22-.65,1.22l.69,1.3s-.85,1.3-.96.85-.08-2.33-.35-2.67c-.27-.33-.85-1.7-1.42-1.74-.58-.04-.81-.07-1.23-.44s-.73-1.22-.73-1.22l-.15-1.19-.35-.96s-5.98-3.17-5.98-3.52-.92-1.04-.92-1.04l-.81-.74s-.94-.24-1.67-.52c-.73-.28-.98-1.02-1.31-1.02s-1.33,1.3-1.33,1.3c0,0,1.19,2.81,2.09,3.37.9.56,4.54,3.52,4.54,3.52l2.88.83s.98.35.79.67c-.19.31-.23.35-.61.22-.38-.13-2.27-.41-2.27-.41,0,0,.73,1.81.83,1.91.1.09-.17.09-.92.69-.75.59-1.61,1.22-1.61,1.22,0,0,.35-1.35.44-1.96s-1.25-1.61-1.25-1.61c0,0-2.65-2-3.52-2s-3.89-2.61-4.3-3.1-.08-1.11-.92-1.53c-.85-.42-3.72.69-5.59,1.38-1.87.69-3.54-.35-3.54-.35l-2.1.81-1.31.97Z" style="fill:none; stroke:#138729; stroke-miterlimit:10;"/><path d="m430.67,126.81s1.38.28,3.48,2.34c2.1,2.07,3.48,2.53,3.89,2.8.41.28,3.43,2.3,3.64,2.76.2.46.46-.76,1.33,0,.87.76-.18.37,1.49,2.44,1.67,2.07,2.28,1.29,2.23,2.57-.05,1.29.1,4.55-1.13,4.16-1.23-.39-9.2-8.78-9.79-10.11-.59-1.33-1.43-1.88-1.84-2.14s-5.62-4.7-4.66-5.18c.96-.48,1.36.36,1.36.36Z" style="fill:none; stroke:#138729; stroke-miterlimit:10;"/><path d="m453.41,132.62l1.35.1,1.35-.24s1.69-1.86,2.15-2.21,1.65-.9,1.65-.9c0,0,1.58-.48,2-.66.42-.17,1.27-2.14,2.19-2.48.92-.34,2.5-1.14,2.5-1.14,0,0,.92,1.07,1.38,1.24.46.17,2.5.21,1.96.72-.54.52-2.19.93-2.42,1.14-.23.21-1.23,2.65-.23,3.9,1,1.24,2,1.17,1.19,1.52-.81.34-2.27,2.1-2.27,2.1,0,0-1.11,1.79-1.42,2.1-.31.31-.58,2.17-.58,2.17,0,0-1.27,1.52-2.23,1.69-.96.17-.46-1.79-1.04-1.9s-1.15-.55-1.58-.55-4.84.03-4.84.03c0,0,.04-1.07-.58-2.83-.61-1.76-1.31-3.31-.54-3.83Z" style="fill:none; stroke:#138729; stroke-miterlimit:10;"/><path d="m447.22,144.97c.07-.02.79-.55,4.44.19,3.65.74,4.21.22,4.36.22s1.75.45,1.98.62c.23.17,1.92,1.07,2.61,1.21.69.14,1.94.05,1.31.47-.63.41-5.34.48-7.82-.24-2.48-.72-6.13-1.76-6.48-1.91-.35-.16-.61-.5-.4-.55Z" style="fill:none; stroke:#138729; stroke-miterlimit:10;"/><path d="m496.8,140.21s-1.04-1.17-1.38-1.07c-.35.1.27,1.65,1.15,2,.88.34,3.34,1.41,4.19,1.76.85.34,3.04,1.31,3.04,1.83s1.35,2.86,2.19,3.28c.85.41,1.65.59,1.65.59,0,0-.35-.79-.19-.62s2.11.93,2.65.9c.54-.03,1.46.07.58-.66-.88-.72-1.42-.86-1.23-1,.19-.14,1.46-.17,2.08-.14.61.03,3.23-.72,3.23-.72,0,0,7.53,5.07,7.23,4.1-.31-.97-3.34-3.28-3.77-3.93-.42-.66-.19-1.28.04-1.38.23-.1.96-.21-.92-1.03-1.88-.83-2.88-2-2.88-2,0,0-9.3-3.79-11.34-4.07-2.04-.28-2.5-.66-3.42.38-.92,1.03-.88,1.79-2.11,1.79s-.77,0-.77,0Z" style="fill:none; stroke:#138729; stroke-miterlimit:10;"/></g></svg>