<?xml version="1.0" encoding="UTF-8"?><svg id="_Слой_2" xmlns="http://www.w3.org/2000/svg" width="17.82" height="35.48" viewBox="0 0 17.82 35.48"><g id="_Слой_1-2"><path d="m10.66,16.69v18.8s-4.61-.49-4.61-4.43c0,0,1.61-.02,1.61-1.61s-1.66-1.66-1.66-1.66v-1.98s2.27.06,2.27-2.27-2.27-2.49-2.27-2.49v-5.1h4.65v.74Z" style="fill:#8a8a95; stroke-width:0px;"/><rect x="10.66" y="15.94" width="1.49" height="19.54" style="fill:#b3b5bc; stroke-width:0px;"/><path d="m8.91,0C3.99,0,0,3.99,0,8.91s3.99,8.91,8.91,8.91,8.91-3.99,8.91-8.91S13.83,0,8.91,0Zm.12,6.64c-1.16,0-2.09-.94-2.09-2.09s.94-2.09,2.09-2.09,2.09.94,2.09,2.09-.94,2.09-2.09,2.09Z" style="fill:#8a8a95; stroke-width:0px;"/><path d="m10.71.18v3.1c.26.35.42.79.42,1.26s-.16.92-.43,1.27l-.03,11.97c3.58-.85,7.16-4.23,7.16-8.87C17.82,4.56,14.94.95,10.71.18Z" style="fill:#b3b5bc; stroke-width:0px;"/></g></svg>