<?xml version="1.0" encoding="UTF-8"?><svg xmlns="http://www.w3.org/2000/svg" width="49.23" height="45.75" xmlns:xlink="http://www.w3.org/1999/xlink" viewBox="0 0 49.23 45.75"><defs><linearGradient id="_Безымянный_градиент_5" x1="775.41" y1="-36.6" x2="775.41" y2="-82.42" gradientTransform="translate(770.36 -205.44) rotate(158.51) scale(1 -1)" gradientUnits="userSpaceOnUse"><stop offset="0" stop-color="#d5dfdd"/><stop offset="1" stop-color="#f9f9f4"/></linearGradient><linearGradient id="_Безымянный_градиент_4" x1="774.7" y1="-42.15" x2="774.7" y2="-82.42" gradientTransform="translate(770.36 -205.44) rotate(158.51) scale(1 -1)" gradientUnits="userSpaceOnUse"><stop offset="0" stop-color="#b9bab7"/><stop offset="1" stop-color="#9f8790"/></linearGradient><linearGradient id="_Безымянный_градиент_4-2" x1="772.32" y1="-52.85" x2="772.32" y2="-70.71" xlink:href="#_Безымянный_градиент_4"/><linearGradient id="_Безымянный_градиент_4-3" x1="757.02" y1="-72.39" x2="757.02" y2="-78.84" xlink:href="#_Безымянный_градиент_4"/><linearGradient id="_Безымянный_градиент_4-4" x1="781.94" y1="-36.73" x2="781.94" y2="-74.66" xlink:href="#_Безымянный_градиент_4"/><linearGradient id="_Безымянный_градиент_4-5" x1="771.6" y1="-39.69" x2="771.6" y2="-69.59" xlink:href="#_Безымянный_градиент_4"/><linearGradient id="_Безымянный_градиент_4-6" x1="749.75" y1="-62.64" x2="772" y2="-62.64" xlink:href="#_Безымянный_градиент_4"/></defs><g style="isolation:isolate;"><g id="_Слой_2"><g id="_Слой_1-2"><polygon points="49.23 29.91 46.91 1.55 44.63 .93 39.95 0 14.42 3.56 11.62 7.38 12.13 11.38 8.81 11.73 0 20.02 1.21 29.75 20.33 39.56 32.37 45.75 47.22 37.98 49.23 29.91" style="fill:url(#_Безымянный_градиент_5); stroke-width:0px;"/><polygon points="14.42 3.56 21.63 4.23 27.65 8.88 23.91 12.41 43.58 35.36 21.05 13.35 12.13 11.38 11.62 7.38 14.42 3.56" style="fill:url(#_Безымянный_градиент_4); mix-blend-mode:multiply; opacity:.82; stroke-width:0px;"/><polygon points="23.91 12.41 24.55 16.77 35.19 27.16 27.44 16.52 23.91 12.41" style="fill:url(#_Безымянный_градиент_4-2); mix-blend-mode:multiply; opacity:.5; stroke-width:0px;"/><polygon points="39.95 0 29.58 1.45 32.06 3.4 42.26 1.5 46.91 1.55 44.05 .72 39.95 0" style="fill:url(#_Безымянный_градиент_4-3); mix-blend-mode:multiply; opacity:.5; stroke-width:0px;"/><polygon points="0 20.02 4.46 15.82 15.43 15.33 15.15 25.44 7.11 28.49 8.57 32.51 11.8 34.1 33.41 34.12 47.22 37.98 33.47 45.17 1.21 29.75 0 20.02" style="fill:url(#_Безымянный_градиент_4-4); mix-blend-mode:multiply; opacity:.5; stroke-width:0px;"/><polygon points="22.46 18.72 24.49 27.15 31.66 28.55 45.15 37.4 30.91 26.16 22.1 17.19 19.58 15.32 22.46 18.72" style="fill:url(#_Безымянный_градиент_4-5); mix-blend-mode:multiply; opacity:.5; stroke-width:0px;"/><polygon points="19.58 15.32 12.38 16.95 14.21 23.38 22.14 23.91 23.5 26.73 24.75 28.85 29.33 31.81 32.42 30.98 32.73 31.96 40.93 34.63 31.66 28.55 24.49 27.15 22.46 18.72 19.58 15.32" style="fill:#fff; stroke-width:0px;"/><polygon points="47.3 8.94 38.35 17.73 35.03 25.39 26.81 13.31 32.54 13.07 36.36 7.51 47.13 4.22 47.3 8.94" style="fill:url(#_Безымянный_градиент_4-6); mix-blend-mode:multiply; opacity:.5; stroke-width:0px;"/><polygon points="21.63 4.23 10.54 7.75 14.42 3.56 20.74 2.78 21.63 4.23" style="fill:#fff; stroke-width:0px;"/><polygon points="15.43 15.33 26.33 9.66 11.38 8.68 4.46 15.82 15.43 15.33" style="fill:#fff; stroke-width:0px;"/><polygon points="11.38 8.68 20.68 5.01 24.78 6.66 21.63 4.23 11.62 7.38 11.38 8.68" style="fill:#bebdc3; mix-blend-mode:multiply; opacity:.8; stroke-width:0px;"/><polygon points="27.65 8.88 30.62 2.81 35.87 2.69 27.65 8.88" style="fill:#fff; stroke-width:0px;"/></g></g></g></svg>