<?xml version="1.0" encoding="UTF-8"?><svg xmlns="http://www.w3.org/2000/svg" width="58.76" height="48.97" xmlns:xlink="http://www.w3.org/1999/xlink" viewBox="0 0 58.76 48.97"><defs><linearGradient id="_Безымянный_градиент_3" x1="-93.4" y1="-372.17" x2="-93.4" y2="-419.37" gradientTransform="translate(264.4 358.5) rotate(-21.3)" gradientUnits="userSpaceOnUse"><stop offset="0" stop-color="#eef2f1"/><stop offset="1" stop-color="#fbfaf6"/></linearGradient><linearGradient id="_Безымянный_градиент_2" x1="-94.12" y1="-377.89" x2="-94.12" y2="-419.37" gradientTransform="translate(264.4 358.5) rotate(-21.3)" gradientUnits="userSpaceOnUse"><stop offset="0" stop-color="#aeabab"/><stop offset="1" stop-color="#ae8c95"/></linearGradient><linearGradient id="_Безымянный_градиент_2-2" x1="-96.58" y1="-388.91" x2="-96.58" y2="-407.31" xlink:href="#_Безымянный_градиент_2"/><linearGradient id="_Безымянный_градиент_2-3" x1="-112.33" y1="-409.04" x2="-112.33" y2="-415.68" xlink:href="#_Безымянный_градиент_2"/><linearGradient id="_Безымянный_градиент_2-4" x1="-86.67" y1="-372.3" x2="-86.67" y2="-411.38" xlink:href="#_Безымянный_градиент_2"/><linearGradient id="_Безымянный_градиент_2-5" x1="-97.31" y1="-375.35" x2="-97.31" y2="-406.16" xlink:href="#_Безымянный_градиент_2"/><linearGradient id="_Безымянный_градиент_2-6" x1="-119.82" y1="-398.99" x2="-96.91" y2="-398.99" xlink:href="#_Безымянный_градиент_2"/></defs><g style="isolation:isolate;"><g id="_Слой_2"><g id="_Слой_1-2"><polygon points="12.98 44.3 3.41 21.22 4.7 19.15 7.59 15.17 29.38 0 34.17 .92 36.58 4.31 39.33 2.25 51.8 2.35 57.7 10.55 58.76 31.17 45.33 44.45 28.67 48.97 12.98 44.3" style="fill:url(#_Безымянный_градиент_3); stroke-width:0px;"/><polygon points="29.38 0 24.4 5.54 23.1 13.27 28.4 13.33 29.59 44.44 31.22 12.04 36.58 4.31 34.17 .92 29.38 0" style="fill:url(#_Безымянный_градиент_2); mix-blend-mode:multiply; opacity:.82; stroke-width:0px;"/><polygon points="28.4 13.33 30.97 17.07 30.2 32.38 28.61 18.91 28.4 13.33" style="fill:url(#_Безымянный_градиент_2-2); mix-blend-mode:multiply; opacity:.5; stroke-width:0px;"/><polygon points="7.59 15.17 16.44 9.01 15.94 12.22 6.9 17.93 3.41 21.22 4.99 18.58 7.59 15.17" style="fill:url(#_Безымянный_градиент_2-3); mix-blend-mode:multiply; opacity:.5; stroke-width:0px;"/><polygon points="51.8 2.35 45.49 2.3 36.85 9.6 44.14 17.05 52.36 13.72 54.06 17.78 52.73 21.25 36.41 36.38 28.67 48.97 44.1 44.79 57.7 10.55 51.8 2.35" style="fill:url(#_Безымянный_градиент_2-4); mix-blend-mode:multiply; opacity:.5; stroke-width:0px;"/><polygon points="33.91 17.08 38.28 24.88 33.84 30.96 29.83 47.08 32.73 28.62 33.12 15.67 33.71 12.5 33.91 17.08" style="fill:url(#_Безымянный_градиент_2-5); mix-blend-mode:multiply; opacity:.5; stroke-width:0px;"/><polygon points="33.71 12.5 40.29 8.69 43.41 14.84 37.79 20.78 38.73 23.87 39.27 26.34 37.88 31.79 34.96 33.33 35.41 34.28 31.09 42.04 33.84 30.96 38.28 24.88 33.91 17.08 33.71 12.5" style="fill:#fff; stroke-width:0px;"/><polygon points="8.29 27.07 21.21 27.46 29.08 30.93 26.84 16.04 22.34 19.87 15.56 18.34 5.12 23.39 8.29 27.07" style="fill:url(#_Безымянный_градиент_2-6); mix-blend-mode:multiply; opacity:.5; stroke-width:0px;"/><polygon points="26.23 14.89 5.92 18.85 0 24.1 8.29 27.07 12.22 22.66 15.37 19.65 12.39 23.31 22.34 19.87 26.84 16.04 28.61 18.91 26.23 14.89" style="fill:#fff; stroke-width:0px;"/><polygon points="24.4 5.54 35.24 .45 29.38 0 24.06 3.83 24.4 5.54" style="fill:#fff; stroke-width:0px;"/><polygon points="36.85 9.6 24.65 12.94 35.26 1.74 45.49 2.3 36.85 9.6" style="fill:#fff; stroke-width:0px;"/><polygon points="35.26 1.74 25.66 5.48 23.72 9.59 24.4 5.54 34.17 .92 35.26 1.74" style="fill:#c8c7d0; mix-blend-mode:multiply; opacity:.8; stroke-width:0px;"/><polygon points="23.1 13.27 16.61 10.77 12.56 14.35 23.1 13.27" style="fill:#fff; stroke-width:0px;"/></g></g></g></svg>