<?xml version="1.0" encoding="UTF-8"?><svg xmlns="http://www.w3.org/2000/svg" width="49.23" height="45.75" xmlns:xlink="http://www.w3.org/1999/xlink" viewBox="0 0 49.23 45.75"><defs><linearGradient id="_Безымянный_градиент_5" x1="131.02" y1="50.71" x2="131.02" y2="4.88" gradientTransform="translate(-89.54 -50.64) rotate(21.49)" gradientUnits="userSpaceOnUse"><stop offset="0" stop-color="#d5dfdd"/><stop offset="1" stop-color="#f9f9f4"/></linearGradient><linearGradient id="_Безымянный_градиент_4" x1="130.32" y1="45.15" x2="130.32" y2="4.88" gradientTransform="translate(-89.54 -50.64) rotate(21.49)" gradientUnits="userSpaceOnUse"><stop offset="0" stop-color="#b9bab7"/><stop offset="1" stop-color="#9f8790"/></linearGradient><linearGradient id="_Безымянный_градиент_4-2" x1="127.93" y1="34.45" x2="127.93" y2="16.59" xlink:href="#_Безымянный_градиент_4"/><linearGradient id="_Безымянный_градиент_4-3" x1="112.64" y1="14.91" x2="112.64" y2="8.46" xlink:href="#_Безымянный_градиент_4"/><linearGradient id="_Безымянный_градиент_4-4" x1="137.55" y1="50.57" x2="137.55" y2="12.64" xlink:href="#_Безымянный_градиент_4"/><linearGradient id="_Безымянный_градиент_4-5" x1="127.22" y1="47.62" x2="127.22" y2="17.71" xlink:href="#_Безымянный_градиент_4"/><linearGradient id="_Безымянный_градиент_4-6" x1="105.37" y1="24.66" x2="127.61" y2="24.66" xlink:href="#_Безымянный_градиент_4"/></defs><g style="isolation:isolate;"><g id="_Слой_2"><g id="_Слой_1-2"><polygon points="0 29.91 2.32 1.55 4.6 .93 9.28 0 34.81 3.56 37.61 7.38 37.1 11.38 40.42 11.73 49.23 20.02 48.02 29.75 28.9 39.56 16.86 45.75 2.01 37.98 0 29.91" style="fill:url(#_Безымянный_градиент_5); stroke-width:0px;"/><polygon points="34.81 3.56 27.61 4.23 21.58 8.88 25.32 12.41 5.65 35.36 28.18 13.35 37.1 11.38 37.61 7.38 34.81 3.56" style="fill:url(#_Безымянный_градиент_4); mix-blend-mode:multiply; opacity:.82; stroke-width:0px;"/><polygon points="25.32 12.41 24.68 16.77 14.04 27.16 21.8 16.52 25.32 12.41" style="fill:url(#_Безымянный_градиент_4-2); mix-blend-mode:multiply; opacity:.5; stroke-width:0px;"/><polygon points="9.28 0 19.65 1.45 17.18 3.4 6.97 1.5 2.32 1.55 5.18 .72 9.28 0" style="fill:url(#_Безымянный_градиент_4-3); mix-blend-mode:multiply; opacity:.5; stroke-width:0px;"/><polygon points="49.23 20.02 44.77 15.82 33.8 15.33 34.08 25.44 42.13 28.49 40.66 32.51 37.43 34.1 15.82 34.12 2.01 37.98 15.76 45.17 48.02 29.75 49.23 20.02" style="fill:url(#_Безымянный_градиент_4-4); mix-blend-mode:multiply; opacity:.5; stroke-width:0px;"/><polygon points="26.77 18.72 24.74 27.15 17.57 28.55 4.09 37.4 18.33 26.16 27.14 17.19 29.65 15.32 26.77 18.72" style="fill:url(#_Безымянный_градиент_4-5); mix-blend-mode:multiply; opacity:.5; stroke-width:0px;"/><polygon points="29.65 15.32 36.85 16.95 35.02 23.38 27.1 23.91 25.73 26.73 24.48 28.85 19.9 31.81 16.81 30.98 16.5 31.96 8.3 34.63 17.57 28.55 24.74 27.15 26.77 18.72 29.65 15.32" style="fill:#fff; stroke-width:0px;"/><polygon points="1.94 8.94 10.88 17.73 14.2 25.39 22.43 13.31 16.69 13.07 12.88 7.51 2.1 4.22 1.94 8.94" style="fill:url(#_Безымянный_градиент_4-6); mix-blend-mode:multiply; opacity:.5; stroke-width:0px;"/><polygon points="27.61 4.23 38.69 7.75 34.81 3.56 28.49 2.78 27.61 4.23" style="fill:#fff; stroke-width:0px;"/><polygon points="33.8 15.33 22.91 9.66 37.85 8.68 44.77 15.82 33.8 15.33" style="fill:#fff; stroke-width:0px;"/><polygon points="37.85 8.68 28.55 5.01 24.45 6.66 27.61 4.23 37.61 7.38 37.85 8.68" style="fill:#bebdc3; mix-blend-mode:multiply; opacity:.8; stroke-width:0px;"/><polygon points="21.58 8.88 18.61 2.81 13.36 2.69 21.58 8.88" style="fill:#fff; stroke-width:0px;"/></g></g></g></svg>