<?xml version="1.0" encoding="UTF-8"?><svg id="_Слой_2" xmlns="http://www.w3.org/2000/svg" width="232.92" height="178.8" viewBox="0 0 232.92 178.8"><g id="_Слой_1-2"><path d="m169.93,169.54c-.05-.03-61.04,4.61-61.04,4.61-.29,0-1.03,4.56-.84,4.63-1.32-.33-6.61-2.35-6.58-2.64l-.09-4.15c.03-.31.3-.56.6-.57l56.94-4.05c.23,0,10.16,1.64,11.02,2.17Z" style="fill:#323230; stroke-width:0px;"/><polygon points="133.38 129.9 143.14 128.82 143.7 171.07 133.68 171.8 133.38 129.9" style="fill:#282827; stroke-width:0px;"/><polygon points="126.94 170.77 134.11 172.07 133.76 129.71 126.42 129.01 126.94 170.77" style="fill:#323230; stroke-width:0px;"/><path d="m87.5,21.38C11.86,13.45,25-1.54,8.75.13,3.88.69,1.11,2.09,1.08,5.2L0,137.22c-.02,2.76,2.24,4.91,4.95,4.71l122.04-8.98-80.02-44.03c.12-2.11,42.57-67.29,40.52-67.53Z" style="fill:#323230; stroke-width:0px;"/><path d="m229.36,24.23L13.25.08c-4.35-.49-6.72,1.66-6.75,4.68l-1.08,136.66,223.9-16.28,3.6-96.66c.08-2.12-1.35-3.98-3.56-4.23Z" style="fill:#282827; stroke-width:0px;"/><polygon points="227.69 30.3 15.31 8.98 14.18 134.09 224.39 120.65 227.69 30.3" style="fill:#3a3a3c; stroke-width:0px;"/><polygon points="72.01 14.95 15.77 9.32 15.52 36.57 72.01 14.95" style="fill:#414144; stroke-width:0px;"/><polygon points="157.84 23.53 118.86 19.63 15.28 62.8 15.04 88.77 157.84 23.53" style="fill:#414144; stroke-width:0px;"/><path d="m169.98,171.51c0,.06-.02.11-.04.16.02.05.02.09.02.15l-.14,1.54c-.02.28-.24.51-.47.53l-38.18,3.07-22.99,1.85c-.07,0-.13,0-.19-.03h0c-.19-.07-.32-.25-.3-.48l.02-1.74c0-.07-.02-2.25-.02-2.25.02-.3.28-.56.57-.58l61.49-4.22c.07,0,.14,0,.19.04.04.02.07.05.1.08.07.08.11.19.1.32l-.14,1.56Z" style="fill:#282827; stroke-width:0px;"/></g></svg>