<?xml version="1.0" encoding="UTF-8"?><svg id="_Слой_2" xmlns="http://www.w3.org/2000/svg" width="1161.74" height="671.82" viewBox="0 0 1161.74 671.82"><g id="_Слой_1-2"><path d="m1161.74,16.63v638.56c0,9.15-7.48,16.63-16.63,16.63H16.63c-9.14,0-16.63-7.48-16.63-16.63V16.63C0,7.48,7.49,0,16.63,0h1128.48c9.15,0,16.63,7.48,16.63,16.63Z" style="fill:#fff; stroke-width:0px;"/><polygon points="540.39 399.45 540.39 335 574.22 387.36 586.71 387.36 620.95 335 620.95 399.45 645.11 399.45 645.11 286.67 622.56 286.67 581.88 353.93 540.39 286.67 516.63 286.67 516.63 399.45 540.39 399.45" style="fill:#2b335a; stroke-width:0px;"/><path d="m580.87,140.69c-107.82,0-195.22,87.4-195.22,195.22s87.4,195.22,195.22,195.22,195.22-87.4,195.22-195.22-87.4-195.22-195.22-195.22Zm117.13,312.35c-23.33,23.33-52.4,38.84-84.01,45.22l-32.36,30.25-33.51-30.17c-31.76-6.34-60.96-21.88-84.37-45.3-24.08-24.08-39.82-54.26-45.8-87.05l-27.76-30.83,27.85-29.79c6.05-32.61,21.75-62.62,45.71-86.58,24.33-24.33,54.9-40.16,88.1-45.99l29.78-26.82,28.79,26.92c33,5.91,63.38,21.69,87.58,45.9,23.96,23.96,39.66,53.97,45.71,86.58l27.85,29.79-27.76,30.83c-5.98,32.8-21.72,62.98-45.8,87.05Z" style="fill:#2b335a; stroke-width:0px;"/></g></svg>