<?xml version="1.0" encoding="UTF-8"?><svg xmlns="http://www.w3.org/2000/svg" width="476.89" height="544.18" xmlns:xlink="http://www.w3.org/1999/xlink" viewBox="0 0 476.89 544.18"><defs><linearGradient id="linear-gradient" x1="-7291.52" y1="272.09" x2="-7058.85" y2="272.09" gradientTransform="translate(-7048.86) rotate(-180) scale(1 -1)" gradientUnits="userSpaceOnUse"><stop offset=".03" stop-color="#9d9da9"/><stop offset=".22" stop-color="#9f9faa"/><stop offset=".3" stop-color="#a6a6b1"/><stop offset=".36" stop-color="#b2b2bb"/><stop offset=".41" stop-color="#c4c4cb"/><stop offset=".45" stop-color="#dbdbdf"/><stop offset=".49" stop-color="#f6f6f7"/><stop offset=".5" stop-color="#fff"/><stop offset=".57" stop-color="#dfdfe2"/><stop offset=".78" stop-color="#8e8d97"/><stop offset=".93" stop-color="#5a5968"/><stop offset="1" stop-color="#474656"/></linearGradient><linearGradient id="linear-gradient-2" x1="-7093.77" y1="-36.62" x2="-7076.65" y2="-16.87" gradientTransform="translate(-7040.43 -30.91) rotate(-177.28) scale(1 -1)" xlink:href="#linear-gradient"/><linearGradient id="linear-gradient-3" x1="-7093.52" y1="271.48" x2="-7080.55" y2="286.44" xlink:href="#linear-gradient"/><clipPath id="clippath"><path d="m47.73,279.15s0,0,0,0c0,5.32-4.36,9.6-9.72,9.56-5.34-.03-9.65-4.34-9.65-9.61,0,0,0,0,0,0l19.38.05Z" style="fill:none; stroke-width:0px;"/></clipPath><radialGradient id="radial-gradient" cx="-3108.73" cy="19337.2" fx="-3108.73" fy="19337.2" r=".43" gradientTransform="translate(-1600172.73 1381965.31) rotate(-154.17) scale(4.55 100.37) skewX(-83.91)" gradientUnits="userSpaceOnUse"><stop offset="0" stop-color="#3c3c44"/><stop offset=".5" stop-color="#8685b8"/><stop offset=".81" stop-color="#d2d2e4"/><stop offset="1" stop-color="#fff"/></radialGradient><radialGradient id="radial-gradient-2" cx="-2807.31" cy="19296.71" fx="-2807.31" fy="19296.71" r=".43" gradientTransform="translate(-27850.08 667856.26) rotate(176.31) scale(9.02 34.43) skewX(-14.64)" xlink:href="#radial-gradient"/><radialGradient id="radial-gradient-3" cx="-2263.21" cy="19434.94" fx="-2263.21" fy="19434.94" r=".43" gradientTransform="translate(-885207.23 271030.97) rotate(-112.81) scale(11.35 47.39) skewX(-17.12)" xlink:href="#radial-gradient"/><radialGradient id="radial-gradient-4" cx="3689.63" cy="5602.6" fx="3689.63" fy="5602.6" r=".72" gradientTransform="translate(-145986.52 -139557.29) rotate(-38.83) scale(6.97 35.79) skewX(.49)" gradientUnits="userSpaceOnUse"><stop offset="0" stop-color="#fff"/><stop offset=".06" stop-color="#eaeaea"/><stop offset=".49" stop-color="#575353"/><stop offset=".57" stop-color="#3c3939"/><stop offset=".67" stop-color="#212020"/><stop offset=".78" stop-color="#0f0e0e"/><stop offset=".89" stop-color="#030303"/><stop offset="1" stop-color="#000"/></radialGradient><radialGradient id="radial-gradient-5" cx="4869.41" cy="5696.3" fx="4869.41" fy="5696.3" r=".72" gradientTransform="translate(-84089.63 -78594.6) rotate(-40.28) scale(2.57 20.11) skewX(2.66)" xlink:href="#radial-gradient-4"/><radialGradient id="radial-gradient-6" cx="4672.96" cy="5592.61" fx="4672.96" fy="5592.61" r=".72" gradientTransform="translate(-52037.28 -100857.91) rotate(-18.66) scale(3.57 20.11) skewX(.83)" xlink:href="#radial-gradient-4"/><radialGradient id="radial-gradient-7" cx="4425.81" cy="5350.25" fx="4425.81" fy="5350.25" r=".72" gradientTransform="translate(62315.89 -124854.15) rotate(33.47) scale(3.71 25.93) skewX(1.89)" xlink:href="#radial-gradient-4"/><linearGradient id="linear-gradient-4" x1="-7094.56" y1="270.27" x2="-7079.54" y2="287.6" xlink:href="#linear-gradient"/><linearGradient id="linear-gradient-5" x1="4688.28" y1="4613.33" x2="4701.34" y2="4628.39" gradientTransform="translate(-6549.31 226.86) rotate(45) scale(1 -1)" xlink:href="#linear-gradient"/><linearGradient id="linear-gradient-6" x1="-7100.35" y1="279.13" x2="-7073.49" y2="279.13" xlink:href="#linear-gradient"/><linearGradient id="linear-gradient-7" x1="291.92" y1="155.06" x2="291.92" y2="62.35" gradientUnits="userSpaceOnUse"><stop offset="0" stop-color="#000" stop-opacity=".3"/><stop offset="1" stop-color="#000" stop-opacity=".1"/></linearGradient><linearGradient id="linear-gradient-8" x1="317.46" y1="154.73" x2="317.46" y2="49.57" xlink:href="#linear-gradient-7"/><linearGradient id="linear-gradient-9" x1="487.44" y1="66.95" x2="487.44" y2="-13.4" gradientTransform="translate(-140.07 86.69)" xlink:href="#linear-gradient-7"/><linearGradient id="linear-gradient-10" x1="291.46" y1="337.42" x2="291.46" y2="244.71" xlink:href="#linear-gradient-7"/><linearGradient id="linear-gradient-11" x1="317" y1="337.1" x2="317" y2="231.94" xlink:href="#linear-gradient-7"/><linearGradient id="linear-gradient-12" x1="466.87" y1="248.15" x2="466.87" y2="167.8" gradientTransform="translate(-119.97 87.85)" xlink:href="#linear-gradient-7"/><linearGradient id="linear-gradient-13" x1="404.22" y1="530.44" x2="404.22" y2="437.73" xlink:href="#linear-gradient-7"/><linearGradient id="linear-gradient-14" x1="429.76" y1="530.12" x2="429.76" y2="424.96" xlink:href="#linear-gradient-7"/><linearGradient id="linear-gradient-15" x1="557.65" y1="452.43" x2="557.65" y2="372.08" gradientTransform="translate(-98 76.6)" xlink:href="#linear-gradient-7"/><linearGradient id="linear-gradient-16" x1="291.46" y1="530.44" x2="291.46" y2="437.73" xlink:href="#linear-gradient-7"/><linearGradient id="linear-gradient-17" x1="317" y1="530.12" x2="317" y2="424.96" xlink:href="#linear-gradient-7"/><linearGradient id="linear-gradient-18" x1="445.58" y1="439.99" x2="445.58" y2="359.64" gradientTransform="translate(-98.69 89.03)" xlink:href="#linear-gradient-7"/><linearGradient id="linear-gradient-19" x1="244.22" y1="272.09" x2="476.89" y2="272.09" gradientTransform="matrix(1,0,0,1,0,0)" xlink:href="#linear-gradient"/><linearGradient id="linear-gradient-20" x1="254.06" y1="163.81" x2="467.34" y2="163.81" gradientTransform="matrix(1,0,0,1,0,0)" xlink:href="#linear-gradient"/><linearGradient id="linear-gradient-21" x1="254.06" y1="346.87" x2="467.34" y2="346.87" gradientTransform="matrix(1,0,0,1,0,0)" xlink:href="#linear-gradient"/><linearGradient id="linear-gradient-22" x1="-2334.87" y1="3106.83" x2="-2334.87" y2="3012.74" gradientTransform="translate(-2646.33 -2011.79) rotate(-90)" xlink:href="#linear-gradient-7"/></defs><g style="isolation:isolate;"><g id="_Слой_2"><g id="_Слой_1-2"><polygon points="17.74 514.98 233.26 534.24 233.26 12.88 17.74 31.92 17.74 514.98" style="fill:#53b5e0; opacity:.2; stroke-width:0px;"/><polygon points="210.2 68.36 209 61.9 180.98 35.53 180.43 40.38 210.2 68.36" style="fill:#9edaef; opacity:.2; stroke-width:0px;"/><polygon points="216.4 119.3 215.19 112.81 187.05 85.88 186.5 90.74 216.4 119.3" style="fill:#9edaef; opacity:.2; stroke-width:0px;"/><polygon points="162.81 70.44 161.65 64.09 134.52 38.12 134 42.9 162.81 70.44" style="fill:#9edaef; opacity:.2; stroke-width:0px;"/><polygon points="160.09 111.43 158.94 105.07 131.86 78.74 131.34 83.5 160.09 111.43" style="fill:#9edaef; opacity:.2; stroke-width:0px;"/><polygon points="105.87 78.68 104.76 72.45 78.69 46.91 78.19 51.59 105.87 78.68" style="fill:#9edaef; opacity:.2; stroke-width:0px;"/><polygon points="131.34 140.89 130.2 134.58 103.67 108.23 103.15 112.94 131.34 140.89" style="fill:#9edaef; opacity:.2; stroke-width:0px;"/><polygon points="195.24 165.75 194.06 159.29 166.31 132.11 165.78 136.92 195.24 165.75" style="fill:#9edaef; opacity:.2; stroke-width:0px;"/><polygon points="57.63 76.07 56.56 69.95 31.38 44.87 30.89 49.47 57.63 76.07" style="fill:#9edaef; opacity:.2; stroke-width:0px;"/><polygon points="80.84 118.93 79.74 112.74 54.14 87.06 53.64 91.68 80.84 118.93" style="fill:#9edaef; opacity:.2; stroke-width:0px;"/><polygon points="94.64 159.5 93.53 153.27 67.68 127.09 67.17 131.73 94.64 159.5" style="fill:#9edaef; opacity:.2; stroke-width:0px;"/><polygon points="44.2 154.68 43.13 148.56 18.2 122.89 17.71 127.45 44.2 154.68" style="fill:#9edaef; opacity:.2; stroke-width:0px;"/><polygon points="214.07 222.48 212.87 215.95 184.77 188.06 184.23 192.89 214.07 222.48" style="fill:#9edaef; opacity:.2; stroke-width:0px;"/><polygon points="220.29 273.82 219.08 267.25 190.86 238.8 190.31 243.63 220.29 273.82" style="fill:#9edaef; opacity:.2; stroke-width:0px;"/><polygon points="166.56 222.06 165.4 215.64 138.2 188.2 137.67 192.95 166.56 222.06" style="fill:#9edaef; opacity:.2; stroke-width:0px;"/><polygon points="163.83 262.96 162.68 256.53 135.53 228.72 135 233.46 163.83 262.96" style="fill:#9edaef; opacity:.2; stroke-width:0px;"/><polygon points="109.47 227.28 108.36 220.99 82.23 194.04 81.72 198.69 109.47 227.28" style="fill:#9edaef; opacity:.2; stroke-width:0px;"/><polygon points="135 290.93 133.87 284.55 107.26 256.76 106.75 261.44 135 290.93" style="fill:#9edaef; opacity:.2; stroke-width:0px;"/><polygon points="199.07 319.21 197.89 312.67 170.07 283.99 169.53 288.78 199.07 319.21" style="fill:#9edaef; opacity:.2; stroke-width:0px;"/><polygon points="61.11 222.12 60.04 215.93 34.79 189.49 34.3 194.06 61.11 222.12" style="fill:#9edaef; opacity:.2; stroke-width:0px;"/><polygon points="84.37 266.26 83.28 260 57.61 232.93 57.11 237.54 84.37 266.26" style="fill:#9edaef; opacity:.2; stroke-width:0px;"/><polygon points="98.21 307.62 97.1 301.32 71.18 273.73 70.68 278.35 98.21 307.62" style="fill:#9edaef; opacity:.2; stroke-width:0px;"/><polygon points="64.42 336.98 63.34 330.75 38.04 303.22 37.55 307.78 64.42 336.98" style="fill:#9edaef; opacity:.2; stroke-width:0px;"/><polygon points="214.07 405.1 212.87 398.5 184.77 368.85 184.23 373.64 214.07 405.1" style="fill:#9edaef; opacity:.2; stroke-width:0px;"/><polygon points="220.29 456.83 219.08 450.19 190.86 419.97 190.31 424.77 220.29 456.83" style="fill:#9edaef; opacity:.2; stroke-width:0px;"/><polygon points="166.56 401.71 165.4 395.21 138.2 366.07 137.67 370.78 166.56 401.71" style="fill:#9edaef; opacity:.2; stroke-width:0px;"/><polygon points="163.83 442.43 162.68 435.93 135.53 406.42 135 411.13 163.83 442.43" style="fill:#9edaef; opacity:.2; stroke-width:0px;"/><polygon points="109.47 403.35 108.36 396.99 82.23 368.4 81.72 373.02 109.47 403.35" style="fill:#9edaef; opacity:.2; stroke-width:0px;"/><polygon points="135 468.59 133.87 462.15 107.26 432.69 106.75 437.34 135 468.59" style="fill:#9edaef; opacity:.2; stroke-width:0px;"/><polygon points="199.07 500.89 197.89 494.28 170.07 463.86 169.53 468.61 199.07 500.89" style="fill:#9edaef; opacity:.2; stroke-width:0px;"/><polygon points="61.11 395.16 60.04 388.9 34.79 360.88 34.3 365.42 61.11 395.16" style="fill:#9edaef; opacity:.2; stroke-width:0px;"/><polygon points="84.37 440.75 83.28 434.43 57.61 405.75 57.11 410.33 84.37 440.75" style="fill:#9edaef; opacity:.2; stroke-width:0px;"/><polygon points="98.21 482.98 97.1 476.61 71.18 447.4 70.68 451.99 98.21 482.98" style="fill:#9edaef; opacity:.2; stroke-width:0px;"/><polygon points="47.64 472.31 46.58 466.06 21.58 437.46 21.09 441.98 47.64 472.31" style="fill:#9edaef; opacity:.2; stroke-width:0px;"/><path d="m18.96,33.78v476.63l213.21,18.68V15.09L18.96,33.78m-8.96-12.27l8.96-.83L232.16.97,242.66,0v544.18l-10.5-.97-213.21-19.71-8.96-.83V21.51h0Z" style="fill:url(#linear-gradient); stroke-width:0px;"/><path d="m25.28,278.5c-.33,6.95,5.07,12.89,12.11,13.27,7.07.38,13.1-4.99,13.44-12s-5.15-12.96-12.22-13.28c-7.04-.32-12.99,5.06-13.32,12.01Z" style="fill:url(#linear-gradient-2); stroke-width:0px;"/><path d="m28.34,279.11c0,5.28,4.31,9.58,9.65,9.61s9.72-4.25,9.72-9.56-4.36-9.62-9.72-9.61-9.65,4.29-9.65,9.56Z" style="fill:url(#linear-gradient-3); stroke-width:0px;"/><g style="clip-path:url(#clippath);"><path d="m32.92,280.37c19.48-16.83,36.28-30.27,37.27-29.81.99.46-14.24,14.67-33.77,31.5C17.16,298.66.98,311.57.04,311.1c-.94-.47,13.67-14.13,32.88-30.72Z" style="fill:url(#radial-gradient); mix-blend-mode:multiply; opacity:.33; stroke-width:0px;"/><path d="m33.61,285.11c.03-8.06,1.78-14.71,3.91-14.85,2.13-.14,3.83,6.31,3.8,14.4-.03,8.09-1.79,14.74-3.92,14.85-2.13.11-3.82-6.33-3.79-14.39Z" style="fill:url(#radial-gradient-2); mix-blend-mode:multiply; opacity:.49; stroke-width:0px;"/><path d="m32.05,274.87c10.65-3.54,20.19-4.44,21.24-1.97,1.05,2.46-6.81,7.33-17.48,10.84-10.59,3.48-19.95,4.31-20.97,1.88-1.02-2.43,6.65-7.23,17.21-10.75Z" style="fill:url(#radial-gradient-3); mix-blend-mode:multiply; opacity:.33; stroke-width:0px;"/><path d="m48.07,283.56c9.08,11.13,14.7,21.61,12.49,23.32-2.2,1.71-11.35-5.97-20.38-17.09-8.97-11.05-14.46-21.35-12.31-23.07,2.15-1.73,11.18,5.78,20.2,16.84Z" style="fill:url(#radial-gradient-4); mix-blend-mode:screen; opacity:.27; stroke-width:0px;"/><path d="m45.45,285.39c5.27,6.09,8.92,11.58,8.13,12.24-.79.65-5.71-3.78-10.97-9.87-5.24-6.07-8.85-11.5-8.07-12.16.78-.66,5.66,3.72,10.91,9.79Z" style="fill:url(#radial-gradient-5); mix-blend-mode:screen; opacity:.25; stroke-width:0px;"/><path d="m43.27,286.71c2.6,7.57,3.61,14.07,2.25,14.51-1.36.44-4.56-5.34-7.16-12.9-2.59-7.54-3.59-14.01-2.24-14.47,1.35-.45,4.55,5.3,7.15,12.85Z" style="fill:url(#radial-gradient-6); mix-blend-mode:screen; opacity:.66; stroke-width:0px;"/><path d="m34.34,290.01c-5.65,8.52-11.21,14.74-12.43,13.92-1.22-.82,2.34-8.35,7.97-16.86,5.66-8.55,11.26-14.85,12.5-14.04,1.24.81-2.37,8.43-8.05,16.98Z" style="fill:url(#radial-gradient-7); mix-blend-mode:screen; opacity:.25; stroke-width:0px;"/></g><path d="m29.5,279.1c0,4.65,3.8,8.43,8.5,8.46,4.72.03,8.55-3.74,8.55-8.42s-3.84-8.46-8.55-8.46c-4.7,0-8.5,3.77-8.5,8.42Z" style="fill:#363130; stroke-width:0px;"/><path d="m26.8,279.1c0,6.11,5,11.1,11.19,11.13s11.25-4.92,11.25-11.08-5.05-11.14-11.25-11.13-11.19,4.96-11.19,11.08Z" style="fill:url(#linear-gradient-4); stroke-width:0px;"/><path d="m31.16,285.88c-3.76-3.75-3.76-9.8,0-13.53,3.77-3.74,9.9-3.75,13.7,0,3.81,3.76,3.81,9.86,0,13.6-3.8,3.73-9.93,3.69-13.7-.07Zm13.61-13.43c-3.74-3.7-9.79-3.69-13.51,0-3.71,3.68-3.71,9.64,0,13.34,3.72,3.71,9.77,3.75,13.51.07,3.75-3.69,3.75-9.7,0-13.41Z" style="fill:url(#linear-gradient-5); opacity:.27; stroke-width:0px;"/><path d="m31.03,286.02c-3.83-3.82-3.83-9.98,0-13.79,3.84-3.81,10.09-3.82,13.96,0,3.88,3.83,3.88,10.04,0,13.86-3.87,3.8-10.12,3.76-13.96-.07Zm13.87-13.69c-3.82-3.77-9.98-3.76-13.77,0-3.78,3.75-3.78,9.83,0,13.59,3.79,3.78,9.95,3.82,13.77.07,3.83-3.76,3.83-9.88,0-13.66Z" style="fill:#fff; opacity:.27; stroke-width:0px;"/><path d="m28.98,288.01c-4.95-4.95-4.95-12.92,0-17.84,4.97-4.94,13.07-4.96,18.09-.01s5.04,13.02,0,17.96c-5.02,4.92-13.12,4.86-18.09-.11Zm17.96-17.73c-4.95-4.88-12.93-4.86-17.84.01-4.88,4.85-4.88,12.72,0,17.6,4.9,4.9,12.89,4.96,17.84.1,4.97-4.87,4.97-12.82,0-17.71Z" style="fill:#fff; opacity:.27; stroke-width:0px;"/><path d="m37.99,292.42c-7.39-.05-13.36-6.02-13.36-13.32s5.97-13.24,13.36-13.25,13.49,5.95,13.49,13.32-6.06,13.31-13.49,13.25Zm9.07-22.24c-5.02-4.95-13.11-4.93-18.08.01-4.95,4.92-4.95,12.89,0,17.84,4.97,4.96,13.06,5.03,18.08.11,5.04-4.94,5.04-12.99,0-17.96Z" style="fill:url(#linear-gradient-6); stroke-width:0px;"/><g style="opacity:.24;"><path d="m30.77,279.33c0,.36.03.72.08,1.07.03.17.07.34.1.52.17.75.48,1.46.89,2.1.27.43.58.82.94,1.19.42.43.88.77,1.38,1.11,0,0-.06.1-.05.1-.57-.38-1.11-.79-1.57-1.3-.4-.44-.75-.93-1.03-1.46-.21-.39-.38-.78-.51-1.2-.11-.34-.19-.68-.24-1.02-.06-.36-.08-.72-.08-1.08,0-.04.11-.09.11-.02Z" style="fill:#fff; opacity:.06; stroke-width:0px;"/><path d="m30.82,279.37c0,.53.06,1.06.18,1.57.08.34.18.66.31.98.28.7.68,1.35,1.17,1.92.38.45.81.85,1.29,1.2.56.4,1.16.69,1.8.94,0,0-.03.11-.03.11-.4-.16-.8-.33-1.17-.54-.3-.17-.58-.36-.85-.57-.6-.47-1.15-1.03-1.58-1.66-.38-.58-.7-1.19-.91-1.85-.11-.33-.18-.68-.24-1.02-.07-.42-.07-.67-.09-1.1,0-.07.12-.05.12.02Z" style="fill:#fff; opacity:.06; stroke-width:0px;"/><path d="m39.87,272.08c-.14-.04-.29-.08-.44-.11,0,0,.03-.11.03-.11.69.16,1.35.36,1.98.69.17.09.34.19.51.29,0,0,0,0,0,0-.62-.37-1.37-.61-2.07-.76Z" style="fill:#fff; opacity:.06; stroke-width:0px;"/><path d="m32.26,283.44c.33.39.67.76,1.06,1.09.39.33.82.6,1.27.85,1.09.59,2.34.85,3.57.83,2.19-.02,4.29-1.13,5.62-2.83.31-.4.58-.83.8-1.29.12-.23.22-.46.3-.7.15-.4.25-.82.28-1.25.11-.43.15-.86.13-1.3,0-.27-.03-.53-.07-.8-.03-.26-.08-.52-.14-.77-.1-.41-.25-.81-.46-1.18-.04-.11-.08-.21-.13-.31-.26-.64-.65-1.26-1.12-1.77,0,0,0,0,0,0,.63.65,1.13,1.42,1.48,2.26.8,1.92.72,4.12-.19,5.98-1.12,2.27-3.39,3.84-5.94,4.06-1.24.11-2.5-.1-3.64-.59-.47-.21-.92-.46-1.34-.76-.56-.4-1.03-.88-1.47-1.39-.02-.02,0-.09-.01-.11Z" style="fill:#fff; opacity:.06; stroke-width:0px;"/><path d="m34.65,278.62c.02-.12.04-.24.07-.36.06-.23.14-.45.25-.67.16-.31.37-.61.62-.85.28-.27.6-.5.95-.67.45-.21.93-.31,1.43-.32.56,0,1.12.13,1.61.39-.26-.12-.56-.21-.83-.26-.07-.01-.14-.02-.21-.03-.12-.02-.24-.03-.36-.04-.4-.03-.82.03-1.2.15-.19.06-.37.13-.54.22-.17.09-.34.19-.49.31-.22.22-.43.44-.65.66l-.13.19c-.11.16-.19.34-.26.51-.07.18-.13.37-.17.56-.05.23-.06.46-.07.69,0,0,.02.02.02.03.02.38.06.71.18,1.06.06.18.14.36.24.53.19.33.44.64.74.88.59.48,1.31.76,2.07.77.77.02,1.51-.23,2.11-.7.61-.46,1.06-1.18,1.2-1.93.07-.36.08-.72.04-1.09-.03-.2-.07-.39-.13-.58-.03-.07-.05-.15-.08-.22-.03-.09-.08-.18-.12-.26-.11-.28-.29-.56-.49-.79.5.53.82,1.21.91,1.93.11,1.01-.24,2.03-.96,2.74-.69.69-1.67,1.04-2.65.97-.8-.06-1.57-.41-2.13-.97-.34-.33-.6-.73-.77-1.17-.09-.22-.15-.46-.19-.7-.03-.17-.03-.31-.04-.48,0,0,0-.01,0-.02,0-.17.01-.33.03-.5Z" style="fill:#fff; opacity:.06; stroke-width:0px;"/><path d="m33.87,281.72c-.15-.25-.29-.5-.4-.77-.24-.58-.36-1.19-.37-1.82-.02-1.27.51-2.53,1.41-3.42.49-.49,1.09-.88,1.75-1.12-.29.13-.58.29-.83.46-.21.14-.4.29-.57.48-.12.1-.23.2-.33.32-.4.42-.72.9-.95,1.43-.25.56-.37,1.17-.37,1.78,0,.61.1,1.21.32,1.78.12.31.28.63.47.9.19.27.4.52.63.75.02,0,.04,0,.05.01.26.24.53.47.83.66.25.15.5.28.77.38.58.23,1.19.33,1.81.33,1.26,0,2.5-.55,3.37-1.43.87-.89,1.38-2.13,1.35-3.38-.04-1.25-.55-2.48-1.47-3.34-.46-.43-1.01-.78-1.6-1.01-.34-.18-.74-.32-1.15-.39,1.07.13,2.1.59,2.86,1.36.9.91,1.46,2.14,1.46,3.42,0,1.27-.49,2.53-1.41,3.43-.43.42-.91.75-1.46,1-.57.26-1.2.4-1.83.42-.63.02-1.25-.08-1.85-.29-.32-.11-.65-.27-.94-.46-.29-.19-.54-.4-.8-.63-.02,0-.04-.02-.05-.03-.25-.26-.49-.53-.68-.83Z" style="fill:#fff; opacity:.06; stroke-width:0px;"/><path d="m30.79,277.77c.07-.34.16-.67.28-1,.46-1.28,1.29-2.42,2.37-3.26.81-.64,1.76-1.1,2.77-1.35.7-.17,1.42-.24,2.14-.21,0,0,.01,0,.02,0-.04,0-.08,0-.12,0-.15.02-.29.04-.44.07-.07,0-.15,0-.22,0-.27,0-.54.04-.81.09l-1.52.44c-.47.18-.95.45-1.35.73-.7.49-1.3,1.08-1.8,1.76-.29.4-.57.86-.75,1.32-.18.65-.36,1.31-.54,1.96-.04.35-.06.71-.05,1.06,0,.07-.12.07-.12-.01,0-.55.03-1.08.14-1.62Z" style="fill:#fff; opacity:.06; stroke-width:0px;"/><path d="m32.94,278.01c.07-.3.16-.59.28-.87.26-.61.63-1.15,1.1-1.63.95-.96,2.3-1.5,3.66-1.51.78,0,1.56.18,2.27.51-.36-.15-.74-.25-1.09-.32-.29-.06-.58-.08-.87-.07-.13,0-.25,0-.38,0-.62.02-1.22.14-1.8.36-.61.23-1.16.61-1.63,1.05-.47.45-.84.98-1.11,1.57-.15.32-.26.68-.33,1.02-.07.34-.09.68-.1,1.02.02.02.03.04.03.05.01.37.04.74.13,1.11.07.29.17.58.29.85.26.6.64,1.12,1.1,1.58.94.93,2.28,1.44,3.61,1.42,1.32-.02,2.65-.56,3.56-1.52.92-.96,1.47-2.25,1.43-3.58-.02-.72-.19-1.44-.5-2.09-.14-.41-.36-.82-.64-1.17.78.92,1.25,2.1,1.24,3.31,0,.63-.12,1.24-.33,1.83-.25.67-.67,1.31-1.18,1.8-.97.94-2.3,1.52-3.67,1.5-.64,0-1.25-.12-1.85-.34-.62-.23-1.2-.6-1.68-1.05-.49-.45-.88-.99-1.17-1.59-.16-.32-.28-.69-.36-1.04-.08-.36-.11-.72-.12-1.09,0-.01,0-.03,0-.03.01-.38.03-.75.12-1.12Z" style="fill:#fff; opacity:.06; stroke-width:0px;"/><path d="m37.09,283.13c-.24-.06-.48-.13-.71-.23-.5-.21-.94-.51-1.32-.88-.78-.75-1.22-1.84-1.22-2.91,0-.66.16-1.33.47-1.91-.15.31-.25.67-.31.99-.03.13-.04.26-.05.39,0,0,0,0,0,.01,0,.1-.02.2-.03.29.13.66.27,1.33.4,1.99.11.25.28.5.45.72.15.18.31.35.48.51.35.32.76.57,1.2.75.22.09.46.16.69.21.28.06.56.08.84.09,0-.01.02-.02.03-.02.26,0,.5-.02.75-.07.24-.04.48-.11.71-.2.45-.17.86-.43,1.21-.74.76-.66,1.24-1.62,1.33-2.62.09-.98-.18-1.96-.76-2.75-.59-.8-1.49-1.39-2.48-1.58-.88-.17-1.8-.06-2.6.32-.36.13-.71.33-1.01.58.76-.68,1.77-1.09,2.8-1.08,1.09.01,2.17.43,2.94,1.2.76.77,1.24,1.82,1.23,2.91,0,.5-.09.99-.27,1.47-.18.5-.48.95-.84,1.34-.37.39-.8.7-1.28.93-.26.12-.56.22-.84.28-.29.06-.59.08-.89.1-.01,0-.02,0-.03,0-.31-.01-.61-.03-.91-.1Z" style="fill:#fff; opacity:.06; stroke-width:0px;"/><path d="m30.31,278.12c.03-.28.09-.55.16-.82.13-.53.32-1.04.56-1.53.51-1.04,1.27-1.98,2.2-2.68.87-.66,1.87-1.15,2.94-1.4,1.12-.27,2.27-.27,3.4-.05.11.02.22.05.34.07-.05-.01-.11-.02-.16-.03-.49-.09-.99-.14-1.49-.08-.07,0-.13.02-.2.03-.63,0-1.26.07-1.88.21-1.66.39-3.16,1.4-4.2,2.73-.49.63-.89,1.34-1.15,2.09-.12.34-.21.69-.29,1.04-.11.51-.13,1.02-.14,1.53.03.02.06.06.06.09.02.47.05.93.14,1.4.07.36.17.71.29,1.05.15.42.33.83.56,1.21.31.42.61.84.92,1.26l.37.38c1.22,1.2,2.88,1.93,4.58,2.09.99.13,1.94-.12,2.85-.76,1.2,0,2.19-.38,2.98-1.13.26-.24.51-.49.74-.76.52-.61.94-1.3,1.24-2.04.66-1.61.76-3.48.2-5.14-.11-.34-.25-.68-.4-1-.11-.33-.26-.65-.43-.96,1.3,1.94,1.65,4.4.93,6.61-.59,1.82-1.86,3.38-3.53,4.32-1.06.6-2.24.94-3.46,1-2.15.1-4.28-.68-5.83-2.17-.53-.51-.97-1.09-1.34-1.72-.28-.47-.49-.98-.65-1.5-.22-.68-.3-1.38-.33-2.09-.03-.03-.04-.09-.04-.12,0-.38.02-.76.07-1.13Z" style="fill:#fff; opacity:.06; stroke-width:0px;"/><path d="m30.71,278.03c.06-.35.14-.68.24-1.02.23-.73.58-1.43,1.03-2.05.75-1.04,1.79-1.87,2.97-2.4,1.1-.49,2.35-.72,3.56-.62-.09,0-.18,0-.26.02-.14.02-.28.04-.42.07-.89.02-1.78.2-2.61.54-1.55.64-2.91,1.83-3.67,3.32-.23.45-.43.92-.56,1.42-.09.33-.16.67-.2,1.02-.04.35-.06.71-.05,1.06,0,.05-.11.06-.11-.01,0-.45.02-.89.1-1.34Z" style="fill:#fff; opacity:.06; stroke-width:0px;"/></g><rect x="253.76" y="14.17" width="213.58" height="515.84" style="fill:#bfc3aa; stroke-width:0px;"/><polygon points="467.34 530.01 286.52 530.01 277.15 48.7 467.34 39.2 467.34 530.01" style="fill:#ccd1b3; stroke-width:0px;"/><polygon points="468.29 201.44 268.63 208.68 268.63 171.27 467.32 171.27 468.29 201.44" style="fill:#bfc3aa; stroke-width:0px;"/><polygon points="468.29 384.55 268.63 391.78 268.63 354.37 467.32 354.37 468.29 384.55" style="fill:#bfc3aa; stroke-width:0px;"/><rect x="269.3" y="63.08" width="29.62" height="94.38" style="fill:#66f; stroke-width:0px;"/><rect x="274.98" y="89.68" width="20.59" height="44.93" style="fill:#fff; stroke-width:0px;"/><path d="m290.63,118.13c-.75.37-2.24.75-4.16.75-4.44,0-7.78-2.8-7.78-7.97s3.34-8.27,8.22-8.27c1.96,0,3.2.42,3.74.7l-.49,1.66c-.77-.37-1.87-.65-3.18-.65-3.69,0-6.14,2.36-6.14,6.49,0,3.85,2.22,6.33,6.05,6.33,1.24,0,2.5-.26,3.32-.65l.42,1.61Z" style="fill:#63c; stroke-width:0px;"/><rect x="284.92" y="63.08" width="13.99" height="94.38" style="fill:url(#linear-gradient-7); stroke-width:0px;"/><rect x="299.2" y="50.41" width="23.91" height="107.06" style="fill:#d4d3b5; stroke-width:0px;"/><rect x="299.39" y="55.89" width="23.49" height="1.34" style="fill:#fff; stroke-width:0px;"/><rect x="299.39" y="58.45" width="23.49" height="2.6" style="fill:#fff; stroke-width:0px;"/><rect x="299.39" y="147.62" width="23.49" height="1.34" style="fill:#fff; stroke-width:0px;"/><rect x="299.39" y="150.18" width="23.49" height="2.6" style="fill:#fff; stroke-width:0px;"/><rect x="311.81" y="50.41" width="11.3" height="107.06" style="fill:url(#linear-gradient-8); stroke-width:0px;"/><rect x="326.91" y="74.68" width="26.85" height="81.8" transform="translate(-10.67 38.23) rotate(-6.33)" style="fill:#6a72df; stroke-width:0px;"/><rect x="323.13" y="79.1" width="26.38" height="1.03" transform="translate(-6.73 37.57) rotate(-6.33)" style="fill:#56c9cd; stroke-width:0px;"/><rect x="323.4" y="81.04" width="26.38" height="1.99" transform="translate(-6.99 37.61) rotate(-6.33)" style="fill:#56c9cd; stroke-width:0px;"/><rect x="330.86" y="148.75" width="26.38" height="1.03" transform="translate(-14.36 38.84) rotate(-6.33)" style="fill:#56c9cd; stroke-width:0px;"/><rect x="331.13" y="150.7" width="26.38" height="1.99" transform="translate(-14.63 38.89) rotate(-6.33)" style="fill:#56c9cd; stroke-width:0px;"/><rect x="341.03" y="73.9" width="12.69" height="81.8" transform="translate(-10.54 39) rotate(-6.33)" style="fill:url(#linear-gradient-9); stroke-width:0px;"/><rect x="268.84" y="245.45" width="29.62" height="94.38" style="fill:#d8dcff; stroke-width:0px;"/><rect x="274.52" y="272.04" width="20.59" height="44.93" style="fill:#fff; stroke-width:0px;"/><path d="m290.17,300.5c-.75.37-2.24.75-4.16.75-4.44,0-7.78-2.8-7.78-7.97s3.34-8.27,8.22-8.27c1.96,0,3.2.42,3.74.7l-.49,1.66c-.77-.37-1.87-.65-3.18-.65-3.69,0-6.14,2.36-6.14,6.49,0,3.85,2.22,6.33,6.05,6.33,1.24,0,2.5-.26,3.32-.65l.42,1.61Z" style="fill:#9382cc; stroke-width:0px;"/><rect x="284.46" y="245.45" width="13.99" height="94.38" style="fill:url(#linear-gradient-10); stroke-width:0px;"/><rect x="298.74" y="232.77" width="23.91" height="107.06" style="fill:#d4d1ab; stroke-width:0px;"/><rect x="298.93" y="238.26" width="23.49" height="1.34" style="fill:#fff; stroke-width:0px;"/><rect x="298.93" y="240.82" width="23.49" height="2.6" style="fill:#fff; stroke-width:0px;"/><rect x="298.93" y="329.98" width="23.49" height="1.34" style="fill:#fff; stroke-width:0px;"/><rect x="298.93" y="332.54" width="23.49" height="2.6" style="fill:#fff; stroke-width:0px;"/><rect x="311.35" y="232.77" width="11.3" height="107.06" style="fill:url(#linear-gradient-11); stroke-width:0px;"/><rect x="326.45" y="257.05" width="26.85" height="81.8" transform="translate(-30.78 39.29) rotate(-6.33)" style="fill:#9ba6df; stroke-width:0px;"/><rect x="322.67" y="261.46" width="26.38" height="1.03" transform="translate(-26.84 38.63) rotate(-6.33)" style="fill:#87cdc3; stroke-width:0px;"/><rect x="322.94" y="263.4" width="26.38" height="1.99" transform="translate(-27.1 38.67) rotate(-6.33)" style="fill:#87cdc3; stroke-width:0px;"/><rect x="330.4" y="331.12" width="26.38" height="1.03" transform="translate(-34.47 39.9) rotate(-6.33)" style="fill:#87cdc3; stroke-width:0px;"/><rect x="330.67" y="333.06" width="26.38" height="1.99" transform="translate(-34.74 39.95) rotate(-6.33)" style="fill:#87cdc3; stroke-width:0px;"/><rect x="340.57" y="256.27" width="12.69" height="81.8" transform="translate(-30.65 40.06) rotate(-6.33)" style="fill:url(#linear-gradient-12); stroke-width:0px;"/><rect x="381.6" y="438.47" width="29.62" height="94.38" style="fill:#ff1f62; stroke-width:0px;"/><rect x="387.28" y="465.06" width="20.59" height="44.93" style="fill:#fff; stroke-width:0px;"/><path d="m402.93,493.52c-.75.37-2.24.75-4.16.75-4.44,0-7.78-2.8-7.78-7.97s3.34-8.27,8.22-8.27c1.96,0,3.2.42,3.74.7l-.49,1.66c-.77-.37-1.87-.65-3.18-.65-3.69,0-6.14,2.36-6.14,6.49,0,3.85,2.22,6.33,6.05,6.33,1.24,0,2.5-.26,3.32-.65l.42,1.61Z" style="fill:#cc1700; stroke-width:0px;"/><rect x="397.22" y="438.47" width="13.99" height="94.38" style="fill:url(#linear-gradient-13); stroke-width:0px;"/><rect x="411.5" y="425.79" width="23.91" height="107.06" style="fill:#67d4c6; stroke-width:0px;"/><rect x="411.69" y="431.28" width="23.49" height="1.34" style="fill:#fff; stroke-width:0px;"/><rect x="411.69" y="433.84" width="23.49" height="2.6" style="fill:#fff; stroke-width:0px;"/><rect x="411.69" y="523" width="23.49" height="1.34" style="fill:#fff; stroke-width:0px;"/><rect x="411.69" y="525.56" width="23.49" height="2.6" style="fill:#fff; stroke-width:0px;"/><rect x="424.11" y="425.79" width="11.3" height="107.06" style="fill:url(#linear-gradient-14); stroke-width:0px;"/><rect x="439.21" y="450.07" width="26.85" height="81.8" transform="translate(-51.37 52.9) rotate(-6.33)" style="fill:#df2974; stroke-width:0px;"/><rect x="435.43" y="454.48" width="26.38" height="1.03" transform="translate(-47.43 52.24) rotate(-6.33)" style="fill:#861ccd; stroke-width:0px;"/><rect x="435.7" y="456.42" width="26.38" height="1.99" transform="translate(-47.7 52.28) rotate(-6.33)" style="fill:#861ccd; stroke-width:0px;"/><rect x="443.16" y="524.14" width="26.38" height="1.03" transform="translate(-55.06 53.51) rotate(-6.33)" style="fill:#861ccd; stroke-width:0px;"/><rect x="443.43" y="526.08" width="26.38" height="1.99" transform="translate(-55.33 53.56) rotate(-6.33)" style="fill:#861ccd; stroke-width:0px;"/><rect x="453.33" y="449.29" width="12.69" height="81.8" transform="translate(-51.24 53.67) rotate(-6.33)" style="fill:url(#linear-gradient-15); stroke-width:0px;"/><rect x="268.84" y="438.47" width="29.62" height="94.38" style="fill:#ebf1ff; stroke-width:0px;"/><rect x="274.52" y="465.06" width="20.59" height="44.93" style="fill:#fff; stroke-width:0px;"/><path d="m290.17,493.52c-.75.37-2.24.75-4.16.75-4.44,0-7.78-2.8-7.78-7.97s3.34-8.27,8.22-8.27c1.96,0,3.2.42,3.74.7l-.49,1.66c-.77-.37-1.87-.65-3.18-.65-3.69,0-6.14,2.36-6.14,6.49,0,3.85,2.22,6.33,6.05,6.33,1.24,0,2.5-.26,3.32-.65l.42,1.61Z" style="fill:#8681cc; stroke-width:0px;"/><rect x="284.46" y="438.47" width="13.99" height="94.38" style="fill:url(#linear-gradient-16); stroke-width:0px;"/><rect x="298.74" y="425.79" width="23.91" height="107.06" style="fill:#d4c787; stroke-width:0px;"/><rect x="298.93" y="431.28" width="23.49" height="1.34" style="fill:#fff; stroke-width:0px;"/><rect x="298.93" y="433.84" width="23.49" height="2.6" style="fill:#fff; stroke-width:0px;"/><rect x="298.93" y="523" width="23.49" height="1.34" style="fill:#fff; stroke-width:0px;"/><rect x="298.93" y="525.56" width="23.49" height="2.6" style="fill:#fff; stroke-width:0px;"/><rect x="311.35" y="425.79" width="11.3" height="107.06" style="fill:url(#linear-gradient-17); stroke-width:0px;"/><rect x="326.45" y="450.07" width="26.85" height="81.8" transform="translate(-52.06 40.47) rotate(-6.33)" style="fill:#bdcbdf; stroke-width:0px;"/><rect x="322.67" y="454.48" width="26.38" height="1.03" transform="translate(-48.12 39.8) rotate(-6.33)" style="fill:#94cdb4; stroke-width:0px;"/><rect x="322.94" y="456.42" width="26.38" height="1.99" transform="translate(-48.38 39.85) rotate(-6.33)" style="fill:#94cdb4; stroke-width:0px;"/><rect x="330.4" y="524.14" width="26.38" height="1.03" transform="translate(-55.75 41.08) rotate(-6.33)" style="fill:#94cdb4; stroke-width:0px;"/><rect x="330.67" y="526.08" width="26.38" height="1.99" transform="translate(-56.02 41.13) rotate(-6.33)" style="fill:#94cdb4; stroke-width:0px;"/><rect x="340.57" y="449.29" width="12.69" height="81.8" transform="translate(-51.93 41.24) rotate(-6.33)" style="fill:url(#linear-gradient-18); stroke-width:0px;"/><path d="m467.18,14.17v515.84h-213.26V14.17h213.26m9.7-14.17h-232.67v544.18h232.67V0h0Z" style="fill:url(#linear-gradient-19); stroke-width:0px;"/><polygon points="467.32 171.27 254.06 170.53 254.08 156.35 467.34 157.09 467.32 171.27" style="fill:url(#linear-gradient-20); stroke-width:0px;"/><polygon points="467.32 354.33 254.06 353.59 254.08 339.42 467.34 340.16 467.32 354.33" style="fill:url(#linear-gradient-21); stroke-width:0px;"/><rect x="367.16" y="318.03" width="95.79" height="21.39" style="fill:#acb4d4; stroke-width:0px;"/><rect x="372.07" y="318.23" width="1.2" height="21.02" style="fill:#fff; stroke-width:0px;"/><rect x="374.35" y="318.23" width="2.33" height="21.02" style="fill:#fff; stroke-width:0px;"/><rect x="454.14" y="318.23" width="1.2" height="21.02" style="fill:#fff; stroke-width:0px;"/><rect x="456.42" y="318.23" width="2.33" height="21.02" style="fill:#fff; stroke-width:0px;"/><rect x="367.16" y="318.03" width="95.79" height="10.11" style="fill:url(#linear-gradient-22); stroke-width:0px;"/></g></g></g></svg>