<?xml version="1.0" encoding="UTF-8"?><svg xmlns="http://www.w3.org/2000/svg" width="243.56" height="544.18" xmlns:xlink="http://www.w3.org/1999/xlink" viewBox="0 0 243.56 544.18"><defs><linearGradient id="linear-gradient" x1="47.7" y1="155.06" x2="47.7" y2="62.35" gradientUnits="userSpaceOnUse"><stop offset="0" stop-color="#000" stop-opacity=".3"/><stop offset="1" stop-color="#000" stop-opacity=".1"/></linearGradient><linearGradient id="linear-gradient-2" x1="73.24" y1="154.73" x2="73.24" y2="49.57" xlink:href="#linear-gradient"/><linearGradient id="linear-gradient-3" x1="251.19" y1="-64.96" x2="251.19" y2="-145.31" gradientTransform="translate(-148.03 218.59)" xlink:href="#linear-gradient"/><linearGradient id="linear-gradient-4" x1="47.24" y1="337.42" x2="47.24" y2="244.71" xlink:href="#linear-gradient"/><linearGradient id="linear-gradient-5" x1="72.78" y1="337.1" x2="72.78" y2="231.94" xlink:href="#linear-gradient"/><linearGradient id="linear-gradient-6" x1="230.62" y1="116.24" x2="230.62" y2="35.89" gradientTransform="translate(-127.93 219.75)" xlink:href="#linear-gradient"/><linearGradient id="linear-gradient-7" x1="160" y1="530.44" x2="160" y2="437.73" xlink:href="#linear-gradient"/><linearGradient id="linear-gradient-8" x1="185.54" y1="530.12" x2="185.54" y2="424.96" xlink:href="#linear-gradient"/><linearGradient id="linear-gradient-9" x1="321.4" y1="320.52" x2="321.4" y2="240.17" gradientTransform="translate(-105.96 208.49)" xlink:href="#linear-gradient"/><linearGradient id="linear-gradient-10" x1="47.24" y1="530.44" x2="47.24" y2="437.73" xlink:href="#linear-gradient"/><linearGradient id="linear-gradient-11" x1="72.78" y1="530.12" x2="72.78" y2="424.96" xlink:href="#linear-gradient"/><linearGradient id="linear-gradient-12" x1="209.33" y1="308.09" x2="209.33" y2="227.74" gradientTransform="translate(-106.65 220.93)" xlink:href="#linear-gradient"/><linearGradient id="linear-gradient-13" x1="0" y1="272.09" x2="232.67" y2="272.09" gradientUnits="userSpaceOnUse"><stop offset=".03" stop-color="#9d9da9"/><stop offset=".22" stop-color="#9f9faa"/><stop offset=".3" stop-color="#a6a6b1"/><stop offset=".36" stop-color="#b2b2bb"/><stop offset=".41" stop-color="#c4c4cb"/><stop offset=".45" stop-color="#dbdbdf"/><stop offset=".49" stop-color="#f6f6f7"/><stop offset=".5" stop-color="#fff"/><stop offset=".57" stop-color="#dfdfe2"/><stop offset=".78" stop-color="#8e8d97"/><stop offset=".93" stop-color="#5a5968"/><stop offset="1" stop-color="#474656"/></linearGradient><linearGradient id="linear-gradient-14" x1="9.84" y1="163.81" x2="223.13" y2="163.81" xlink:href="#linear-gradient-13"/><linearGradient id="linear-gradient-15" x1="9.54" y1="346.91" x2="222.83" y2="346.91" xlink:href="#linear-gradient-13"/><linearGradient id="linear-gradient-16" x1="188.02" y1="264.21" x2="206.36" y2="285.36" gradientTransform="translate(-7.67 14.31) rotate(-2.72)" xlink:href="#linear-gradient-13"/><linearGradient id="linear-gradient-17" x1="195.47" y1="271.46" x2="209.36" y2="287.49" xlink:href="#linear-gradient-13"/><clipPath id="clippath"><path d="m192.25,279.65s0,0,0,0c0,5.69,4.61,10.31,10.31,10.31s10.31-4.61,10.31-10.31c0,0,0,0,0,0h-20.61Z" style="fill:none; stroke-width:0px;"/></clipPath><radialGradient id="radial-gradient" cx="-1159.31" cy="19315.78" fx="-1159.31" fy="19315.78" r=".46" gradientTransform="translate(1590675.69 1384292.25) rotate(-25.83) scale(4.55 -100.37) skewX(-83.91)" gradientUnits="userSpaceOnUse"><stop offset="0" stop-color="#3c3c44"/><stop offset=".5" stop-color="#8685b8"/><stop offset=".81" stop-color="#d2d2e4"/><stop offset="1" stop-color="#fff"/></radialGradient><radialGradient id="radial-gradient-2" cx="-1151.22" cy="19314.76" fx="-1151.22" fy="19314.76" r=".46" gradientTransform="translate(13183.01 667518.36) rotate(3.69) scale(9.02 -34.43) skewX(-14.64)" xlink:href="#radial-gradient"/><radialGradient id="radial-gradient-3" cx="-1132.3" cy="19317.76" fx="-1132.3" fy="19317.76" r=".46" gradientTransform="translate(875192 281091.89) rotate(-67.19) scale(11.35 -47.39) skewX(-17.12)" xlink:href="#radial-gradient"/><radialGradient id="radial-gradient-4" cx="3935.21" cy="5497.51" fx="3935.21" fy="5497.51" r=".77" gradientTransform="translate(145197.84 -135556.64) rotate(-141.17) scale(6.97 -35.79) skewX(.49)" gradientUnits="userSpaceOnUse"><stop offset="0" stop-color="#fff"/><stop offset=".06" stop-color="#eaeaea"/><stop offset=".49" stop-color="#575353"/><stop offset=".57" stop-color="#3c3939"/><stop offset=".67" stop-color="#212020"/><stop offset=".78" stop-color="#0f0e0e"/><stop offset=".89" stop-color="#030303"/><stop offset="1" stop-color="#000"/></radialGradient><radialGradient id="radial-gradient-5" cx="3948.63" cy="5498.45" fx="3948.63" fy="5498.45" r=".77" gradientTransform="translate(79935.98 -77101.15) rotate(-139.72) scale(2.57 -20.11) skewX(2.66)" xlink:href="#radial-gradient-4"/><radialGradient id="radial-gradient-6" cx="3946.62" cy="5497.64" fx="3946.62" fy="5497.64" r=".77" gradientTransform="translate(49202.85 -99878.92) rotate(-161.34) scale(3.57 -20.11) skewX(.83)" xlink:href="#radial-gradient-4"/><radialGradient id="radial-gradient-7" cx="3946.45" cy="5490.94" fx="3946.45" fy="5490.94" r=".77" gradientTransform="translate(-65554.96 -126925.75) rotate(146.53) scale(3.71 -25.93) skewX(1.89)" xlink:href="#radial-gradient-4"/><linearGradient id="linear-gradient-18" x1="196.52" y1="272.67" x2="208.36" y2="286.33" xlink:href="#linear-gradient-13"/><linearGradient id="linear-gradient-19" x1="1154.64" y1="141.49" x2="1168.53" y2="157.52" gradientTransform="translate(1129.88 -435.96) rotate(135)" xlink:href="#linear-gradient-13"/><linearGradient id="linear-gradient-20" x1="188.29" y1="279.66" x2="216.86" y2="279.66" xlink:href="#linear-gradient-13"/><linearGradient id="linear-gradient-21" x1="199.84" y1="278.07" x2="205.51" y2="278.05" gradientUnits="userSpaceOnUse"><stop offset=".47" stop-color="#7f7d96"/><stop offset=".66" stop-color="#b2b1c0"/><stop offset=".89" stop-color="#e9e9ed"/><stop offset="1" stop-color="#fff"/></linearGradient><clipPath id="clippath-1"><path d="m205.37,278.06c0,1.52-1.23,2.75-2.75,2.75s-2.75-1.23-2.75-2.75,1.23-2.75,2.75-2.75,2.75,1.23,2.75,2.75Z" style="fill:url(#linear-gradient-21); stroke-width:0px;"/></clipPath><radialGradient id="radial-gradient-8" cx="-1159.4" cy="19314.95" fx="-1159.4" fy="19314.95" r=".27" gradientTransform="translate(327306.54 277807.72) rotate(-43.86) scale(4.2 -22.09) skewX(-25.47)" xlink:href="#radial-gradient"/><radialGradient id="radial-gradient-9" cx="-1159.44" cy="19315.43" fx="-1159.44" fy="19315.43" r=".27" gradientTransform="translate(217818.1 152325.01) rotate(-50.55) scale(4.19 -13.7) skewX(-11.17)" xlink:href="#radial-gradient"/><radialGradient id="radial-gradient-10" cx="3839.47" cy="5477.3" fx="3839.47" fy="5477.3" r=".45" gradientTransform="translate(-85542.07 -3786.34) rotate(-80.45) scale(2.59 15.56) skewX(1.11)" xlink:href="#radial-gradient-4"/><radialGradient id="radial-gradient-11" cx="3860.66" cy="5473.33" fx="3860.66" fy="5473.33" r=".45" gradientTransform="translate(-78001.66 35538.39) rotate(-107.39) scale(2.59 15.56) skewX(1.1)" xlink:href="#radial-gradient-4"/><linearGradient id="linear-gradient-22" x1="201.71" y1="280.21" x2="203.53" y2="280.21" gradientUnits="userSpaceOnUse"><stop offset="0" stop-color="#363130"/><stop offset=".51" stop-color="#1c1919"/><stop offset="1" stop-color="#000"/></linearGradient><radialGradient id="radial-gradient-12" cx="3550.43" cy="5457.31" fx="3550.43" fy="5457.31" r=".45" gradientTransform="translate(-8486.64 -75.46) rotate(-77.14) scale(.45 1.57) skewX(-.41)" xlink:href="#radial-gradient-4"/><radialGradient id="radial-gradient-13" cx="3689.11" cy="5569.55" fx="3689.11" fy="5569.55" r=".45" gradientTransform="translate(-2570.19 -8156.46) rotate(-7.49) scale(.45 1.57) skewX(-.4)" xlink:href="#radial-gradient-4"/><radialGradient id="radial-gradient-14" cx="3708.49" cy="5533.77" fx="3708.49" fy="5533.77" r=".45" gradientTransform="translate(-2333.68 -17605.13) rotate(-2.46) scale(.45 3.25) skewX(2.08)" xlink:href="#radial-gradient-4"/><radialGradient id="radial-gradient-15" cx="3510.25" cy="5458.08" fx="3510.25" fy="5458.08" r=".45" gradientTransform="translate(-17554.49 1663.03) rotate(-89.06) scale(.45 3.25) skewX(2.08)" xlink:href="#radial-gradient-4"/><radialGradient id="radial-gradient-16" cx="3498.24" cy="5438.3" fx="3498.24" fy="5438.3" r=".45" gradientTransform="translate(-9575.34 1731.69) rotate(-89.26) scale(.45 1.79) skewX(-.17)" xlink:href="#radial-gradient-4"/></defs><g style="isolation:isolate;"><g id="_Слой_2"><g id="_Слой_1-2"><rect x="9.54" y="14.17" width="213.58" height="515.84" style="fill:#bfc3aa; stroke-width:0px;"/><polygon points="223.13 530.01 42.3 530.01 32.93 48.7 223.13 39.2 223.13 530.01" style="fill:#ccd1b3; stroke-width:0px;"/><polygon points="224.07 201.44 24.41 208.68 24.41 171.27 223.1 171.27 224.07 201.44" style="fill:#bfc3aa; stroke-width:0px;"/><polygon points="224.07 384.55 24.41 391.78 24.41 354.37 223.1 354.37 224.07 384.55" style="fill:#bfc3aa; stroke-width:0px;"/><rect x="25.08" y="63.08" width="29.62" height="94.38" style="fill:#66f; stroke-width:0px;"/><rect x="30.76" y="89.68" width="20.59" height="44.93" style="fill:#fff; stroke-width:0px;"/><path d="m46.41,118.13c-.75.37-2.24.75-4.16.75-4.44,0-7.78-2.8-7.78-7.97s3.34-8.27,8.22-8.27c1.96,0,3.2.42,3.74.7l-.49,1.66c-.77-.37-1.87-.65-3.18-.65-3.69,0-6.14,2.36-6.14,6.49,0,3.85,2.22,6.33,6.05,6.33,1.24,0,2.5-.26,3.32-.65l.42,1.61Z" style="fill:#63c; stroke-width:0px;"/><rect x="40.7" y="63.08" width="13.99" height="94.38" style="fill:url(#linear-gradient); stroke-width:0px;"/><rect x="54.98" y="50.41" width="23.91" height="107.06" style="fill:#d4d3b5; stroke-width:0px;"/><rect x="55.17" y="55.89" width="23.49" height="1.34" style="fill:#fff; stroke-width:0px;"/><rect x="55.17" y="58.45" width="23.49" height="2.6" style="fill:#fff; stroke-width:0px;"/><rect x="55.17" y="147.62" width="23.49" height="1.34" style="fill:#fff; stroke-width:0px;"/><rect x="55.17" y="150.18" width="23.49" height="2.6" style="fill:#fff; stroke-width:0px;"/><rect x="67.59" y="50.41" width="11.3" height="107.06" style="fill:url(#linear-gradient-2); stroke-width:0px;"/><rect x="82.69" y="74.68" width="26.85" height="81.8" transform="translate(-12.16 11.3) rotate(-6.33)" style="fill:#6a72df; stroke-width:0px;"/><rect x="78.91" y="79.1" width="26.38" height="1.03" transform="translate(-8.22 10.64) rotate(-6.33)" style="fill:#56c9cd; stroke-width:0px;"/><rect x="79.18" y="81.04" width="26.38" height="1.99" transform="translate(-8.48 10.68) rotate(-6.33)" style="fill:#56c9cd; stroke-width:0px;"/><rect x="86.64" y="148.75" width="26.38" height="1.03" transform="translate(-15.85 11.92) rotate(-6.33)" style="fill:#56c9cd; stroke-width:0px;"/><rect x="86.91" y="150.7" width="26.38" height="1.99" transform="translate(-16.11 11.96) rotate(-6.33)" style="fill:#56c9cd; stroke-width:0px;"/><rect x="96.81" y="73.9" width="12.69" height="81.8" transform="translate(-12.03 12.07) rotate(-6.33)" style="fill:url(#linear-gradient-3); stroke-width:0px;"/><rect x="24.62" y="245.45" width="29.62" height="94.38" style="fill:#d8dcff; stroke-width:0px;"/><rect x="30.3" y="272.04" width="20.59" height="44.93" style="fill:#fff; stroke-width:0px;"/><path d="m45.95,300.5c-.75.37-2.24.75-4.16.75-4.44,0-7.78-2.8-7.78-7.97s3.34-8.27,8.22-8.27c1.96,0,3.2.42,3.74.7l-.49,1.66c-.77-.37-1.87-.65-3.18-.65-3.69,0-6.14,2.36-6.14,6.49,0,3.85,2.22,6.33,6.05,6.33,1.24,0,2.5-.26,3.32-.65l.42,1.61Z" style="fill:#9382cc; stroke-width:0px;"/><rect x="40.24" y="245.45" width="13.99" height="94.38" style="fill:url(#linear-gradient-4); stroke-width:0px;"/><rect x="54.52" y="232.77" width="23.91" height="107.06" style="fill:#d4d1ab; stroke-width:0px;"/><rect x="54.71" y="238.26" width="23.49" height="1.34" style="fill:#fff; stroke-width:0px;"/><rect x="54.71" y="240.82" width="23.49" height="2.6" style="fill:#fff; stroke-width:0px;"/><rect x="54.71" y="329.98" width="23.49" height="1.34" style="fill:#fff; stroke-width:0px;"/><rect x="54.71" y="332.54" width="23.49" height="2.6" style="fill:#fff; stroke-width:0px;"/><rect x="67.13" y="232.77" width="11.3" height="107.06" style="fill:url(#linear-gradient-5); stroke-width:0px;"/><rect x="82.23" y="257.05" width="26.85" height="81.8" transform="translate(-32.27 12.36) rotate(-6.33)" style="fill:#9ba6df; stroke-width:0px;"/><rect x="78.45" y="261.46" width="26.38" height="1.03" transform="translate(-28.33 11.7) rotate(-6.33)" style="fill:#87cdc3; stroke-width:0px;"/><rect x="78.72" y="263.4" width="26.38" height="1.99" transform="translate(-28.59 11.75) rotate(-6.33)" style="fill:#87cdc3; stroke-width:0px;"/><rect x="86.18" y="331.12" width="26.38" height="1.03" transform="translate(-35.96 12.98) rotate(-6.33)" style="fill:#87cdc3; stroke-width:0px;"/><rect x="86.45" y="333.06" width="26.38" height="1.99" transform="translate(-36.22 13.02) rotate(-6.33)" style="fill:#87cdc3; stroke-width:0px;"/><rect x="96.35" y="256.27" width="12.69" height="81.8" transform="translate(-32.14 13.13) rotate(-6.33)" style="fill:url(#linear-gradient-6); stroke-width:0px;"/><rect x="137.38" y="438.47" width="29.62" height="94.38" style="fill:#ff1f62; stroke-width:0px;"/><rect x="143.06" y="465.06" width="20.59" height="44.93" style="fill:#fff; stroke-width:0px;"/><path d="m158.71,493.52c-.75.37-2.24.75-4.16.75-4.44,0-7.78-2.8-7.78-7.97s3.34-8.27,8.22-8.27c1.96,0,3.2.42,3.74.7l-.49,1.66c-.77-.37-1.87-.65-3.18-.65-3.69,0-6.14,2.36-6.14,6.49,0,3.85,2.22,6.33,6.05,6.33,1.24,0,2.5-.26,3.32-.65l.42,1.61Z" style="fill:#cc1700; stroke-width:0px;"/><rect x="153" y="438.47" width="13.99" height="94.38" style="fill:url(#linear-gradient-7); stroke-width:0px;"/><rect x="167.28" y="425.79" width="23.91" height="107.06" style="fill:#67d4c6; stroke-width:0px;"/><rect x="167.47" y="431.28" width="23.49" height="1.34" style="fill:#fff; stroke-width:0px;"/><rect x="167.47" y="433.84" width="23.49" height="2.6" style="fill:#fff; stroke-width:0px;"/><rect x="167.47" y="523" width="23.49" height="1.34" style="fill:#fff; stroke-width:0px;"/><rect x="167.47" y="525.56" width="23.49" height="2.6" style="fill:#fff; stroke-width:0px;"/><rect x="179.89" y="425.79" width="11.3" height="107.06" style="fill:url(#linear-gradient-8); stroke-width:0px;"/><rect x="194.99" y="450.07" width="26.85" height="81.8" transform="translate(-52.86 25.97) rotate(-6.33)" style="fill:#df2974; stroke-width:0px;"/><rect x="191.21" y="454.48" width="26.38" height="1.03" transform="translate(-48.92 25.31) rotate(-6.33)" style="fill:#861ccd; stroke-width:0px;"/><rect x="191.48" y="456.42" width="26.38" height="1.99" transform="translate(-49.19 25.36) rotate(-6.33)" style="fill:#861ccd; stroke-width:0px;"/><rect x="198.94" y="524.14" width="26.38" height="1.03" transform="translate(-56.55 26.59) rotate(-6.33)" style="fill:#861ccd; stroke-width:0px;"/><rect x="199.21" y="526.08" width="26.38" height="1.99" transform="translate(-56.82 26.63) rotate(-6.33)" style="fill:#861ccd; stroke-width:0px;"/><rect x="209.11" y="449.29" width="12.69" height="81.8" transform="translate(-52.73 26.74) rotate(-6.33)" style="fill:url(#linear-gradient-9); stroke-width:0px;"/><rect x="24.62" y="438.47" width="29.62" height="94.38" style="fill:#ebf1ff; stroke-width:0px;"/><rect x="30.3" y="465.06" width="20.59" height="44.93" style="fill:#fff; stroke-width:0px;"/><path d="m45.95,493.52c-.75.37-2.24.75-4.16.75-4.44,0-7.78-2.8-7.78-7.97s3.34-8.27,8.22-8.27c1.96,0,3.2.42,3.74.7l-.49,1.66c-.77-.37-1.87-.65-3.18-.65-3.69,0-6.14,2.36-6.14,6.49,0,3.85,2.22,6.33,6.05,6.33,1.24,0,2.5-.26,3.32-.65l.42,1.61Z" style="fill:#8681cc; stroke-width:0px;"/><rect x="40.24" y="438.47" width="13.99" height="94.38" style="fill:url(#linear-gradient-10); stroke-width:0px;"/><rect x="54.52" y="425.79" width="23.91" height="107.06" style="fill:#d4c787; stroke-width:0px;"/><rect x="54.71" y="431.28" width="23.49" height="1.34" style="fill:#fff; stroke-width:0px;"/><rect x="54.71" y="433.84" width="23.49" height="2.6" style="fill:#fff; stroke-width:0px;"/><rect x="54.71" y="523" width="23.49" height="1.34" style="fill:#fff; stroke-width:0px;"/><rect x="54.71" y="525.56" width="23.49" height="2.6" style="fill:#fff; stroke-width:0px;"/><rect x="67.13" y="425.79" width="11.3" height="107.06" style="fill:url(#linear-gradient-11); stroke-width:0px;"/><rect x="82.23" y="450.07" width="26.85" height="81.8" transform="translate(-53.55 13.54) rotate(-6.33)" style="fill:#bdcbdf; stroke-width:0px;"/><rect x="78.45" y="454.48" width="26.38" height="1.03" transform="translate(-49.61 12.88) rotate(-6.33)" style="fill:#94cdb4; stroke-width:0px;"/><rect x="78.72" y="456.42" width="26.38" height="1.99" transform="translate(-49.87 12.92) rotate(-6.33)" style="fill:#94cdb4; stroke-width:0px;"/><rect x="86.18" y="524.14" width="26.38" height="1.03" transform="translate(-57.24 14.15) rotate(-6.33)" style="fill:#94cdb4; stroke-width:0px;"/><rect x="86.45" y="526.08" width="26.38" height="1.99" transform="translate(-57.51 14.2) rotate(-6.33)" style="fill:#94cdb4; stroke-width:0px;"/><rect x="96.35" y="449.29" width="12.69" height="81.8" transform="translate(-53.42 14.31) rotate(-6.33)" style="fill:url(#linear-gradient-12); stroke-width:0px;"/><rect x="8.68" y="12.05" width="215.6" height="523.03" style="fill:#53b5e0; opacity:.2; stroke-width:0px;"/><polygon points="30.23 66.08 31.36 59.47 58.03 30.46 58.55 35.37 30.23 66.08" style="fill:#9edaef; opacity:.2; stroke-width:0px;"/><polygon points="24.41 117.92 25.53 111.31 52.2 82.3 52.73 87.21 24.41 117.92" style="fill:#9edaef; opacity:.2; stroke-width:0px;"/><polygon points="75.59 64.82 76.72 58.21 103.39 29.2 103.91 34.11 75.59 64.82" style="fill:#9edaef; opacity:.2; stroke-width:0px;"/><polygon points="78.24 106.79 79.36 100.18 106.03 71.17 106.56 76.08 78.24 106.79" style="fill:#9edaef; opacity:.2; stroke-width:0px;"/><polygon points="132.12 69.25 133.24 62.63 159.91 33.63 160.44 38.54 132.12 69.25" style="fill:#9edaef; opacity:.2; stroke-width:0px;"/><polygon points="106.56 135.73 107.68 129.12 134.35 100.11 134.87 105.02 106.56 135.73" style="fill:#9edaef; opacity:.2; stroke-width:0px;"/><polygon points="44.39 164.01 45.51 157.39 72.18 128.38 72.71 133.29 44.39 164.01" style="fill:#9edaef; opacity:.2; stroke-width:0px;"/><polygon points="181.83 62.92 182.96 56.31 209.63 27.3 210.15 32.21 181.83 62.92" style="fill:#9edaef; opacity:.2; stroke-width:0px;"/><polygon points="157.7 110.02 158.83 103.4 185.5 74.39 186.02 79.3 157.7 110.02" style="fill:#9edaef; opacity:.2; stroke-width:0px;"/><polygon points="143.54 153.54 144.67 146.93 171.34 117.92 171.86 122.83 143.54 153.54" style="fill:#9edaef; opacity:.2; stroke-width:0px;"/><polygon points="195.99 146.19 197.12 139.58 223.79 110.57 224.31 115.48 195.99 146.19" style="fill:#9edaef; opacity:.2; stroke-width:0px;"/><polygon points="26.59 221.99 27.71 215.38 54.38 186.37 54.9 191.28 26.59 221.99" style="fill:#9edaef; opacity:.2; stroke-width:0px;"/><polygon points="20.76 273.83 21.89 267.22 48.56 238.21 49.08 243.12 20.76 273.83" style="fill:#9edaef; opacity:.2; stroke-width:0px;"/><polygon points="71.95 220.73 73.08 214.12 99.75 185.11 100.27 190.02 71.95 220.73" style="fill:#9edaef; opacity:.2; stroke-width:0px;"/><polygon points="74.59 262.7 75.72 256.09 102.39 227.08 102.91 231.99 74.59 262.7" style="fill:#9edaef; opacity:.2; stroke-width:0px;"/><polygon points="128.47 225.16 129.6 218.54 156.27 189.54 156.79 194.45 128.47 225.16" style="fill:#9edaef; opacity:.2; stroke-width:0px;"/><polygon points="102.91 291.64 104.04 285.03 130.71 256.02 131.23 260.93 102.91 291.64" style="fill:#9edaef; opacity:.2; stroke-width:0px;"/><polygon points="40.74 319.91 41.87 313.3 68.54 284.29 69.06 289.2 40.74 319.91" style="fill:#9edaef; opacity:.2; stroke-width:0px;"/><polygon points="178.19 218.83 179.31 212.22 205.98 183.21 206.51 188.12 178.19 218.83" style="fill:#9edaef; opacity:.2; stroke-width:0px;"/><polygon points="154.06 265.93 155.19 259.31 181.86 230.3 182.38 235.21 154.06 265.93" style="fill:#9edaef; opacity:.2; stroke-width:0px;"/><polygon points="139.9 309.45 141.03 302.84 167.7 273.83 168.22 278.74 139.9 309.45" style="fill:#9edaef; opacity:.2; stroke-width:0px;"/><polygon points="192.35 302.1 193.47 295.49 220.14 266.48 220.67 271.39 192.35 302.1" style="fill:#9edaef; opacity:.2; stroke-width:0px;"/><polygon points="26.59 406.41 27.71 399.79 54.38 370.79 54.9 375.7 26.59 406.41" style="fill:#9edaef; opacity:.2; stroke-width:0px;"/><polygon points="20.76 458.24 21.89 451.63 48.56 422.62 49.08 427.53 20.76 458.24" style="fill:#9edaef; opacity:.2; stroke-width:0px;"/><polygon points="71.95 405.15 73.08 398.53 99.75 369.52 100.27 374.43 71.95 405.15" style="fill:#9edaef; opacity:.2; stroke-width:0px;"/><polygon points="74.59 447.12 75.72 440.5 102.39 411.5 102.91 416.41 74.59 447.12" style="fill:#9edaef; opacity:.2; stroke-width:0px;"/><polygon points="128.47 409.57 129.6 402.96 156.27 373.95 156.79 378.86 128.47 409.57" style="fill:#9edaef; opacity:.2; stroke-width:0px;"/><polygon points="102.91 476.05 104.04 469.44 130.71 440.43 131.23 445.34 102.91 476.05" style="fill:#9edaef; opacity:.2; stroke-width:0px;"/><polygon points="40.74 504.33 41.87 497.72 68.54 468.71 69.06 473.62 40.74 504.33" style="fill:#9edaef; opacity:.2; stroke-width:0px;"/><polygon points="178.19 403.24 179.31 396.63 205.98 367.62 206.51 372.53 178.19 403.24" style="fill:#9edaef; opacity:.2; stroke-width:0px;"/><polygon points="154.06 450.34 155.19 443.73 181.86 414.72 182.38 419.63 154.06 450.34" style="fill:#9edaef; opacity:.2; stroke-width:0px;"/><polygon points="139.9 493.87 141.03 487.25 167.7 458.24 168.22 463.15 139.9 493.87" style="fill:#9edaef; opacity:.2; stroke-width:0px;"/><polygon points="192.35 486.52 193.47 479.9 220.14 450.9 220.67 455.81 192.35 486.52" style="fill:#9edaef; opacity:.2; stroke-width:0px;"/><path d="m222.97,14.17v515.84H9.7V14.17h213.26m9.7-14.17H0v544.18h232.67V0h0Z" style="fill:url(#linear-gradient-13); stroke-width:0px;"/><polygon points="223.1 171.27 9.84 170.53 9.86 156.35 223.13 157.09 223.1 171.27" style="fill:url(#linear-gradient-14); stroke-width:0px;"/><polygon points="222.81 354.37 9.54 353.63 9.57 339.46 222.83 340.19 222.81 354.37" style="fill:url(#linear-gradient-15); stroke-width:0px;"/><circle cx="202.57" cy="279.66" r="13.6" style="fill:url(#linear-gradient-16); stroke-width:0px;"/><circle cx="202.57" cy="279.66" r="10.31" style="fill:url(#linear-gradient-17); stroke-width:0px;"/><g style="clip-path:url(#clippath);"><path d="m207.98,281.01c-20.65-18.05-38.23-32.29-39.26-31.79-1.03.5,14.88,15.54,35.53,33.59,20.65,18.05,38.23,32.29,39.26,31.79,1.03-.5-14.88-15.54-35.53-33.59Z" style="fill:url(#radial-gradient); mix-blend-mode:multiply; opacity:.33; stroke-width:0px;"/><path d="m207.25,286.1c-.03-8.68-1.9-15.84-4.16-15.98-2.26-.15-4.07,6.77-4.04,15.46.03,8.68,1.9,15.84,4.16,15.98,2.26.15,4.07-6.77,4.04-15.45Z" style="fill:url(#radial-gradient-2); mix-blend-mode:multiply; opacity:.49; stroke-width:0px;"/><path d="m208.92,275.09c-11.33-3.81-21.41-4.77-22.52-2.13-1.11,2.63,7.18,7.86,18.51,11.67,11.33,3.81,21.41,4.77,22.52,2.13,1.11-2.63-7.18-7.86-18.51-11.67Z" style="fill:url(#radial-gradient-3); mix-blend-mode:multiply; opacity:.33; stroke-width:0px;"/><path d="m191.89,284.37c-9.56,11.84-15.44,22.95-13.13,24.81,2.31,1.86,11.93-6.23,21.49-18.08,9.56-11.84,15.44-22.95,13.13-24.81-2.31-1.86-11.93,6.23-21.49,18.07Z" style="fill:url(#radial-gradient-4); mix-blend-mode:screen; opacity:.27; stroke-width:0px;"/><path d="m194.66,286.35c-5.57,6.49-9.41,12.33-8.58,13.03.83.71,6.02-3.99,11.59-10.48,5.57-6.49,9.41-12.33,8.58-13.03-.83-.71-6.02,3.99-11.59,10.48Z" style="fill:url(#radial-gradient-5); mix-blend-mode:screen; opacity:.25; stroke-width:0px;"/><path d="m196.98,287.78c-2.76,8.1-3.82,15.06-2.39,15.54,1.44.49,4.84-5.68,7.59-13.78,2.76-8.1,3.82-15.06,2.39-15.54-1.44-.49-4.84,5.68-7.59,13.78Z" style="fill:url(#radial-gradient-6); mix-blend-mode:screen; opacity:.66; stroke-width:0px;"/><path d="m206.47,291.38c6.04,9.23,12,16,13.32,15.14,1.31-.87-2.52-9.05-8.56-18.28-6.04-9.23-12-16-13.31-15.14-1.31.87,2.52,9.05,8.56,18.28Z" style="fill:url(#radial-gradient-7); mix-blend-mode:screen; opacity:.25; stroke-width:0px;"/></g><circle cx="202.57" cy="279.65" r="9.07" transform="translate(-116.14 412.55) rotate(-76.72)" style="fill:#363130; stroke-width:0px;"/><circle cx="202.57" cy="279.66" r="8.78" style="fill:url(#linear-gradient-18); stroke-width:0px;"/><g style="opacity:.2;"><path d="m202.57,288.72c-5.02,0-9.09-4.07-9.09-9.08s4.07-9.08,9.09-9.08,9.09,4.07,9.09,9.08-4.07,9.08-9.09,9.08Zm0-18.4c-5.15,0-9.33,4.17-9.33,9.32s4.18,9.32,9.33,9.32,9.33-4.17,9.33-9.32-4.18-9.32-9.33-9.32Z" style="fill:#fff; opacity:0; stroke-width:0px;"/><path d="m202.57,288.72c-5.02,0-9.09-4.07-9.09-9.08s4.07-9.08,9.09-9.08,9.09,4.07,9.09,9.08-4.07,9.08-9.09,9.08Zm0-18.39c-5.15,0-9.33,4.17-9.33,9.31s4.18,9.31,9.33,9.31,9.33-4.17,9.33-9.31-4.18-9.31-9.33-9.31Z" style="fill:#fff; opacity:.03; stroke-width:0px;"/><path d="m202.57,288.72c-5.02,0-9.09-4.06-9.09-9.08s4.07-9.08,9.09-9.08,9.09,4.06,9.09,9.08-4.07,9.08-9.09,9.08Zm0-18.38c-5.15,0-9.32,4.17-9.32,9.31s4.17,9.31,9.32,9.31,9.32-4.17,9.32-9.31-4.17-9.31-9.32-9.31Z" style="fill:#fff; opacity:.06; stroke-width:0px;"/><path d="m202.57,288.72c-5.02,0-9.09-4.06-9.09-9.08s4.07-9.08,9.09-9.08,9.09,4.06,9.09,9.08-4.07,9.08-9.09,9.08Zm0-18.38c-5.14,0-9.31,4.16-9.31,9.3s4.17,9.3,9.31,9.3,9.31-4.16,9.31-9.3-4.17-9.3-9.31-9.3Z" style="fill:#fff; opacity:.1; stroke-width:0px;"/><path d="m202.57,288.72c-5.02,0-9.09-4.06-9.09-9.08s4.07-9.08,9.09-9.08,9.09,4.06,9.09,9.08-4.07,9.08-9.09,9.08Zm0-18.37c-5.14,0-9.31,4.16-9.31,9.29s4.17,9.29,9.31,9.29,9.31-4.16,9.31-9.29-4.17-9.29-9.31-9.29Z" style="fill:#fff; opacity:.13; stroke-width:0px;"/><path d="m202.57,288.72c-5.02,0-9.09-4.06-9.09-9.08s4.07-9.08,9.09-9.08,9.09,4.06,9.09,9.08-4.07,9.08-9.09,9.08Zm0-18.37c-5.14,0-9.3,4.16-9.3,9.29s4.17,9.29,9.3,9.29,9.3-4.16,9.3-9.29-4.17-9.29-9.3-9.29Z" style="fill:#fff; opacity:.16; stroke-width:0px;"/><path d="m202.57,288.72c-5.02,0-9.09-4.06-9.09-9.08s4.07-9.08,9.09-9.08,9.09,4.06,9.09,9.08-4.07,9.08-9.09,9.08Zm0-18.36c-5.14,0-9.3,4.16-9.3,9.28s4.16,9.28,9.3,9.28,9.3-4.16,9.3-9.28-4.16-9.28-9.3-9.28Z" style="fill:#fff; opacity:.19; stroke-width:0px;"/><path d="m202.57,288.72c-5.02,0-9.09-4.06-9.09-9.08s4.07-9.08,9.09-9.08,9.09,4.06,9.09,9.08-4.07,9.08-9.09,9.08Zm0-18.36c-5.13,0-9.29,4.15-9.29,9.28s4.16,9.28,9.29,9.28,9.29-4.15,9.29-9.28-4.16-9.28-9.29-9.28Z" style="fill:#fff; opacity:.23; stroke-width:0px;"/><path d="m202.57,288.71c-5.02,0-9.09-4.06-9.09-9.08s4.07-9.08,9.09-9.08,9.09,4.06,9.09,9.08-4.07,9.08-9.09,9.08Zm0-18.35c-5.13,0-9.29,4.15-9.29,9.27s4.16,9.27,9.29,9.27,9.29-4.15,9.29-9.27-4.16-9.27-9.29-9.27Z" style="fill:#fff; opacity:.26; stroke-width:0px;"/><path d="m202.57,288.71c-5.02,0-9.09-4.06-9.09-9.08s4.07-9.08,9.09-9.08,9.09,4.06,9.09,9.08-4.07,9.08-9.09,9.08Zm0-18.34c-5.13,0-9.28,4.15-9.28,9.27s4.16,9.27,9.28,9.27,9.28-4.15,9.28-9.27-4.16-9.27-9.28-9.27Z" style="fill:#fff; opacity:.29; stroke-width:0px;"/><path d="m202.57,288.71c-5.02,0-9.09-4.06-9.09-9.08s4.07-9.08,9.09-9.08,9.09,4.06,9.09,9.08-4.07,9.08-9.09,9.08Zm0-18.34c-5.12,0-9.28,4.15-9.28,9.26s4.15,9.26,9.28,9.26,9.28-4.15,9.28-9.26-4.15-9.26-9.28-9.26Z" style="fill:#fff; opacity:.32; stroke-width:0px;"/><path d="m202.57,288.71c-5.02,0-9.09-4.06-9.09-9.08s4.07-9.08,9.09-9.08,9.09,4.06,9.09,9.08-4.07,9.08-9.09,9.08Zm0-18.33c-5.12,0-9.27,4.14-9.27,9.26s4.15,9.26,9.27,9.26,9.27-4.14,9.27-9.26-4.15-9.26-9.27-9.26Z" style="fill:#fff; opacity:.35; stroke-width:0px;"/><path d="m202.57,288.71c-5.02,0-9.09-4.06-9.09-9.07s4.07-9.07,9.09-9.07,9.09,4.06,9.09,9.07-4.07,9.07-9.09,9.07Zm0-18.33c-5.12,0-9.27,4.14-9.27,9.25s4.15,9.25,9.27,9.25,9.27-4.14,9.27-9.25-4.15-9.25-9.27-9.25Z" style="fill:#fff; opacity:.39; stroke-width:0px;"/><path d="m202.57,288.71c-5.02,0-9.09-4.06-9.09-9.07s4.07-9.07,9.09-9.07,9.09,4.06,9.09,9.07-4.07,9.07-9.09,9.07Zm0-18.32c-5.12,0-9.26,4.14-9.26,9.25s4.15,9.25,9.26,9.25,9.26-4.14,9.26-9.25-4.15-9.25-9.26-9.25Z" style="fill:#fff; opacity:.42; stroke-width:0px;"/><path d="m202.57,288.71c-5.02,0-9.09-4.06-9.09-9.07s4.07-9.07,9.09-9.07,9.09,4.06,9.09,9.07-4.07,9.07-9.09,9.07Zm0-18.32c-5.11,0-9.26,4.14-9.26,9.24s4.14,9.24,9.26,9.24,9.26-4.14,9.26-9.24-4.14-9.24-9.26-9.24Z" style="fill:#fff; opacity:.45; stroke-width:0px;"/><path d="m202.57,288.71c-5.02,0-9.09-4.06-9.09-9.07s4.07-9.07,9.09-9.07,9.09,4.06,9.09,9.07-4.07,9.07-9.09,9.07Zm0-18.31c-5.11,0-9.25,4.14-9.25,9.24s4.14,9.24,9.25,9.24,9.25-4.14,9.25-9.24-4.14-9.24-9.25-9.24Z" style="fill:#fff; opacity:.48; stroke-width:0px;"/><path d="m202.57,288.71c-5.02,0-9.09-4.06-9.09-9.07s4.07-9.07,9.09-9.07,9.09,4.06,9.09,9.07-4.07,9.07-9.09,9.07Zm0-18.3c-5.11,0-9.25,4.13-9.25,9.23s4.14,9.23,9.25,9.23,9.25-4.13,9.25-9.23-4.14-9.23-9.25-9.23Z" style="fill:#fff; opacity:.52; stroke-width:0px;"/><path d="m202.57,288.71c-5.02,0-9.09-4.06-9.09-9.07s4.07-9.07,9.09-9.07,9.09,4.06,9.09,9.07-4.07,9.07-9.09,9.07Zm0-18.3c-5.1,0-9.24,4.13-9.24,9.23s4.14,9.23,9.24,9.23,9.24-4.13,9.24-9.23-4.14-9.23-9.24-9.23Z" style="fill:#fff; opacity:.55; stroke-width:0px;"/><path d="m202.57,288.71c-5.02,0-9.09-4.06-9.09-9.07s4.07-9.07,9.09-9.07,9.09,4.06,9.09,9.07-4.07,9.07-9.09,9.07Zm0-18.29c-5.1,0-9.24,4.13-9.24,9.22s4.13,9.22,9.24,9.22,9.24-4.13,9.24-9.22-4.13-9.22-9.24-9.22Z" style="fill:#fff; opacity:.58; stroke-width:0px;"/><path d="m202.57,288.71c-5.02,0-9.09-4.06-9.09-9.07s4.07-9.07,9.09-9.07,9.09,4.06,9.09,9.07-4.07,9.07-9.09,9.07Zm0-18.29c-5.1,0-9.23,4.13-9.23,9.22s4.13,9.22,9.23,9.22,9.23-4.13,9.23-9.22-4.13-9.22-9.23-9.22Z" style="fill:#fff; opacity:.61; stroke-width:0px;"/><path d="m202.57,288.71c-5.02,0-9.09-4.06-9.09-9.07s4.07-9.07,9.09-9.07,9.09,4.06,9.09,9.07-4.07,9.07-9.09,9.07Zm0-18.28c-5.09,0-9.22,4.12-9.22,9.21s4.13,9.21,9.22,9.21,9.22-4.12,9.22-9.21-4.13-9.21-9.22-9.21Z" style="fill:#fff; opacity:.65; stroke-width:0px;"/><path d="m202.57,288.71c-5.02,0-9.08-4.06-9.08-9.07s4.07-9.07,9.08-9.07,9.08,4.06,9.08,9.07-4.07,9.07-9.08,9.07Zm0-18.28c-5.09,0-9.22,4.12-9.22,9.21s4.13,9.21,9.22,9.21,9.22-4.12,9.22-9.21-4.13-9.21-9.22-9.21Z" style="fill:#fff; opacity:.68; stroke-width:0px;"/><path d="m202.57,288.71c-5.02,0-9.08-4.06-9.08-9.07s4.07-9.07,9.08-9.07,9.08,4.06,9.08,9.07-4.07,9.07-9.08,9.07Zm0-18.27c-5.09,0-9.21,4.12-9.21,9.2s4.13,9.2,9.21,9.2,9.21-4.12,9.21-9.2-4.13-9.2-9.21-9.2Z" style="fill:#fff; opacity:.71; stroke-width:0px;"/><path d="m202.57,288.71c-5.02,0-9.08-4.06-9.08-9.07s4.07-9.07,9.08-9.07,9.08,4.06,9.08,9.07-4.07,9.07-9.08,9.07Zm0-18.26c-5.09,0-9.21,4.12-9.21,9.19s4.12,9.19,9.21,9.19,9.21-4.12,9.21-9.19-4.12-9.19-9.21-9.19Z" style="fill:#fff; opacity:.74; stroke-width:0px;"/><path d="m202.57,288.71c-5.02,0-9.08-4.06-9.08-9.07s4.07-9.07,9.08-9.07,9.08,4.06,9.08,9.07-4.07,9.07-9.08,9.07Zm0-18.26c-5.08,0-9.2,4.11-9.2,9.19s4.12,9.19,9.2,9.19,9.2-4.11,9.2-9.19-4.12-9.19-9.2-9.19Z" style="fill:#fff; opacity:.77; stroke-width:0px;"/><path d="m202.57,288.71c-5.02,0-9.08-4.06-9.08-9.07s4.07-9.07,9.08-9.07,9.08,4.06,9.08,9.07-4.07,9.07-9.08,9.07Zm0-18.25c-5.08,0-9.2,4.11-9.2,9.18s4.12,9.18,9.2,9.18,9.2-4.11,9.2-9.18-4.12-9.18-9.2-9.18Z" style="fill:#fff; opacity:.81; stroke-width:0px;"/><path d="m202.57,288.71c-5.02,0-9.08-4.06-9.08-9.07s4.07-9.07,9.08-9.07,9.08,4.06,9.08,9.07-4.07,9.07-9.08,9.07Zm0-18.25c-5.08,0-9.19,4.11-9.19,9.18s4.12,9.18,9.19,9.18,9.19-4.11,9.19-9.18-4.12-9.18-9.19-9.18Z" style="fill:#fff; opacity:.84; stroke-width:0px;"/><path d="m202.57,288.71c-5.02,0-9.08-4.06-9.08-9.07s4.07-9.07,9.08-9.07,9.08,4.06,9.08,9.07-4.07,9.07-9.08,9.07Zm0-18.24c-5.07,0-9.19,4.11-9.19,9.17s4.11,9.17,9.19,9.17,9.19-4.11,9.19-9.17-4.11-9.17-9.19-9.17Z" style="fill:#fff; opacity:.87; stroke-width:0px;"/><path d="m202.57,288.71c-5.02,0-9.08-4.06-9.08-9.07s4.07-9.07,9.08-9.07,9.08,4.06,9.08,9.07-4.07,9.07-9.08,9.07Zm0-18.24c-5.07,0-9.18,4.1-9.18,9.17s4.11,9.17,9.18,9.17,9.18-4.1,9.18-9.17-4.11-9.17-9.18-9.17Z" style="fill:#fff; opacity:.9; stroke-width:0px;"/><path d="m202.57,288.71c-5.02,0-9.08-4.06-9.08-9.07s4.07-9.07,9.08-9.07,9.08,4.06,9.08,9.07-4.07,9.07-9.08,9.07Zm0-18.23c-5.07,0-9.18,4.1-9.18,9.16s4.11,9.16,9.18,9.16,9.18-4.1,9.18-9.16-4.11-9.16-9.18-9.16Z" style="fill:#fff; opacity:.94; stroke-width:0px;"/><path d="m202.57,288.71c-5.02,0-9.08-4.06-9.08-9.07s4.07-9.07,9.08-9.07,9.08,4.06,9.08,9.07-4.07,9.07-9.08,9.07Zm0-18.22c-5.07,0-9.17,4.1-9.17,9.16s4.11,9.16,9.17,9.16,9.17-4.1,9.17-9.16-4.11-9.16-9.17-9.16Z" style="fill:#fff; opacity:.97; stroke-width:0px;"/><path d="m202.57,288.7c-5.01,0-9.08-4.06-9.08-9.07s4.07-9.07,9.08-9.07,9.08,4.06,9.08,9.07-4.07,9.07-9.08,9.07Zm0-18.22c-5.06,0-9.17,4.1-9.17,9.15s4.1,9.15,9.17,9.15,9.17-4.1,9.17-9.15-4.1-9.15-9.17-9.15Z" style="fill:#fff; stroke-width:0px;"/></g><path d="m209.86,286.95c4.02-4.02,4.02-10.55,0-14.58-4.02-4.02-10.55-4.02-14.58,0-4.02,4.02-4.02,10.55,0,14.58,4.02,4.02,10.55,4.02,14.58,0Zm-14.47-14.47c3.97-3.97,10.4-3.97,14.37,0,3.97,3.97,3.97,10.4,0,14.37-3.97,3.97-10.4,3.97-14.37,0-3.97-3.97-3.97-10.4,0-14.37Z" style="fill:url(#linear-gradient-19); opacity:.27; stroke-width:0px;"/><path d="m210,287.1c4.1-4.1,4.1-10.75,0-14.85-4.1-4.1-10.75-4.1-14.85,0-4.1,4.1-4.1,10.75,0,14.85,4.1,4.1,10.75,4.1,14.85,0Zm-14.75-14.75c4.04-4.04,10.6-4.04,14.65,0,4.04,4.04,4.04,10.6,0,14.65s-10.6,4.04-14.65,0c-4.04-4.04-4.04-10.6,0-14.65Z" style="fill:#fff; opacity:.27; stroke-width:0px;"/><path d="m212.19,289.26c5.31-5.31,5.31-13.93,0-19.24-5.31-5.31-13.93-5.31-19.24,0-5.31,5.31-5.31,13.93,0,19.24,5.31,5.31,13.93,5.31,19.24,0Zm-19.11-19.11c5.24-5.24,13.73-5.24,18.97,0,5.24,5.24,5.24,13.73,0,18.97s-13.73,5.24-18.97,0c-5.24-5.24-5.24-13.73,0-18.97Z" style="fill:#fff; opacity:.27; stroke-width:0px;"/><path d="m202.57,293.94c7.89,0,14.28-6.39,14.28-14.28s-6.39-14.28-14.28-14.28-14.28,6.39-14.28,14.28,6.39,14.28,14.28,14.28Zm-9.62-23.9c5.31-5.31,13.92-5.31,19.23,0s5.31,13.92,0,19.23c-5.31,5.31-13.92,5.31-19.23,0s-5.31-13.92,0-19.23Z" style="fill:url(#linear-gradient-20); stroke-width:0px;"/><path d="m205.37,278.06c0,1.52-1.23,2.75-2.75,2.75s-2.75-1.23-2.75-2.75,1.23-2.75,2.75-2.75,2.75,1.23,2.75,2.75Z" style="fill:url(#linear-gradient-21);"/><g style="clip-path:url(#clippath-1);"><path d="m202.52,276.74c-2.47-2.15-4.84-3.54-5.29-3.11-.45.43,1.19,2.52,3.67,4.66,2.47,2.15,4.84,3.54,5.29,3.11.45-.43-1.19-2.52-3.67-4.66Z" style="fill:url(#radial-gradient-8); mix-blend-mode:multiply; opacity:.33; stroke-width:0px;"/><path d="m204.46,278.68c-1.64-1.19-3.29-1.77-3.68-1.29-.39.48.62,1.83,2.26,3.02,1.64,1.19,3.29,1.77,3.68,1.29.39-.48-.62-1.83-2.26-3.02Z" style="fill:url(#radial-gradient-9); mix-blend-mode:multiply; opacity:.33; stroke-width:0px;"/><path d="m204.38,277.27c3.83.63,6.85,1.66,6.74,2.3-.11.64-3.3.64-7.13,0-3.83-.63-6.85-1.66-6.74-2.3.11-.64,3.3-.64,7.13,0Z" style="fill:url(#radial-gradient-10); mix-blend-mode:screen; stroke-width:0px;"/><path d="m203.5,276.4c3.7-1.17,6.86-1.62,7.05-1.01.19.62-2.65,2.06-6.35,3.24-3.7,1.17-6.86,1.62-7.05,1.01-.19-.62,2.65-2.06,6.35-3.24Z" style="fill:url(#radial-gradient-11); mix-blend-mode:screen; stroke-width:0px;"/></g><g style="opacity:.73;"><path d="m202.62,280.74c-1.48,0-2.68-1.2-2.68-2.68s1.2-2.68,2.68-2.68,2.68,1.2,2.68,2.68-1.2,2.68-2.68,2.68Zm0-5.43c-1.52,0-2.75,1.23-2.75,2.75s1.23,2.75,2.75,2.75,2.75-1.23,2.75-2.75-1.23-2.75-2.75-2.75Z" style="fill:#fff; stroke-width:0px;"/><path d="m202.62,280.72c-1.47,0-2.67-1.19-2.67-2.67s1.19-2.67,2.67-2.67,2.67,1.19,2.67,2.67-1.19,2.67-2.67,2.67Zm0-5.4c-1.51,0-2.73,1.22-2.73,2.73s1.22,2.73,2.73,2.73,2.73-1.22,2.73-2.73-1.22-2.73-2.73-2.73Z" style="fill:#fff; opacity:.89; stroke-width:0px;"/><path d="m202.62,280.71c-1.46,0-2.65-1.19-2.65-2.65s1.19-2.65,2.65-2.65,2.65,1.19,2.65,2.65-1.19,2.65-2.65,2.65Zm0-5.37c-1.5,0-2.72,1.22-2.72,2.72s1.22,2.72,2.72,2.72,2.72-1.22,2.72-2.72-1.22-2.72-2.72-2.72Z" style="fill:#fff; opacity:.78; stroke-width:0px;"/><path d="m202.62,280.69c-1.46,0-2.64-1.18-2.64-2.64s1.18-2.64,2.64-2.64,2.64,1.18,2.64,2.64-1.18,2.64-2.64,2.64Zm0-5.34c-1.49,0-2.7,1.21-2.7,2.7s1.21,2.7,2.7,2.7,2.7-1.21,2.7-2.7-1.21-2.7-2.7-2.7Z" style="fill:#fff; opacity:.67; stroke-width:0px;"/><path d="m202.62,280.68c-1.45,0-2.62-1.17-2.62-2.62s1.17-2.62,2.62-2.62,2.62,1.17,2.62,2.62-1.17,2.62-2.62,2.62Zm0-5.31c-1.48,0-2.69,1.2-2.69,2.69s1.2,2.69,2.69,2.69,2.69-1.2,2.69-2.69-1.2-2.69-2.69-2.69Z" style="fill:#fff; opacity:.56; stroke-width:0px;"/><path d="m202.62,280.66c-1.44,0-2.61-1.17-2.61-2.61s1.17-2.61,2.61-2.61,2.61,1.17,2.61,2.61-1.17,2.61-2.61,2.61Zm0-5.28c-1.48,0-2.67,1.2-2.67,2.67s1.2,2.67,2.67,2.67,2.67-1.2,2.67-2.67-1.2-2.67-2.67-2.67Z" style="fill:#fff; opacity:.44; stroke-width:0px;"/><path d="m202.62,280.65c-1.43,0-2.59-1.16-2.59-2.59s1.16-2.59,2.59-2.59,2.59,1.16,2.59,2.59-1.16,2.59-2.59,2.59Zm0-5.25c-1.47,0-2.66,1.19-2.66,2.66s1.19,2.66,2.66,2.66,2.66-1.19,2.66-2.66-1.19-2.66-2.66-2.66Z" style="fill:#fff; opacity:.33; stroke-width:0px;"/><path d="m202.62,280.63c-1.42,0-2.58-1.15-2.58-2.58s1.15-2.58,2.58-2.58,2.58,1.15,2.58,2.58-1.15,2.58-2.58,2.58Zm0-5.22c-1.46,0-2.64,1.18-2.64,2.64s1.18,2.64,2.64,2.64,2.64-1.18,2.64-2.64-1.18-2.64-2.64-2.64Z" style="fill:#fff; opacity:.22; stroke-width:0px;"/><path d="m202.62,280.62c-1.41,0-2.56-1.15-2.56-2.56s1.15-2.56,2.56-2.56,2.56,1.15,2.56,2.56-1.15,2.56-2.56,2.56Zm0-5.19c-1.45,0-2.63,1.18-2.63,2.63s1.18,2.63,2.63,2.63,2.63-1.18,2.63-2.63-1.18-2.63-2.63-2.63Z" style="fill:#fff; opacity:.11; stroke-width:0px;"/><path d="m202.62,280.6c-1.41,0-2.55-1.14-2.55-2.55s1.14-2.55,2.55-2.55,2.55,1.14,2.55,2.55-1.14,2.55-2.55,2.55Zm0-5.16c-1.44,0-2.61,1.17-2.61,2.61s1.17,2.61,2.61,2.61,2.61-1.17,2.61-2.61-1.17-2.61-2.61-2.61Z" style="fill:#fff; opacity:0; stroke-width:0px;"/></g><path d="m201.75,279.5l.9.29s.07.05.07.09l.11.76s-.02.1-.07.11l-.23.09s-.05.03-.06.06l-.12.32s0,.02,0,.04v1.81c0,.06.04.11.1.11h.88c.06,0,.11-.05.11-.12l-.12-1.04s.02-.09.07-.11l.21-.08s.07-.06.07-.1h0l-.06-2.4s-.03-.09-.08-.1l-.75-.21s-.08-.05-.08-.1v-.19s.03-.09.07-.1l.75-.24s.07-.06.07-.1v-.69s.02-.07.05-.09l.07-.04c.09-.06.05-.2-.05-.2h-2.05c-.11-.01-.15.13-.05.18l.09.05s.05.05.05.09v1.8s.02.09.07.1Z" style="fill:#e3e5ed; stroke-width:0px;"/><path d="m201.61,277.29s-.07.02-.08.05c-.02.04-.01.12.04.15l.08.05s.05.05.05.09v1.78s.02.09.07.1l.89.29s.07.04.07.08l.11.76s-.02.1-.06.11l-.23.09s-.05.03-.06.06l-.02.04-.1.28s0,.03,0,.04v1.78c0,.05.04.11.09.11h.86c.06,0,.12-.05.11-.11l-.12-1.03s0-.06.02-.08c.01-.01.02-.02.04-.03l.21-.08s.04-.03.06-.04c0-.02.02-.03.02-.05h0s0-.02,0-.02h0l-.06-2.36s-.04-.08-.08-.09l-.74-.21h0s-.07-.06-.07-.1v-.19s.02-.09.06-.11l.74-.24s.08-.05.08-.09v-.08s.01-.14.01-.14v-.46s.02-.07.04-.09h.02s.05-.04.05-.04c.05-.03.06-.09.04-.13-.01-.03-.04-.06-.09-.06h-2.02Z" style="fill:#cfd2da; stroke-width:0px;"/><path d="m201.62,277.33s-.07.02-.08.05c-.02.04,0,.12.05.14l.07.05s.04.05.04.08v1.76s.02.08.06.1l.88.28s.07.04.07.07l.11.75s-.01.1-.05.11l-.23.09s-.06.03-.07.06l-.02.04-.09.28s0,.03,0,.04v1.76s.03.1.08.1h.84c.05,0,.12-.04.11-.09l-.12-1.03s0-.06.02-.08c0-.01.02-.02.04-.02l.21-.08s.05-.03.06-.04c0-.01.02-.03.02-.05h0s0-.02,0-.03h0l-.06-2.34s-.05-.08-.09-.09l-.74-.21h0s-.06-.06-.06-.1v-.2s.02-.1.06-.11l.72-.23s.08-.05.08-.09v-.07s.03-.13.03-.13v-.45s.01-.07.04-.09h.01s.04-.04.04-.04c.04-.02.06-.09.04-.13-.01-.03-.04-.06-.08-.06h-1.99Z" style="fill:#bcbec8; stroke-width:0px;"/><path d="m201.64,277.36s-.06.03-.07.05c-.02.04,0,.12.05.14l.06.05s.04.05.04.08v1.74s.02.08.06.1l.87.28s.07.04.07.07l.1.74s-.01.1-.04.11l-.23.08s-.06.03-.07.05l-.03.03-.09.28s0,.03,0,.04v1.74s.03.1.07.1h.83s.12-.04.11-.08l-.12-1.02s0-.07.02-.08c0,0,.02-.02.04-.02l.21-.08s.05-.03.06-.04.02-.03.02-.05h0s0-.02,0-.03h0l-.06-2.32s-.06-.07-.09-.08l-.74-.21h0s-.05-.07-.05-.1v-.2s.02-.11.05-.12l.71-.23s.08-.05.08-.08l.02-.07s.02-.12.02-.13v-.45s.01-.08.03-.09h.01s.04-.04.04-.04c.04-.02.06-.09.05-.12s-.04-.06-.08-.06h-1.96Z" style="fill:#a8abb5; stroke-width:0px;"/><path d="m201.66,277.4s-.06.03-.07.05c-.02.03.02.12.06.14l.05.05s.03.05.03.07v1.72s.02.08.06.1l.87.27s.07.04.07.06l.1.74s0,.1-.03.11l-.23.08s-.06.03-.07.05l-.03.03-.08.29s0,.03,0,.04v1.72s.02.1.06.1h.81s.12-.03.12-.07l-.12-1.02s0-.07.01-.08c0,0,.02-.02.03-.02l.21-.07s.05-.02.06-.04c.01-.01.02-.03.02-.04h0s0-.03,0-.03h0l-.06-2.29s-.07-.06-.09-.07l-.74-.2h0s-.05-.07-.05-.1v-.21s.02-.11.04-.12l.69-.22s.09-.05.09-.07l.03-.06s.02-.11.02-.12v-.44s0-.08.03-.09h.01s.04-.04.04-.04c.03-.02.05-.09.05-.12,0-.03-.03-.06-.07-.06h-1.93Z" style="fill:#9598a3; stroke-width:0px;"/><path d="m201.67,277.44s-.06.03-.06.06c-.01.02.03.12.06.14l.05.05s.03.05.03.07v1.7s.02.08.06.09l.86.27s.07.03.07.05l.1.73s0,.1-.03.11l-.23.08s-.07.03-.07.04l-.04.03-.08.29s0,.03,0,.04v1.7s.02.1.05.1h.79s.12-.03.12-.06l-.12-1.02s0-.07,0-.08c0,0,.02-.01.03-.02l.21-.07s.05-.02.06-.03c.01-.01.02-.03.03-.04h0s0-.03,0-.04h0l-.06-2.27s-.07-.06-.1-.07l-.74-.2h0s-.04-.08-.04-.1v-.21s.01-.12.03-.12l.68-.22s.09-.04.09-.07l.04-.05s.03-.1.03-.11v-.44s0-.08.02-.09h0s.03-.04.03-.04c.03-.02.06-.09.05-.11,0-.03-.03-.06-.07-.06h-1.9Z" style="fill:#828590; stroke-width:0px;"/><path d="m201.69,277.48s-.06.03-.06.06c-.01.02.04.12.07.13l.04.05s.02.05.02.07v1.68s.02.08.06.09l.85.27s.07.03.07.05l.1.72s0,.1-.02.11l-.23.08s-.07.03-.07.04l-.04.03-.07.29s0,.04,0,.04v1.68s.02.1.04.1h.78s.13-.02.12-.05l-.11-1.01s0-.07,0-.08c0,0,.02-.01.03-.02l.22-.07s.06-.02.06-.03c.01-.01.02-.02.03-.04h0s.01-.03.01-.04h0l-.06-2.25s-.08-.05-.1-.06l-.73-.2h0s-.03-.08-.03-.1v-.22s0-.12.03-.13l.66-.21s.1-.04.1-.06l.04-.05s.04-.09.04-.11v-.43s0-.08.02-.09h0s.03-.04.03-.04c.02-.01.06-.09.05-.11,0-.03-.02-.06-.06-.06h-1.87Z" style="fill:#6e717d; stroke-width:0px;"/><path d="m201.7,277.52s-.06.03-.05.06c0,.01.05.12.07.13l.03.05s.02.05.02.06v1.66s.02.08.06.09l.85.26s.07.03.07.04l.1.72s0,.1-.01.11l-.23.08s-.07.03-.07.04l-.05.03-.07.29s0,.04,0,.04v1.65s.01.1.03.1h.76s.13-.02.13-.03l-.11-1.01s0-.08,0-.08c0,0,.02-.01.03-.01l.22-.07s.06-.02.06-.03c.01,0,.03-.02.03-.04h0s.01-.03.01-.05h0l-.05-2.23s-.09-.05-.11-.05l-.73-.2h0s-.02-.09-.02-.1v-.22s0-.13.02-.13l.65-.21s.1-.04.1-.05l.05-.04s.04-.08.04-.1v-.43s0-.08.01-.09v-.02s.03-.03.03-.03c.02,0,.06-.09.05-.11,0-.03-.02-.06-.05-.06h-1.84Z" style="fill:#5b5e6b; stroke-width:0px;"/><path d="m201.72,277.55s-.06.03-.04.06c0,0,.06.12.08.13l.02.04s.01.05.01.06v1.63s.02.08.06.09l.84.26s.07.03.07.03l.1.71s0,.1,0,.11l-.23.08s-.07.03-.08.03l-.05.02-.07.29s0,.04,0,.04v1.63s0,.1.02.1h.74s.13-.01.13-.02l-.11-1s0-.08,0-.08c0,0,.02,0,.02-.01l.22-.07s.06-.02.06-.03c.02,0,.03-.02.04-.04h0s.02-.03.01-.05h0l-.05-2.21s-.1-.04-.11-.04l-.73-.2h0s-.02-.09-.02-.1v-.23s0-.13.01-.14l.63-.2s.1-.04.1-.05l.06-.04s.05-.07.05-.1v-.42s0-.08,0-.09v-.02s.02-.02.02-.02c.01,0,.06-.09.05-.1,0-.03-.01-.06-.05-.06h-1.81Z" style="fill:#474b58; stroke-width:0px;"/><path d="m201.73,277.59s-.05.03-.04.06c0,0,.07.12.08.13v.04s.01.05.01.05v1.61s.02.08.06.09l.83.25s.07.02.07.03l.1.7s.01.1,0,.11l-.23.07s-.08.03-.08.03l-.06.02-.06.29s0,.04,0,.04v1.61s0,.1,0,.1h.73s.13,0,.13-.01l-.11-1s0-.08,0-.08c0,0,.02,0,.02,0l.22-.07s.06-.02.06-.02c.02,0,.03-.02.04-.03h0s.02-.03.02-.05h0l-.05-2.19s-.11-.04-.11-.04l-.73-.19h0s0-.1,0-.1v-.23s0-.14,0-.14l.62-.2s.11-.04.11-.04l.07-.03s.06-.06.06-.09v-.42s0-.08,0-.09v-.02s.02-.02.02-.02c0,0,.06-.09.05-.1.01-.03,0-.06-.04-.06h-1.77Z" style="fill:#343746; stroke-width:0px;"/><path d="m201.86,279.59l.9.27.11.8-.37.12-.06.34v1.69s.84,0,.84,0l-.12-1.08.31-.09s.06-.05.06-.09h0l-.05-2.16-.84-.22v-.48s.78-.25.78-.25c.04-.01.06-.05.06-.08v-.52s.07-.12.07-.12c.02-.03,0-.06-.03-.06h-1.74s-.05.03-.03.05l.09.13v1.68s.02.08.06.09Z" style="fill:#202433; stroke-width:0px;"/><path d="m201.85,279.59l.9.27.11.8-.37.12-.06.34v1.69s.84,0,.84,0l-.12-1.08.31-.09s.06-.05.06-.09h0l-.05-2.16-.84-.22v-.48s.78-.25.78-.25c.04-.01.06-.05.06-.08v-.52s.07-.12.07-.12c.02-.03,0-.06-.03-.06h-1.74s-.05.03-.03.05l.09.13v1.68s.02.08.06.09Z" style="fill:url(#linear-gradient-22); stroke-width:0px;"/><g style="opacity:.24;"><path d="m210.28,279.89c0,.39-.03.77-.09,1.16-.04.19-.07.37-.11.56-.18.8-.52,1.57-.95,2.26-.29.46-.62.88-1,1.27-.45.46-.94.83-1.47,1.18,0,0,.06.1.06.1.61-.41,1.18-.85,1.68-1.39.43-.48.8-1,1.1-1.57.22-.41.41-.84.55-1.29.11-.36.2-.73.26-1.1.06-.38.09-.77.09-1.16,0-.04-.11-.09-.12-.02Z" style="fill:#fff; opacity:.06; stroke-width:0px;"/><path d="m210.23,279.94c0,.57-.06,1.14-.19,1.69-.08.36-.2.71-.33,1.06-.3.75-.72,1.45-1.25,2.07-.41.48-.87.91-1.38,1.28-.6.43-1.24.74-1.92,1.01,0,0,.04.11.04.11.43-.17.85-.35,1.25-.58.32-.18.62-.38.91-.61.65-.5,1.23-1.1,1.69-1.78.41-.62.75-1.28.97-1.99.11-.36.2-.73.26-1.1.08-.46.07-.72.09-1.18,0-.07-.12-.06-.13.02Z" style="fill:#fff; opacity:.06; stroke-width:0px;"/><path d="m200.58,272.08c.15-.04.31-.08.47-.12,0,0-.03-.12-.03-.12-.73.17-1.43.39-2.1.74-.18.1-.36.2-.54.31,0,0,0,0,0,0,.65-.39,1.46-.66,2.2-.82Z" style="fill:#fff; opacity:.06; stroke-width:0px;"/><path d="m208.69,284.31c-.35.42-.71.81-1.13,1.17-.41.35-.88.65-1.35.91-1.16.63-2.49.9-3.81.88-2.33-.04-4.56-1.23-5.96-3.07-.33-.43-.61-.89-.85-1.39-.12-.24-.23-.5-.32-.76-.16-.43-.26-.88-.29-1.34-.11-.46-.16-.92-.14-1.39,0-.29.03-.57.07-.86.03-.28.08-.56.15-.83.1-.44.26-.87.48-1.27.04-.11.08-.22.13-.33.28-.68.69-1.35,1.19-1.89,0,0,0,0,0,0-.67.7-1.2,1.53-1.57,2.42-.84,2.05-.76,4.41.2,6.41,1.18,2.44,3.6,4.13,6.3,4.39,1.32.12,2.66-.09,3.87-.62.5-.22.98-.49,1.43-.81.6-.43,1.1-.94,1.57-1.49.02-.03,0-.09.01-.12Z" style="fill:#fff; opacity:.06; stroke-width:0px;"/><path d="m206.14,279.12c-.02-.13-.04-.26-.08-.38-.06-.25-.15-.49-.27-.72-.17-.34-.39-.65-.66-.92-.3-.29-.64-.54-1.02-.72-.48-.23-.99-.34-1.52-.35-.59-.01-1.19.14-1.71.42.28-.13.59-.22.88-.28.07-.01.15-.03.22-.03.13-.02.25-.04.38-.05.43-.03.87.03,1.28.16.2.06.39.15.58.24.18.1.36.2.52.33.23.24.46.47.69.71l.14.2c.11.17.2.36.28.55.08.19.14.4.19.6.05.25.07.49.07.74-.01,0-.02.02-.02.03-.02.41-.06.76-.2,1.14-.07.2-.15.39-.26.57-.2.35-.47.68-.79.94-.63.51-1.4.81-2.21.82-.82.01-1.6-.26-2.25-.76-.65-.5-1.12-1.27-1.28-2.07-.07-.39-.09-.78-.04-1.17.03-.21.07-.42.14-.62.03-.08.06-.16.09-.24.04-.1.08-.19.13-.28.12-.3.3-.6.52-.85-.53.56-.87,1.3-.96,2.07-.12,1.08.26,2.18,1.02,2.95.74.74,1.78,1.13,2.82,1.05.85-.06,1.67-.43,2.27-1.03.36-.36.64-.79.82-1.26.1-.24.16-.49.2-.75.03-.19.03-.33.04-.51,0,0,0-.01,0-.02,0-.18-.01-.36-.04-.53Z" style="fill:#fff; opacity:.06; stroke-width:0px;"/><path d="m206.97,282.46c.16-.26.31-.54.43-.82.26-.62.38-1.28.39-1.96.02-1.36-.55-2.72-1.5-3.69-.52-.53-1.17-.94-1.87-1.21.31.14.62.32.88.49.22.15.43.32.61.51.12.11.24.22.36.34.43.46.77.97,1.02,1.54.26.6.39,1.26.4,1.91,0,.66-.11,1.3-.34,1.92-.12.33-.3.67-.5.97-.2.29-.42.55-.67.81-.02,0-.04,0-.06.01-.28.26-.56.51-.89.71-.26.16-.53.3-.82.41-.62.24-1.26.35-1.92.35-1.34,0-2.65-.6-3.58-1.56-.93-.96-1.47-2.3-1.43-3.63.04-1.34.58-2.66,1.56-3.58.49-.46,1.07-.83,1.7-1.08.36-.2.79-.34,1.22-.42-1.14.14-2.23.64-3.04,1.46-.96.97-1.55,2.29-1.55,3.67,0,1.36.52,2.72,1.5,3.69.45.45.97.81,1.54,1.08.6.28,1.28.43,1.94.46.67.03,1.33-.08,1.97-.3.34-.12.69-.29,1-.49.31-.2.58-.43.85-.67.02,0,.05-.03.06-.04.26-.28.52-.56.72-.89Z" style="fill:#fff; opacity:.06; stroke-width:0px;"/><path d="m210.26,278.21c-.07-.37-.17-.73-.3-1.08-.49-1.38-1.38-2.61-2.53-3.52-.87-.69-1.88-1.18-2.95-1.45-.74-.19-1.51-.26-2.28-.22,0,0-.02,0-.02,0,.04,0,.08,0,.13.01.16.02.31.05.46.08.08,0,.16,0,.23,0,.29.01.57.04.86.09l1.62.47c.5.19,1.01.48,1.44.79.74.53,1.39,1.16,1.92,1.9.31.43.6.93.8,1.42.19.7.39,1.41.58,2.11.05.38.07.76.06,1.14,0,.07.13.07.13-.01,0-.59-.04-1.16-.15-1.74Z" style="fill:#fff; opacity:.06; stroke-width:0px;"/><path d="m207.96,278.46c-.08-.32-.17-.63-.3-.94-.28-.66-.68-1.24-1.18-1.76-1.01-1.04-2.45-1.62-3.89-1.62-.83,0-1.66.19-2.41.55.38-.16.78-.27,1.16-.34.31-.06.62-.09.93-.07.13,0,.27,0,.4,0,.66.02,1.3.15,1.92.39.65.25,1.24.65,1.74,1.14.5.49.9,1.06,1.19,1.69.16.34.28.73.35,1.1.07.37.1.73.11,1.1-.02.02-.03.04-.03.06-.02.4-.04.8-.14,1.19-.08.31-.18.62-.31.92-.28.64-.68,1.21-1.18,1.7-1,.99-2.43,1.54-3.84,1.51-1.41-.02-2.81-.62-3.79-1.65-.97-1.03-1.56-2.42-1.52-3.84.02-.77.2-1.54.53-2.24.15-.44.39-.88.68-1.26-.83.99-1.33,2.25-1.32,3.55,0,.68.12,1.33.36,1.97.26.72.71,1.4,1.25,1.94,1.03,1.01,2.44,1.64,3.9,1.63.68,0,1.33-.13,1.97-.36.67-.24,1.28-.64,1.8-1.12.52-.49.94-1.06,1.24-1.7.17-.35.3-.74.38-1.11.08-.39.12-.78.13-1.18,0-.01,0-.03,0-.04-.01-.41-.04-.81-.13-1.21Z" style="fill:#fff; opacity:.06; stroke-width:0px;"/><path d="m203.53,283.96c.26-.06.51-.14.75-.24.53-.22,1-.54,1.41-.94.83-.81,1.3-1.97,1.3-3.13,0-.71-.18-1.43-.51-2.06.16.34.26.72.33,1.06.03.14.05.28.06.42,0,0,0,.01,0,.02,0,.11.02.21.03.32l-.43,2.14c-.12.27-.3.54-.48.77-.16.2-.33.38-.52.55-.38.34-.81.61-1.28.8-.24.1-.49.17-.74.23-.3.06-.6.08-.9.09,0-.01-.02-.02-.03-.02-.27-.01-.53-.03-.8-.08-.26-.05-.51-.12-.75-.21-.47-.18-.91-.46-1.29-.8-.81-.71-1.31-1.75-1.41-2.81-.1-1.05.19-2.1.81-2.95.63-.86,1.58-1.49,2.63-1.69.94-.18,1.91-.06,2.77.35.38.14.76.36,1.08.63-.81-.73-1.88-1.18-2.98-1.17-1.16.01-2.31.45-3.13,1.29-.81.83-1.31,1.95-1.3,3.12,0,.54.1,1.07.28,1.58.19.53.51,1.03.9,1.44.39.42.85.75,1.36,1,.28.13.59.24.89.31.31.07.62.09.94.11.01,0,.02,0,.03,0,.33-.01.65-.03.97-.1Z" style="fill:#fff; opacity:.06; stroke-width:0px;"/><path d="m210.77,278.59c-.04-.3-.09-.59-.17-.88-.14-.57-.34-1.12-.6-1.65-.55-1.12-1.35-2.13-2.35-2.89-.93-.71-1.99-1.24-3.13-1.51-1.19-.29-2.42-.29-3.62-.06-.12.02-.24.05-.36.08.06-.01.11-.02.17-.03.52-.1,1.05-.15,1.58-.09.07,0,.14.02.21.03.67,0,1.35.07,2.01.23,1.77.42,3.37,1.51,4.48,2.94.53.68.95,1.44,1.23,2.25.13.37.23.74.31,1.12.12.55.14,1.1.15,1.65-.03.03-.06.06-.06.09-.02.51-.05,1.01-.15,1.51-.08.39-.18.76-.31,1.13-.16.45-.36.89-.6,1.31-.33.45-.66.9-.98,1.35l-.39.41c-1.3,1.28-3.07,2.06-4.88,2.23-1.05.13-2.06-.14-3.03-.83-1.27-.02-2.33-.42-3.16-1.22-.28-.26-.54-.53-.79-.82-.55-.66-.99-1.4-1.31-2.19-.7-1.73-.8-3.74-.22-5.52.12-.36.26-.72.43-1.07.12-.35.27-.7.46-1.03-1.38,2.07-1.75,4.71-.99,7.09.62,1.95,1.97,3.63,3.74,4.65,1.12.65,2.38,1.02,3.67,1.09,2.29.12,4.56-.71,6.21-2.31.56-.55,1.04-1.17,1.43-1.85.3-.51.52-1.05.7-1.61.24-.73.32-1.48.35-2.25.03-.03.04-.1.04-.13,0-.41-.02-.82-.07-1.22Z" style="fill:#fff; opacity:.06; stroke-width:0px;"/><path d="m210.35,278.49c-.06-.37-.15-.74-.26-1.1-.25-.79-.62-1.54-1.1-2.21-.8-1.12-1.91-2.02-3.16-2.59-1.18-.53-2.5-.77-3.79-.67.09,0,.19,0,.28.02.15.02.3.04.45.08.95.02,1.9.22,2.78.58,1.66.69,3.1,1.97,3.92,3.58.25.49.46,1,.6,1.53.1.36.17.72.22,1.09.05.38.07.76.06,1.14,0,.05.12.06.12-.01,0-.49-.03-.96-.1-1.44Z" style="fill:#fff; opacity:.06; stroke-width:0px;"/></g><path d="m202.25,279.55c.38.09.67.25.64.36-.03.11-.35.13-.73.04-.38-.09-.67-.25-.64-.36.03-.11.35-.13.73-.04Z" style="fill:url(#radial-gradient-12); mix-blend-mode:screen; opacity:.5; stroke-width:0px;"/><path d="m202.95,280.19c.05.39,0,.71-.11.73-.11.01-.24-.29-.29-.68-.05-.39,0-.71.11-.73.11-.01.24.29.29.68Z" style="fill:url(#radial-gradient-13); mix-blend-mode:screen; opacity:.5; stroke-width:0px;"/><path d="m203.81,280.54c.04.81-.02,1.47-.13,1.47-.11,0-.24-.65-.27-1.46-.04-.81.02-1.47.13-1.47.11,0,.24.65.27,1.46Z" style="fill:url(#radial-gradient-14); mix-blend-mode:screen; opacity:.59; stroke-width:0px;"/><path d="m202.62,277.05c.81,0,1.47.11,1.46.22,0,.11-.66.2-1.47.19-.81,0-1.47-.11-1.46-.22,0-.11.66-.2,1.47-.19Z" style="fill:url(#radial-gradient-15); mix-blend-mode:screen; opacity:.59; stroke-width:0px;"/><path d="m202.9,282.97c.45,0,.81.1.81.22,0,.11-.37.2-.81.19-.45,0-.81-.1-.81-.22,0-.11.37-.2.81-.19Z" style="fill:url(#radial-gradient-16); mix-blend-mode:screen; opacity:.59; stroke-width:0px;"/></g></g></g></svg>