<?xml version="1.0" encoding="UTF-8"?><svg id="_Слой_2" xmlns="http://www.w3.org/2000/svg" width="70.1" height="80" viewBox="0 0 70.1 80"><g id="_Слой_1-2"><rect y="6.83" width="53.56" height="73.17" rx="5.93" ry="5.93" style="stroke-width:0px;"/><rect x="4.24" y="2.3" width="53.56" height="73.17" rx="5.93" ry="5.93" style="fill:#fff; stroke:#000; stroke-miterlimit:10; stroke-width:1.9px;"/><rect x="11.27" y="11.81" width="10.83" height="10.83" rx="1.9" ry="1.9" style="fill:#fff; stroke:#000; stroke-miterlimit:10;"/><rect x="11.27" y="26.3" width="10.83" height="10.83" rx="1.9" ry="1.9" style="fill:#fff; stroke:#000; stroke-miterlimit:10;"/><rect x="11.27" y="40.78" width="10.83" height="10.83" rx="1.9" ry="1.9" style="fill:#fff; stroke:#000; stroke-miterlimit:10;"/><rect x="11.27" y="55.27" width="10.83" height="10.83" rx="1.9" ry="1.9" style="fill:#fff; stroke:#000; stroke-miterlimit:10;"/><path d="m50.63,15.99h-18.15c-.53,0-.96-.43-.96-.96s.43-.96.96-.96h18.15c.53,0,.96.43.96.96s-.43.96-.96.96Z" style="stroke-width:0px;"/><path d="m50.63,20.08h-24.15c-.53,0-.96-.43-.96-.96s.43-.96.96-.96h24.15c.53,0,.96.43.96.96s-.43.96-.96.96Z" style="stroke-width:0px;"/><path d="m50.63,30.62h-18.15c-.53,0-.96-.43-.96-.96s.43-.96.96-.96h18.15c.53,0,.96.43.96.96s-.43.96-.96.96Z" style="stroke-width:0px;"/><path d="m50.63,34.72h-24.15c-.53,0-.96-.43-.96-.96s.43-.96.96-.96h24.15c.53,0,.96.43.96.96s-.43.96-.96.96Z" style="stroke-width:0px;"/><path d="m50.63,45.25h-18.15c-.53,0-.96-.43-.96-.96s.43-.96.96-.96h18.15c.53,0,.96.43.96.96s-.43.96-.96.96Z" style="stroke-width:0px;"/><path d="m50.63,49.35h-24.15c-.53,0-.96-.43-.96-.96s.43-.96.96-.96h24.15c.53,0,.96.43.96.96s-.43.96-.96.96Z" style="stroke-width:0px;"/><path d="m50.63,59.89h-18.15c-.53,0-.96-.43-.96-.96s.43-.96.96-.96h18.15c.53,0,.96.43.96.96s-.43.96-.96.96Z" style="stroke-width:0px;"/><path d="m50.63,63.98h-24.15c-.53,0-.96-.43-.96-.96s.43-.96.96-.96h24.15c.53,0,.96.43.96.96s-.43.96-.96.96Z" style="stroke-width:0px;"/><polygon points="17.92 21.15 12.82 16.05 13.82 15.05 17.92 19.15 26.78 10.29 27.78 11.28 17.92 21.15" style="stroke-width:0px;"/><polygon points="17.92 33.88 12.82 28.78 13.82 27.78 17.92 31.88 26.78 23.02 27.78 24.01 17.92 33.88" style="stroke-width:0px;"/><polygon points="22.5 47.64 26.97 45.67 24.43 43.12 22.5 47.64" style="stroke-width:0px;"/><path d="m69.51,6.44l-36.97,36.97-5.83-5.83L63.71.59c.79-.79,2.08-.79,2.86.01l2.95,3c.78.79.77,2.06-.01,2.84Z" style="stroke-width:0px;"/><polygon points="25.02 43.01 26.89 38.47 31.65 43.23 27.09 45.08 25.02 43.01" style="fill:#fff; stroke-width:0px;"/><path d="m27.06,39.35l3.7,3.7-3.55,1.44-1.61-1.61,1.46-3.54m-.35-1.77l-2.28,5.54,2.55,2.55,5.56-2.26-5.83-5.83h0Z" style="stroke-width:0px;"/></g></svg>