<?xml version="1.0" encoding="UTF-8"?><svg xmlns="http://www.w3.org/2000/svg" width="115.67" height="140.96" xmlns:xlink="http://www.w3.org/1999/xlink" viewBox="0 0 115.67 140.96"><defs><linearGradient id="_Безымянный_градиент_5" x1="399.43" y1="-673.09" x2="399.43" y2="-718.92" gradientTransform="translate(-442.49 741.26) rotate(6.96)" gradientUnits="userSpaceOnUse"><stop offset="0" stop-color="#d5dfdd"/><stop offset="1" stop-color="#f9f9f4"/></linearGradient><linearGradient id="_Безымянный_градиент_4" x1="398.73" y1="-678.65" x2="398.73" y2="-718.92" gradientTransform="translate(-442.49 741.26) rotate(6.96)" gradientUnits="userSpaceOnUse"><stop offset="0" stop-color="#b9bab7"/><stop offset="1" stop-color="#9f8790"/></linearGradient><linearGradient id="_Безымянный_градиент_4-2" x1="396.34" y1="-689.35" x2="396.34" y2="-707.21" xlink:href="#_Безымянный_градиент_4"/><linearGradient id="_Безымянный_градиент_4-3" x1="381.05" y1="-708.89" x2="381.05" y2="-715.34" xlink:href="#_Безымянный_градиент_4"/><linearGradient id="_Безымянный_градиент_4-4" x1="405.96" y1="-673.23" x2="405.96" y2="-711.16" xlink:href="#_Безымянный_градиент_4"/><linearGradient id="_Безымянный_градиент_4-5" x1="395.62" y1="-676.19" x2="395.62" y2="-706.09" xlink:href="#_Безымянный_градиент_4"/><linearGradient id="_Безымянный_градиент_4-6" x1="373.78" y1="-699.14" x2="396.02" y2="-699.14" xlink:href="#_Безымянный_градиент_4"/><linearGradient id="_Безымянный_градиент_5-2" x1="109.14" y1="-575.02" x2="109.14" y2="-620.85" gradientTransform="translate(427.72 -409.85) rotate(-155.79)" xlink:href="#_Безымянный_градиент_5"/><linearGradient id="_Безымянный_градиент_4-7" x1="108.44" y1="-580.58" x2="108.44" y2="-620.85" gradientTransform="translate(427.72 -409.85) rotate(-155.79)" xlink:href="#_Безымянный_градиент_4"/><linearGradient id="_Безымянный_градиент_4-8" x1="106.05" y1="-591.28" x2="106.05" y2="-609.14" gradientTransform="translate(427.72 -409.85) rotate(-155.79)" xlink:href="#_Безымянный_градиент_4"/><linearGradient id="_Безымянный_градиент_4-9" x1="90.76" y1="-610.82" x2="90.76" y2="-617.26" gradientTransform="translate(427.72 -409.85) rotate(-155.79)" xlink:href="#_Безымянный_градиент_4"/><linearGradient id="_Безымянный_градиент_4-10" x1="115.67" y1="-575.15" x2="115.67" y2="-613.09" gradientTransform="translate(427.72 -409.85) rotate(-155.79)" xlink:href="#_Безымянный_градиент_4"/><linearGradient id="_Безымянный_градиент_4-11" x1="105.34" y1="-578.11" x2="105.34" y2="-608.02" gradientTransform="translate(427.72 -409.85) rotate(-155.79)" xlink:href="#_Безымянный_градиент_4"/><linearGradient id="_Безымянный_градиент_4-12" x1="83.49" y1="-601.06" x2="105.73" y2="-601.06" gradientTransform="translate(427.72 -409.85) rotate(-155.79)" xlink:href="#_Безымянный_градиент_4"/><linearGradient id="_Безымянный_градиент_3" x1="-679.05" y1="290.87" x2="-679.05" y2="243.67" gradientTransform="translate(726.01 -216.84) rotate(-5.6)" gradientUnits="userSpaceOnUse"><stop offset="0" stop-color="#eef2f1"/><stop offset="1" stop-color="#fbfaf6"/></linearGradient><linearGradient id="_Безымянный_градиент_2" x1="-679.78" y1="285.15" x2="-679.78" y2="243.67" gradientTransform="translate(726.01 -216.84) rotate(-5.6)" gradientUnits="userSpaceOnUse"><stop offset="0" stop-color="#aeabab"/><stop offset="1" stop-color="#ae8c95"/></linearGradient><linearGradient id="_Безымянный_градиент_2-2" x1="-682.23" y1="274.13" x2="-682.23" y2="255.73" xlink:href="#_Безымянный_градиент_2"/><linearGradient id="_Безымянный_градиент_2-3" x1="-697.99" y1="254" x2="-697.99" y2="247.36" xlink:href="#_Безымянный_градиент_2"/><linearGradient id="_Безымянный_градиент_2-4" x1="-672.32" y1="290.74" x2="-672.32" y2="251.66" xlink:href="#_Безымянный_градиент_2"/><linearGradient id="_Безымянный_градиент_2-5" x1="-682.97" y1="287.69" x2="-682.97" y2="256.88" xlink:href="#_Безымянный_градиент_2"/><linearGradient id="_Безымянный_градиент_2-6" x1="-705.48" y1="264.05" x2="-682.56" y2="264.05" xlink:href="#_Безымянный_градиент_2"/><linearGradient id="_Безымянный_градиент_5-3" x1="-3094.63" y1="240.47" x2="-3094.63" y2="194.65" gradientTransform="translate(-176.27 -2982.57) rotate(-98.05) scale(1 -1)" xlink:href="#_Безымянный_градиент_5"/><linearGradient id="_Безымянный_градиент_4-13" x1="-3095.34" y1="234.91" x2="-3095.34" y2="194.65" gradientTransform="translate(-176.27 -2982.57) rotate(-98.05) scale(1 -1)" xlink:href="#_Безымянный_градиент_4"/><linearGradient id="_Безымянный_градиент_4-14" x1="-3097.72" y1="224.21" x2="-3097.72" y2="206.36" gradientTransform="translate(-176.27 -2982.57) rotate(-98.05) scale(1 -1)" xlink:href="#_Безымянный_градиент_4"/><linearGradient id="_Безымянный_градиент_4-15" x1="-3113.01" y1="204.68" x2="-3113.01" y2="198.23" gradientTransform="translate(-176.27 -2982.57) rotate(-98.05) scale(1 -1)" xlink:href="#_Безымянный_градиент_4"/><linearGradient id="_Безымянный_градиент_4-16" x1="-3088.1" y1="240.34" x2="-3088.1" y2="202.41" gradientTransform="translate(-176.27 -2982.57) rotate(-98.05) scale(1 -1)" xlink:href="#_Безымянный_градиент_4"/><linearGradient id="_Безымянный_градиент_4-17" x1="-3098.44" y1="237.38" x2="-3098.44" y2="207.48" gradientTransform="translate(-176.27 -2982.57) rotate(-98.05) scale(1 -1)" xlink:href="#_Безымянный_градиент_4"/><linearGradient id="_Безымянный_градиент_4-18" x1="-3120.29" y1="214.43" x2="-3098.04" y2="214.43" gradientTransform="translate(-176.27 -2982.57) rotate(-98.05) scale(1 -1)" xlink:href="#_Безымянный_градиент_4"/></defs><g style="isolation:isolate;"><g id="_Слой_2"><g id="_Слой_1-2"><polygon points="18.51 110.81 13.64 82.78 15.69 81.6 19.99 79.53 45.6 76.57 49.27 79.56 49.77 83.57 53.08 83.07 63.69 88.89 64.96 98.61 48.91 112.9 38.8 121.91 22.48 118.11 18.51 110.81" style="fill:url(#_Безымянный_градиент_5); stroke-width:0px;"/><polygon points="45.6 76.57 38.79 79.02 34.13 85.03 38.63 87.52 25.35 114.67 41.64 87.71 49.77 83.57 49.27 79.56 45.6 76.57" style="fill:url(#_Безымянный_градиент_4); mix-blend-mode:multiply; opacity:.82; stroke-width:0px;"/><polygon points="38.63 87.52 39.11 91.9 31.42 104.63 36.25 92.38 38.63 87.52" style="fill:url(#_Безымянный_градиент_4-2); mix-blend-mode:multiply; opacity:.5; stroke-width:0px;"/><polygon points="19.99 79.53 30.4 78.33 28.49 80.84 18.13 81.56 13.64 82.78 16.2 81.25 19.99 79.53" style="fill:url(#_Безымянный_градиент_4-3); mix-blend-mode:multiply; opacity:.5; stroke-width:0px;"/><polygon points="63.69 88.89 58.32 85.94 47.58 88.21 50.38 97.93 58.94 98.87 58.53 103.12 55.8 105.48 34.88 110.91 22.48 118.11 37.6 121.63 64.96 98.61 63.69 88.89" style="fill:url(#_Безымянный_градиент_4-4); mix-blend-mode:multiply; opacity:.5; stroke-width:0px;"/><polygon points="41.62 93.26 41.77 101.93 35.18 105.09 24.35 117.03 35.31 102.58 41.59 91.69 43.55 89.25 41.62 93.26" style="fill:url(#_Безымянный_градиент_4-5); mix-blend-mode:multiply; opacity:.5; stroke-width:0px;"/><polygon points="43.55 89.25 50.93 89.02 50.77 95.71 43.24 98.21 42.62 101.28 41.95 103.64 38.26 107.66 35.05 107.63 35 108.65 27.73 113.3 35.18 105.09 41.77 101.93 41.62 93.26 43.55 89.25" style="fill:#fff; stroke-width:0px;"/><polygon points="15.12 90.02 25.99 96.29 31.12 102.87 36.06 89.12 30.44 90.32 25.36 85.9 14.1 85.42 15.12 90.02" style="fill:url(#_Безымянный_градиент_4-6); mix-blend-mode:multiply; opacity:.5; stroke-width:0px;"/><polygon points="38.79 79.02 50.41 79.65 45.6 76.57 39.28 77.4 38.79 79.02" style="fill:#fff; stroke-width:0px;"/><polygon points="47.58 88.21 35.6 85.46 49.83 80.76 58.32 85.94 47.58 88.21" style="fill:#fff; stroke-width:0px;"/><polygon points="49.83 80.76 39.9 79.55 36.35 82.17 38.79 79.02 49.27 79.56 49.83 80.76" style="fill:#bebdc3; mix-blend-mode:multiply; opacity:.8; stroke-width:0px;"/><polygon points="34.13 85.03 29.73 79.91 24.62 81.11 34.13 85.03" style="fill:#fff; stroke-width:0px;"/><polygon points="105.47 85.12 101.81 113.34 99.5 113.85 94.78 114.56 69.45 109.78 66.83 105.84 67.54 101.87 64.24 101.37 55.83 92.66 57.5 83 77.06 74.11 89.39 68.5 103.85 76.97 105.47 85.12" style="fill:url(#_Безымянный_градиент_5-2); stroke-width:0px;"/><polygon points="69.45 109.78 76.68 109.47 82.92 105.11 79.35 101.4 100.09 79.41 76.54 100.32 67.54 101.87 66.83 105.84 69.45 109.78" style="fill:url(#_Безымянный_градиент_4-7); mix-blend-mode:multiply; opacity:.82; stroke-width:0px;"/><polygon points="79.35 101.4 80.19 97.07 91.32 87.2 83.07 97.46 79.35 101.4" style="fill:url(#_Безымянный_градиент_4-8); mix-blend-mode:multiply; opacity:.5; stroke-width:0px;"/><polygon points="94.78 114.56 84.49 112.62 87.06 110.78 97.16 113.16 101.81 113.34 98.91 114.04 94.78 114.56" style="fill:url(#_Безымянный_градиент_4-9); mix-blend-mode:multiply; opacity:.5; stroke-width:0px;"/><polygon points="55.83 92.66 60.08 97.07 71.02 98.08 71.22 87.97 63.33 84.54 64.98 80.6 68.29 79.16 89.87 80.17 103.85 76.97 90.45 69.13 57.5 83 55.83 92.66" style="fill:url(#_Безымянный_градиент_4-10); mix-blend-mode:multiply; opacity:.5; stroke-width:0px;"/><polygon points="78.2 95.03 80.63 86.7 87.86 85.64 101.75 77.45 86.99 88 77.76 96.54 75.17 98.29 78.2 95.03" style="fill:url(#_Безымянный_градиент_4-11); mix-blend-mode:multiply; opacity:.5; stroke-width:0px;"/><polygon points="75.17 98.29 68.05 96.32 70.18 89.98 78.12 89.83 79.62 87.07 80.97 85.02 85.68 82.28 88.74 83.25 89.09 82.29 97.4 80.01 87.86 85.64 80.63 86.7 78.2 95.03 75.17 98.29" style="fill:#fff; stroke-width:0px;"/><polygon points="102.54 105.98 94.03 96.77 91.08 88.96 82.29 100.63 88 101.15 91.55 106.88 102.16 110.68 102.54 105.98" style="fill:url(#_Безымянный_градиент_4-12); mix-blend-mode:multiply; opacity:.5; stroke-width:0px;"/><polygon points="76.68 109.47 65.77 105.42 69.45 109.78 75.73 110.87 76.68 109.47" style="fill:#fff; stroke-width:0px;"/><polygon points="71.02 98.08 81.63 104.26 66.65 104.53 60.08 97.07 71.02 98.08" style="fill:#fff; stroke-width:0px;"/><polygon points="66.65 104.53 75.77 108.63 79.94 107.18 76.68 109.47 66.83 105.84 66.65 104.53" style="fill:#bebdc3; mix-blend-mode:multiply; opacity:.8; stroke-width:0px;"/><polygon points="82.92 105.11 85.6 111.31 90.83 111.67 82.92 105.11" style="fill:#fff; stroke-width:0px;"/><polygon points="50.87 129.74 47.9 104.93 49.7 103.29 53.56 100.24 78.65 91.53 83.01 93.72 84.41 97.63 87.62 96.38 99.59 99.86 103.05 109.35 98.49 129.48 81.97 138.64 64.71 138.48 50.87 129.74" style="fill:url(#_Безымянный_градиент_3); stroke-width:0px;"/><polygon points="78.65 91.53 72.35 95.52 69.01 102.61 74.09 104.1 66.82 134.37 77.16 103.62 84.41 97.63 83.01 93.72 78.65 91.53" style="fill:url(#_Безымянный_градиент_2); mix-blend-mode:multiply; opacity:.82; stroke-width:0px;"/><polygon points="74.09 104.1 75.56 108.4 70.67 122.92 72.79 109.52 74.09 104.1" style="fill:url(#_Безымянный_градиент_2-2); mix-blend-mode:multiply; opacity:.5; stroke-width:0px;"/><polygon points="53.56 100.24 63.75 96.7 62.4 99.66 52.15 102.71 47.9 104.93 50.14 102.82 53.56 100.24" style="fill:url(#_Безымянный_градиент_2-3); mix-blend-mode:multiply; opacity:.5; stroke-width:0px;"/><polygon points="99.59 99.86 93.53 98.1 83.24 102.79 88.24 111.93 97.05 110.96 97.59 115.33 95.38 118.31 75.57 128.46 64.71 138.48 80.7 138.63 103.05 109.35 99.59 99.86" style="fill:url(#_Безымянный_градиент_2-4); mix-blend-mode:multiply; opacity:.5; stroke-width:0px;"/><polygon points="78.38 109.2 80.48 117.89 74.56 122.54 66.34 136.97 74.13 119.99 78 107.63 79.43 104.73 78.38 109.2" style="fill:url(#_Безымянный_градиент_2-5); mix-blend-mode:multiply; opacity:.5; stroke-width:0px;"/><polygon points="79.43 104.73 86.8 102.85 88.14 109.61 81.12 113.81 81.19 117.04 81.04 119.56 78.23 124.43 75 125.12 75.18 126.16 68.91 132.46 74.56 122.54 80.48 117.89 78.38 109.2 79.43 104.73" style="fill:#fff; stroke-width:0px;"/><polygon points="51.02 111.89 63.35 115.75 69.98 121.22 71.86 106.28 66.49 108.76 60.38 105.44 48.96 107.48 51.02 111.89" style="fill:url(#_Безымянный_градиент_2-6); mix-blend-mode:multiply; opacity:.5; stroke-width:0px;"/><polygon points="71.58 105.01 50.96 103.33 43.84 106.78 51.02 111.89 56 108.7 59.83 106.66 55.98 109.38 66.49 108.76 71.86 106.28 72.79 109.52 71.58 105.01" style="fill:#fff; stroke-width:0px;"/><polygon points="72.35 95.52 84.17 93.54 78.65 91.53 72.48 93.78 72.35 95.52" style="fill:#fff; stroke-width:0px;"/><polygon points="83.24 102.79 70.59 102.7 83.83 94.79 93.53 98.1 83.24 102.79" style="fill:#fff; stroke-width:0px;"/><polygon points="83.83 94.79 73.58 95.8 70.6 99.23 72.35 95.52 83.01 93.72 83.83 94.79" style="fill:#c8c7d0; mix-blend-mode:multiply; opacity:.8; stroke-width:0px;"/><polygon points="69.01 102.61 63.44 98.44 58.57 100.8 69.01 102.61" style="fill:#fff; stroke-width:0px;"/><polygon points="30.01 132.07 58.13 136.41 59.27 134.33 61.26 129.99 63.72 104.33 60.66 100.72 56.65 100.3 57.09 96.98 51.07 86.49 41.32 85.4 27.34 101.72 18.52 112 22.63 128.24 30.01 132.07" style="fill:url(#_Безымянный_градиент_5-3); stroke-width:0px;"/><polygon points="63.72 104.33 61.41 111.19 55.48 115.97 52.91 111.51 26.02 125.31 52.66 108.51 56.65 100.3 60.66 100.72 63.72 104.33" style="fill:url(#_Безымянный_градиент_4-13); mix-blend-mode:multiply; opacity:.82; stroke-width:0px;"/><polygon points="52.91 111.51 48.52 111.12 35.94 119.05 48.09 113.98 52.91 111.51" style="fill:url(#_Безымянный_градиент_4-14); mix-blend-mode:multiply; opacity:.5; stroke-width:0px;"/><polygon points="61.26 129.99 62.26 119.57 59.78 121.53 59.26 131.89 58.13 136.41 59.61 133.82 61.26 129.99" style="fill:url(#_Безымянный_градиент_4-15); mix-blend-mode:multiply; opacity:.5; stroke-width:0px;"/><polygon points="51.07 86.49 54.12 91.8 52.05 102.58 42.28 99.96 41.18 91.43 36.93 91.92 34.63 94.69 29.6 115.7 22.63 128.24 18.83 113.19 41.32 85.4 51.07 86.49" style="fill:url(#_Безымянный_градиент_4-16); mix-blend-mode:multiply; opacity:.5; stroke-width:0px;"/><polygon points="47.12 108.64 38.44 108.65 35.41 115.3 23.68 126.36 37.92 115.12 48.69 108.64 51.09 106.63 47.12 108.64" style="fill:url(#_Безымянный_градиент_4-17); mix-blend-mode:multiply; opacity:.5; stroke-width:0px;"/><polygon points="51.09 106.63 51.18 99.24 44.5 99.53 42.14 107.11 39.08 107.78 36.73 108.51 32.79 112.27 32.87 115.48 31.85 115.55 27.35 122.9 35.41 115.3 38.44 108.65 47.12 108.64 51.09 106.63" style="fill:#fff; stroke-width:0px;"/><polygon points="50.86 135.06 44.39 124.32 37.71 119.31 51.36 114.12 50.26 119.75 54.79 124.75 55.48 136 50.86 135.06" style="fill:url(#_Безымянный_градиент_4-18); mix-blend-mode:multiply; opacity:.5; stroke-width:0px;"/><polygon points="61.41 111.19 60.56 99.59 63.72 104.33 63.02 110.67 61.41 111.19" style="fill:#fff; stroke-width:0px;"/><polygon points="52.05 102.58 55.03 114.5 59.46 100.19 54.12 91.8 52.05 102.58" style="fill:#fff; stroke-width:0px;"/><polygon points="59.46 100.19 60.86 110.09 58.3 113.69 61.41 111.19 60.66 100.72 59.46 100.19" style="fill:#bebdc3; mix-blend-mode:multiply; opacity:.8; stroke-width:0px;"/><polygon points="55.48 115.97 60.69 120.27 59.59 125.4 55.48 115.97" style="fill:#fff; stroke-width:0px;"/><path d="m.02,5.23L0,4.89v-.09" style="fill:none; stroke-width:0px;"/><path d="m115.67,4.8c-.02-.3-.18-.7-.74-1.07C110.51.83,81.38-.09,57.76,0,33.26.11,4.97,1.34.74,3.81c-.48.28-.73.62-.74.99v.09l.02.34.02.13,20.76,123.77c.91,5.43,4.84,9.61,9.88,11.07.13.04.27.07.41.11.34.08.67.2,1.03.26.76.16,1.55.24,2.35.27.01.04.01.08.02.12l.56-.09h51.6c.97,0,1.91-.1,2.83-.28,6.09-.94,10.97-5.83,11.71-12.15l10.05-85.67.46-3.4h-.06l3.98-33.93.05-.64ZM51.99,1.05c24.7-.27,53.13.53,60.96,2.92.55.17.92.32,1.17.45l-112.28-.06c3.99-1.46,21.53-2.99,50.15-3.31Zm-11.62,38.32h-20.68c-.73-4.62-1.42-8.99-2.05-12.92-2.16-13.51-2.97-18.59-3.42-20.5h23.55l2.6,33.42Zm-1.45-33.42h21.37l.77,33.42h-19.54l-2.6-33.42Zm2.12,42.07l2.8,36.08h-17.09c-.58-3.66-1.16-7.36-1.74-11.07-1.34-8.51-2.69-17.03-3.95-25.01h19.98Zm1.15,0h19.07l.83,36.08h-17.09l-2.81-36.08ZM61.44,5.95h21.99l-1.11,33.42h-20.11l-.77-33.42Zm21.74,42.07h13.77l-3.09,36.08h-11.88l1.2-36.08Zm.29-8.65l1.11-33.42h15.96l-2.86,33.42h-14.21ZM1.31,5.95h11.82c.46,2.42,2.57,15.57,5.4,33.42H6.91L1.31,5.95Zm7.05,42.07h11.54c1.76,11.15,3.72,23.56,5.68,36.08h-11.17l-6.05-36.08Zm12.76,76.08l-5.26-31.34h11.08c1.7,10.84,3.38,21.54,4.91,31.34h-10.73Zm11.9,0c-1.33-8.46-3.05-19.46-4.92-31.34h16.42l2.43,31.34h-13.93Zm15.08,0l-2.43-31.34h16.62l.72,31.34h-14.91Zm14.31-76.08h19.62l-1.2,36.08h-17.59l-.83-36.08Zm17.09,76.08h-15.34l-.72-31.34h17.11l-1.05,31.34Zm1.15,0l1.05-31.34h11.42l-2.68,31.34h-9.79Zm19.89,0h-8.94l2.68-31.34h9.94l-3.68,31.34Zm4.7-40h-10.22l3.08-36.08h11.37l-4.23,36.08Zm5.25-44.73h-11.65l2.85-33.42h12.72l-3.92,33.42Z" style="fill:#333; stroke-width:0px;"/></g></g></g></svg>