<?xml version="1.0" encoding="UTF-8"?><svg xmlns="http://www.w3.org/2000/svg" width="115.67" height="140.96" xmlns:xlink="http://www.w3.org/1999/xlink" viewBox="0 0 115.67 140.96"><defs><linearGradient id="_Безымянный_градиент_5" x1="-2572.91" y1="693.6" x2="-2572.91" y2="647.77" gradientTransform="translate(345.45 -2529.44) rotate(-98.05) scale(1 -1)" gradientUnits="userSpaceOnUse"><stop offset="0" stop-color="#d5dfdd"/><stop offset="1" stop-color="#f9f9f4"/></linearGradient><linearGradient id="_Безымянный_градиент_4" x1="-2573.61" y1="688.04" x2="-2573.61" y2="647.77" gradientTransform="translate(345.45 -2529.44) rotate(-98.05) scale(1 -1)" gradientUnits="userSpaceOnUse"><stop offset="0" stop-color="#b9bab7"/><stop offset="1" stop-color="#9f8790"/></linearGradient><linearGradient id="_Безымянный_градиент_4-2" x1="-2576" y1="677.34" x2="-2576" y2="659.48" xlink:href="#_Безымянный_градиент_4"/><linearGradient id="_Безымянный_градиент_4-3" x1="-2591.29" y1="657.8" x2="-2591.29" y2="651.35" xlink:href="#_Безымянный_градиент_4"/><linearGradient id="_Безымянный_градиент_4-4" x1="-2566.38" y1="693.47" x2="-2566.38" y2="655.53" xlink:href="#_Безымянный_градиент_4"/><linearGradient id="_Безымянный_градиент_4-5" x1="-2576.72" y1="690.51" x2="-2576.72" y2="660.6" xlink:href="#_Безымянный_градиент_4"/><linearGradient id="_Безымянный_градиент_4-6" x1="-2598.56" y1="667.55" x2="-2576.32" y2="667.55" xlink:href="#_Безымянный_градиент_4"/></defs><g style="isolation:isolate;"><g id="_Слой_2"><g id="_Слой_1-2"><polygon points="30.01 132.07 58.13 136.41 59.27 134.33 61.26 129.99 63.72 104.33 60.66 100.72 56.65 100.3 57.09 96.98 51.07 86.49 41.32 85.4 27.34 101.72 18.52 112 22.63 128.24 30.01 132.07" style="fill:url(#_Безымянный_градиент_5); stroke-width:0px;"/><polygon points="63.72 104.33 61.41 111.19 55.48 115.97 52.91 111.51 26.02 125.31 52.66 108.51 56.65 100.3 60.66 100.72 63.72 104.33" style="fill:url(#_Безымянный_градиент_4); mix-blend-mode:multiply; opacity:.82; stroke-width:0px;"/><polygon points="52.91 111.51 48.52 111.12 35.94 119.05 48.09 113.98 52.91 111.51" style="fill:url(#_Безымянный_градиент_4-2); mix-blend-mode:multiply; opacity:.5; stroke-width:0px;"/><polygon points="61.26 129.99 62.26 119.57 59.78 121.53 59.26 131.89 58.13 136.41 59.61 133.82 61.26 129.99" style="fill:url(#_Безымянный_градиент_4-3); mix-blend-mode:multiply; opacity:.5; stroke-width:0px;"/><polygon points="51.07 86.49 54.12 91.8 52.05 102.58 42.28 99.96 41.18 91.43 36.93 91.92 34.63 94.69 29.6 115.7 22.63 128.24 18.83 113.19 41.32 85.4 51.07 86.49" style="fill:url(#_Безымянный_градиент_4-4); mix-blend-mode:multiply; opacity:.5; stroke-width:0px;"/><polygon points="47.12 108.64 38.44 108.65 35.41 115.3 23.68 126.36 37.92 115.12 48.69 108.64 51.09 106.63 47.12 108.64" style="fill:url(#_Безымянный_градиент_4-5); mix-blend-mode:multiply; opacity:.5; stroke-width:0px;"/><polygon points="51.09 106.63 51.18 99.24 44.5 99.53 42.14 107.11 39.08 107.78 36.73 108.51 32.79 112.27 32.87 115.48 31.85 115.55 27.35 122.9 35.41 115.3 38.44 108.65 47.12 108.64 51.09 106.63" style="fill:#fff; stroke-width:0px;"/><polygon points="50.86 135.06 44.39 124.32 37.71 119.31 51.36 114.12 50.26 119.75 54.79 124.75 55.48 136 50.86 135.06" style="fill:url(#_Безымянный_градиент_4-6); mix-blend-mode:multiply; opacity:.5; stroke-width:0px;"/><polygon points="61.41 111.19 60.56 99.59 63.72 104.33 63.02 110.67 61.41 111.19" style="fill:#fff; stroke-width:0px;"/><polygon points="52.05 102.58 55.03 114.5 59.46 100.19 54.12 91.8 52.05 102.58" style="fill:#fff; stroke-width:0px;"/><polygon points="59.46 100.19 60.86 110.09 58.3 113.69 61.41 111.19 60.66 100.72 59.46 100.19" style="fill:#bebdc3; mix-blend-mode:multiply; opacity:.8; stroke-width:0px;"/><polygon points="55.48 115.97 60.69 120.27 59.59 125.4 55.48 115.97" style="fill:#fff; stroke-width:0px;"/><path d="m.02,5.23L0,4.89v-.09" style="fill:none; stroke-width:0px;"/><path d="m115.67,4.8c-.02-.3-.18-.7-.74-1.07C110.51.83,81.38-.09,57.76,0,33.26.11,4.97,1.34.74,3.81c-.48.28-.73.62-.74.99v.09l.02.34.02.13,20.76,123.77c.91,5.43,4.84,9.61,9.88,11.07.13.04.27.07.41.11.34.08.67.2,1.03.26.76.16,1.55.24,2.35.27.01.04.01.08.02.12l.56-.09h51.6c.97,0,1.91-.1,2.83-.28,6.09-.94,10.97-5.83,11.71-12.15l10.05-85.67.46-3.4h-.06l3.98-33.93.05-.64ZM51.99,1.05c24.7-.27,53.13.53,60.96,2.92.55.17.92.32,1.17.45l-112.28-.06c3.99-1.46,21.53-2.99,50.15-3.31Zm-11.62,38.32h-20.68c-.73-4.62-1.42-8.99-2.05-12.92-2.16-13.51-2.97-18.59-3.42-20.5h23.55l2.6,33.42Zm-1.45-33.42h21.37l.77,33.42h-19.54l-2.6-33.42Zm2.12,42.07l2.8,36.08h-17.09c-.58-3.66-1.16-7.36-1.74-11.07-1.34-8.51-2.69-17.03-3.95-25.01h19.98Zm1.15,0h19.07l.83,36.08h-17.09l-2.81-36.08ZM61.44,5.95h21.99l-1.11,33.42h-20.11l-.77-33.42Zm21.74,42.07h13.77l-3.09,36.08h-11.88l1.2-36.08Zm.29-8.65l1.11-33.42h15.96l-2.86,33.42h-14.21ZM1.31,5.95h11.82c.46,2.42,2.57,15.57,5.4,33.42H6.91L1.31,5.95Zm7.05,42.07h11.54c1.76,11.15,3.72,23.56,5.68,36.08h-11.17l-6.05-36.08Zm12.76,76.08l-5.26-31.34h11.08c1.7,10.84,3.38,21.54,4.91,31.34h-10.73Zm11.9,0c-1.33-8.46-3.05-19.46-4.92-31.34h16.42l2.43,31.34h-13.93Zm15.08,0l-2.43-31.34h16.62l.72,31.34h-14.91Zm14.31-76.08h19.62l-1.2,36.08h-17.59l-.83-36.08Zm17.09,76.08h-15.34l-.72-31.34h17.11l-1.05,31.34Zm1.15,0l1.05-31.34h11.42l-2.68,31.34h-9.79Zm19.89,0h-8.94l2.68-31.34h9.94l-3.68,31.34Zm4.7-40h-10.22l3.08-36.08h11.37l-4.23,36.08Zm5.25-44.73h-11.65l2.85-33.42h12.72l-3.92,33.42Z" style="fill:#333; stroke-width:0px;"/></g></g></g></svg>