<?xml version="1.0" encoding="UTF-8"?><svg xmlns="http://www.w3.org/2000/svg" width="115.67" height="140.96" xmlns:xlink="http://www.w3.org/1999/xlink" viewBox="0 0 115.67 140.96"><defs><linearGradient id="_Безымянный_градиент_3" x1="-677.5" y1="259.33" x2="-677.5" y2="212.12" gradientTransform="translate(727.55 -185.3) rotate(-5.6)" gradientUnits="userSpaceOnUse"><stop offset="0" stop-color="#eef2f1"/><stop offset="1" stop-color="#fbfaf6"/></linearGradient><linearGradient id="_Безымянный_градиент_2" x1="-678.22" y1="253.6" x2="-678.22" y2="212.12" gradientTransform="translate(727.55 -185.3) rotate(-5.6)" gradientUnits="userSpaceOnUse"><stop offset="0" stop-color="#aeabab"/><stop offset="1" stop-color="#ae8c95"/></linearGradient><linearGradient id="_Безымянный_градиент_2-2" x1="-680.68" y1="242.58" x2="-680.68" y2="224.18" xlink:href="#_Безымянный_градиент_2"/><linearGradient id="_Безымянный_градиент_2-3" x1="-696.44" y1="222.46" x2="-696.44" y2="215.81" xlink:href="#_Безымянный_градиент_2"/><linearGradient id="_Безымянный_градиент_2-4" x1="-670.77" y1="259.19" x2="-670.77" y2="220.11" xlink:href="#_Безымянный_градиент_2"/><linearGradient id="_Безымянный_градиент_2-5" x1="-681.42" y1="256.15" x2="-681.42" y2="225.34" xlink:href="#_Безымянный_градиент_2"/><linearGradient id="_Безымянный_градиент_2-6" x1="-703.93" y1="232.5" x2="-681.01" y2="232.5" xlink:href="#_Безымянный_градиент_2"/><linearGradient id="_Безымянный_градиент_5" x1="-2726.42" y1="560.27" x2="-2726.42" y2="514.45" gradientTransform="translate(191.94 -2662.77) rotate(-98.05) scale(1 -1)" gradientUnits="userSpaceOnUse"><stop offset="0" stop-color="#d5dfdd"/><stop offset="1" stop-color="#f9f9f4"/></linearGradient><linearGradient id="_Безымянный_градиент_4" x1="-2727.12" y1="554.71" x2="-2727.12" y2="514.45" gradientTransform="translate(191.94 -2662.77) rotate(-98.05) scale(1 -1)" gradientUnits="userSpaceOnUse"><stop offset="0" stop-color="#b9bab7"/><stop offset="1" stop-color="#9f8790"/></linearGradient><linearGradient id="_Безымянный_градиент_4-2" x1="-2729.51" y1="544.01" x2="-2729.51" y2="526.15" xlink:href="#_Безымянный_градиент_4"/><linearGradient id="_Безымянный_градиент_4-3" x1="-2744.8" y1="524.48" x2="-2744.8" y2="518.03" xlink:href="#_Безымянный_градиент_4"/><linearGradient id="_Безымянный_градиент_4-4" x1="-2719.89" y1="560.14" x2="-2719.89" y2="522.2" xlink:href="#_Безымянный_градиент_4"/><linearGradient id="_Безымянный_градиент_4-5" x1="-2730.22" y1="557.18" x2="-2730.22" y2="527.27" xlink:href="#_Безымянный_градиент_4"/><linearGradient id="_Безымянный_градиент_4-6" x1="-2752.07" y1="534.23" x2="-2729.83" y2="534.23" xlink:href="#_Безымянный_градиент_4"/></defs><g style="isolation:isolate;"><g id="_Слой_2"><g id="_Слой_1-2"><polygon points="50.87 129.74 47.9 104.93 49.7 103.29 53.56 100.24 78.65 91.53 83.01 93.72 84.41 97.63 87.62 96.38 99.59 99.86 103.05 109.35 98.49 129.48 81.97 138.64 64.71 138.48 50.87 129.74" style="fill:url(#_Безымянный_градиент_3); stroke-width:0px;"/><polygon points="78.65 91.53 72.35 95.52 69.01 102.61 74.09 104.1 66.82 134.37 77.16 103.62 84.41 97.63 83.01 93.72 78.65 91.53" style="fill:url(#_Безымянный_градиент_2); mix-blend-mode:multiply; opacity:.82; stroke-width:0px;"/><polygon points="74.09 104.1 75.56 108.4 70.67 122.92 72.79 109.52 74.09 104.1" style="fill:url(#_Безымянный_градиент_2-2); mix-blend-mode:multiply; opacity:.5; stroke-width:0px;"/><polygon points="53.56 100.24 63.75 96.7 62.4 99.66 52.15 102.71 47.9 104.93 50.14 102.82 53.56 100.24" style="fill:url(#_Безымянный_градиент_2-3); mix-blend-mode:multiply; opacity:.5; stroke-width:0px;"/><polygon points="99.59 99.86 93.53 98.1 83.24 102.79 88.24 111.93 97.05 110.96 97.59 115.33 95.38 118.31 75.57 128.46 64.71 138.48 80.7 138.63 103.05 109.35 99.59 99.86" style="fill:url(#_Безымянный_градиент_2-4); mix-blend-mode:multiply; opacity:.5; stroke-width:0px;"/><polygon points="78.38 109.2 80.48 117.89 74.56 122.54 66.34 136.97 74.13 119.99 78 107.63 79.43 104.73 78.38 109.2" style="fill:url(#_Безымянный_градиент_2-5); mix-blend-mode:multiply; opacity:.5; stroke-width:0px;"/><polygon points="79.43 104.73 86.8 102.85 88.14 109.61 81.12 113.81 81.19 117.04 81.04 119.56 78.23 124.43 75 125.12 75.18 126.16 68.91 132.46 74.56 122.54 80.48 117.89 78.38 109.2 79.43 104.73" style="fill:#fff; stroke-width:0px;"/><polygon points="51.02 111.89 63.35 115.75 69.98 121.22 71.86 106.28 66.49 108.76 60.38 105.44 48.96 107.48 51.02 111.89" style="fill:url(#_Безымянный_градиент_2-6); mix-blend-mode:multiply; opacity:.5; stroke-width:0px;"/><polygon points="71.58 105.01 50.96 103.33 43.84 106.78 51.02 111.89 56 108.7 59.83 106.66 55.98 109.38 66.49 108.76 71.86 106.28 72.79 109.52 71.58 105.01" style="fill:#fff; stroke-width:0px;"/><polygon points="72.35 95.52 84.17 93.54 78.65 91.53 72.48 93.78 72.35 95.52" style="fill:#fff; stroke-width:0px;"/><polygon points="83.24 102.79 70.59 102.7 83.83 94.79 93.53 98.1 83.24 102.79" style="fill:#fff; stroke-width:0px;"/><polygon points="83.83 94.79 73.58 95.8 70.6 99.23 72.35 95.52 83.01 93.72 83.83 94.79" style="fill:#c8c7d0; mix-blend-mode:multiply; opacity:.8; stroke-width:0px;"/><polygon points="69.01 102.61 63.44 98.44 58.57 100.8 69.01 102.61" style="fill:#fff; stroke-width:0px;"/><polygon points="30.01 132.07 58.13 136.41 59.27 134.33 61.26 129.99 63.72 104.33 60.66 100.72 56.65 100.3 57.09 96.98 51.07 86.49 41.32 85.4 27.34 101.72 18.52 112 22.63 128.24 30.01 132.07" style="fill:url(#_Безымянный_градиент_5); stroke-width:0px;"/><polygon points="63.72 104.33 61.41 111.19 55.48 115.97 52.91 111.51 26.02 125.31 52.66 108.51 56.65 100.3 60.66 100.72 63.72 104.33" style="fill:url(#_Безымянный_градиент_4); mix-blend-mode:multiply; opacity:.82; stroke-width:0px;"/><polygon points="52.91 111.51 48.52 111.12 35.94 119.05 48.09 113.98 52.91 111.51" style="fill:url(#_Безымянный_градиент_4-2); mix-blend-mode:multiply; opacity:.5; stroke-width:0px;"/><polygon points="61.26 129.99 62.26 119.57 59.78 121.53 59.26 131.89 58.13 136.41 59.61 133.82 61.26 129.99" style="fill:url(#_Безымянный_градиент_4-3); mix-blend-mode:multiply; opacity:.5; stroke-width:0px;"/><polygon points="51.07 86.49 54.12 91.8 52.05 102.58 42.28 99.96 41.18 91.43 36.93 91.92 34.63 94.69 29.6 115.7 22.63 128.24 18.83 113.19 41.32 85.4 51.07 86.49" style="fill:url(#_Безымянный_градиент_4-4); mix-blend-mode:multiply; opacity:.5; stroke-width:0px;"/><polygon points="47.12 108.64 38.44 108.65 35.41 115.3 23.68 126.36 37.92 115.12 48.69 108.64 51.09 106.63 47.12 108.64" style="fill:url(#_Безымянный_градиент_4-5); mix-blend-mode:multiply; opacity:.5; stroke-width:0px;"/><polygon points="51.09 106.63 51.18 99.24 44.5 99.53 42.14 107.11 39.08 107.78 36.73 108.51 32.79 112.27 32.87 115.48 31.85 115.55 27.35 122.9 35.41 115.3 38.44 108.65 47.12 108.64 51.09 106.63" style="fill:#fff; stroke-width:0px;"/><polygon points="50.86 135.06 44.39 124.32 37.71 119.31 51.36 114.12 50.26 119.75 54.79 124.75 55.48 136 50.86 135.06" style="fill:url(#_Безымянный_градиент_4-6); mix-blend-mode:multiply; opacity:.5; stroke-width:0px;"/><polygon points="61.41 111.19 60.56 99.59 63.72 104.33 63.02 110.67 61.41 111.19" style="fill:#fff; stroke-width:0px;"/><polygon points="52.05 102.58 55.03 114.5 59.46 100.19 54.12 91.8 52.05 102.58" style="fill:#fff; stroke-width:0px;"/><polygon points="59.46 100.19 60.86 110.09 58.3 113.69 61.41 111.19 60.66 100.72 59.46 100.19" style="fill:#bebdc3; mix-blend-mode:multiply; opacity:.8; stroke-width:0px;"/><polygon points="55.48 115.97 60.69 120.27 59.59 125.4 55.48 115.97" style="fill:#fff; stroke-width:0px;"/><path d="m.02,5.23L0,4.89v-.09" style="fill:none; stroke-width:0px;"/><path d="m115.67,4.8c-.02-.3-.18-.7-.74-1.07C110.51.83,81.38-.09,57.76,0,33.26.11,4.97,1.34.74,3.81c-.48.28-.73.62-.74.99v.09l.02.34.02.13,20.76,123.77c.91,5.43,4.84,9.61,9.88,11.07.13.04.27.07.41.11.34.08.67.2,1.03.26.76.16,1.55.24,2.35.27.01.04.01.08.02.12l.56-.09h51.6c.97,0,1.91-.1,2.83-.28,6.09-.94,10.97-5.83,11.71-12.15l10.05-85.67.46-3.4h-.06l3.98-33.93.05-.64ZM51.99,1.05c24.7-.27,53.13.53,60.96,2.92.55.17.92.32,1.17.45l-112.28-.06c3.99-1.46,21.53-2.99,50.15-3.31Zm-11.62,38.32h-20.68c-.73-4.62-1.42-8.99-2.05-12.92-2.16-13.51-2.97-18.59-3.42-20.5h23.55l2.6,33.42Zm-1.45-33.42h21.37l.77,33.42h-19.54l-2.6-33.42Zm2.12,42.07l2.8,36.08h-17.09c-.58-3.66-1.16-7.36-1.74-11.07-1.34-8.51-2.69-17.03-3.95-25.01h19.98Zm1.15,0h19.07l.83,36.08h-17.09l-2.81-36.08ZM61.44,5.95h21.99l-1.11,33.42h-20.11l-.77-33.42Zm21.74,42.07h13.77l-3.09,36.08h-11.88l1.2-36.08Zm.29-8.65l1.11-33.42h15.96l-2.86,33.42h-14.21ZM1.31,5.95h11.82c.46,2.42,2.57,15.57,5.4,33.42H6.91L1.31,5.95Zm7.05,42.07h11.54c1.76,11.15,3.72,23.56,5.68,36.08h-11.17l-6.05-36.08Zm12.76,76.08l-5.26-31.34h11.08c1.7,10.84,3.38,21.54,4.91,31.34h-10.73Zm11.9,0c-1.33-8.46-3.05-19.46-4.92-31.34h16.42l2.43,31.34h-13.93Zm15.08,0l-2.43-31.34h16.62l.72,31.34h-14.91Zm14.31-76.08h19.62l-1.2,36.08h-17.59l-.83-36.08Zm17.09,76.08h-15.34l-.72-31.34h17.11l-1.05,31.34Zm1.15,0l1.05-31.34h11.42l-2.68,31.34h-9.79Zm19.89,0h-8.94l2.68-31.34h9.94l-3.68,31.34Zm4.7-40h-10.22l3.08-36.08h11.37l-4.23,36.08Zm5.25-44.73h-11.65l2.85-33.42h12.72l-3.92,33.42Z" style="fill:#333; stroke-width:0px;"/></g></g></g></svg>